<?xml version="1.0" encoding="utf-8"?>
<!DOCTYPE svg PUBLIC "-//W3C//DTD SVG 1.1//EN" "http://www.w3.org/Graphics/SVG/1.1/DTD/svg11.dtd">
<svg version="1.1" xmlns="http://www.w3.org/2000/svg" xmlns:xlink="http://www.w3.org/1999/xlink" x="0px" y="0px"
	 width="41.666px" height="41.667px" viewBox="0 0 41.666 41.667" enable-background="new 0 0 41.666 41.667" xml:space="preserve">
<g id="bird">
	<path id="path5" fill="#5AA8DF" d="M37.062,11.583c-1.194,0.529-2.478,0.887-3.825,1.049
		c1.375-0.825,2.431-2.129,2.929-3.685c-1.287,0.763-2.712,1.317-4.229,1.616c-1.215-1.295-2.945-2.104-4.86-2.104
		c-3.678,0-6.659,2.981-6.659,6.659c0,0.521,0.059,1.03,0.173,1.518c-5.534-0.278-10.441-2.93-13.725-6.958
		c-0.574,0.983-0.902,2.127-0.902,3.348c0,2.311,1.176,4.349,2.963,5.542c-1.092-0.034-2.118-0.334-3.017-0.832
		c-0.001,0.027-0.001,0.056-0.001,0.083c0,3.228,2.296,5.918,5.342,6.529c-0.559,0.152-1.146,0.234-1.754,0.234
		c-0.43,0-0.847-0.041-1.253-0.119c0.848,2.644,3.307,4.569,6.221,4.623c-2.278,1.786-5.15,2.852-8.27,2.852
		c-0.538,0-1.067-0.03-1.59-0.095c2.947,1.891,6.447,2.994,10.208,2.994c12.248,0,18.946-10.147,18.946-18.947
		c0-0.288-0.006-0.576-0.02-0.861C35.041,14.09,36.169,12.917,37.062,11.583L37.062,11.583z"/>
</g>
</svg>
