<?xml version="1.0" encoding="utf-8"?>
<!-- Generator: Adobe Illustrator 18.0.0, SVG Export Plug-In . SVG Version: 6.00 Build 0)  -->
<!DOCTYPE svg PUBLIC "-//W3C//DTD SVG 1.1//EN" "http://www.w3.org/Graphics/SVG/1.1/DTD/svg11.dtd">
<svg version="1.1" id="Layer_1" xmlns="http://www.w3.org/2000/svg" xmlns:xlink="http://www.w3.org/1999/xlink" x="0px" y="0px"
	 viewBox="0 0 700 700" enable-background="new 0 0 700 700" xml:space="preserve">
<g id="Layer_1_1_" display="none">
	<g display="inline">
		<path d="M305.4,688.2c-10.5-9.3-16.7-18.6-21.1-28.5c-11.8-26.6-18-54.5-19.8-83.6c-1.9-26-2.5-52.7,0-78.7
			c2.5-25.4,6.2-50.8,12.4-76.2c3.1-12.4,5-25.4,8.1-37.8c12.4-50.8,28.5-99.7,45.2-149.3c14.9-43.4,33.5-84.9,51.4-127
			c9.9-24.2,21.7-47.7,32.8-71.9c2.5-5.6,5.6-11.2,5-18.6c-7.4-0.6-12.4,3.1-16.7,6.8c-11.2,9.3-22.3,18-32.2,28.5
			c-16.1,17.3-31.6,35.3-45.8,54.5c-32.8,41.5-61.9,86.1-92.3,129.5c-16.1,22.9-29.7,47.7-44.6,71.9c-2.5,4.3-5.6,8.1-9.3,11.8
			c-1.9,1.9-5,3.1-8.1,3.7c-8.1,1.2-14.9-5-13.6-13c0.6-7.4,2.5-14.9,4.3-21.7c8.7-25.4,17.3-50.8,26-75.6
			c8.7-24.2,17.3-48.3,25.4-73.1c1.9-4.3,4.3-9.3,2.5-14.2c-3.1-1.9-5-0.6-6.8,1.2c-11.2,11.2-21.7,23.5-29.7,37.2
			c-16.7,27.9-32.8,56.4-48.9,84.9C109,285,93.5,322.7,76.8,360.5c-3.7,8.1-6.2,16.7-9.3,24.8c-2.5,5.6-5.6,7.4-11.8,6.8
			c-4.3-0.6-7.4-3.7-6.2-8.1c2.5-9.3,4.3-18.6,7.4-27.3c8.1-22.3,16.7-44.6,24.8-66.9c9.9-26.6,20.4-52.7,30.4-79.3
			c6.8-17.3,12.4-35.3,18.6-53.3c1.2-3.7,1.9-7.4,3.7-12.4c-7.4,1.9-11.2,6.8-16.1,9.9c-5,3.7-9.3,7.4-14.2,10.5
			c-2.5,1.2-5.6,1.9-8.7,1.2c-1.9-0.6-3.7-3.1-4.3-5c-0.6-1.2,1.2-4.3,2.5-5c22.3-10.5,36.5-30.4,53.9-46.5
			c6.8-6.2,6.8-6.8,16.1,0.6c-0.6,9.9-5,19.8-8.7,29.1c-8.7,22.3-16.7,44.6-24.8,66.9c-0.6,1.9-0.6,3.7-1.9,7.4
			c5.6-3.7,8.1-6.8,10.5-11.2c8.1-13,16.1-26,24.2-39c10.5-18,23.5-34.1,38.4-48.9c4.3-4.3,9.9-8.1,15.5-11.8c3.7-2.5,8.7-2.5,13,0
			c3.7,1.9,5.6,4.3,5.6,8.1c0,3.7,0,6.8-1.2,10.5c-3.1,11.2-6.2,21.7-9.9,32.8c-11.2,32.2-22.9,64.4-34.7,96.6
			c-3.1,9.3-5.6,19.2-6.2,29.1c1.9-1.9,3.1-4.3,5-6.2c17.3-26.6,34.7-52.7,52.7-79.3c9.9-14.9,21.1-28.5,31.6-42.7
			c12.4-16.7,23.5-34.1,37.2-50.2c14.9-18,28.5-36.5,44.6-53.3c15.5-15.5,31-30.4,50.2-40.9c5-2.5,9.9-4.3,14.9-5.6
			c2.5-0.6,6.2-0.6,8.7,0.6c6.8,1.9,9.9,6.8,8.1,13.6c-2.5,9.3-5.6,18-9.3,26.6C415,70,403.3,96.6,391.5,123.3
			c-9.9,22.3-19.8,44.6-28.5,66.9c-12.4,32.2-23.5,65-34.7,97.9c-14.9,45.8-27.9,91.7-37.2,138.8c-6.2,32.8-10.5,65.7-12.4,99.1
			c-1.9,36.5,1.9,73.1,10.5,109c2.5,9.3,6.2,18,9.3,26.6C302.3,669,304.8,677.1,305.4,688.2z"/>
		<path d="M785.5,319.6c-5.6,3.1-10.5,5.6-15.5,7.4c-18.6,8.1-34.7-2.5-33.5-22.9c0-4.3,1.2-8.7,1.9-13c0.6-3.1,1.2-5.6,1.2-8.1
			c-3.1-3.1-5.6-1.9-7.4-0.6c-3.1,1.9-6.2,3.7-8.7,6.2c-9.3,9.3-19.2,18.6-28.5,28.5c-2.5,2.5-4.3,6.8-6.2,9.9
			c-4.3,9.9-9.9,10.5-18,3.1c-1.9-1.9-3.7-3.1-5.6-5.6c-4.3,3.1-8.1,5-11.2,8.1c-5.6,5-11.8,7.4-18.6,8.7
			c-13.6,1.9-26-6.8-27.9-20.4c-0.6-11.2,3.7-21.1,10.5-29.7c8.1-10.5,17.3-18.6,29.7-24.2c14.9-6.8,29.7-3.7,40.3,9.3
			c1.9,1.9,2.5,5.6,3.1,8.1c0.6,3.1,1.2,6.2,1.9,11.2c3.7-3.1,6.8-5,9.3-6.8c7.4-5.6,13.6-11.2,21.7-16.1c5.6-3.1,11.8-5,18-6.8
			c4.3-1.2,8.7-0.6,13,1.9c5,3.1,7.4,6.8,5.6,12.4c-1.2,3.7-3.1,7.4-3.7,11.2c-1.2,6.2-3.1,12.4-3.7,18.6c-0.6,6.2,3.7,8.7,9.9,6.2
			c2.5-1.2,5.6-2.5,8.1-3.7c6.2-3.1,9.3-7.4,9.9-14.9c1.2-31.6,16.7-56.4,40.9-76.2c5.6-4.3,11.8-7.4,18-9.9c3.1-1.2,8.1,0,11.8,0.6
			c3.7,0.6,6.8,3.7,6.2,7.4c-2.5,13-10.5,24.2-16.7,35.3c-9.9,18-21.7,34.1-35.9,48.3c-5.6,5.6-3.1,14.2,4.3,16.1
			c3.1,0.6,6.8,0.6,9.9,0c5-1.9,9.9-4.3,14.9-6.8c6.2-3.1,11.2-7.4,18.6-9.9c-2.5,11.8-14.9,24.2-27.3,28.5
			C809.6,334.5,797.3,330.2,785.5,319.6z M669,291.2c0,0,0.6-0.6,0.6-1.9c1.2-3.1,2.5-6.8-0.6-9.3c-2.5-2.5-5.6-1.9-8.1-0.6
			c-14.2,5-24.2,14.9-30.4,28.5c-1.9,3.7-1.9,8.7-1.9,13c0,3.7,5,6.8,8.7,5.6c2.5-1.2,5.6-2.5,8.1-4.3
			C655.4,314.1,663.5,304.2,669,291.2z M801,286.2c1.9-0.6,3.1-0.6,4.3-1.9c17.3-13,28.5-31.6,39.6-49.6c1.9-2.5,3.7-8.1-0.6-9.9
			c-6.2-3.1-13.6,5-22.9,12.4c-6.8,5.6-13,13.6-19.8,29.7C799.7,273.2,798.5,279.4,801,286.2z"/>
		<path d="M559.4,328.9c-3.7,1.9-6.2,3.1-8.7,4.3c-5.6,2.5-11.2,3.7-17.3,4.3c-10.5,0.6-21.7-8.1-21.1-21.7c0-1.2,0-3.1,0.6-4.3
			c4.3-17.3,14.2-30.4,30.4-38.4c8.1-3.7,16.1-5.6,24.2-1.2c1.2,0.6,3.1,0.6,5,1.2c1.9-1.9,3.7-3.7,6.2-5.6c5.6-4.3,6.2-4.3,13,3.1
			c-8.1,26.6-13,53.9-16.7,81.2c-1.9,13.6-2.5,27.9-3.7,41.5c-0.6,6.8-1.9,13.6-4.3,20.4c-4.3,13.6-14.2,21.7-27.9,23.5
			c-24.2,4.3-44-10.5-45.8-35.9c-0.6-5.6,1.9-11.8,3.7-17.3c1.9-5,6.2-8.7,12.4-11.2c0.6,2.5,1.9,4.3,1.9,6.8
			c0,3.7-1.2,6.8-1.9,10.5c-1.2,9.3,1.2,18,6.8,25.4c8.1,10.5,20.4,11.2,28.5,0.6c3.1-3.7,5-8.7,6.2-13c1.9-7.4,3.1-15.5,3.7-23.5
			c1.9-13.6,3.1-27.3,4.3-41.5C560,335.1,559.4,332.7,559.4,328.9z M568.1,288.1c-1.9-1.2-1.9-1.9-2.5-1.9
			c-17.3-2.5-35.9,14.2-34.7,31c0,3.1,3.1,5,6.8,4.3c9.9-1.9,16.7-8.1,23.5-14.9C566.2,301.7,568.7,295.5,568.1,288.1z"/>
		<path d="M481.9,289.9c-11.8,0.6-18.6,7.4-24.8,13.6c-7.4,7.4-13.6,15.5-19.8,23.5c-0.6,0.6-1.2,1.9-1.9,2.5
			c-7.4,12.4-19.2,10.5-26,0.6c-1.2-1.9-3.1-3.7-5-6.2c-4.3,4.3-8.1,8.7-12.4,11.8c-4.3,3.7-9.3,7.4-14.9,9.9
			c-21.1,8.1-38.4-12.4-36.5-27.9c2.5-22.3,22.3-43.4,44-45.8c3.1,0,6.2-0.6,8.7,0c9.3,2.5,18,7.4,27.9,8.7c3.7,0.6,5,4.3,5,8.1
			c-0.6,3.7-1.2,8.1-1.9,11.8c0,3.1,0.6,6.2,0.6,9.9c6.2,0,8.1-5,11.2-8.1c7.4-6.2,14.9-13.6,22.3-19.8c3.1-2.5,7.4-5,11.8-6.2
			c16.7-5.6,30.4,5,29.7,22.3c-0.6,14.2-5.6,27.9-9.9,41.5c-0.6,1.9-1.9,3.7-3.1,5c-1.9,1.2-4.3,2.5-6.2,1.9c-1.9-0.6-3.7-3.1-4.3-5
			c-0.6-3.1,0-6.8,0.6-10.5c1.9-9.9,3.7-19.2,5-29.1C482.6,298.6,481.9,294.9,481.9,289.9z M403.9,290.5c-13.6-6.2-18-6.2-27.3,0.6
			c-3.1,1.9-5.6,4.3-7.4,6.8c-5,5.6-8.1,12.4-8.7,19.8c0,5,0.6,10.5,5.6,13c4.3,2.5,9.3,0,12.4-3.1C389,318.4,398.3,306,403.9,290.5
			z"/>
		<path d="M872.2,257.1c11.2-2.5,14.2-10.5,17.3-19.2c6.2-17.3,13.6-34.1,20.4-50.8c1.9-5,6.8-5.6,10.5-1.2c3.7,5,4.3,9.9,1.9,15.5
			c-4.3,11.2-8.7,22.3-13,32.8c-1.9,4.3-5,8.7-3.7,14.9c2.5,0.6,5.6,1.2,8.1,1.2c10.5,0,21.1-0.6,31-0.6c8.7,0,18,0.6,26.6,1.9
			c5,0.6,9.3,1.9,13,7.4c-3.1,1.2-5,2.5-6.8,2.5c-10.5,1.2-20.4,2.5-31,3.1c-13,1.2-25.4,1.9-38.4,3.7c-10.5,1.2-12.4,3.1-14.2,13.6
			c-0.6,3.7-1.2,8.1-0.6,11.8c0.6,8.7,3.7,11.2,13,8.7c5-1.2,9.9-4.3,14.9-6.2c1.9-0.6,4.3-1.2,5.6,0c1.2,1.9,2.5,5,1.9,6.2
			c-4.3,10.5-13.6,15.5-24.2,17.3c-10.5,1.9-19.8-1.2-26-10.5c-3.1-5-5-9.9-4.3-15.5c0.6-3.7,1.2-8.1,1.9-11.8
			c1.9-6.2,1.9-12.4-2.5-18.6C872.2,263.3,872.8,260.8,872.2,257.1z"/>
	</g>
	<rect id="_x3C_Slice_x3E__5_" x="37.2" display="inline" fill="none" width="947.8" height="700"/>
</g>
<g id="Layer_2" display="none">
	<g id="ehjWwn_1_" display="inline">
		<g>
			<path fill="#FFFFFF" d="M1241.4,460.3c0,29.7,0,59.5,0,89.8c-158,0-315.3,0-473.3,0l0.6-0.6c10.5-1.2,19.8-5,29.1-9.9
				c13-6.8,22.9-17.3,31-28.5c6.2-8.1,10.5-18,16.7-26c5.6-7.4,8.7-15.5,13.6-22.9c4.3-6.2,7.4-13.6,10.5-20.4
				c5-11.8,10.5-24.2,14.9-36.5c5.6-14.2,9.9-29.1,15.5-43.4c2.5-6.2,3.1-13,9.9-16.7c16.1-8.1,31-18,45.2-28.5
				c1.2-0.6,2.5-1.2,3.7-1.2c0.6,1.2,1.2,2.5,1.2,3.7c0,5,0,10.5,0,15.5c0.6,6.2,1.9,13,6.2,18c6.2,8.1,16.1,11.8,26.6,5
				c6.2-3.7,9.9-9.9,12.4-16.1c4.3-11.2,8.1-21.7,12.4-32.8c6.2-16.7,14.2-32.2,24.2-46.5c8.1-11.2,16.1-22.3,24.8-32.8
				c6.2-7.4,13-14.2,19.8-21.1c0.6-0.6,1.9-0.6,3.1-1.2c0,1.2,0.6,2.5,0.6,3.7c-1.9,14.2-3.7,27.9-5.6,42.1
				c-2.5,19.8-7.4,39-13.6,57.6c-2.5,6.8-5,13.6-3.7,21.1c0.6,1.9,1.9,4.3,3.1,4.3c2.5,0,6.2,0,6.2-4.3c0-1.2,0-3.1,0.6-4.3
				c4.3-19.8,11.2-38.4,21.7-56.4c6.8-11.8,13-23.5,20.4-34.7c5.6-9.3,12.4-18,19.2-26.6c6.8-8.7,14.9-16.7,24.8-22.3
				c3.1-1.9,5-1.2,5,2.5c0,3.1,0,6.2-0.6,9.9c-3.1,16.7-6.2,34.1-8.7,50.8c-3.7,22.3-5,44.6-4.3,67.5c0.6,12.4,1.9,24.2,3.1,36.5
				c0.6,5,1.9,10.5,3.1,15.5c2.5,9.3,4.3,18,6.8,26.6c5,14.9,13,28.5,22.9,40.9c6.2,8.1,15.5,13.6,24.2,18
				C1224.1,457.2,1232.1,462.1,1241.4,460.3z"/>
			<path fill="#FFFFFF" d="M699.4,476.4c0-146.8,0-293.6,0-440.4c102.2,0,205,0,307.3,0c-3.1,3.7-5.6,7.4-8.7,11.2
				c-6.8,7.4-13.6,14.9-21.1,22.3c-8.1,8.1-16.1,15.5-24.8,22.9c-6.2,5.6-12.4,10.5-18.6,15.5c-8.7,6.8-17.3,14.2-26.6,21.1
				c-13,9.3-25.4,18.6-38.4,27.3c-11.2,8.1-22.9,15.5-34.1,22.9c-8.1,5-16.1,9.3-24.8,14.2c-10.5,5.6-21.1,11.2-31,16.7
				c-8.1,4.3-16.1,8.1-24.8,12.4c-9.3,4.3-19.2,8.1-28.5,12.4c-1.2,0.6-1.2,1.9-1.9,3.1c1.2,0.6,2.5,2.5,3.7,1.9
				c5-1.2,9.3-2.5,13.6-4.3c19.2-9.9,38.4-19.8,57.6-29.7c11.8-6.2,23.5-11.8,34.7-19.2c16.7-10.5,33.5-21.1,50.2-32.2
				c9.9-6.2,19.2-13,28.5-20.4c14.2-11.2,27.9-22.3,42.1-33.5c3.7-3.1,6.8-6.8,10.5-9.9c4.3-4.3,9.3-7.4,14.2-11.8
				c5-4.3,9.3-9.3,14.2-14.2c0.6,0,1.2,0.6,1.2,0.6c-0.6,1.9-0.6,3.7-1.2,5c-3.1,8.7-5.6,17.3-8.7,26c-4.3,13-8.7,26-12.4,39
				c-2.5,8.7-6.2,16.7-8.7,25.4c-3.7,13-6.8,26-10.5,39c-5,14.9-9.9,29.7-15.5,44.6c-5.6,14.9-12.4,29.1-17.3,43.4
				c-6.8,17.3-12.4,35.3-18.6,52.7c-1.2,3.1-3.7,6.2-6.8,8.1c-8.7,5-17.3,8.7-26,13c-12.4,5.6-24.8,11.2-37.2,16.1
				c-19.2,7.4-38.4,14.9-57.6,22.3c-14.9,5.6-29.7,12.4-42.1,22.9c-11.8,9.3-21.1,19.8-25.4,33.5
				C701.2,462.1,700.6,469.6,699.4,476.4z"/>
			<path fill="#FFFFFF" d="M1007.3,36.5c78.1,0,156.1,0,234.2,0c0,140.6,0,281.2,0,421.9c-1.9-1.2-3.7-2.5-6.2-3.1
				c-12.4-1.9-22.9-6.8-31.6-15.5c-16.1-14.9-24.8-34.1-31-54.5c-3.1-11.2-5-22.3-6.8-33.5c-1.9-11.2-3.7-21.7-3.7-32.8
				c-0.6-13,0-26,0.6-38.4c0.6-11.2,1.2-22.9,3.1-34.1c1.9-10.5,4.3-21.1,6.8-31.6c1.9-9.9,5-19.8,3.7-30.4c0-1.9-1.9-3.7-3.7-5
				c-3.7-3.1-7.4-1.9-11.2,0c-12.4,6.8-21.1,16.7-29.7,27.3c-14.2,17.3-25.4,36.5-36.5,55.8c-1.2,1.9-2.5,3.7-4.3,6.2
				c0-2.5-0.6-3.1-0.6-3.7c1.2-9.3,3.1-18.6,4.3-27.9c1.2-8.1,2.5-16.7,3.7-24.8c0.6-2.5,0.6-5.6,0.6-8.1c0-3.1-1.9-5.6-4.3-6.8
				c-2.5-1.2-5-1.2-7.4,0.6c-3.7,3.1-7.4,6.2-11.2,9.9c-13.6,14.9-26,29.7-37.8,45.8c-12.4,17.3-21.7,37.2-29.7,57
				c-5,11.8-9.3,23.5-14.9,35.3c-1.2,3.1-3.7,5.6-6.2,7.4c-3.1,3.1-8.7,3.1-11.2,0.6c-2.5-2.5-5-5.6-6.8-8.7
				c-5.6-11.2-3.1-22.9-1.9-34.7c0.6-5,3.1-8.7,6.8-11.8c4.3-3.7,8.7-8.1,13-12.4c8.7-9.3,17.3-19.2,25.4-29.1
				c9.9-12.4,19.8-24.8,22.3-40.3c1.2-7.4,0-14.9-6.8-20.4c-5.6-4.3-17.3-5.6-21.7,1.2c-3.7,5.6-8.7,10.5-11.8,16.7
				c-5.6,10.5-10.5,21.7-15.5,32.2c-6.2,14.2-12.4,28.5-15.5,44c-1.2,5-2.5,9.9-5,13.6c-2.5,3.7-6.8,6.2-11.2,9.3
				c-7.4,5.6-14.9,11.2-22.9,16.1c-5,3.1-11.2,5.6-17.3,9.3c0.6-3.1,0.6-4.3,0.6-5.6c1.9-5,3.1-9.9,5-14.9
				c5.6-15.5,11.8-31,17.3-45.8c8.7-22.3,17.3-44.6,24.2-67.5c5-16.1,9.3-32.8,14.2-48.9c7.4-22.3,15.5-44.6,22.3-66.9
				c5-15.5,11.2-29.7,19.8-43.4c1.9-3.1,0.6-5.6-2.5-6.8C1009.7,37.8,1008.5,37.2,1007.3,36.5z"/>
			<path d="M1007.3,36.5c1.2,0.6,1.9,1.2,3.1,1.9c3.1,1.2,4.3,4.3,2.5,6.8c-8.7,13.6-14.9,27.9-19.8,43.4
				c-6.8,22.3-14.9,44.6-22.3,66.9c-5,16.1-9.9,32.2-14.2,48.9c-6.8,22.9-15.5,45.8-24.2,67.5c-6.2,15.5-11.8,30.4-17.3,45.8
				c-1.9,5-3.7,9.9-5,14.9c-0.6,1.2-0.6,3.1-0.6,5.6c6.8-3.1,12.4-5.6,17.3-9.3c8.1-5,15.5-10.5,22.9-16.1c3.7-3.1,8.1-5.6,11.2-9.3
				c2.5-3.7,4.3-8.7,5-13.6c3.1-15.5,9.3-29.7,15.5-44c5-11.2,9.9-21.7,15.5-32.2c3.1-6.2,8.1-11.2,11.8-16.7
				c4.3-6.8,16.1-5.6,21.7-1.2c6.8,5.6,8.1,13,6.8,20.4c-2.5,16.1-12.4,28.5-22.3,40.3c-8.1,9.9-16.7,19.8-25.4,29.1
				c-3.7,4.3-8.7,8.7-13,12.4c-3.7,3.1-6.2,6.8-6.8,11.8c-1.2,11.8-3.7,23.5,1.9,34.7c1.9,3.1,4.3,6.2,6.8,8.7
				c2.5,2.5,8.1,1.9,11.2-0.6c2.5-2.5,5-5,6.2-7.4c5-11.8,9.9-23.5,14.9-35.3c8.1-19.8,16.7-39,29.7-57
				c11.8-16.1,24.2-31.6,37.8-45.8c3.1-3.7,7.4-6.8,11.2-9.9c2.5-1.9,4.3-2.5,7.4-0.6c3.1,1.2,5,3.7,4.3,6.8c0,2.5-0.6,5.6-0.6,8.1
				c-1.2,8.1-2.5,16.7-3.7,24.8c-1.2,9.3-3.1,18.6-4.3,27.9c0,0.6,0,1.2,0.6,3.7c1.9-2.5,3.1-4.3,4.3-6.2
				c11.2-19.2,22.3-38.4,36.5-55.8c8.7-10.5,17.3-20.4,29.7-27.3c3.7-1.9,7.4-3.1,11.2,0c1.2,1.2,3.1,3.1,3.7,5
				c1.2,10.5-1.2,20.4-3.7,30.4c-2.5,10.5-5,21.1-6.8,31.6c-1.9,11.2-2.5,22.3-3.1,34.1c-0.6,13-1.2,26-0.6,38.4
				c0.6,11.2,1.9,22.3,3.7,32.8c1.9,11.2,3.7,22.3,6.8,33.5c5.6,20.4,14.9,39.6,31,54.5c8.7,8.1,19.2,13.6,31.6,15.5
				c1.9,0,4.3,1.9,6.2,3.1c0,0.6,0,1.9,0,2.5c-9.3,1.2-17.3-3.1-25.4-6.8c-9.3-4.3-18-9.9-24.2-18c-9.9-12.4-18-25.4-22.9-40.9
				c-3.1-8.7-5-18-6.8-26.6c-1.2-5-2.5-10.5-3.1-15.5c-1.2-12.4-3.1-24.2-3.1-36.5c-1.2-22.3,0-45.2,4.3-67.5
				c3.1-16.7,6.2-34.1,8.7-50.8c0.6-3.1,0.6-6.2,0.6-9.9c0-3.7-1.2-4.3-5-2.5c-9.9,5.6-18,13-24.8,22.3c-6.8,8.7-13,17.3-19.2,26.6
				c-7.4,11.2-13.6,22.9-20.4,34.7c-10.5,17.3-17.3,36.5-21.7,56.4c-0.6,1.2-0.6,3.1-0.6,4.3c-0.6,3.7-3.7,4.3-6.2,4.3
				c-1.2,0-3.1-2.5-3.1-4.3c-1.9-7.4,1.2-14.2,3.7-21.1c6.2-18.6,11.2-37.8,13.6-57.6c1.9-14.2,3.7-27.9,5.6-42.1
				c0-1.2-0.6-2.5-0.6-3.7c-1.2,0.6-2.5,0.6-3.1,1.2c-6.8,6.8-13.6,13.6-19.8,21.1c-8.7,10.5-16.7,21.7-24.8,32.8
				c-10.5,14.2-18.6,29.7-24.2,46.5c-3.7,11.2-8.1,22.3-12.4,32.8c-2.5,6.8-6.2,12.4-12.4,16.1c-10.5,6.8-20.4,3.1-26.6-5
				c-4.3-5-5.6-11.8-6.2-18c-0.6-5,0-10.5,0-15.5c0-1.2-0.6-2.5-1.2-3.7c-1.2,0.6-2.5,0.6-3.7,1.2c-14.2,11.2-29.1,20.4-45.2,28.5
				c-6.8,3.7-8.1,10.5-9.9,16.7c-5,14.2-9.9,29.1-15.5,43.4c-5,12.4-9.9,24.2-14.9,36.5c-3.1,6.8-6.2,14.2-10.5,20.4
				c-5,7.4-8.1,16.1-13.6,22.9c-6.2,8.1-10.5,17.3-16.7,26c-8.1,11.8-18,21.7-31,28.5c-9.3,5-18.6,8.7-29.1,9.9
				c-0.6,0-0.6,0.6-0.6,0.6c-5.6,0-10.5,0-16.1,0c-2.5-0.6-4.3-1.2-6.8-1.9c-8.1-2.5-14.2-7.4-21.1-12.4
				c-12.4-9.3-16.7-22.3-21.7-35.9c-0.6-1.2-0.6-2.5-0.6-4.3c-0.6-5-1.9-9.3-2.5-14.2c0-1.9,0-3.7,0-6.2c1.2-7.4,2.5-14.9,4.3-21.7
				c5-14.2,14.2-24.8,25.4-33.5c13-9.9,27.3-17.3,42.1-22.9c19.2-7.4,38.4-14.9,57.6-22.3c12.4-5,24.8-10.5,37.2-16.1
				c8.7-3.7,18-8.1,26-13c3.1-1.9,5.6-5,6.8-8.1c6.2-17.3,12.4-35.3,18.6-52.7c5.6-14.9,12.4-29.1,17.3-43.4
				c5.6-14.9,10.5-29.7,15.5-44.6c3.7-13,6.8-26,10.5-39c2.5-8.7,5.6-16.7,8.7-25.4c4.3-13,8.7-26,12.4-39c3.1-8.7,5.6-17.3,8.7-26
				c0.6-1.9,0.6-3.7,1.2-5c-0.6,0-1.2-0.6-1.2-0.6c-5,5-9.3,9.9-14.2,14.2c-4.3,4.3-9.3,8.1-14.2,11.8c-3.7,3.1-6.8,6.8-10.5,9.9
				c-13.6,11.2-27.9,22.9-42.1,33.5c-9.3,7.4-18.6,13.6-28.5,20.4c-16.7,11.2-32.8,22.3-50.2,32.2c-11.2,6.8-22.9,13-34.7,19.2
				c-19.2,9.9-38.4,19.8-57.6,29.7c-4.3,2.5-9.3,3.1-13.6,4.3c-1.2,0-2.5-1.2-3.7-1.9c0.6-1.2,1.2-2.5,1.9-3.1
				c9.3-4.3,19.2-8.1,28.5-12.4c8.7-3.7,16.7-8.1,24.8-12.4c10.5-5.6,21.1-11.2,31-16.7c8.1-4.3,16.7-9.3,24.8-14.2
				c11.8-7.4,22.9-14.9,34.1-22.9c13-8.7,26-18,38.4-27.3c9.3-6.8,18-13.6,26.6-21.1c6.2-5,12.4-9.9,18.6-15.5
				c8.7-7.4,16.7-15.5,24.8-22.9c7.4-7.4,14.2-14.2,21.1-22.3c3.1-3.7,5.6-7.4,8.7-11.2C1006.6,36.5,1007.3,36.5,1007.3,36.5z
				 M893.9,356.2c-0.6,0-0.6-0.6-1.2-0.6c-5,1.9-9.3,3.7-14.2,5.6c-14.2,6.2-29.1,13-43.4,18.6c-7.4,3.1-14.9,5-22.3,8.1
				c-8.1,3.1-16.1,7.4-24.2,9.9c-14.2,4.3-27.3,11.2-40.3,18c-9.9,5.6-18.6,12.4-25.4,21.7c-9.3,11.8-14.2,24.2-14.9,39
				c-0.6,16.1,3.7,31.6,12.4,45.2c6.8,11.8,16.7,19.2,29.7,22.3c8.1,1.9,16.1,0.6,24.2-1.2c11.2-2.5,21.1-7.4,29.7-14.9
				c11.8-9.9,21.1-22.9,29.1-35.9c8.1-13,15.5-26.6,22.3-40.3c8.1-15.5,14.9-31.6,21.7-47.7c5.6-13,9.9-26.6,14.2-40.3
				C892.7,361.8,892.7,358.7,893.9,356.2z M973.8,290.5c2.5-1.2,3.7-2.5,5-3.1c6.8-6.8,13.6-13.6,19.8-21.7
				c8.1-9.9,16.7-19.2,22.3-30.4c4.3-9.3,9.9-18,7.4-29.1c-0.6-3.7-2.5-6.2-6.2-8.1c-3.1-1.2-5.6,1.2-6.8,3.1
				c-3.1,3.7-6.2,8.1-8.7,12.4c-6.8,11.8-13.6,23.5-19.2,35.9c-5.6,11.8-9.3,24.2-13.6,36.5C973.2,287.4,973.8,288.7,973.8,290.5z"
				/>
			<path fill="#FFFFFF" d="M699.4,482.6c0.6,5,1.9,9.3,2.5,14.2c0,1.2,0.6,3.1,0.6,4.3c5,13,9.9,26.6,21.7,35.9
				c6.8,5,13,9.9,21.1,12.4c2.5,0.6,4.3,1.2,6.8,1.9c-18,0-35.3,0-53.3,0C699.4,527.8,699.4,504.9,699.4,482.6z"/>
			<path fill="#FFFFFF" d="M893.9,356.2c-0.6,3.1-1.2,5.6-2.5,8.7c-5,13.6-8.7,27.3-14.2,40.3c-6.8,16.1-14.2,32.2-21.7,47.7
				c-6.8,13.6-14.2,27.3-22.3,40.3c-8.1,13-17.3,25.4-29.1,35.9c-8.7,7.4-18.6,12.4-29.7,14.9c-8.1,1.9-16.1,3.7-24.2,1.2
				c-13-3.1-22.9-11.2-29.7-22.3c-8.7-14.2-13-29.1-12.4-45.2c0.6-14.9,5.6-27.9,14.9-39c7.4-9.3,16.1-16.1,25.4-21.7
				c13-6.8,26-13.6,40.3-18c8.1-2.5,16.1-6.8,24.2-9.9c7.4-3.1,14.9-5,22.3-8.1c14.2-6.2,29.1-12.4,43.4-18.6
				c5-1.9,9.3-3.7,14.2-5.6C892.7,355.6,893.3,355.6,893.9,356.2z"/>
			<path fill="#FFFFFF" d="M973.8,290.5c-0.6-2.5-1.2-3.7-0.6-5c4.3-12.4,8.1-24.8,13.6-36.5c5.6-12.4,12.4-24.2,19.2-35.9
				c2.5-4.3,5.6-8.1,8.7-12.4c1.9-1.9,3.7-4.3,6.8-3.1c3.7,1.2,5,4.3,6.2,8.1c2.5,11.2-2.5,19.8-7.4,29.1
				c-5.6,11.8-14.2,21.1-22.3,30.4c-6.2,7.4-13,14.2-19.8,21.7C977.5,288.7,976.3,289.3,973.8,290.5z"/>
		</g>
	</g>
</g>
<g id="Layer_3" display="none">
	<g id="TER4wQ_1_" display="inline">
		<g>
			<path fill="#FFFFFF" d="M57,610.8c0-166.6,0-333.3,0-499.9c195.8,0,391.5,0,587.9,0c0,166.6,0,333.3,0,499.9
				C449.1,610.8,253.4,610.8,57,610.8z M327.1,350c-0.6-1.2-0.6-2.5-1.2-3.1c-9.3,2.5-18.6,5.6-27.9,8.1c-15.5,5-30.4,9.9-45.8,14.2
				c-3.7,1.2-5-0.6-5-3.7c0-4.3,0.6-9.3,1.9-13.6c1.9-10.5,3.7-21.1,5.6-31c1.9-9.3,3.7-18.6,5-27.9c1.2-15.5,3.1-30.4,3.1-45.8
				c0-18.6-1.9-36.5-3.7-55.1c-1.2-9.9-5-19.2-8.1-29.1c-4.3-12.4-8.1-25.4-17.3-35.9c-6.8-7.4-14.2-13-24.8-13.6
				c-21.1-2.5-37.2,5.6-50.2,21.7c-17.3,21.1-26,45.8-29.1,73.1c-3.1,26-0.6,51.4,8.1,76.2c1.2,3.1,3.1,5,4.3,8.1
				c3.1,7.4,5.6,15.5,9.9,21.7c13,19.8,31.6,32.2,54.5,36.5c8.7,1.9,18,0.6,26-4.3c3.7-2.5,5.6-1.2,5,2.5
				c-0.6,5.6-1.9,11.8-2.5,17.3c-1.2,8.7-6.8,13.6-15.5,14.2c-3.7,0.6-7.4,1.9-10.5,3.1c-15.5,8.1-30.4,16.1-45.2,24.8
				c-11.2,7.4-21.7,16.1-31.6,24.8c-8.1,6.8-14.9,14.2-22.3,21.7c-13.6,13-24.8,27.9-32.8,44c-12.4,24.2-18.6,50.2-16.1,77.4
				c0.6,6.8,3.1,13.6,6.8,19.2c8.1,10.5,20.4,14.9,33.5,11.2c8.1-1.9,16.1-5.6,22.9-9.9c6.2-3.1,11.2-8.1,16.7-12.4
				c7.4-6.2,14.9-12.4,20.4-20.4c6.2-8.7,15.5-14.2,17.3-26c0-0.6,0.6-1.2,1.2-1.2c6.8-9.9,13.6-19.2,19.8-29.1
				c5.6-9.9,9.9-20.4,14.2-31c2.5-5,4.3-10.5,6.2-16.1c2.5-6.2,3.7-13,6.2-19.2c4.3-14.2,9.3-27.9,13-42.1
				c2.5-10.5,6.2-18.6,18.6-19.8c5-0.6,9.3-2.5,14.2-3.7c4.3-1.2,8.1-3.7,11.8-5c9.3-3.1,18.6-3.7,26.6-9.9
				C314.7,356.8,320.9,353.7,327.1,350z M631.9,253.4c0-1.2-0.6-1.9-0.6-3.1c-9.3,1.2-19.2,1.9-28.5,4.3
				c-26,7.4-51.4,14.2-78.7,14.2c-13.6,0-27.3-1.2-40.3-3.1s-26-5.6-38.4-8.7c-11.2-3.1-21.7-3.1-32.2,3.1
				c-13.6,8.7-27.9,16.1-42.1,24.8c-7.4,4.3-14.9,4.3-22.3,1.9c-3.1-1.2-4.3-6.2-6.2-9.9c-4.3-8.1-13.6-9.3-20.4-3.7
				c-1.2,0.6-3.7,0.6-5,0c-3.7-2.5-6.2-1.2-8.7,2.5c-6.2,7.4-7.4,16.1-9.3,24.8c-1.9,9.3,5.6,15.5,16.1,15.5s16.7-6.2,22.9-13.6
				c1.2-1.9,5-3.7,6.8-3.1c21.1,5.6,39-4.3,56.4-13c9.3-5,18-10.5,27.3-15.5c3.1-1.9,7.4-2.5,11.2-1.9c15.5,2.5,30.4,5.6,45.8,8.1
				c8.7,1.2,18,3.7,26.6,3.1c16.7-0.6,34.1-2.5,50.8-5c14.2-2.5,27.9-6.2,41.5-10.5C614.5,262,623.2,257.1,631.9,253.4z"/>
			<path d="M327.1,350c-5.6,3.7-11.8,6.8-17.3,10.5c-8.1,6.2-17.3,6.8-26.6,9.9c-4.3,1.2-8.1,3.7-11.8,5c-4.3,1.9-9.3,3.7-14.2,3.7
				c-12.4,1.2-16.1,9.9-18.6,19.8c-3.7,14.2-8.7,27.9-13,42.1c-1.9,6.2-3.7,13-6.2,19.2c-1.9,5.6-4.3,10.5-6.2,16.1
				c-5,10.5-8.7,21.1-14.2,31c-5.6,9.9-13,19.8-19.8,29.1c-0.6,0.6-1.2,0.6-1.2,1.2c-1.9,11.2-11.8,17.3-17.3,26
				c-5.6,7.4-13,13.6-20.4,20.4c-5,4.3-10.5,9.3-16.7,12.4c-7.4,4.3-14.9,8.1-22.9,9.9c-13.6,4.3-26,0-34.1-10.5
				c-3.7-5-6.2-12.4-6.8-19.2c-2.5-27.3,3.7-53.3,16.1-77.4c8.1-16.7,19.8-31.6,32.8-44c7.4-6.8,14.2-14.9,22.3-21.7
				c10.5-8.7,20.4-17.3,31.6-24.8c14.2-9.3,29.7-16.7,45.2-24.8c3.1-1.9,6.8-3.1,10.5-3.1c8.7-1.2,14.2-5.6,15.5-14.2
				c1.2-5.6,1.9-11.8,2.5-17.3c0.6-3.7-1.2-5-5-2.5c-8.1,5-17.3,6.2-26,4.3c-23.5-4.3-42.1-16.7-54.5-36.5
				c-4.3-6.8-6.8-14.9-9.9-21.7c-1.2-2.5-3.1-5-4.3-8.1c-8.7-24.8-11.2-50.2-8.1-76.2c3.1-26.6,11.8-52,29.1-73.1
				c13-15.5,29.1-24.2,50.2-21.7c10.5,1.2,18,6.8,24.8,13.6c9.3,9.9,13,22.9,17.3,35.9c3.1,9.3,6.8,19.2,8.1,29.1
				c2.5,18,3.7,36.5,3.7,55.1c0,15.5-1.2,31-3.1,45.8c-0.6,9.3-3.1,18.6-5,27.9c-1.9,10.5-3.7,21.1-5.6,31
				c-0.6,4.3-1.2,8.7-1.9,13.6c0,3.1,1.2,5,5,3.7c15.5-5,30.4-9.9,45.8-14.2c9.3-3.1,18.6-5.6,27.9-8.1
				C325.8,348.1,326.5,349.4,327.1,350z M249.6,228c-1.9-16.1-2.5-28.5-5.6-40.3c-3.1-13.6-8.1-26.6-13.6-39.6
				c-3.7-8.7-8.1-17.3-18-21.1c-14.2-6.2-27.9,1.2-37.8,11.2c-14.2,14.2-23.5,31-29.1,50.8c-6.2,22.3-7.4,44.6-4.3,66.9
				c2.5,16.7,7.4,33.5,16.1,48.9c10.5,18,25.4,30.4,45.8,35.3c9.3,2.5,18,0.6,24.2-8.1c1.2-1.2,4.3-2.5,6.2-1.9
				c4.3,1.9,5.6,0,6.2-3.7c1.2-5.6,2.5-11.8,3.1-17.3c1.2-10.5,3.7-21.1,4.3-31.6C248.4,260.2,249,242.2,249.6,228z M71.9,573.6
				c0,1.9,0,3.1,0,5c0.6,9.9,5.6,14.9,14.9,16.1c11.8,1.9,20.4-4.3,29.1-9.9c18.6-12.4,34.1-28.5,46.5-46.5
				c14.9-21.1,26.6-43.4,37.2-66.9c5-11.2,9.9-22.9,13.6-34.7c3.7-14.2,8.1-27.9,11.8-41.5c1.2-5-1.9-5.6-5-4.3
				c-5.6,1.9-11.2,4.3-16.1,6.8c-8.7,4.3-16.7,8.7-25.4,13.6c-8.1,5-16.7,10.5-24.2,16.7c-5.6,5-13,6.8-16.7,14.2
				c-2.5,4.3-8.1,6.2-11.2,10.5c-6.2,8.7-15.5,14.9-20.4,24.2c-1.9,3.1-5.6,5-7.4,8.1c-6.8,12.4-13.6,24.2-19.2,37.2
				C73.7,538.9,71.2,556.3,71.9,573.6z"/>
			<path d="M631.9,253.4c-8.7,4.3-17.3,9.3-26.6,11.8c-13.6,4.3-27.9,8.1-41.5,10.5c-16.7,2.5-34.1,4.3-50.8,5
				c-8.7,0.6-18-1.9-26.6-3.1c-15.5-2.5-30.4-5.6-45.8-8.1c-3.7-0.6-8.1,0-11.2,1.9c-9.3,5-18,10.5-27.3,15.5
				c-18,9.3-35.3,18.6-56.4,13c-1.9-0.6-5,1.2-6.8,3.1c-6.2,7.4-12.4,13-22.9,13.6c-9.9,0-18-6.2-16.1-16.1
				c1.9-8.7,3.1-17.3,9.3-24.8c3.1-3.1,5-4.3,8.7-2.5c1.2,0.6,4.3,1.2,5,0c7.4-5.6,16.1-4.3,20.4,3.7c1.9,3.7,3.1,8.7,6.2,9.9
				c7.4,2.5,14.9,2.5,22.3-1.9c14.2-8.1,28.5-16.1,42.1-24.8c10.5-6.2,21.1-6.2,31.6-3.7c13,3.1,25.4,6.8,38.4,8.7
				c13,1.9,26.6,3.1,40.3,3.1c27.3,0,52.7-6.8,78.7-14.2c9.3-2.5,19.2-3.1,28.5-4.3C631.2,250.9,631.9,252.1,631.9,253.4z
				 M314.7,299.8c6.8-1.2,11.8-6.2,11.2-11.2c0-1.2-1.2-3.1-1.9-3.7c-0.6-0.6-3.1,0.6-3.1,1.2C318.4,290.5,316.5,294.9,314.7,299.8z
				"/>
			<path fill="#FFFFFF" d="M249.6,228c-0.6,14.2-1.2,32.2-2.5,50.2c-0.6,10.5-2.5,21.1-4.3,31.6c-0.6,5.6-1.9,11.8-3.1,17.3
				c-0.6,3.1-1.9,5-6.2,3.7c-1.9-0.6-5,0.6-6.2,1.9c-6.2,8.1-14.9,9.9-24.2,8.1c-20.4-5-35.3-17.3-45.8-35.3
				c-8.7-15.5-14.2-31.6-16.1-48.9c-3.1-22.3-1.2-44.6,4.3-66.9c5.6-19.8,14.9-36.5,29.1-50.8c9.9-9.9,23.5-17.3,37.8-11.2
				c9.3,4.3,14.2,12.4,18,21.1c5.6,13,10.5,26,13.6,39.6C247.2,199.5,247.8,211.9,249.6,228z"/>
			<path fill="#FFFFFF" d="M71.9,573.6c-0.6-17.3,1.9-34.7,8.7-51.4c5.6-13,12.4-24.8,19.2-37.2c1.9-3.1,5.6-5,7.4-8.1
				c5-9.9,14.2-15.5,20.4-24.2c2.5-4.3,8.7-6.2,11.2-10.5c3.7-6.8,11.2-9.3,16.7-14.2c7.4-6.2,16.1-11.2,24.2-16.7
				c8.1-5,16.7-9.3,25.4-13.6c5-2.5,10.5-5,16.1-6.8c3.1-1.2,6.2-0.6,5,4.3c-3.7,13.6-8.1,27.9-11.8,41.5
				c-3.1,12.4-8.1,23.5-13.6,34.7c-10.5,23.5-22.3,45.8-37.2,66.9c-13,18-27.9,34.1-46.5,46.5c-9.3,6.2-18.6,11.8-30.4,9.9
				c-9.3-1.2-14.9-6.8-15.5-16.1C71.9,576.7,71.9,575.5,71.9,573.6z"/>
			<path fill="#FFFFFF" d="M314.7,299.8c2.5-5,3.7-9.3,6.2-13.6c0.6-0.6,3.1-1.9,3.1-1.2c1.2,0.6,1.9,2.5,1.9,3.7
				C325.8,293.6,321.5,298.6,314.7,299.8z"/>
		</g>
	</g>
</g>
<g id="Layer_4">
	<g id="cdIh1f_1_">
		<g>
			<path fill="#FFFFFF" d="M888.8,145.8c0-46.5,0-92.9,0-139.4c180.9,0,361.2,0,542,0c-1.9,6.2-5.6,13-5,18.6
				c3.7,22.9,8.7,45.8,13.6,68.8c5.6,27.9-3.7,57-24.2,69.4c-11.8,7.4-27.3,1.9-28.5-11.2c-1.2-10.5-0.6-21.7,1.9-31.6
				c4.3-17.3,9.9-19.2,27.3-15.5c2.5,0.6,6.8-0.6,8.7-1.9c1.2-1.2,1.2-6.2-0.6-7.4c-6.8-5.6-13.6-13-21.1-13.6
				c-6.2-0.6-16.7,5.6-19.8,11.8c-9.9,19.8-15.5,40.9-8.7,63.8c5,15.5,12.4,29.7,30.4,32.2c18,1.9,26.6-12.4,34.1-26
				c4.3-7.4,7.4-16.1,13-26.6c3.7,7.4,6.2,12.4,7.4,17.3c3.1,11.2,8.1,9.3,14.9,3.1c0,17.3,0,35.3,0,53.3c-44.6,0-88.6,0-133.2,0
				c0.6-0.6,1.2-1.2,2.5-1.9c30.4-8.7,34.1-16.7,21.1-45.8c-8.1-18-20.4-34.7-20.4-56.4c0-4.3-5.6-9.3-8.7-13.6
				c-1.2,5.6-3.1,11.2-4.3,16.7c0,1.2,1.2,2.5,1.2,4.3c1.9,12.4-8.7,30.4-18.6,31.6c-9.9,1.2-23.5-11.2-26-24.2
				c-1.2-5.6-1.2-10.5-3.1-15.5c-1.2-2.5-4.3-4.3-8.1-7.4c-7.4,26.6,4.3,53.9,26,64.4c9.9,5,18.6,5.6,26-4.3
				c3.1-3.7,7.4-6.8,13-11.2c3.7,6.2,6.8,11.2,9.3,16.1c9.3,18,8.1,21.7-11.8,23.5c-15.5,1.2-31.6,0-52,0c5,8.7,8.7,15.5,12.4,21.7
				c-137.5,0-274.4,0-411.9,0c0-16.7,0-33.5,0-50.2c10.5,9.3,19.2,24.8,31.6,27.9c35.3,8.7,72.5,7.4,107.8-3.1
				c6.2-1.9,13-10.5,14.9-17.3c5.6-20.4-6.2-37.8-13-55.8c-8.1-21.1-16.1-41.5-24.8-64.4c9.3-1.9,16.1-3.1,22.9-3.7
				c31-4.3,62.6-7.4,93.5-12.4c3.7-0.6,6.8-7.4,9.9-11.2c-4.3-2.5-8.7-6.8-12.4-6.8c-42.1,4.3-83.6,9.3-125.8,13.6
				c-31,3.1-62.6,5.6-94.2,8.1c-0.6,10.5,5,16.7,15.5,17.3c13,0.6,26.6,1.2,39.6-0.6c39-6.2,38.4-6.8,51.4,29.7
				c7.4,20.4,15.5,40.9,23.5,61.3c5,13.6-0.6,21.7-13.6,23.5c-28.5,3.1-57,5.6-86.1,6.2c-8.1,0-19.2-4.3-24.8-10.5
				c-5-5.6-3.7-16.7-5-24.2C897.4,139.6,893.1,142.7,888.8,145.8z M1143.4,161.3c4.3,5,6.8,9.9,11.2,11.8c3.7,1.9,8.7,1.9,13,2.5
				c0-4.3,1.2-9.9-1.2-11.8c-16.1-13.6-17.3-32.8-19.2-50.8c-1.2-14.2-9.3-19.8-21.1-22.3c-13-3.1-39,8.7-46.5,20.4
				c-14.2,22.9-5,58.8,20.4,75c11.8,7.4,24.2,5,32.2-6.2C1135.3,174.3,1138.4,168.7,1143.4,161.3z M1267.9,99.9
				c-1.2-5.6-0.6-11.2-3.1-12.4c-9.3-5-19.2-9.9-29.1-11.8c-24.2-4.3-32.8,22.3-52,28.5c-0.6,0-0.6,5,0,6.8
				c7.4,22.9,14.9,46.5,22.9,68.8c1.2,2.5,5.6,3.7,8.7,6.2c1.2-3.7,5-8.1,3.7-11.2c-1.9-7.4-6.2-14.2-8.7-21.7
				c-9.3-34.7-5.6-52,29.1-57C1247.4,95,1256.1,98.1,1267.9,99.9z"/>
			<path d="M888.8,145.8c4.3-3.1,8.7-5.6,11.2-7.4c1.2,8.1,0,18.6,5,24.2c5,6.2,16.1,10.5,24.8,10.5c28.5-0.6,57.6-3.1,86.1-6.2
				c13-1.2,18.6-9.9,13.6-23.5c-8.1-20.4-16.1-40.9-23.5-61.3c-13-36.5-12.4-35.9-51.4-29.7c-13,1.9-26.6,1.2-39.6,0.6
				c-11.2-0.6-16.7-6.8-15.5-17.3c32.2-2.5,63.2-5,94.2-8.1c42.1-4.3,83.6-9.3,125.8-13.6c3.7-0.6,8.1,4.3,12.4,6.8
				c-3.1,3.7-6.2,10.5-9.9,11.2c-31,5-61.9,8.1-93.5,12.4c-6.8,0.6-13.6,1.9-22.9,3.7c8.7,22.3,16.7,43.4,24.8,64.4
				c6.8,18,18.6,35.3,13,55.8c-1.9,6.8-8.7,15.5-14.9,17.3c-35.3,9.9-71.9,11.2-107.8,3.1c-11.8-3.1-21.1-18-31.6-27.9
				C888.8,155.7,888.8,150.7,888.8,145.8z"/>
			<path d="M1475.4,157.5c-6.8,6.2-11.8,8.1-14.9-3.1c-1.2-5-4.3-9.9-7.4-17.3c-5,10.5-8.1,19.2-13,26.6c-8.1,13-16.1,27.9-34.1,26
				c-18-1.9-25.4-16.1-30.4-32.2c-6.8-22.3-1.9-44,8.7-63.8c3.1-6.2,13-12.4,19.8-11.8c7.4,0.6,14.2,8.1,21.1,13.6
				c1.2,1.2,1.9,6.2,0.6,7.4c-1.9,1.9-6.2,2.5-8.7,1.9c-17.3-4.3-22.9-1.9-27.3,15.5c-2.5,9.9-3.1,21.7-1.9,31.6
				c1.9,13,17.3,18,28.5,11.2c19.8-12.4,29.7-41.5,24.2-69.4c-5-22.9-9.9-45.8-13.6-68.8c-0.6-5.6,3.1-12.4,5-18.6
				c1.2,0,1.9,0,3.1,0c5,18,11.8,35.3,13.6,53.3c3.1,32.8,15.5,61.9,27.9,91.7C1475.4,153.8,1475.4,155.7,1475.4,157.5z"/>
			<path d="M1300.7,210.8c-3.7-6.8-7.4-13-12.4-21.7c20.4,0,36.5,1.2,52,0c19.2-1.9,20.4-5.6,11.8-23.5c-2.5-5-5.6-9.9-9.3-16.1
				c-5,4.3-9.9,6.8-13,11.2c-8.1,8.7-16.7,8.1-26.6,3.1c-21.7-10.5-33.5-37.8-26-64.4c3.1,3.1,6.8,4.3,8.1,7.4
				c1.9,5,2.5,10.5,3.1,15.5c2.5,13,15.5,25.4,26,24.2c9.9-1.2,21.1-19.8,18.6-31.6c0-1.2-1.9-3.1-1.2-4.3
				c1.2-5.6,3.1-11.2,4.3-16.7c3.1,4.3,8.7,9.3,8.7,13.6c0.6,21.1,12.4,37.8,20.4,56.4c13,29.7,9.3,37.2-21.1,45.8
				c-0.6,0-1.9,1.2-2.5,1.9C1328,210.8,1314.3,210.8,1300.7,210.8z"/>
			<path fill="#FFFFFF" d="M1475.4,151.3c-12.4-29.7-24.2-58.8-27.9-91.7c-1.9-18-9.3-35.3-13.6-53.3c13.6,0,27.9,0,41.5,0
				C1475.4,54.7,1475.4,103,1475.4,151.3z"/>
			<path d="M1143.4,161.3c-5,7.4-8.1,13-11.8,18c-8.1,11.2-21.1,13.6-32.2,6.2c-25.4-16.1-34.7-52-20.4-75
				c7.4-11.8,33.5-23.5,46.5-20.4c11.8,2.5,19.8,8.7,21.1,22.3c1.9,18.6,3.1,37.2,19.2,50.8c2.5,1.9,0.6,8.1,1.2,11.8
				c-4.3-0.6-9.3-0.6-13-2.5C1150.2,170.5,1147.7,166.2,1143.4,161.3z M1134.1,115.4c-21.1-6.8-39.6,1.2-46.5,18
				c-5,12.4,2.5,29.7,14.9,34.7c13.6,5.6,19.8-5.6,23.5-14.2C1131,141.4,1131.6,127.8,1134.1,115.4z"/>
			<path d="M1267.9,99.9c-11.8-1.9-19.8-5-27.9-4.3c-34.7,5-38.4,22.3-29.1,57c1.9,7.4,6.8,14.2,8.7,21.7c0.6,3.1-2.5,7.4-3.7,11.2
				c-3.1-1.9-7.4-3.1-8.7-6.2c-8.1-22.9-15.5-45.8-22.9-68.8c-0.6-1.9-0.6-6.8,0-6.8c19.2-6.2,27.9-32.8,52-28.5
				c9.9,1.9,19.8,6.8,29.1,11.8C1267.3,88.8,1266.6,95,1267.9,99.9z"/>
			<path fill="#FFFFFF" d="M1134.1,115.4c-2.5,12.4-3.1,26.6-8.1,39c-3.1,8.7-9.9,19.8-23.5,14.2c-12.4-5-19.8-22.3-14.9-34.7
				C1094.4,116.7,1113,108.6,1134.1,115.4z"/>
		</g>
	</g>
</g>
<g id="UGqraJ_1_">
	<g>
		<path fill="#FFFFFF" d="M8.7,463.5c0-116.6,0-233.2,0-349.8c224.4,0,448.7,0,673.1,0c0,116.6,0,233.2,0,349.8
			C457.4,463.5,233,463.5,8.7,463.5z M418.1,270c0.5-1.5,0.6-2.2,0.9-2.9c5.1-9.2,12-17.1,19-24.8c4-4.4,8.2-8.7,12.7-12.6
			c3.7-3.2,7.8-6.1,12.1-8.4c2.9-1.6,4.8-2.8,4.4-5.3c-0.4-2.2-3.8-4.5-6.4-4c-5.6,1.1-11.1,2.1-16.6,3.5c-11,2.8-22,5.8-32.9,8.6
			c-4.4,1.1-4.9,0.5-5.3-4.1c-0.7-8.4-1.6-16.7-2.2-25.1c-0.3-3.2-2.2-4.6-5-5.3c-3.3-0.8-4.5,0.2-4.2,3.4c0.4,4.9,1,9.9,1.6,14.8
			c0.6,5.5,1.3,11,2,16.5c0.2,1.7,0.1,3.1-2,3.6c-4.5,1.1-8.9,2.3-13.3,3.5c-2.5,0.7-3.3-0.2-3.4-2.7c-0.4-9.1-1.2-18.1-1.5-27.2
			c-0.1-2.9-1.2-4.7-3.8-5.4c-1.4-0.4-3.2-0.8-4.2-0.3c-0.8,0.5-1.2,2.5-1.1,3.8c0.6,10.8,1.3,21.6,2.1,32.4c0.2,2.3-0.9,3.1-3,3.9
			c-6.9,2.6-13.8,5.4-20.6,8.3c-3.6,1.5-7.1,3.3-10.7,4.8c-0.7,0.3-2.3-0.3-2.8-1c-3-4.3-6.3-5.5-11.5-4.3
			c-11.5,2.6-21.8,7.8-31.4,14.6c-1.6,1.2-3,1.2-5.1,0.3c-5.5-2.3-11-5.1-16.7-5.9c-14.1-2-28.3-3.5-42.6-4.3
			c-11.4-0.6-22.9,0-34.2,2.1c-8.4,1.5-16.8,2.8-25.2,4.1c-1.1,0.2-2.6,0.2-3.3-0.4c-2.1-1.8-1.1-7.6,1.4-8.9
			c2.4-1.3,4.9-2.5,7.3-3.7c9.3-4.5,18.7-8.8,28-13.4c12.9-6.4,25.6-13,38.5-19.4c5-2.5,10.2-4.4,15.2-6.9
			c10.2-5,20.2-10.1,30.4-15.2c2.6-1.3,4-3.6,3.4-5.8c-0.6-2.1-3.3-3.5-6-2.9c-4,0.9-8,1.7-12,2.9c-12.6,3.7-25,7.7-37.7,11.2
			c-12.5,3.5-25.1,6.6-37.6,9.8c-11.2,2.8-22.4,5.3-33.5,8.5c-15.9,4.6-31.9,9.3-47.6,14.6c-10.6,3.6-21.2,7.5-31.1,12.9
			c-6.7,3.6-13.8,6.5-20.7,9.7c-5.8,2.7-11.5,5.4-17.4,7.9c-4.8,2-9.7,3.5-14.6,5.3c-3.1,1.1-3.4,1.9-2,4.7c2.3,4.5,7.4,5.3,11,1.8
			c0.5-0.5,1.2-1,1.9-1.3c8-3.7,16-7.3,23.9-11.1c7.6-3.7,15-8.1,22.8-11.4c13.1-5.6,26.4-10.9,39.8-15.7c12.1-4.3,24.3-8,36.7-11.5
			c12.1-3.4,24.3-6,36.4-9.1c12.6-3.2,25.2-6.5,37.8-9.7c3.1-0.8,6.1-1.5,9.2-2.2c-2.1,1.8-4.3,3.3-6.6,4.4
			c-9.2,4.7-18.6,9.3-27.8,13.9c-9.5,4.8-18.7,10.3-28.6,14.6c-7.4,3.2-14.6,7-21.9,10.5c-1,0.5-2.4,0.3-3.6,0.6
			c-1.2,0.3-2.4,0.9-3.4,1.5c-0.7,0.4-1,1.6-1.7,1.9c-6.1,3.3-12.2,6.5-18.3,9.8c-4.8,2.6-9.6,5.2-14.4,7.7
			c-4.3,2.2-3.1,7.5,1.1,8.6c3.3,0.9,7,1.9,10.3,1.4c6.5-0.9,12.8-2.6,19.1-4.2c6.4-1.6,6.6-1.7,7.7,4.8c1.1,6.7,2.1,13.5,2.6,20.2
			c0.5,6.4,0.3,12.9,0.7,19.3c0.1,2.4,2.1,4.1,4.2,4c2.4-0.1,3.2-2.1,3.3-4.6c0.5-14.8-0.9-29.4-4.3-43.8c-0.6-2.7,0.4-3.8,2.9-4.2
			c5.9-1,11.7-2,17.6-3.1c18.5-3.4,37.1-4.7,55.8-2.8c8.1,0.8,16.2,1.8,24.2,2.8c1.1,0.1,2.8,0.9,3.1,1.7c1.6,4.7,3,9.4,4.2,14.2
			c1.2,4.9,1,4.9-3.3,7.8c-0.9,0.6-1.7,1.3-2.7,1.8c-9.2,5.1-18.3,10.3-27.6,15.2c-4.6,2.4-9.4,4.3-14.2,6.2
			c-11.8,4.7-23.6,9.3-35.4,13.8c-12.8,4.9-25.7,8.9-39.3,11.3c-12.7,2.3-25.4,3.1-38.2,1.7c-3.2-0.3-6.4-0.7-9.6-1
			c-0.1,0.4-0.2,0.8-0.3,1.1c6.7,1.9,13.3,4.8,20.1,5.7c15,2,29.7-0.6,44.1-4.6c11.2-3.1,22.3-6.6,33.2-10.8
			c13.7-5.2,27.2-11,40.5-17.1c10.7-5,21.8-9.2,31.2-16.5c3.3-2.6,4.2-1.9,5.3,2.4c0.8,3.3,1.6,6.6,3,9.7c1,2.2,3.2,3.4,5.7,2.3
			c2.4-1,2.1-3.2,1.6-5.3c-0.8-3.2-1.6-6.4-2.2-9.7c-0.8-4-0.7-7.7,2.5-11.1c2.2-2.4,3.5-5.5,5.3-8.3c0.9-1.5,1.5-3.4,2.9-4.3
			c4.8-3.2,9.7-6.1,14.8-8.8c2.4-1.3,5.2-1.9,7.2-2.6c1.5,6.6,2.9,12.7,4.3,18.8c0.7,3.1,1.8,6.1,2.3,9.3c0.5,3.6,0.3,7.3,0.8,10.9
			c0.3,2.1,1.5,3.9,4,4c3.1,0.2,4.4-1.5,3.6-5.7c-1.7-9.6-3.8-19.1-5.3-28.7c-0.3-1.8,0.5-4.2,1.5-5.9c1.2-2,2.9-2.5,4.8-0.1
			c2.8,3.4,5.5,3.5,9.6,1.3c7.3-3.8,14.6-7.5,22-10.9c5.7-2.6,6.2-2,6,4.3c-0.2,11.2-0.4,22.3-0.5,33.5c0,1.6,0.3,3.4,1.1,4.8
			c1.2,1.9,2.8,4.1,5.5,3.3c2.3-0.6,2.9-2.7,2.8-4.9c-0.2-14.5-0.3-29-0.5-43.4c0-2,0.8-3.1,2.7-3.5c4.1-1,8.2-2.1,12.2-3.1
			c4.2-1,4.8-0.8,4.8,3.4c-0.1,10-0.5,19.9-1,29.9c-0.1,2.5,1.3,3.9,2.9,5c1,0.7,2.8,0.7,4.1,0.4c1.1-0.3,1.9-1.5,3.4-2.9
			c0.4,0.6,0.8,1.5,1.4,2.2c3,4.1,6.7,5.3,11.3,2.9c3.4-1.7,6.5-4.2,9.7-6.4c9.5-6.8,17.1-15.3,23-25.4c1.4-2.4,3.2-4.6,4.8-7
			c0.4,0.1,0.7,0.3,1.1,0.4c-0.3,3.9-0.5,7.9-0.9,11.8c-0.4,4.5-0.9,9,2.1,12.9c2.4,3.1,6.6,3.1,7.8-0.2c0.8-2.2,1.4-5.1,0.6-7.1
			c-1.5-3.8-0.8-7.3-0.3-10.9c0.7-5.5,0.8-11-1.2-16.2c-0.8-2-3-3.8-5-4.7c-2.3-1-4.5,0.3-6,2.4c-0.5,0.7-1.1,1.4-1.6,2.1
			c-5.2,7.4-10.2,15-15.7,22.3c-5.1,6.8-11.4,12.2-18.8,16.5C420.6,269.4,419.6,269.5,418.1,270z M367.9,308.5
			c-2.2,0.2-3.9,0.2-5.4,0.6c-3.1,0.7-6.5,0.9-8.2,4.4c-0.2,0.5-1.6,0.5-2.5,0.5c-1.4,0.1-2.9-0.5-4.1,0c-3.2,1.4-6.2,3.3-9.3,4.8
			c-1.8,0.9-3.7,1.3-5.5,2.1c-8.7,3.4-16.4,8.5-24.3,13.4c-3.7,2.3-6.7,5.2-10.1,7.8c-7.1,5.5-12.9,11.5-16.9,19.6
			c-3.4,6.8-3,13.2-0.4,19.6c3.6,8.8,10.2,15.6,18.3,20.2c10.7,6.1,21.8,11.8,33.1,16.8c14.2,6.3,29,10.7,44.3,13.2
			c14.7,2.4,29.5,3.1,44.5,3c18.3-0.1,36.2-2.8,54.1-6.5c6.2-1.3,12.3-3.2,18.4-5.1c8.7-2.7,17.4-5.3,25.8-8.7
			c11.2-4.5,22.2-9.6,33.2-14.8c7.8-3.6,15.4-7.6,22.9-11.8c6.8-3.8,13.1-8.4,19.8-12.3c12-7.1,23.2-15.4,33.3-25.1
			c13.2-12.8,20.3-28.7,25.1-46c1.3-4.6,2-9.5,2.6-14.3c0.9-7,2.1-14,1.9-21c-0.5-15-1.5-30.1-2.8-45c-0.5-5.7-2.4-11.4-5.9-16.3
			c-3.3-4.7-9.4-6.4-14.1-4c-7.5,3.7-13.1,9.5-17,16.7c-2.9,5.4-4.8,11.4-7.3,17.1c-1.4,3.3-2.8,6.6-4.7,9.7
			c-3.2,5.1-9.6,3.6-12.1,0c-3-4.4-4.8-9.3-3.9-14.4c1.2-6.7,3.1-13.4,5.6-19.8c3.2-8.3,8.7-15.3,14.3-22.2c0.7-0.8,1.2-2.5,0.7-3.4
			c-0.7-1.4-2.2-3.5-3.4-3.5c-1.7,0-4,1.2-5.1,2.5c-3.4,4.1-6.7,8.3-9.4,12.9c-6,10.1-10.8,20.6-11.5,32.7c-0.6,9.9,3,17.9,10.6,24
			c7.5,6,17.8,4.2,22.5-4.1c2.6-4.6,4.4-9.8,5.8-14.9c2.9-10.4,7.7-19.3,17.3-25c3.2-1.9,5.5-1.6,6.7,2.1c1.6,5,2.9,10.3,3.5,15.5
			c0.9,7.9,0.8,15.8,1.5,23.7c1.7,19.7-0.6,38.9-6.2,57.8c-3.9,13.2-11,24.6-20.7,34.3c-8.6,8.6-18.2,15.8-28.6,22.1
			c-12.2,7.4-24.4,14.9-36.8,21.8c-7.7,4.3-15.8,7.6-23.8,11.3c-5.2,2.4-10.4,4.9-15.7,7.1c-4.4,1.8-9,3.1-13.5,4.7
			c-2.8,1-5.6,2.4-8.5,3.1c-11.3,2.8-22.3,6.4-33.9,8.1c-5.7,0.8-11.3,2.3-16.9,3c-5.2,0.6-10.5,0.7-15.7,0.9
			c-7.2,0.2-14.5,0.5-21.7,0.3c-12-0.4-24.1-0.9-35.8-4.1c-9.9-2.7-20-4.9-29.6-8.4c-8.9-3.2-17.3-7.6-25.7-11.9
			c-8-4.1-16.2-8-22.2-15c-3.3-3.9-6.1-8.1-6.8-13.3c-1-8.2,1.9-15.1,7.7-20.6c5.5-5.2,11.4-10.1,17.7-14.3
			c7.5-5,15.4-9.6,23.7-13.3c12.3-5.5,25-10.1,37.5-15.1c1.3-0.5,2.6-1.2,3.8-2c0.8-0.5,1.3-1.8,2.1-2c2.7-0.7,5.5-0.9,8.1-1.6
			c2.6-0.7,6.1,0.6,7.7-2.9c0.1-0.3,0.6-0.4,1-0.5c2.2-0.4,4.4-0.7,6.6-1.3c4-1,8.1-2.1,12-3.5c1.4-0.5,2.5-1.8,4.2-3.2
			c-5.1-1.8-9.1,1.8-13.5,0.7c-2-0.5-4.2,1.7-7,1.9c-4.4,0.3-8.7,2.9-13.1,4.2c-2.5,0.8-4.6,2.2-7.4,2.5c-2.6,0.3-6.3,0-7.7,3.6
			c0,0.1-0.4,0.1-0.7,0.2c-0.5-0.4-1-0.9-1.6-1.4C368.4,307.5,368,308.3,367.9,308.5z M498,237.1c-0.3-0.1-0.6-0.1-0.9-0.2
			c-0.6-3.2-1.2-6.4-1.9-9.6c-0.8-3.6-1.8-7.3-5.6-8.6c-1.3-0.5-3.3,0.2-4.7,0.9c-1.7,0.9-1.1,2.3-0.1,3.7c0.7,1,1.1,2.3,1.3,3.5
			c1.1,7.4,1.9,14.9,3,22.3c0.6,3.7,1.3,7.4,2.4,11c0.7,2.3,2.5,4.2,5.2,3.9c2.8-0.3,3.1-2.8,3.6-5c1.1-4.4,1.9-9,3.5-13.2
			c3.9-10.1,8.8-19.9,15.7-28.3c3.5-4.1,8.6-6.9,13.1-10.2c1.5-1.1,2.9-0.4,3.3,1.4c0.5,2.2,1.1,4.4,1.2,6.6
			c0.5,13,4.7,24.7,12.6,35.1c8.1,10.5,20.8,9.2,27.3-0.4c0.5-0.8,0.5-1.9,0.7-2.9c-1,0-2,0-2.9,0.2c-3.8,0.8-7.6,1.8-11.4,2.3
			c-1.6,0.2-3.8-0.4-4.8-1.5c-2.6-2.9-5.1-6.1-7-9.6c-4.6-8.1-4.2-17.3-5.8-26.1c-0.8-4.7-2.7-8.7-6.2-11.9c-2.4-2.2-5.2-3-8.4-2
			c-5.8,1.8-10.1,5.8-14.3,9.8c-6,5.8-10.2,13.1-14.3,20.3C501,231.4,499.6,234.2,498,237.1z M340.8,232.9c0.5-0.6,1.8-1.6,2.3-2.8
			c0.4-0.9,0.2-2.8-0.5-3.3c-2.2-1.6-4.6-3-7-4.1c-1.8-0.8-4.2,1.3-3.9,3.1C332,228.6,336.9,232.9,340.8,232.9z M451.6,286.1
			c-0.3-0.4-0.5-0.9-0.8-1.3c-1.3,0.7-2.5,1.9-3.8,2.1c-4.9,0.9-9.9,1.5-14.9,2.3c-0.6,0.1-1.4,0.4-1.6,0.9c-0.6,1.6-1.6,1.6-3,1.2
			c-0.9-0.2-2,0.2-3,0.4c-0.1,0.4-0.1,0.7-0.2,1.1c0.8,0.2,1.5,0.6,2.3,0.6c0.6,0,1.2-0.6,1.9-0.7c6.8-1.7,13.5-3.3,20.3-5
			C449.8,287.4,450.7,286.6,451.6,286.1z"/>
		<path d="M418.1,270c1.5-0.5,2.5-0.7,3.3-1.2c7.3-4.3,13.7-9.8,18.8-16.5c5.4-7.2,10.5-14.8,15.7-22.3c0.5-0.7,1.1-1.4,1.6-2.1
			c1.5-2.1,3.7-3.5,6-2.4c2,0.9,4.3,2.7,5,4.7c2,5.2,1.8,10.7,1.2,16.2c-0.4,3.6-1.1,7.2,0.3,10.9c0.8,2,0.2,4.9-0.6,7.1
			c-1.2,3.3-5.4,3.3-7.8,0.2c-3.1-3.9-2.5-8.4-2.1-12.9c0.3-3.9,0.6-7.9,0.9-11.8c-0.4-0.1-0.7-0.3-1.1-0.4c-1.6,2.3-3.4,4.5-4.8,7
			c-5.9,10-13.5,18.6-23,25.4c-3.1,2.3-6.2,4.7-9.7,6.4c-4.6,2.3-8.3,1.2-11.3-2.9c-0.6-0.8-1-1.6-1.4-2.2c-1.5,1.4-2.3,2.7-3.4,2.9
			c-1.3,0.3-3.1,0.3-4.1-0.4c-1.6-1.1-3-2.5-2.9-5c0.5-9.9,0.9-19.9,1-29.9c0.1-4.2-0.6-4.5-4.8-3.4c-4.1,1-8.1,2.1-12.2,3.1
			c-1.9,0.5-2.7,1.6-2.7,3.5c0.2,14.5,0.4,29,0.5,43.4c0,2.2-0.6,4.3-2.8,4.9c-2.7,0.7-4.3-1.4-5.5-3.3c-0.8-1.3-1.1-3.2-1.1-4.8
			c0.1-11.2,0.2-22.3,0.5-33.5c0.1-6.3-0.3-6.9-6-4.3c-7.5,3.4-14.8,7.1-22,10.9c-4.1,2.1-6.7,2.1-9.6-1.3c-1.9-2.3-3.7-1.9-4.8,0.1
			c-1,1.7-1.8,4-1.5,5.9c1.6,9.6,3.6,19.1,5.3,28.7c0.7,4.2-0.5,5.9-3.6,5.7c-2.5-0.1-3.7-1.9-4-4c-0.5-3.6-0.3-7.3-0.8-10.9
			c-0.5-3.1-1.5-6.2-2.3-9.3c-1.4-6.1-2.8-12.2-4.3-18.8c-2,0.7-4.8,1.3-7.2,2.6c-5,2.7-10,5.7-14.8,8.8c-1.3,0.9-2,2.8-2.9,4.3
			c-1.7,2.8-3.1,6-5.3,8.3c-3.2,3.4-3.2,7.1-2.5,11.1c0.6,3.3,1.4,6.5,2.2,9.7c0.5,2.1,0.9,4.3-1.6,5.3c-2.5,1-4.7-0.1-5.7-2.3
			c-1.3-3.1-2.1-6.4-3-9.7c-1.1-4.3-2-4.9-5.3-2.4c-9.5,7.3-20.6,11.5-31.2,16.5c-13.3,6.2-26.8,11.9-40.5,17.1
			c-10.8,4.2-22,7.6-33.2,10.8c-14.4,4-29.1,6.6-44.1,4.6c-6.8-0.9-13.4-3.7-20.1-5.7c0.1-0.4,0.2-0.8,0.3-1.1
			c3.2,0.3,6.4,0.6,9.6,1c12.8,1.4,25.5,0.6,38.2-1.7c13.5-2.4,26.5-6.4,39.3-11.3c11.8-4.5,23.6-9.1,35.4-13.8
			c4.8-1.9,9.6-3.8,14.2-6.2c9.3-4.9,18.4-10.1,27.6-15.2c0.9-0.5,1.8-1.2,2.7-1.8c4.3-2.9,4.5-2.9,3.3-7.8
			c-1.2-4.8-2.6-9.6-4.2-14.2c-0.3-0.8-2-1.6-3.1-1.7c-8.1-1-16.1-2-24.2-2.8c-18.7-1.9-37.3-0.6-55.8,2.8
			c-5.9,1.1-11.7,2.2-17.6,3.1c-2.6,0.4-3.6,1.5-2.9,4.2c3.4,14.4,4.8,29,4.3,43.8c-0.1,2.6-0.9,4.6-3.3,4.6c-2.1,0-4.1-1.6-4.2-4
			c-0.3-6.4-0.1-12.9-0.7-19.3c-0.6-6.8-1.5-13.5-2.6-20.2c-1.1-6.5-1.2-6.4-7.7-4.8c-6.3,1.6-12.7,3.3-19.1,4.2
			c-3.3,0.5-7-0.5-10.3-1.4c-4.1-1.1-5.4-6.4-1.1-8.6c4.9-2.5,9.6-5.1,14.4-7.7c6.1-3.3,12.2-6.5,18.3-9.8c0.7-0.4,1-1.5,1.7-1.9
			c1-0.7,2.2-1.2,3.4-1.5c1.2-0.3,2.5-0.1,3.6-0.6c7.3-3.4,14.4-7.3,21.9-10.5c9.9-4.3,19.1-9.8,28.6-14.6
			c9.2-4.7,18.6-9.2,27.8-13.9c2.3-1.2,4.5-2.7,6.6-4.4c-3.1,0.7-6.1,1.5-9.2,2.2c-12.6,3.2-25.2,6.5-37.8,9.7
			c-12.1,3.1-24.4,5.7-36.4,9.1c-12.3,3.4-24.6,7.2-36.7,11.5c-13.4,4.8-26.7,10.1-39.8,15.7c-7.8,3.3-15.1,7.7-22.8,11.4
			c-7.9,3.8-15.9,7.4-23.9,11.1c-0.7,0.3-1.4,0.7-1.9,1.3c-3.5,3.5-8.7,2.7-11-1.8c-1.4-2.8-1.1-3.6,2-4.7c4.9-1.7,9.8-3.3,14.6-5.3
			c5.9-2.4,11.6-5.2,17.4-7.9c6.9-3.2,14-6.1,20.7-9.7c9.9-5.4,20.5-9.3,31.1-12.9c15.7-5.3,31.6-10,47.6-14.6
			c11.1-3.2,22.3-5.6,33.5-8.5c12.6-3.2,25.1-6.3,37.6-9.8c12.6-3.5,25.1-7.5,37.7-11.2c3.9-1.1,8-2,12-2.9c2.7-0.6,5.4,0.8,6,2.9
			c0.7,2.2-0.7,4.5-3.4,5.8c-10.1,5-20.2,10.2-30.4,15.2c-5,2.4-10.2,4.4-15.2,6.9c-12.9,6.4-25.6,13-38.5,19.4
			c-9.3,4.6-18.7,8.9-28,13.4c-2.5,1.2-4.9,2.4-7.3,3.7c-2.5,1.3-3.5,7.1-1.4,8.9c0.7,0.6,2.2,0.6,3.3,0.4
			c8.4-1.3,16.8-2.6,25.2-4.1c11.3-2,22.8-2.7,34.2-2.1c14.2,0.8,28.4,2.3,42.6,4.3c5.8,0.8,11.3,3.6,16.7,5.9
			c2,0.9,3.4,0.8,5.1-0.3c9.6-6.8,19.8-12,31.4-14.6c5.2-1.2,8.5,0,11.5,4.3c0.5,0.7,2.1,1.2,2.8,1c3.6-1.4,7.1-3.3,10.7-4.8
			c6.8-2.9,13.7-5.7,20.6-8.3c2.1-0.8,3.1-1.6,3-3.9c-0.7-10.8-1.5-21.6-2.1-32.4c-0.1-1.3,0.3-3.3,1.1-3.8c1-0.6,2.9-0.1,4.2,0.3
			c2.6,0.8,3.7,2.5,3.8,5.4c0.4,9.1,1.1,18.1,1.5,27.2c0.1,2.5,0.9,3.4,3.4,2.7c4.4-1.2,8.9-2.4,13.3-3.5c2-0.5,2.2-2,2-3.6
			c-0.7-5.5-1.4-11-2-16.5c-0.6-4.9-1.1-9.9-1.6-14.8c-0.3-3.3,1-4.2,4.2-3.4c2.8,0.6,4.7,2.1,5,5.3c0.7,8.4,1.6,16.7,2.2,25.1
			c0.4,4.6,0.9,5.3,5.3,4.1c11-2.8,21.9-5.8,32.9-8.6c5.5-1.4,11-2.4,16.6-3.5c2.6-0.5,6,1.7,6.4,4c0.4,2.5-1.5,3.7-4.4,5.3
			c-4.3,2.3-8.4,5.2-12.1,8.4c-4.5,3.9-8.7,8.1-12.7,12.6c-7,7.8-13.9,15.6-19,24.8C418.7,267.8,418.5,268.6,418.1,270z M408,267
			c0.4,0.2,0.8,0.3,1.2,0.5c0.5-0.8,1.1-1.5,1.5-2.3c0.8-1.6,1.1-3.6,2.2-5c4.8-6.3,9.7-12.6,14.9-18.7c4.2-4.9,9-9.5,13.4-14.2
			c0.9-0.9,1.5-2,2.6-3.7c-1.4,0.3-1.8,0.3-2.3,0.4c-10.5,3.1-20.9,6.3-31.5,9.2c-2.6,0.7-2.9,1.8-2.8,4c0.3,7.8,0.5,15.6,0.7,23.4
			C408,262.7,408,264.8,408,267z M134.8,261.1c0.1,0.2,0.3,0.4,0.4,0.6c6.7-1.1,13.5-2.1,20.2-3.6c0.6-0.1,0.7-3.6,0.7-5.5
			c0-0.4-2-1.3-2.7-1c-4,1.6-7.9,3.4-11.8,5.3c-1.6,0.8-3.2,1.7-4.8,2.6C136.2,260,135.5,260.6,134.8,261.1z M279.5,268.6
			c0.4,0.2,0.8,0.3,1.3,0.5c0.8-1.5,2.5-3.3,2.2-4.6c-0.4-1.9-2.6-2.8-5.2-2.5C278.4,264.4,278.9,266.5,279.5,268.6z"/>
		<path d="M367.9,308.5c0.1-0.2,0.5-1,1-2c0.6,0.5,1.2,1,1.6,1.4c0.3-0.1,0.7-0.1,0.7-0.2c1.4-3.7,5-3.4,7.7-3.6
			c2.8-0.3,4.9-1.8,7.4-2.5c4.4-1.4,8.6-3.9,13.1-4.2c2.8-0.2,5-2.4,7-1.9c4.5,1.1,8.4-2.5,13.5-0.7c-1.7,1.4-2.8,2.7-4.2,3.2
			c-3.9,1.4-8,2.4-12,3.5c-2.2,0.6-4.4,0.8-6.6,1.3c-0.4,0.1-0.9,0.2-1,0.5c-1.6,3.5-5.1,2.2-7.7,2.9c-2.7,0.7-5.5,0.9-8.1,1.6
			c-0.8,0.2-1.3,1.5-2.1,2c-1.2,0.8-2.5,1.5-3.8,2c-12.5,5-25.2,9.6-37.5,15.1c-8.2,3.7-16.1,8.3-23.7,13.3
			c-6.3,4.2-12.2,9.1-17.7,14.3c-5.8,5.4-8.7,12.4-7.7,20.6c0.6,5.3,3.4,9.5,6.8,13.3c6,7,14.2,10.9,22.2,15
			c8.4,4.3,16.9,8.7,25.7,11.9c9.6,3.5,19.7,5.7,29.6,8.4c11.7,3.2,23.8,3.7,35.8,4.1c7.2,0.2,14.5-0.1,21.7-0.3
			c5.2-0.2,10.5-0.2,15.7-0.9c5.7-0.7,11.3-2.2,16.9-3c11.5-1.7,22.6-5.2,33.9-8.1c2.9-0.7,5.6-2.1,8.5-3.1
			c4.5-1.6,9.1-2.9,13.5-4.7c5.3-2.1,10.5-4.6,15.7-7.1c8-3.7,16.1-7.1,23.8-11.3c12.5-6.9,24.6-14.4,36.8-21.8
			c10.4-6.3,20-13.5,28.6-22.1c9.7-9.7,16.8-21.1,20.7-34.3c5.6-18.9,8-38.1,6.2-57.8c-0.7-7.9-0.6-15.9-1.5-23.7
			c-0.6-5.2-1.9-10.5-3.5-15.5c-1.2-3.7-3.4-4-6.7-2.1c-9.6,5.7-14.3,14.6-17.3,25c-1.5,5.1-3.2,10.3-5.8,14.9
			c-4.8,8.3-15,10.1-22.5,4.1c-7.6-6-11.1-14.1-10.6-24c0.7-12,5.5-22.6,11.5-32.7c2.7-4.6,6-8.8,9.4-12.9c1.2-1.4,3.4-2.5,5.1-2.5
			c1.2,0,2.7,2,3.4,3.5c0.4,0.8-0.1,2.5-0.7,3.4c-5.7,6.8-11.1,13.9-14.3,22.2c-2.5,6.4-4.3,13.1-5.6,19.8c-0.9,5.1,0.9,10,3.9,14.4
			c2.5,3.6,8.9,5.1,12.1,0c1.9-3,3.3-6.4,4.7-9.7c2.5-5.7,4.3-11.7,7.3-17.1c3.9-7.2,9.5-13,17-16.7c4.7-2.4,10.8-0.6,14.1,4
			c3.5,4.9,5.4,10.6,5.9,16.3c1.4,15,2.4,30,2.8,45c0.2,7-1.1,14-1.9,21c-0.6,4.8-1.3,9.6-2.6,14.3c-4.8,17.3-11.9,33.2-25.1,46
			c-10.1,9.7-21.2,18-33.3,25.1c-6.7,4-13.1,8.5-19.8,12.3c-7.5,4.2-15.1,8.1-22.9,11.8c-10.9,5.1-21.9,10.2-33.2,14.8
			c-8.4,3.4-17.2,6-25.8,8.7c-6.1,1.9-12.2,3.8-18.4,5.1c-17.8,3.7-35.7,6.4-54.1,6.5c-14.9,0.1-29.8-0.6-44.5-3
			c-15.3-2.5-30.2-6.9-44.3-13.2c-11.3-5-22.4-10.7-33.1-16.8c-8.1-4.6-14.6-11.4-18.3-20.2c-2.6-6.4-3-12.9,0.4-19.6
			c4-8.1,9.8-14.1,16.9-19.6c3.3-2.6,6.4-5.5,10.1-7.8c7.9-4.9,15.6-10,24.3-13.4c1.8-0.7,3.8-1.2,5.5-2.1c3.1-1.5,6.1-3.4,9.3-4.8
			c1.1-0.5,2.7,0.1,4.1,0c0.9,0,2.3-0.1,2.5-0.5c1.7-3.4,5.1-3.7,8.2-4.4C364,308.7,365.7,308.7,367.9,308.5z"/>
		<path d="M498,237.1c1.5-2.8,3-5.7,4.6-8.5c4.1-7.2,8.3-14.5,14.3-20.3c4.2-4.1,8.5-8,14.3-9.8c3.2-1,6-0.2,8.4,2
			c3.6,3.2,5.4,7.3,6.2,11.9c1.6,8.8,1.2,18.1,5.8,26.1c2,3.4,4.4,6.6,7,9.6c1,1.1,3.2,1.7,4.8,1.5c3.8-0.5,7.6-1.5,11.4-2.3
			c1-0.2,2-0.1,2.9-0.2c-0.2,1-0.2,2.1-0.7,2.9c-6.4,9.6-19.2,10.9-27.3,0.4c-8-10.4-12.1-22-12.6-35.1c-0.1-2.2-0.7-4.4-1.2-6.6
			c-0.4-1.8-1.8-2.5-3.3-1.4c-4.5,3.2-9.6,6-13.1,10.2c-7,8.3-11.8,18.1-15.7,28.3c-1.6,4.2-2.5,8.8-3.5,13.2
			c-0.5,2.2-0.8,4.7-3.6,5c-2.7,0.3-4.5-1.5-5.2-3.9c-1.1-3.6-1.9-7.3-2.4-11c-1.1-7.4-2-14.8-3-22.3c-0.2-1.2-0.6-2.5-1.3-3.5
			c-1-1.4-1.6-2.8,0.1-3.7c1.4-0.7,3.4-1.4,4.7-0.9c3.9,1.4,4.9,5,5.6,8.6c0.7,3.2,1.2,6.4,1.9,9.6C497.4,236.9,497.7,237,498,237.1
			z"/>
		<path d="M340.8,232.9c-3.8,0-8.8-4.3-9.2-7.1c-0.2-1.8,2.1-3.9,3.9-3.1c2.5,1.1,4.9,2.5,7,4.1c0.7,0.5,0.9,2.4,0.5,3.3
			C342.6,231.4,341.3,232.3,340.8,232.9z"/>
		<path d="M451.6,286.1c-1,0.5-1.9,1.3-2.9,1.6c-6.7,1.7-13.5,3.3-20.3,5c-0.7,0.2-1.3,0.7-1.9,0.7c-0.8,0-1.5-0.4-2.3-0.6
			c0.1-0.4,0.1-0.7,0.2-1.1c1-0.2,2.1-0.6,3-0.4c1.5,0.4,2.4,0.3,3-1.2c0.2-0.4,1-0.8,1.6-0.9c5-0.8,9.9-1.4,14.9-2.3
			c1.4-0.3,2.6-1.4,3.8-2.1C451.1,285.2,451.4,285.7,451.6,286.1z"/>
		<path fill="#FFFFFF" d="M408,267c0-2.1,0-4.2,0-6.4c-0.2-7.8-0.3-15.6-0.7-23.4c-0.1-2.2,0.2-3.3,2.8-4c10.6-2.8,21-6.1,31.5-9.2
			c0.4-0.1,0.9-0.2,2.3-0.4c-1.2,1.7-1.8,2.8-2.6,3.7c-4.5,4.8-9.2,9.3-13.4,14.2c-5.2,6-10.1,12.4-14.9,18.7
			c-1.1,1.4-1.4,3.3-2.2,5c-0.4,0.8-1,1.5-1.5,2.3C408.8,267.3,408.4,267.1,408,267z"/>
		<path fill="#FFFFFF" d="M134.8,261.1c0.7-0.5,1.3-1.1,2.1-1.6c1.6-0.9,3.1-1.9,4.8-2.6c3.9-1.8,7.8-3.7,11.8-5.3
			c0.7-0.3,2.7,0.6,2.7,1c0.1,1.9,0,5.3-0.7,5.5c-6.7,1.5-13.4,2.5-20.2,3.6C135.1,261.5,135,261.3,134.8,261.1z"/>
		<path fill="#FFFFFF" d="M279.5,268.6c-0.6-2.1-1.1-4.2-1.7-6.5c2.6-0.3,4.7,0.6,5.2,2.5c0.3,1.3-1.4,3-2.2,4.6
			C280.3,269,279.9,268.8,279.5,268.6z"/>
	</g>
</g>
</svg>
