<?xml version="1.0" encoding="UTF-8" standalone="no"?>
<svg width="20px" height="28px" viewBox="0 0 20 28" version="1.1" xmlns="http://www.w3.org/2000/svg" xmlns:xlink="http://www.w3.org/1999/xlink" xmlns:sketch="http://www.bohemiancoding.com/sketch/ns">
    <!-- Generator: Sketch 3.3.2 (12043) - http://www.bohemiancoding.com/sketch -->
    <title>Imported Layers Copy 20</title>
    <desc>Created with Sketch.</desc>
    <defs></defs>
    <g id="Page-1" stroke="none" stroke-width="1" fill="none" fill-rule="evenodd" sketch:type="MSPage">
        <g id="Imported-Layers-+-Boutique-+-3-Bank-or-Credit-Car-Copy-3-+-Imported-Layers-Copy-20" sketch:type="MSLayerGroup" transform="translate(-866.000000, -30.000000)" fill="#5F6666">
            <path d="M871.341,30 L871.341,30 C871.862,30 872.357,30.207 872.736,30.582 L881.065,38.911 C881.273,39.046 881.399,39.212 881.477,39.314 L884.723,42.569 C885.105,42.951 885.316,43.459 885.316,43.999 C885.316,44.541 885.105,45.048 884.724,45.431 L872.748,57.406 C871.98,58.174 870.643,58.172 869.877,57.406 L866.66,54.189 C865.836,53.365 865.835,52.019 866.659,51.188 L873.769,44.079 C873.806,44.041 873.805,43.958 873.768,43.92 L866.595,36.748 C866.211,36.365 866,35.854 866,35.311 C866,34.769 866.211,34.258 866.596,33.875 L869.812,30.659 C870.236,30.235 870.779,30 871.341,30 L871.341,30 Z M879.936,40.591 L879.905,40.58 L871.33,32.003 C871.31,32.009 871.271,32.028 871.227,32.073 L868.009,35.29 L875.183,42.506 C875.581,42.906 875.801,43.436 875.801,43.999 C875.801,44.564 875.581,45.094 875.182,45.493 L868.076,52.599 C868.03,52.645 868.028,52.729 868.074,52.775 L871.29,55.992 L883.309,44.017 L880.081,40.754 C880.028,40.702 879.98,40.646 879.936,40.591 L879.936,40.591 Z" id="Imported-Layers-Copy-20" sketch:type="MSShapeGroup"></path>
        </g>
    </g>
</svg>