<?xml version="1.0" encoding="utf-8"?>
<!-- Generator: Adobe Illustrator 18.0.0, SVG Export Plug-In . SVG Version: 6.00 Build 0)  -->
<!DOCTYPE svg PUBLIC "-//W3C//DTD SVG 1.1//EN" "http://www.w3.org/Graphics/SVG/1.1/DTD/svg11.dtd">
<svg version="1.1" id="Layer_1" xmlns="http://www.w3.org/2000/svg" xmlns:xlink="http://www.w3.org/1999/xlink" x="0px" y="0px"
	 viewBox="0 0 600 400" enable-background="new 0 0 600 400" xml:space="preserve">
<g id="Layer_1_1_">
</g>
<g>
	<line fill="none" stroke="#EF6D44" stroke-miterlimit="10" x1="219.1" y1="177.3" x2="219.1" y2="155.9"/>
	<line fill="none" stroke="#EF6D44" stroke-miterlimit="10" x1="222.6" y1="177.3" x2="222.6" y2="155.9"/>
	<line fill="none" stroke="#EF6D44" stroke-miterlimit="10" x1="226" y1="177.3" x2="226" y2="155.9"/>
	<line fill="none" stroke="#EF6D44" stroke-miterlimit="10" x1="229.4" y1="177.3" x2="229.4" y2="155.9"/>
	<line fill="none" stroke="#EF6D44" stroke-miterlimit="10" x1="232.9" y1="177.3" x2="232.9" y2="155.9"/>
	<line fill="none" stroke="#EF6D44" stroke-miterlimit="10" x1="236.3" y1="177.3" x2="236.3" y2="155.9"/>
	<line fill="none" stroke="#EF6D44" stroke-miterlimit="10" x1="239.7" y1="177.3" x2="239.7" y2="155.9"/>
</g>
<circle fill="#EF6D44" cx="551.6" cy="81" r="5.6"/>
<rect x="360.9" y="107.1" fill="#D38D29" width="11.1" height="11.1"/>
<rect x="53.1" y="128.6" fill="#419089" width="11.1" height="11.1"/>
<path fill="#BBEAC7" d="M160.3,42.9v21.4h21.3C181.6,54,171.4,42.9,160.3,42.9z"/>
<path fill="#BBEAC7" d="M256.3,261.8v-10.1H246C246,256.8,250.3,261.8,256.3,261.8z"/>
<path fill="#D38D29" d="M471.4,150.6v10.5h10.5C481.9,155.4,477.4,150.6,471.4,150.6z"/>
<g id="Layer_4">
</g>
</svg>
