<?xml version="1.0" encoding="utf-8"?>
<!-- Generator: Adobe Illustrator 18.0.0, SVG Export Plug-In . SVG Version: 6.00 Build 0)  -->
<!DOCTYPE svg PUBLIC "-//W3C//DTD SVG 1.1//EN" "http://www.w3.org/Graphics/SVG/1.1/DTD/svg11.dtd">
<svg version="1.1" id="Layer_1" xmlns="http://www.w3.org/2000/svg" xmlns:xlink="http://www.w3.org/1999/xlink" x="0px" y="0px"
	 viewBox="0 169.6 600 60.9" enable-background="new 0 169.6 600 60.9" xml:space="preserve">
<g>
	<path fill="#CCCCCC" d="M252.6,189.7c0,3.4-1.1,6.8-3.2,8.1h0.1c1-0.1,2.3-1.1,2.8-1.8c1-1.6,1.5-3.8,1.5-6.3
		c0-3.3-0.8-6.4-2.4-8.3c-0.5-0.5-1.3-1.1-2.3-1.4H249C251.3,181.5,252.6,185.6,252.6,189.7L252.6,189.7z M285.8,219.3L285.8,219.3
		c1.5,0,2.8-1.3,3.3-2.9l2.4-7.1l-1-0.2l-2.5,7.2C287.8,217.5,286.8,218.9,285.8,219.3L285.8,219.3z M251.4,189.7
		c0-5.4-2.1-9.7-6-9.7h-4.2v17.8h5.1C249.6,197.7,251.4,194.1,251.4,189.7z M253.1,211c0-5.5-1.9-10-6.2-10.3h-5.7v17.1
		c0,0.9,0,1.6,0.7,1.6h4.1C250.5,219.3,253.1,216.8,253.1,211z M47.1,180h1v39.4h-1V180z M286.3,183.2l2,6.2l1-0.2l-0.2-0.7
		l-1.7-5.4c-0.6-2.1-1.5-2.9-2.8-2.9h-0.3C285.2,180.5,285.9,181.8,286.3,183.2L286.3,183.2z M267.9,180h1v39.4h-1V180z
		 M250.2,200.8L250.2,200.8c2.7,1.4,4.1,5.9,4.1,10.2c0,4-1.3,7-3.6,8.3h0.2c1-0.2,2.3-0.9,2.8-1.7c1.2-1.5,1.8-3.6,1.8-6.6
		c0-3.1-0.7-6.1-2-8.1C252.6,201.9,251.2,201,250.2,200.8L250.2,200.8z M69.8,180h1v39.4h-1V180z M234,180h1v39.4h-1V180z
		 M137.7,218.6c-5.4-4.4-7.8-11-7.8-18.2c0-7.3,3.1-14.7,8.6-19.3l0.8-0.7c0.1-0.2,0.1-0.6-0.8,0c-6.6,4.3-9.6,12.1-9.7,19.9
		c0,7.4,2.4,14.3,8.9,18.9c0.5,0.3,1,0.5,0.8,0L137.7,218.6L137.7,218.6z M87.9,180h1v39.4h-1V180z M154.9,207h-1v11.1l1-0.2V207z
		 M214.5,180.5c-1-0.4-1-0.2-0.3,0.3c4.7,3.5,6,11.8,6,19.5s-1.2,15.3-6,18.7c-0.7,0.5-0.7,0.7,0.3,0.3c6.3-2.9,6.9-12.8,6.9-19.2
		C221.4,194.8,220.8,183.5,214.5,180.5L214.5,180.5z M152.3,183.1c1,1.9,1.7,3.9,2.9,8.5l1-0.2c-1.3-4.8-2.1-6.7-2.8-8.2
		c-1-1.8-2.5-2.9-3.6-2.9h-0.1C150.2,180.6,151.6,181.6,152.3,183.1z M167.9,180h1v39.4h-1V180z M200.8,218.9
		c-5.3-4.5-7.9-11.3-7.9-18.6s2.6-14.7,7.9-19.4l0.8-0.7c0.3-0.5-0.3-0.3-0.8,0c-6.4,4.6-8.9,12.3-8.9,20.1c0,7.3,2.4,14.7,8.9,19.2
		c0.5,0.3,1,0.5,0.8,0L200.8,218.9z M219.1,199.7c0-13.1-3.7-19.4-9.9-19.4c-7,0-9.8,6.5-9.8,19.4c0,13.1,3.7,19.4,9.8,19.4
		C216.3,219.1,219.1,212.8,219.1,199.7z M186.2,216.1c-0.5,1.4-1.5,2.8-2.5,3.1h1.2c0.9-0.3,1.9-1.5,2.3-2.9l2.3-7.3l-1-0.2
		L186.2,216.1z M35.8,179.7h-0.8c1,0.3,1.5,1.8,1.9,3.1l2,6.6l1-0.2l-2-6.5C37.4,181.2,36.7,179.9,35.8,179.7z M496.3,184.3
		l10.9,35.1h1.1l-11.4-37L496.3,184.3z M523.4,180h1v39.4h-1V180z M490.9,202.7h9.9l-5.1-16.4L490.9,202.7z M8.4,189.1l1,0.2
		l0.4-10.2l-1-0.1L8.4,189.1z M557.4,219.3h1.2c0.9-0.3,1.9-1.5,2.3-2.9l2.3-7.3l-1-0.2l-2.3,7.3
		C559.3,217.5,558.4,218.9,557.4,219.3z M106.4,183.2l2,6.2l1-0.2l-0.2-0.7l-1.7-5.4c-0.6-2.1-1.5-2.9-2.8-2.9h-0.3
		C105.3,180.5,106,181.8,106.4,183.2L106.4,183.2z M541.5,180h1v39.4h-1V180z M0,169.6v60.9h600v-60.9H0L0,169.6z M112.8,222.2H64.5
		v-2.8h4.1v-18H54.3v18l4.2,0.1v2.8H41.8v-2.8h4.2v-39.4h-4v10l-3.8,0.7l-2.4-8c-0.8-2.6-1.2-2.9-4.1-2.9h-2.8v39.6h5.4v2.8H15.1
		v-2.8h5.4V180h-2.8c-2.7,0-3.4,0.4-4.2,2.9l-2.3,8l-3.8-0.7l0.4-13.1h50.7v2.8h-4.2v18h14.4v-18h-4.1v-2.8h16.7v2.8H77v39.4h9.7
		v-39.4h-4.2v-2.8h28.9V190l-3.8,0.7l-2.3-7.3c-0.8-2.6-1.8-3.4-4.5-3.5H95v18h11.3v3.4H95c0,17.2,0,18,0.1,18h7.7
		c2.5,0,3.8-1.6,4.8-4.6l2.5-7.1l3.8,0.7L112.8,222.2L112.8,222.2z M160.8,220.3l-3.7,0.3c-2.8,1.1-7.1,2-10,2
		c-11.1,0-19.3-7.1-19.3-22.3c0-12.1,7.6-23.6,19.6-23.6c4.7,0,8,0.9,11.7,3.5V192l-4.5,0.8c-1.9-7.1-3.5-12.7-8.2-12.7
		c-5.9,0-9.9,8.2-9.9,18.9c0,14.2,5.1,19.8,11.1,19.8c1.9,0,3.4-0.1,5.1-0.5V207h-4.9v-2.8h13.1L160.8,220.3L160.8,220.3z
		 M209.2,222.6c-9.1,0-15.1-5-17.5-13.5l-1,13.1h-28.5v-2.8h4.5v-39.4h-4v-2.8h16.5v2.8H175c0,37.6,0,39.4,0.1,39.4h5.3
		c2.8,0,4.2-2,5.1-4.7l2.3-7.5l3.5,0.7c-0.5-2.4-0.8-4.9-0.8-7.7c0-12.6,6.4-23.6,18.7-23.6c12,0,18.8,8.6,18.7,22.5
		C228,211.7,221.6,222.6,209.2,222.6z M247.6,222.2h-19.2v-2.8h4.5v-39.4h-4.5v-2.8h18.3c8.3,0,13.1,4.3,13.1,11.6
		c0,3.9-2.1,8.3-8,10.2c6.5,0.9,10.1,5.5,10.1,11.4C261.8,217.4,256.2,222.2,247.6,222.2L247.6,222.2z M292.9,222.2h-30.3v-2.8h4.2
		v-39.4h-4.2v-2.8h28.9v12.9l-3.8,0.7l-2.3-7.3c-0.8-2.6-1.8-3.4-4.5-3.5H275v18h11.3v3.4H275c0,17.2,0,18,0.1,18h7.7
		c2.5,0,3.8-1.6,4.8-4.6l2.5-7.1l3.8,0.7L292.9,222.2z M397.1,222.2h-16.3v-2.8h4.5v-39.4h-3.8c-4.2,0-5.1,1.8-5.1,4.8v29.3
		c0,2.8-0.1,5.7-0.1,8.1h-3.6l-21.3-33v25.4c0,2.2,0.1,4.7,6.5,4.8v2.8h-29.2v-2.8h3.9c-1.4-4.7-2.8-9.1-4.1-13.4h-11.9
		c-1,3.7-1.6,5.9-1.9,7.4c-1,4.2-0.8,5.6,4,6v2.8h-13.4v-2.8c2.9,0,4.3-1.8,5.4-4.7c0,0,9.7-30.8,11.4-37.5h6.6l12.9,42.2h3.3v0.1
		c3.1-0.4,3.3-2.3,3.3-4.8v-30.3c-1.3-2-3.2-4.3-5.4-4.5v-2.6h11.3c0.7,1.3,13.5,20.5,19.2,29.7v-22c0-1.8-0.1-4.8-5.6-4.8v-2.8
		h29.5c13,0,20.1,9.1,20.1,21.9C417.2,211.5,409.9,222.2,397.1,222.2L397.1,222.2z M534.8,222.2h-32.7v-2.8h3.9
		c-1.4-4.7-2.8-9.1-4.1-13.4H490c-1,3.7-1.6,5.9-1.9,7.4c-1,4.2-0.8,5.6,4,6v2.8H462v-2.8h4.5l-2.1-33.6l-10.1,29.9l-1.8,0.8
		l-12-30.3l-0.3,7.6c-0.3,9.1-0.8,20.6-0.8,21.9c0,1.5,0.3,3.1,5.1,3.9v2.7H431v-2.6c4.2-1,4.8-2,4.9-4c0.6-8.3,1.5-22.3,1.9-30.3
		v-0.5c0-4.4-0.4-3.9-5-4.8v-2.8h13.4c0,0,4.7,12.5,10,25.6c2.9-8.2,6.6-19.2,9-25.6h12.4v2.8c-4.1,0.5-4.4,1.1-4.4,3.6
		c0,0.9,0.1,2.5,0.3,8.5l1.2,27.3h4c2.9,0,4.3-1.8,5.4-4.7c0,0,9.7-30.8,11.4-37.5h6.6l12.9,42.2h7.4v-39.4H518v-2.8h16.7v2.8h-4.1
		v39.4h4.2L534.8,222.2L534.8,222.2z M564.2,222.2h-27.4v-2.8h3.4v-39.4h-3.4v-2.8h16v2.8h-4.2c0,37.6,0,39.4,0.1,39.4h5.3
		c2.8,0,4.2-2,5.1-4.7l2.3-7.5l3.9,0.7L564.2,222.2L564.2,222.2z M590.6,191.7c-1.3,0.9-0.4,1.2-0.1,1.4c0.3,0.2,0.3,0.6-1.5,1
		c-3.7,1.1-2.5,1.9-2.5,1.9s1,0.2,1,0.7c-1.8,1.5-2.8,0.7-5,1.2c-2.2,0.6-0.5,2-0.5,2c0.5,0.2,1.2,0.6,1,1c-4,0.9-7.2-2.3-7.9-3.4
		c-0.5-0.9-0.9-0.8-1-0.8c-0.2,0-0.4,0.3-1,1.2c-1.2,2-2.9,4.7-4.5,4.5l-0.3-0.1c-0.4-0.3-0.5-0.6-0.5-1c0.1-0.9,0.9-0.6,0.9-0.6
		c1.7-0.2,3.5-2.8,3.8-3.7c0.3-1,0.2-1.3-2.2-1.1c-2.3,0.2-4-3-4-3c-0.3-0.5-1.1-0.2-1-0.8c0.2-0.6,1.1-0.2,2.1-0.3
		c1-0.1,1.5-0.9,1-1.5s-2.6-2.4-3-3c-0.5-0.7-0.8-1.1,0.6-1.3c1.4-0.2,1.7-1,1.4-1.4c-0.4-1-0.4-2-0.1-2.8c0.3-0.8,0.3-1.9,0-2.3
		c-0.3-0.2-0.7-1-0.5-1.4c1.7,0.1,3.7,2.8,4,3.1c1.2-1.6,2.4,1.6,3.1,2.9c0.7,1.4,1,0.6,1.4,0.2c0.4-0.3,2.1-5.7,2.3-6.3
		c0.2-0.6,0.8-0.9,0.8,0c-0.2,0.9,0.9,1.5,1.6,1.3c0.7-0.2,2.9-2.4,3.4-3c0.7-1,0.7,0.2,0.7,0.2c0.1,0.6,0.2,5,1,4.8
		c1-0.5,1.2-0.3,1.2,0s-0.2,2-1.4,4c-1.1,2.1-1.3,1.7-0.9,3.1c0.6,1.4,2.1,0.6,2.8,0c0.7-0.6,1.3-0.7,1.8,0.2
		c0.6,0.9,1.6,1.1,2.4,0.7c0.7-0.4,1.3-0.5,1.5-0.2C592.7,189.6,591.8,190.8,590.6,191.7L590.6,191.7z M465.3,183.1l2.3,36.2h1
		l-2.4-38.7L465.3,183.1z M21.7,179.9h1v39.6h-1V179.9z M440.6,183.2l11.9,30.1l0.6-1.4l-12.4-31.1L440.6,183.2z M322.8,184.3
		l10.9,35.1h1.1l-11.4-37L322.8,184.3z M347.9,180.3l-1.3-0.2l-0.1,0.1c0.7,0.7,2,2.5,2.6,3.4l23.8,36.9v-1.9L350.5,184
		C349.6,182.6,347.9,180.3,347.9,180.3L347.9,180.3z M317.5,202.7h9.9l-5.1-16.4L317.5,202.7z M386.4,180h1v39.4h-1V180z
		 M105.9,219.3L105.9,219.3c1.6,0,2.8-1.3,3.3-2.9l2.4-7.1l-1-0.2l-2.5,7.2C107.7,217.5,106.9,218.9,105.9,219.3L105.9,219.3z
		 M404.3,181.8c-1-0.7-2.6-1.7-3.8-1.8h-0.2c2.8,1.2,4.7,3.4,6.3,6.1c2.1,3.7,3.1,8.5,3.1,14.1c0,6.1-0.8,16-8.2,19.1h0.3
		c2.2-0.2,4.2-2,5.4-3.6c2.8-3.8,3.5-9.9,3.5-15.6C410.7,192.3,408.8,185.5,404.3,181.8z M408.5,200.5c0-8.2-2.6-16.1-7.8-19.2
		c-1.5-0.8-2.8-1.4-6.4-1.4h-0.8v37.4c0,1.3,0.5,2,1.6,2h1c3.4,0,4.8-0.7,6.2-1.6C406,215.4,408.5,209.8,408.5,200.5z"/>
</g>
</svg>
