<?xml version="1.0" encoding="utf-8"?>
<!-- Generator: Adobe Illustrator 16.0.4, SVG Export Plug-In . SVG Version: 6.00 Build 0)  -->
<!DOCTYPE svg PUBLIC "-//W3C//DTD SVG 1.1//EN" "http://www.w3.org/Graphics/SVG/1.1/DTD/svg11.dtd">
<svg version="1.1" id="Layer_1" xmlns="http://www.w3.org/2000/svg" xmlns:xlink="http://www.w3.org/1999/xlink" x="0px" y="0px"
	 width="41.666px" height="41.667px" viewBox="0 0 41.666 41.667" enable-background="new 0 0 41.666 41.667" xml:space="preserve">
<path fill="#007AB8" d="M22.86,19.491V19.45c-0.008,0.014-0.018,0.027-0.027,0.041H22.86z M33.434,7.133H10.232
	c-1.111,0-2.012,0.879-2.012,1.963v23.475c0,1.084,0.9,1.963,2.012,1.963h23.202c1.111,0,2.012-0.879,2.012-1.963V9.096
	C35.445,8.012,34.545,7.133,33.434,7.133z M16.473,30.069h-4.112V17.698h4.112V30.069z M14.417,16.008H14.39
	c-1.381,0-2.273-0.949-2.273-2.138c0-1.214,0.92-2.138,2.326-2.138c1.408,0,2.274,0.924,2.3,2.138
	C16.743,15.059,15.851,16.008,14.417,16.008z M31.301,30.069h-4.111V23.45c0-1.662-0.596-2.797-2.083-2.797
	c-1.137,0-1.812,0.766-2.109,1.504c-0.109,0.266-0.137,0.633-0.137,1.004v6.908h-4.111c0,0,0.055-11.211,0-12.371h4.111v1.752
	c0.547-0.842,1.523-2.043,3.707-2.043c2.705,0,4.734,1.77,4.734,5.569V30.069z"/>
</svg>
