<?xml version="1.0" encoding="utf-8"?>
<!-- Generator: Adobe Illustrator 18.0.0, SVG Export Plug-In . SVG Version: 6.00 Build 0)  -->
<!DOCTYPE svg PUBLIC "-//W3C//DTD SVG 1.1//EN" "http://www.w3.org/Graphics/SVG/1.1/DTD/svg11.dtd">
<svg version="1.1" id="Layer_1" xmlns="http://www.w3.org/2000/svg" xmlns:xlink="http://www.w3.org/1999/xlink" x="0px" y="0px"
	 viewBox="2 169.1 600.2 81.8" enable-background="new 2 169.1 600.2 81.8" xml:space="preserve">
<g>
	<path fill="#CCCCCC" d="M39.1,169.3c-1.3,0-1.6,0-3.4,0.3c2.1,0.3,4.5,0.3,5.8,2.4c1.1,1.8-0.3,3.2-1,3.7c-1.6,1-3.4,0.8-5.6,0.2
		c-5.9-1.4-12.5-4-17.5-4.8c-3.4-0.5-6.3,0.6-8.8,2.1c-2.9,2.1-4.5,5.3-4.2,8.7c0.2,2.7,1.6,4.8,3.5,5.9c1.1,0.6,1.6,0.6,1.6,0.6
		c-0.5-0.5-1.1-1.1-1.4-1.9c-0.5-1.6,0.2-3.4,1.4-4.5c1.1-1,3-1.1,4.7-0.8c1.6,0.2,11.6,2.9,14.6,3.7c2.1,0.5,6.4,1.4,9.3,1.8v10.6
		l-5.6,4.2l5.3,4.2v14.8c0,0-4.8,2.9-11.6,2.1c-4-0.5-8.7-3.5-10.3-5.6l13.3-6.6v-22.8l-16.7,7.4c1-2.7,3.4-6.3,6.3-8
		c1-0.6,1.8-1.1,2.4-1.6c-1.4,0.2-1.9,0.3-2.9,0.8c-8.7,3.2-16,11.6-16.4,21.3c-0.2,5,1.1,9.6,3.7,13.5c3.7,5.6,9.1,8.8,14.9,9.9
		c5.1,1,9.8,0.6,16-2.7c3.5-1.9,6.4-5.3,7.9-8.7c2.1-4.7,2.2-8.2,1.9-9.9c-0.3,0.6-0.5,1.1-0.5,1.1c-3.4,6.6-7.9,9.6-7.9,9.6v-14.4
		l5.6-4.3l-5.3-4.2v-10.6c0,0,2.2,0.2,5-1.6c2.6-1.6,3.4-2.9,4-5.5c0.8-2.7,0.3-5.8-1.9-7.7C43.4,170.2,40.8,169.4,39.1,169.3z
		 M11,204.7c-0.3-5.5,1.4-9.1,1.4-9.1l7.2-2.9v22l-4.2,1.8C13.6,214,11.1,208.9,11,204.7z M104.2,224.1l-7.5-6.7v-2.6l14.9-10.6
		l-7.5-12.8c0,0-5.1,3-8.7,5c-3.4,1.9-8,4.2-8,4.2v20.9l-3,2.4l0.5,0.5l3-2.4l9.5,8.2l16.4-12.5l-0.3-0.5L104.2,224.1L104.2,224.1z
		 M96.7,196.2l7.5,12.5l-7.5,5.5C96.7,214.2,96.7,196.2,96.7,196.2z M79.2,199.1l-7.4-8l-11.1,7.9v-26.6l-10.3,8.8
		c0.5,0.3,2.9,0.6,2.9,2.9v37.4l-5.6,3.5l0.3,0.5l2.4-1.8l6.7,6.1l10.6-8.2l-0.3-0.5l-2.6,1.9l-4.2-2.4v-20.9l4.7-2.6l4.7,5.6v18
		c0,4.8,0,10.7-2.6,13.6s-3.7,3-6.3,3.9c2.1,0.5,5.9,0.8,10.6-1.4c5.1-2.4,7.7-7.7,7.5-13l0.2-7.5v-16.7l3.2-2.4l-0.5-0.5
		L79.2,199.1z M164,185c2.1,0,4.8-1.1,6.4-2.7c4.8-4.8,2.9-10.1,2.4-10.7c-0.3,2.4-2.1,4.7-5.1,4.7c-4,0-6.4-2.9-6.4-2.9l-10.1,10.9
		l0.5,0.5l2.7-3c3.4,3,5.3,3.4,7.9,3.5v26.1l-18.1-33.2c-1.8-2.7-4.3-5.1-8.3-5.1c-4.7,0-8,4-8.5,7.4c-0.5,3.9,0,4.8,0,4.8
		s0.6-4.3,3.4-4.3c2.4,0,3.2,1.3,4.3,2.9v10.6c-2.6,0.2-8.7,0.5-9.1,7.2c0,2.6,1.6,5.1,3,5.9c1.8,1.1,3.2,1.1,3.2,1.1
		s-2.1-1.1-1.4-3.4c0.6-1.9,4.3-2.2,4.5-1.4v13.5c-2.1,0-8,0.2-11.1,5.6c-1.8,3.2-1.6,6.9,0.2,9.5c1.6,2.1,4.7,4.8,10.3,3.9
		c-4.2-0.5-5.9-2.9-5.9-5c0-1.3,1.3-3.7,3.9-4c2.6-0.3,5.1,0.8,7.4,3.4l9.8-10.4l-0.5-0.5l-2.6,2.9c-2.7-2.9-5.9-4.8-9.8-5.3v-31.8
		l24.9,44.8c0,0,0.6,0.5,1.8,0.5c1,0,0.6-0.6,0.6-0.6S164,185,164,185z M188.3,224.1l-7.4-6.7v-2.6l14.9-10.6l-7.5-12.8
		c0,0-5.1,3-8.7,5s-8,4.2-8,4.2v20.9l-3,2.4l0.5,0.5l3-2.4l9.5,8.2l16.4-12.5l-0.3-0.5L188.3,224.1L188.3,224.1z M180.7,196.2
		l7.5,12.5l-7.5,5.5C180.7,214.2,180.7,196.2,180.7,196.2z M249.2,197.3l-7.5-5.9l-8,7.1l3.2,2.9v23.7l-1.3,0.8l-7.4-5.5v-19.9
		l3.4-2.9l-7.4-6.3l-8,6.9l2.2,3v22.3l-1.4,1.1l-5-4.5v-20.5c-0.2-5.9-8-6.3-9.1-10.7c-0.8-2.9,2.6-4.8,2.6-4.8s-2.1,0-3.9,1
		c-1.8,0.8-5.3,3.5-5.5,6.9c-0.3,7.9,6.9,6.1,6.6,13.5v18.1l-3.5,2.6l0.3,0.5l3.5-2.4l8,6.4l9.1-6.9l8.5,6.7l17.2-10.3V201l6.7-5.8
		l-0.3-0.5L249.2,197.3L249.2,197.3z M563.8,224.1l-7.5-6.7v-2.6l14.9-10.6l-7.5-12.8c0,0-5.1,3-8.7,5c-3.4,1.9-7.9,4.2-7.9,4.2
		v20.9l-3.4,2.4l0.5,0.5l3-2.4l9.5,8.2l16.4-12.5l-0.3-0.5L563.8,224.1L563.8,224.1z M556.4,196.2l7.7,12.5l-7.7,5.5
		C556.4,214.2,556.4,196.2,556.4,196.2z M546,220.7l-2.4,2.1l-4.2-3.9v-19.6l4-2.7l-0.3-0.5l-3.7,2.7l-6.7-7.4l-9.6,7.4l-6.9-7.1
		l-9.3,7.1l-6.9-7.1l-9.9,8.3l0.3,0.5l3.2-2.6l4.5,5v17.3l-2.2,1.9l7.2,7.9l7.4-7.1l-3-3v-20.9l1.8-1.4l4.7,5.8v17.2l-1.4,1.9
		l6.7,7.2l7.2-6.9l-2.9-2.7v-20.9l2.1-1.6l5.9,5.6v17.2l-2.4,1.6l7.5,7.9l9.9-8.8L546,220.7z M490.2,223.8l-3.9-4.3v-19.4l3.4-2.7
		l-0.5-0.5l-3.2,2.7l-6.9-7.9l-10.3,8l1.3,0.3l2.6-2.1l4.2,4.7v19.7l-2.9,2.4l0.3,0.5l3-2.6l6.6,7.4l9.5-8.2l-0.3-0.5L490.2,223.8z
		 M485.4,183.2l-5.8-6.3l-7.2,6.4l5.8,6.1L485.4,183.2z M459.5,169.3c-1.3-0.2-1.8-0.2-3.5,0.2c2.1,0.3,4.5,0.3,5.8,2.4
		c1.1,1.8-0.2,3.2-1,3.7c-1.6,1-3.4,0.8-5.6,0.2c-5.9-1.4-12.5-4-17.5-4.8c-3.4-0.5-6.3,0.6-8.8,2.1c-2.9,2.1-4.5,5.3-4.2,8.7
		c0.2,2.7,1.6,4.8,3.5,5.9c1,0.6,1.6,0.6,1.6,0.6c-0.5-0.5-1.1-1.1-1.4-1.9c-0.5-1.6,0.2-3.4,1.4-4.5c1.1-1,3-1.1,4.7-0.8
		c1.6,0.2,11.6,2.9,14.6,3.7c2.1,0.5,5.8,1.4,8.7,1.8V197l-4.8,4.2l4.8,4.2v14.8c0,0-4.2,2.9-11.1,2.1c-4-0.5-8.7-3.5-10.3-5.6
		l13.5-6.6v-22.6l-16.7,7.2c1-2.7,3.4-6.3,6.3-8c1-0.6,1.8-1.1,2.4-1.6c-1.4,0.2-1.9,0.3-2.9,0.8c-8.7,3.2-16.2,11.6-16.4,21.3
		c-0.2,5,1.1,9.6,3.7,13.5c3.7,5.6,9,8.8,14.9,9.9c5.1,1,9.8,0.6,16-2.7c3.5-1.9,6.4-5.3,8-8.7c2.1-4.7,2.2-8.2,1.9-9.9
		c-0.3,0.6-0.5,1.1-0.5,1.1c-3.4,6.6-7.4,9.5-7.4,9.5v-14.3l4.8-4.2l-4.8-4.2v-10.6c0,0,1.9,0.2,4.5-1.6c2.6-1.6,3.4-2.9,4-5.5
		c0.8-2.7,0.3-5.8-1.9-7.7C463.9,170.2,461.1,169.4,459.5,169.3L459.5,169.3z M431.3,204.7c-0.3-5.5,1.4-9.1,1.4-9.1l6.7-2.9v22
		l-3.7,1.8C434,214,431.6,208.9,431.3,204.7L431.3,204.7z M595.6,203.4c7.9-8.8,5.8-12.8,5.1-14.1c0.2,0.8,0.3,4.2-4.2,4.7
		c-2.9,0.2-5.5-2.9-5.5-2.9s-3.5,2.2-6.9,4.3c-3.4,2.1-7.7,4.2-7.7,4.2v9.9l5.9,5.3c-5,5-8.3,8-7.2,12.7c1.1,4.8,5.9,5.9,6.9,5.6
		c-3.2-1.1-4.3-3.7-1.9-5.3c3.4-2.2,7.4,2.6,7.4,2.6c7.1-5,14.6-8.8,14.6-8.8v-13L595.6,203.4L595.6,203.4z M593.3,225.6
		c0,0-1.9-5.8-7.5-6.9c-5.8-1.1-9.3,4.3-9.3,4.3c1-3.7,8.5-9.6,12.8-13.8l3.9,3.2v13.2H593.3z M588.8,208.9l-3.5-3v-10.4
		c0,0,2.1,3.9,5.9,5c4.7,1.4,8.2-3.2,8.2-3.2C596.5,202.9,588.8,208.9,588.8,208.9z M340.7,200.1l-10.4-8.8c0,0-3.9,2.2-7.4,4.2
		c-3.9,2.1-8.5,4.2-8.5,4.2h0.5v22.1l-3.4,2.2l0.5,0.5l2.6-2.2l9.8,8c0,0,4-2.4,7.7-4.5c3.7-2.1,8.3-4.8,8.3-4.8v-20.4l3.5-2.6
		l-0.5-0.5L340.7,200.1z M331.2,225.6l-8.3-7.2v-22.5l8.3,7.4V225.6z M371.9,193.2c-1.8,1-3.7,0-4-0.2c-0.8-0.3-1.6-1.1-1.6-1.1
		l-6.3,6.3l-5.6-6.6l-9.9,8.7l0.5,0.5l2.9-2.4l2.6,4.2v19.1l-3.5,3.7l0.5,0.5l2.9-2.6l7.9,6.9l10.3-8.3l-0.3-0.5l-3.4,2.6l-5-3.2
		v-22.1c3.7,4.3,8,3.2,9.3,2.7c3-1.4,5.3-4.8,5.1-9.6C373.1,192.5,372.9,192.7,371.9,193.2L371.9,193.2z M408.5,223.2l-16-23.4
		l0.8-1.1c0,0,3.9,3,8,2.4c4.7-0.8,7.1-5.6,7.5-10.1c0,0-3.2,3.4-6.7,2.4c-2.7-0.6-4.2-2.4-4.2-2.4l-11.6,16.2l14.8,22.9l11.1-9.3
		l-0.5-0.5L408.5,223.2z M389.3,223.3l-3.9-3.4v-48.4l-12,8.5c1.9-0.2,4,2.1,4,5.5v36.3l-5.5,4l0.5,0.5l2.7-2.4l6.9,6.3l10.1-8.5
		l-0.5-0.5L389.3,223.3L389.3,223.3z M283.7,228.4c6.4,1,13.6,4.8,19.6,1.4c2.7-1.6,3-4.3,3.4-7.1v-42l3.5-3l-0.3-0.5l-3.5,2.9
		l-7.4-6.4l-9.8,7.9v-7.4h-1.6v54.4c0,0-0.8-0.3-2.2-0.6c-1.3-0.3-2.6-0.5-2.6-0.5v-44.9c0-3.2-2.1-6.9-6.9-8.2
		c-4.8-1.1-7.9,1.3-9.5,3c-2.9,3-2.4,6.4-2.4,6.4s0.8-4.3,4-4.3c2.2,0,3.5,1.9,3.5,5.1v12.7c-3.2,0.3-5.6,0.8-7.9,3.7
		c-2.6,3.4-0.6,7.1,0.3,8.2c1.9,2.1,4.2,1.8,4.2,1.8s-2.7-1.1-1.6-3.5c0.8-1.6,4.5-1.8,4.8-1v21.7c0,0-7.1,2.2-7.2,8.2
		c-0.2,4,2.2,8.2,5.6,9.6c6.6,2.7,16.5-1.1,24.7-2.1c3.9-0.5,5,0,5.5,1.8c1,3.2-2.6,5.3-2.6,5.3s7.2-1,8.8-6.6c1-2.9,1-7.2-5.1-9.9
		c-6.6-3-25.8,4.5-30.2,1.8c-2.1-1.4-2.2-3.5-1.6-5C271.5,227,278.9,227.8,283.7,228.4L283.7,228.4z M289.2,182.6l2.4-1.8l4,4.2
		v13.3c0,0-0.6,1.8-2.7,1.8c-2.2,0-3.7-1.8-3.7-1.8S289.2,182.6,289.2,182.6z M289.2,199.1c0,0,1,1.6,3.2,1.6s3.5-1.6,3.5-1.6v6.6
		c0,0-1.4-1.4-3.5-1.4c-2.2,0-3.2,1.6-3.2,1.6V199.1z M289.2,206.8c0,0,1.4-1.8,3.7-1.8s2.7,1.8,2.7,1.8v16.8c0,0,1,2.7-1.3,4.5
		c-2.1,1.8-5.1,1-5.1,1V206.8z"/>
</g>
</svg>
