<?xml version="1.0" encoding="UTF-8" standalone="no"?>
<svg width="77px" height="63px" viewBox="0 0 77 63" version="1.1" xmlns="http://www.w3.org/2000/svg" xmlns:xlink="http://www.w3.org/1999/xlink" xmlns:sketch="http://www.bohemiancoding.com/sketch/ns">
    <!-- Generator: Sketch 3.3.2 (12043) - http://www.bohemiancoding.com/sketch -->
    <title>Imported Layers</title>
    <desc>Created with Sketch.</desc>
    <defs></defs>
    <g id="Page-1" stroke="none" stroke-width="1" fill="none" fill-rule="evenodd" sketch:type="MSPage">
        <g id="Imported-Layers" sketch:type="MSLayerGroup">
            <path d="M17.4363553,29.154336 L9.93684765,29.154336 C9.67792715,29.154336 9.46812842,28.9445373 9.46812842,28.6856168 C9.46812842,28.4266963 9.67792715,28.2168976 9.93684765,28.2168976 L17.4363553,28.2168976 C17.6952758,28.2168976 17.9050745,28.4266963 17.9050745,28.6856168 C17.9050745,28.9445373 17.6952758,29.154336 17.4363553,29.154336" id="Fill-1" fill="#008B8C" sketch:type="MSShapeGroup"></path>
            <path d="M36.1851245,29.154336 L28.6856168,29.154336 C28.4266963,29.154336 28.2168976,28.9445373 28.2168976,28.6856168 C28.2168976,28.4266963 28.4266963,28.2168976 28.6856168,28.2168976 L36.1851245,28.2168976 C36.444045,28.2168976 36.6538437,28.4266963 36.6538437,28.6856168 C36.6538437,28.9445373 36.444045,29.154336 36.1851245,29.154336" id="Fill-2" fill="#008B8C" sketch:type="MSShapeGroup"></path>
            <path d="M60.5585244,10.4055669 L32.4353706,10.4055669 C32.1764501,10.4055669 31.9666514,10.1957682 31.9666514,9.93684765 C31.9666514,9.67792715 32.1764501,9.46812842 32.4353706,9.46812842 L60.5585244,9.46812842 C60.8174449,9.46812842 61.0272436,9.67792715 61.0272436,9.93684765 C61.0272436,10.1957682 60.8174449,10.4055669 60.5585244,10.4055669" id="Fill-3" fill="#007572" sketch:type="MSShapeGroup"></path>
            <path d="M13.6866015,16.6550941 C13.427681,16.6550941 13.2178823,16.4452954 13.2178823,16.1863749 L13.2178823,0.562463074 C13.2178823,0.303542573 13.427681,0.0937438457 13.6866015,0.0937438457 L15.5614784,0.0937438457 C15.8022126,0.0937438457 16.0037619,0.276356857 16.0277603,0.515778639 L17.4794775,15.0308882 C17.5051633,15.2884963 17.3173006,15.5183562 17.0596925,15.5438546 C16.801522,15.5719777 16.5725995,15.3816777 16.5467262,15.1242571 L15.1371937,1.0311823 L14.1553207,1.0311823 L14.1553207,16.1863749 C14.1553207,16.4452954 13.945522,16.6550941 13.6866015,16.6550941" id="Fill-4" fill="#007572" sketch:type="MSShapeGroup"></path>
            <path d="M10.1312724,17.8403913 C10.1157109,17.8403913 10.0999619,17.8396413 10.0840255,17.8381414 C9.8264174,17.8124556 9.63855473,17.5825957 9.66442803,17.3249876 L11.3454427,0.515778639 C11.3694411,0.276356857 11.5709904,0.0937438457 11.8117246,0.0937438457 L13.6866015,0.0937438457 C13.945522,0.0937438457 14.1553207,0.303542573 14.1553207,0.562463074 L14.1553207,16.1863749 C14.1553207,16.4452954 13.945522,16.6550941 13.6866015,16.6550941 C13.427681,16.6550941 13.2178823,16.4452954 13.2178823,16.1863749 L13.2178823,1.0311823 L12.2360092,1.0311823 L10.5971793,17.4183565 C10.5729934,17.6600281 10.3691943,17.8403913 10.1312724,17.8403913" id="Fill-5" fill="#008B8C" sketch:type="MSShapeGroup"></path>
            <path d="M23.0609861,13.5304242 C22.8020656,13.5304242 22.5922668,13.3206255 22.5922668,13.061705 L22.5922668,0.562463074 C22.5922668,0.303542573 22.8020656,0.0937438457 23.0609861,0.0937438457 L24.935863,0.0937438457 C25.1765972,0.0937438457 25.3781464,0.276356857 25.4021449,0.515778639 L26.5512569,12.0068993 C26.5771302,12.2645073 26.3892676,12.4943672 26.1316595,12.5198656 C25.8734889,12.5476138 25.644379,12.3578762 25.6186931,12.1002681 L24.5115783,1.0311823 L23.5297053,1.0311823 L23.5297053,13.061705 C23.5297053,13.3206255 23.3199066,13.5304242 23.0609861,13.5304242" id="Fill-6" fill="#007572" sketch:type="MSShapeGroup"></path>
            <path d="M19.8290732,14.607916 C19.8135117,14.607916 19.7977628,14.607166 19.7818263,14.6054787 C19.5242182,14.5799803 19.3363556,14.3501204 19.3620414,14.0925123 L20.7198273,0.515778639 C20.7438257,0.276356857 20.9453749,0.0937438457 21.1861091,0.0937438457 L23.0609861,0.0937438457 C23.3199066,0.0937438457 23.5297053,0.303542573 23.5297053,0.562463074 L23.5297053,13.061705 C23.5297053,13.3206255 23.3199066,13.5304242 23.0609861,13.5304242 C22.8020656,13.5304242 22.5922668,13.3206255 22.5922668,13.061705 L22.5922668,1.0311823 L21.6103938,1.0311823 L20.2947927,14.1858812 C20.2706067,14.4275528 20.0668076,14.607916 19.8290732,14.607916" id="Fill-7" fill="#008B8C" sketch:type="MSShapeGroup"></path>
            <path d="M69.9329089,57.2774898 L66.1831551,57.2774898 C65.9242346,57.2774898 65.7144359,57.067691 65.7144359,56.8087705 L65.7144359,53.0590167 C65.7144359,52.8000962 65.9242346,52.5902975 66.1831551,52.5902975 L69.9329089,52.5902975 C70.1918294,52.5902975 70.4016282,52.8000962 70.4016282,53.0590167 L70.4016282,56.8087705 C70.4016282,57.067691 70.1918294,57.2774898 69.9329089,57.2774898 L69.9329089,57.2774898 Z M66.6518743,56.3400513 L69.4641897,56.3400513 L69.4641897,53.5277359 L66.6518743,53.5277359 L66.6518743,56.3400513 Z" id="Fill-8" fill="#008B8C" sketch:type="MSShapeGroup"></path>
            <path d="M71.8077858,62.9021205 L64.3082782,62.9021205 C64.0493577,62.9021205 63.839559,62.6923218 63.839559,62.4334013 L63.839559,51.1841398 C63.839559,50.9252193 64.0493577,50.7154205 64.3082782,50.7154205 L71.8077858,50.7154205 C72.0667063,50.7154205 72.2765051,50.9252193 72.2765051,51.1841398 L72.2765051,62.4334013 C72.2765051,62.6923218 72.0667063,62.9021205 71.8077858,62.9021205 L71.8077858,62.9021205 Z M64.7769974,61.964682 L71.3390666,61.964682 L71.3390666,51.652859 L64.7769974,51.652859 L64.7769974,61.964682 Z" id="Fill-9" fill="#007572" sketch:type="MSShapeGroup"></path>
            <path d="M75.5575397,62.9021205 L60.5585244,62.9021205 C60.2996039,62.9021205 60.0898051,62.6923218 60.0898051,62.4334013 C60.0898051,62.1744808 60.2996039,61.964682 60.5585244,61.964682 L75.0888204,61.964682 L75.0888204,10.4055669 L60.5585244,10.4055669 C60.2996039,10.4055669 60.0898051,10.1957682 60.0898051,9.93684765 C60.0898051,9.67792715 60.2996039,9.46812842 60.5585244,9.46812842 L75.5575397,9.46812842 C75.8164602,9.46812842 76.0262589,9.67792715 76.0262589,9.93684765 L76.0262589,62.4334013 C76.0262589,62.6923218 75.8164602,62.9021205 75.5575397,62.9021205" id="Fill-10" fill="#007572" sketch:type="MSShapeGroup"></path>
            <path d="M51.1841398,62.9021205 L43.6846321,62.9021205 C43.4257116,62.9021205 43.2159129,62.6923218 43.2159129,62.4334013 L43.2159129,51.1841398 C43.2159129,50.9252193 43.4257116,50.7154205 43.6846321,50.7154205 L51.1841398,50.7154205 C51.4430603,50.7154205 51.652859,50.9252193 51.652859,51.1841398 L51.652859,62.4334013 C51.652859,62.6923218 51.4430603,62.9021205 51.1841398,62.9021205 L51.1841398,62.9021205 Z M44.1533513,61.964682 L50.7154205,61.964682 L50.7154205,51.652859 L44.1533513,51.652859 L44.1533513,61.964682 Z" id="Fill-11" fill="#008B8C" sketch:type="MSShapeGroup"></path>
            <path d="M60.5585244,62.9021205 L4.3122169,62.9021205 C4.0532964,62.9021205 3.84349768,62.6923218 3.84349768,62.4334013 C3.84349768,62.1744808 4.0532964,61.964682 4.3122169,61.964682 L60.0898051,61.964682 L60.0898051,10.5872425 L32.5836734,19.755953 C32.4402453,19.8031999 32.2836931,19.779389 32.1612636,19.6914573 C32.0392091,19.6035255 31.9666514,19.4619723 31.9666514,19.3112322 L31.9666514,10.5872425 L4.78093613,19.649085 L4.78093613,39.9348783 C4.78093613,40.1937988 4.57113741,40.4035975 4.3122169,40.4035975 C4.0532964,40.4035975 3.84349768,40.1937988 3.84349768,39.9348783 L3.84349768,19.3112322 C3.84349768,19.1094955 3.9726767,18.9304447 4.16391414,18.8665114 L32.2870679,9.49212684 C32.430121,9.44431748 32.5872357,9.46831591 32.7094776,9.55662261 C32.8315321,9.64455434 32.9040899,9.78610755 32.9040899,9.93684765 L32.9040899,18.6608374 L60.4102216,9.49212684 C60.5532747,9.44431748 60.7103894,9.46831591 60.8326314,9.55662261 C60.9546858,9.64455434 61.0272436,9.78610755 61.0272436,9.93684765 L61.0272436,62.4334013 C61.0272436,62.6923218 60.8174449,62.9021205 60.5585244,62.9021205" id="Fill-12" fill="#37AAA4" sketch:type="MSShapeGroup"></path>
            <path d="M45.559509,44.1533513 L43.6846321,44.1533513 C43.4257116,44.1533513 43.2159129,43.9435526 43.2159129,43.6846321 C43.2159129,43.4257116 43.4257116,43.2159129 43.6846321,43.2159129 L45.0907898,43.2159129 L45.0907898,36.6538437 L38.5287206,36.6538437 L38.5287206,39.9348783 C38.5287206,40.1937988 38.3189219,40.4035975 38.0600014,40.4035975 C37.8010809,40.4035975 37.5912821,40.1937988 37.5912821,39.9348783 L37.5912821,36.1851245 C37.5912821,35.926204 37.8010809,35.7164052 38.0600014,35.7164052 L45.559509,35.7164052 C45.8184295,35.7164052 46.0282283,35.926204 46.0282283,36.1851245 L46.0282283,43.6846321 C46.0282283,43.9435526 45.8184295,44.1533513 45.559509,44.1533513" id="Fill-13" fill="#37AAA4" sketch:type="MSShapeGroup"></path>
            <path d="M49.3092629,57.2774898 L45.559509,57.2774898 C45.3005885,57.2774898 45.0907898,57.067691 45.0907898,56.8087705 L45.0907898,53.0590167 C45.0907898,52.8000962 45.3005885,52.5902975 45.559509,52.5902975 L49.3092629,52.5902975 C49.5681834,52.5902975 49.7779821,52.8000962 49.7779821,53.0590167 L49.7779821,56.8087705 C49.7779821,57.067691 49.5681834,57.2774898 49.3092629,57.2774898 L49.3092629,57.2774898 Z M46.0282283,56.3400513 L48.8405436,56.3400513 L48.8405436,53.5277359 L46.0282283,53.5277359 L46.0282283,56.3400513 Z" id="Fill-14" fill="#37AAA4" sketch:type="MSShapeGroup"></path>
            <path d="M17.4363553,32.9040899 L9.93684765,32.9040899 C9.67792715,32.9040899 9.46812842,32.6942911 9.46812842,32.4353706 L9.46812842,24.935863 C9.46812842,24.6769425 9.67792715,24.4671437 9.93684765,24.4671437 L17.4363553,24.4671437 C17.6952758,24.4671437 17.9050745,24.6769425 17.9050745,24.935863 L17.9050745,32.4353706 C17.9050745,32.6942911 17.6952758,32.9040899 17.4363553,32.9040899 L17.4363553,32.9040899 Z M10.4055669,31.9666514 L16.9676361,31.9666514 L16.9676361,25.4045822 L10.4055669,25.4045822 L10.4055669,31.9666514 Z" id="Fill-15" fill="#37AAA4" sketch:type="MSShapeGroup"></path>
            <path d="M17.4363553,40.4035975 L9.93684765,40.4035975 C9.67792715,40.4035975 9.46812842,40.1937988 9.46812842,39.9348783 L9.46812842,36.1851245 C9.46812842,35.926204 9.67792715,35.7164052 9.93684765,35.7164052 L17.4363553,35.7164052 C17.6952758,35.7164052 17.9050745,35.926204 17.9050745,36.1851245 L17.9050745,39.9348783 C17.9050745,40.1937988 17.6952758,40.4035975 17.4363553,40.4035975 L17.4363553,40.4035975 Z M10.4055669,39.4661591 L16.9676361,39.4661591 L16.9676361,36.6538437 L10.4055669,36.6538437 L10.4055669,39.4661591 Z" id="Fill-16" fill="#37AAA4" sketch:type="MSShapeGroup"></path>
            <path d="M26.8107399,32.9040899 L19.3112322,32.9040899 C19.0523117,32.9040899 18.842513,32.6942911 18.842513,32.4353706 L18.842513,24.935863 C18.842513,24.6769425 19.0523117,24.4671437 19.3112322,24.4671437 L26.8107399,24.4671437 C27.0696604,24.4671437 27.2794591,24.6769425 27.2794591,24.935863 L27.2794591,32.4353706 C27.2794591,32.6942911 27.0696604,32.9040899 26.8107399,32.9040899 L26.8107399,32.9040899 Z M19.7799515,31.9666514 L26.3420207,31.9666514 L26.3420207,25.4045822 L19.7799515,25.4045822 L19.7799515,31.9666514 Z" id="Fill-17" fill="#37AAA4" sketch:type="MSShapeGroup"></path>
            <path d="M26.8107399,40.4035975 L19.3112322,40.4035975 C19.0523117,40.4035975 18.842513,40.1937988 18.842513,39.9348783 L18.842513,36.1851245 C18.842513,35.926204 19.0523117,35.7164052 19.3112322,35.7164052 L26.8107399,35.7164052 C27.0696604,35.7164052 27.2794591,35.926204 27.2794591,36.1851245 L27.2794591,39.9348783 C27.2794591,40.1937988 27.0696604,40.4035975 26.8107399,40.4035975 L26.8107399,40.4035975 Z M19.7799515,39.4661591 L26.3420207,39.4661591 L26.3420207,36.6538437 L19.7799515,36.6538437 L19.7799515,39.4661591 Z" id="Fill-18" fill="#37AAA4" sketch:type="MSShapeGroup"></path>
            <path d="M36.1851245,32.9040899 L28.6856168,32.9040899 C28.4266963,32.9040899 28.2168976,32.6942911 28.2168976,32.4353706 L28.2168976,24.935863 C28.2168976,24.6769425 28.4266963,24.4671437 28.6856168,24.4671437 L36.1851245,24.4671437 C36.444045,24.4671437 36.6538437,24.6769425 36.6538437,24.935863 L36.6538437,32.4353706 C36.6538437,32.6942911 36.444045,32.9040899 36.1851245,32.9040899 L36.1851245,32.9040899 Z M29.154336,31.9666514 L35.7164052,31.9666514 L35.7164052,25.4045822 L29.154336,25.4045822 L29.154336,31.9666514 Z" id="Fill-19" fill="#37AAA4" sketch:type="MSShapeGroup"></path>
            <path d="M54.9338936,40.4035975 L47.4343859,40.4035975 C47.1754654,40.4035975 46.9656667,40.1937988 46.9656667,39.9348783 C46.9656667,39.6759578 47.1754654,39.4661591 47.4343859,39.4661591 L54.9338936,39.4661591 C55.1928141,39.4661591 55.4026128,39.6759578 55.4026128,39.9348783 C55.4026128,40.1937988 55.1928141,40.4035975 54.9338936,40.4035975" id="Fill-20" fill="#008B8C" sketch:type="MSShapeGroup"></path>
            <path d="M54.9338936,44.1533513 L47.4343859,44.1533513 C47.1754654,44.1533513 46.9656667,43.9435526 46.9656667,43.6846321 L46.9656667,36.1851245 C46.9656667,35.926204 47.1754654,35.7164052 47.4343859,35.7164052 L54.9338936,35.7164052 C55.1928141,35.7164052 55.4026128,35.926204 55.4026128,36.1851245 L55.4026128,43.6846321 C55.4026128,43.9435526 55.1928141,44.1533513 54.9338936,44.1533513 L54.9338936,44.1533513 Z M47.9031052,43.2159129 L54.4651744,43.2159129 L54.4651744,36.6538437 L47.9031052,36.6538437 L47.9031052,43.2159129 Z" id="Fill-21" fill="#37AAA4" sketch:type="MSShapeGroup"></path>
            <path d="M36.1851245,40.4035975 L28.6856168,40.4035975 C28.4266963,40.4035975 28.2168976,40.1937988 28.2168976,39.9348783 L28.2168976,36.1851245 C28.2168976,35.926204 28.4266963,35.7164052 28.6856168,35.7164052 L36.1851245,35.7164052 C36.444045,35.7164052 36.6538437,35.926204 36.6538437,36.1851245 L36.6538437,39.9348783 C36.6538437,40.1937988 36.444045,40.4035975 36.1851245,40.4035975 L36.1851245,40.4035975 Z M29.154336,39.4661591 L35.7164052,39.4661591 L35.7164052,36.6538437 L29.154336,36.6538437 L29.154336,39.4661591 Z" id="Fill-22" fill="#37AAA4" sketch:type="MSShapeGroup"></path>
            <path d="M45.559509,32.9040899 L38.0600014,32.9040899 C37.8010809,32.9040899 37.5912821,32.6942911 37.5912821,32.4353706 L37.5912821,24.935863 C37.5912821,24.6769425 37.8010809,24.4671437 38.0600014,24.4671437 L45.559509,24.4671437 C45.8184295,24.4671437 46.0282283,24.6769425 46.0282283,24.935863 L46.0282283,32.4353706 C46.0282283,32.6942911 45.8184295,32.9040899 45.559509,32.9040899 L45.559509,32.9040899 Z M38.5287206,31.9666514 L45.0907898,31.9666514 L45.0907898,25.4045822 L38.5287206,25.4045822 L38.5287206,31.9666514 Z" id="Fill-23" fill="#37AAA4" sketch:type="MSShapeGroup"></path>
            <path d="M54.9338936,32.9040899 L47.4343859,32.9040899 C47.1754654,32.9040899 46.9656667,32.6942911 46.9656667,32.4353706 L46.9656667,24.935863 C46.9656667,24.6769425 47.1754654,24.4671437 47.4343859,24.4671437 L54.9338936,24.4671437 C55.1928141,24.4671437 55.4026128,24.6769425 55.4026128,24.935863 L55.4026128,32.4353706 C55.4026128,32.6942911 55.1928141,32.9040899 54.9338936,32.9040899 L54.9338936,32.9040899 Z M47.9031052,31.9666514 L54.4651744,31.9666514 L54.4651744,25.4045822 L47.9031052,25.4045822 L47.9031052,31.9666514 Z" id="Fill-24" fill="#37AAA4" sketch:type="MSShapeGroup"></path>
            <path d="M17.4363553,25.4045822 L9.93684765,25.4045822 C9.67792715,25.4045822 9.46812842,25.1947835 9.46812842,24.935863 L9.46812842,23.0609861 C9.46812842,22.8020656 9.67792715,22.5922668 9.93684765,22.5922668 L17.4363553,22.5922668 C17.6952758,22.5922668 17.9050745,22.8020656 17.9050745,23.0609861 L17.9050745,24.935863 C17.9050745,25.1947835 17.6952758,25.4045822 17.4363553,25.4045822 L17.4363553,25.4045822 Z M10.4055669,24.4671437 L16.9676361,24.4671437 L16.9676361,23.5297053 L10.4055669,23.5297053 L10.4055669,24.4671437 Z" id="Fill-25" fill="#008B8C" sketch:type="MSShapeGroup"></path>
            <path d="M26.8107399,25.4045822 L19.3112322,25.4045822 C19.0523117,25.4045822 18.842513,25.1947835 18.842513,24.935863 L18.842513,23.0609861 C18.842513,22.8020656 19.0523117,22.5922668 19.3112322,22.5922668 L26.8107399,22.5922668 C27.0696604,22.5922668 27.2794591,22.8020656 27.2794591,23.0609861 L27.2794591,24.935863 C27.2794591,25.1947835 27.0696604,25.4045822 26.8107399,25.4045822 L26.8107399,25.4045822 Z M19.7799515,24.4671437 L26.3420207,24.4671437 L26.3420207,23.5297053 L19.7799515,23.5297053 L19.7799515,24.4671437 Z" id="Fill-26" fill="#008B8C" sketch:type="MSShapeGroup"></path>
            <path d="M36.1851245,25.4045822 L28.6856168,25.4045822 C28.4266963,25.4045822 28.2168976,25.1947835 28.2168976,24.935863 L28.2168976,23.0609861 C28.2168976,22.8020656 28.4266963,22.5922668 28.6856168,22.5922668 L36.1851245,22.5922668 C36.444045,22.5922668 36.6538437,22.8020656 36.6538437,23.0609861 L36.6538437,24.935863 C36.6538437,25.1947835 36.444045,25.4045822 36.1851245,25.4045822 L36.1851245,25.4045822 Z M29.154336,24.4671437 L35.7164052,24.4671437 L35.7164052,23.5297053 L29.154336,23.5297053 L29.154336,24.4671437 Z" id="Fill-27" fill="#008B8C" sketch:type="MSShapeGroup"></path>
            <path d="M45.559509,25.4045822 L38.0600014,25.4045822 C37.8010809,25.4045822 37.5912821,25.1947835 37.5912821,24.935863 L37.5912821,23.0609861 C37.5912821,22.8020656 37.8010809,22.5922668 38.0600014,22.5922668 L45.559509,22.5922668 C45.8184295,22.5922668 46.0282283,22.8020656 46.0282283,23.0609861 L46.0282283,24.935863 C46.0282283,25.1947835 45.8184295,25.4045822 45.559509,25.4045822 L45.559509,25.4045822 Z M38.5287206,24.4671437 L45.0907898,24.4671437 L45.0907898,23.5297053 L38.5287206,23.5297053 L38.5287206,24.4671437 Z" id="Fill-28" fill="#008B8C" sketch:type="MSShapeGroup"></path>
            <path d="M54.9338936,25.4045822 L47.4343859,25.4045822 C47.1754654,25.4045822 46.9656667,25.1947835 46.9656667,24.935863 L46.9656667,23.0609861 C46.9656667,22.8020656 47.1754654,22.5922668 47.4343859,22.5922668 L54.9338936,22.5922668 C55.1928141,22.5922668 55.4026128,22.8020656 55.4026128,23.0609861 L55.4026128,24.935863 C55.4026128,25.1947835 55.1928141,25.4045822 54.9338936,25.4045822 L54.9338936,25.4045822 Z M47.9031052,24.4671437 L54.4651744,24.4671437 L54.4651744,23.5297053 L47.9031052,23.5297053 L47.9031052,24.4671437 Z" id="Fill-29" fill="#008B8C" sketch:type="MSShapeGroup"></path>
            <path d="M17.4363553,36.6538437 L9.93684765,36.6538437 C9.67792715,36.6538437 9.46812842,36.444045 9.46812842,36.1851245 L9.46812842,34.3102475 C9.46812842,34.051327 9.67792715,33.8415283 9.93684765,33.8415283 L17.4363553,33.8415283 C17.6952758,33.8415283 17.9050745,34.051327 17.9050745,34.3102475 L17.9050745,36.1851245 C17.9050745,36.444045 17.6952758,36.6538437 17.4363553,36.6538437 L17.4363553,36.6538437 Z M10.4055669,35.7164052 L16.9676361,35.7164052 L16.9676361,34.7789668 L10.4055669,34.7789668 L10.4055669,35.7164052 Z" id="Fill-30" fill="#008B8C" sketch:type="MSShapeGroup"></path>
            <path d="M26.8107399,36.6538437 L19.3112322,36.6538437 C19.0523117,36.6538437 18.842513,36.444045 18.842513,36.1851245 L18.842513,34.3102475 C18.842513,34.051327 19.0523117,33.8415283 19.3112322,33.8415283 L26.8107399,33.8415283 C27.0696604,33.8415283 27.2794591,34.051327 27.2794591,34.3102475 L27.2794591,36.1851245 C27.2794591,36.444045 27.0696604,36.6538437 26.8107399,36.6538437 L26.8107399,36.6538437 Z M19.7799515,35.7164052 L26.3420207,35.7164052 L26.3420207,34.7789668 L19.7799515,34.7789668 L19.7799515,35.7164052 Z" id="Fill-31" fill="#008B8C" sketch:type="MSShapeGroup"></path>
            <path d="M36.1851245,36.6538437 L28.6856168,36.6538437 C28.4266963,36.6538437 28.2168976,36.444045 28.2168976,36.1851245 L28.2168976,34.3102475 C28.2168976,34.051327 28.4266963,33.8415283 28.6856168,33.8415283 L36.1851245,33.8415283 C36.444045,33.8415283 36.6538437,34.051327 36.6538437,34.3102475 L36.6538437,36.1851245 C36.6538437,36.444045 36.444045,36.6538437 36.1851245,36.6538437 L36.1851245,36.6538437 Z M29.154336,35.7164052 L35.7164052,35.7164052 L35.7164052,34.7789668 L29.154336,34.7789668 L29.154336,35.7164052 Z" id="Fill-32" fill="#008B8C" sketch:type="MSShapeGroup"></path>
            <path d="M45.559509,36.6538437 L38.0600014,36.6538437 C37.8010809,36.6538437 37.5912821,36.444045 37.5912821,36.1851245 L37.5912821,34.3102475 C37.5912821,34.051327 37.8010809,33.8415283 38.0600014,33.8415283 L45.559509,33.8415283 C45.8184295,33.8415283 46.0282283,34.051327 46.0282283,34.3102475 L46.0282283,36.1851245 C46.0282283,36.444045 45.8184295,36.6538437 45.559509,36.6538437 L45.559509,36.6538437 Z M38.5287206,35.7164052 L45.0907898,35.7164052 L45.0907898,34.7789668 L38.5287206,34.7789668 L38.5287206,35.7164052 Z" id="Fill-33" fill="#008B8C" sketch:type="MSShapeGroup"></path>
            <path d="M54.9338936,36.6538437 L47.4343859,36.6538437 C47.1754654,36.6538437 46.9656667,36.444045 46.9656667,36.1851245 L46.9656667,34.3102475 C46.9656667,34.051327 47.1754654,33.8415283 47.4343859,33.8415283 L54.9338936,33.8415283 C55.1928141,33.8415283 55.4026128,34.051327 55.4026128,34.3102475 L55.4026128,36.1851245 C55.4026128,36.444045 55.1928141,36.6538437 54.9338936,36.6538437 L54.9338936,36.6538437 Z M47.9031052,35.7164052 L54.4651744,35.7164052 L54.4651744,34.7789668 L47.9031052,34.7789668 L47.9031052,35.7164052 Z" id="Fill-34" fill="#008B8C" sketch:type="MSShapeGroup"></path>
            <path d="M71.8077858,32.9040899 L64.3082782,32.9040899 C64.0493577,32.9040899 63.839559,32.6942911 63.839559,32.4353706 L63.839559,23.0609861 C63.839559,22.8020656 64.0493577,22.5922668 64.3082782,22.5922668 L71.8077858,22.5922668 C72.0667063,22.5922668 72.2765051,22.8020656 72.2765051,23.0609861 L72.2765051,32.4353706 C72.2765051,32.6942911 72.0667063,32.9040899 71.8077858,32.9040899 L71.8077858,32.9040899 Z M64.7769974,31.9666514 L71.3390666,31.9666514 L71.3390666,23.5297053 L64.7769974,23.5297053 L64.7769974,31.9666514 Z" id="Fill-35" fill="#008B8C" sketch:type="MSShapeGroup"></path>
            <path d="M71.8077858,25.4045822 L64.3082782,25.4045822 C64.0493577,25.4045822 63.839559,25.1947835 63.839559,24.935863 L63.839559,23.0609861 C63.839559,22.8020656 64.0493577,22.5922668 64.3082782,22.5922668 L71.8077858,22.5922668 C72.0667063,22.5922668 72.2765051,22.8020656 72.2765051,23.0609861 L72.2765051,24.935863 C72.2765051,25.1947835 72.0667063,25.4045822 71.8077858,25.4045822 L71.8077858,25.4045822 Z M64.7769974,24.4671437 L71.3390666,24.4671437 L71.3390666,23.5297053 L64.7769974,23.5297053 L64.7769974,24.4671437 Z" id="Fill-36" fill="#007572" sketch:type="MSShapeGroup"></path>
            <path d="M71.8077858,44.1533513 L64.3082782,44.1533513 C64.0493577,44.1533513 63.839559,43.9435526 63.839559,43.6846321 L63.839559,34.3102475 C63.839559,34.051327 64.0493577,33.8415283 64.3082782,33.8415283 L71.8077858,33.8415283 C72.0667063,33.8415283 72.2765051,34.051327 72.2765051,34.3102475 L72.2765051,43.6846321 C72.2765051,43.9435526 72.0667063,44.1533513 71.8077858,44.1533513 L71.8077858,44.1533513 Z M64.7769974,43.2159129 L71.3390666,43.2159129 L71.3390666,34.7789668 L64.7769974,34.7789668 L64.7769974,43.2159129 Z" id="Fill-37" fill="#008B8C" sketch:type="MSShapeGroup"></path>
            <path d="M71.8077858,36.6538437 L64.3082782,36.6538437 C64.0493577,36.6538437 63.839559,36.444045 63.839559,36.1851245 L63.839559,34.3102475 C63.839559,34.051327 64.0493577,33.8415283 64.3082782,33.8415283 L71.8077858,33.8415283 C72.0667063,33.8415283 72.2765051,34.051327 72.2765051,34.3102475 L72.2765051,36.1851245 C72.2765051,36.444045 72.0667063,36.6538437 71.8077858,36.6538437 L71.8077858,36.6538437 Z M64.7769974,35.7164052 L71.3390666,35.7164052 L71.3390666,34.7789668 L64.7769974,34.7789668 L64.7769974,35.7164052 Z" id="Fill-38" fill="#007572" sketch:type="MSShapeGroup"></path>
            <path d="M36.1851245,62.9021205 L0.562463074,62.9021205 C0.303542573,62.9021205 0.0937438457,62.6923218 0.0937438457,62.4334013 L0.0937438457,41.8097552 C0.0937438457,40.5174025 1.14498733,39.4661591 2.43733999,39.4661591 L36.1851245,39.4661591 C36.444045,39.4661591 36.6538437,39.6759578 36.6538437,39.9348783 L36.6538437,62.4334013 C36.6538437,62.6923218 36.444045,62.9021205 36.1851245,62.9021205 L36.1851245,62.9021205 Z M1.0311823,61.964682 L35.7164052,61.964682 L35.7164052,40.4035975 L2.43733999,40.4035975 C1.6618909,40.4035975 1.0311823,41.0343061 1.0311823,41.8097552 L1.0311823,61.964682 L1.0311823,61.964682 Z" id="Fill-39" fill="#007572" sketch:type="MSShapeGroup"></path>
            <path d="M43.6846321,62.9021205 L36.1851245,62.9021205 C35.926204,62.9021205 35.7164052,62.6923218 35.7164052,62.4334013 L35.7164052,39.9348783 C35.7164052,39.6759578 35.926204,39.4661591 36.1851245,39.4661591 L41.8097552,39.4661591 C43.1021079,39.4661591 44.1533513,40.5174025 44.1533513,41.8097552 L44.1533513,62.4334013 C44.1533513,62.6923218 43.9435526,62.9021205 43.6846321,62.9021205 L43.6846321,62.9021205 Z M36.6538437,61.964682 L43.2159129,61.964682 L43.2159129,41.8097552 C43.2159129,41.0343061 42.5852043,40.4035975 41.8097552,40.4035975 L36.6538437,40.4035975 L36.6538437,61.964682 L36.6538437,61.964682 Z" id="Fill-40" fill="#007572" sketch:type="MSShapeGroup"></path>
            <path d="M32.4353706,62.9021205 L4.3122169,62.9021205 C4.0532964,62.9021205 3.84349768,62.6923218 3.84349768,62.4334013 L3.84349768,47.4343859 C3.84349768,47.1754654 4.0532964,46.9656667 4.3122169,46.9656667 L32.4353706,46.9656667 C32.6942911,46.9656667 32.9040899,47.1754654 32.9040899,47.4343859 L32.9040899,62.4334013 C32.9040899,62.6923218 32.6942911,62.9021205 32.4353706,62.9021205 L32.4353706,62.9021205 Z M4.78093613,61.964682 L31.9666514,61.964682 L31.9666514,47.9031052 L4.78093613,47.9031052 L4.78093613,61.964682 Z" id="Fill-41" fill="#37AAA4" sketch:type="MSShapeGroup"></path>
            <path d="M32.4353706,55.4026128 L4.3122169,55.4026128 C4.0532964,55.4026128 3.84349768,55.1928141 3.84349768,54.9338936 L3.84349768,51.1841398 C3.84349768,50.9252193 4.0532964,50.7154205 4.3122169,50.7154205 L32.4353706,50.7154205 C32.6942911,50.7154205 32.9040899,50.9252193 32.9040899,51.1841398 L32.9040899,54.9338936 C32.9040899,55.1928141 32.6942911,55.4026128 32.4353706,55.4026128 L32.4353706,55.4026128 Z M4.78093613,54.4651744 L31.9666514,54.4651744 L31.9666514,51.652859 L4.78093613,51.652859 L4.78093613,54.4651744 Z" id="Fill-42" fill="#007572" sketch:type="MSShapeGroup"></path>
            <path d="M32.4353706,62.9021205 L4.3122169,62.9021205 C4.0532964,62.9021205 3.84349768,62.6923218 3.84349768,62.4334013 L3.84349768,58.6836474 C3.84349768,58.4247269 4.0532964,58.2149282 4.3122169,58.2149282 L32.4353706,58.2149282 C32.6942911,58.2149282 32.9040899,58.4247269 32.9040899,58.6836474 L32.9040899,62.4334013 C32.9040899,62.6923218 32.6942911,62.9021205 32.4353706,62.9021205 L32.4353706,62.9021205 Z M4.78093613,61.964682 L31.9666514,61.964682 L31.9666514,59.1523667 L4.78093613,59.1523667 L4.78093613,61.964682 Z" id="Fill-43" fill="#007572" sketch:type="MSShapeGroup"></path>
        </g>
    </g>
</svg>