<?xml version="1.0" encoding="UTF-8" standalone="no"?>
<svg width="65px" height="63px" viewBox="0 0 65 63" version="1.1" xmlns="http://www.w3.org/2000/svg" xmlns:xlink="http://www.w3.org/1999/xlink" xmlns:sketch="http://www.bohemiancoding.com/sketch/ns">
    <!-- Generator: Sketch 3.3.2 (12043) - http://www.bohemiancoding.com/sketch -->
    <title>Imported Layers</title>
    <desc>Created with Sketch.</desc>
    <defs></defs>
    <g id="Page-1" stroke="none" stroke-width="1" fill="none" fill-rule="evenodd" sketch:type="MSPage">
        <g id="Imported-Layers" sketch:type="MSLayerGroup">
            <path d="M26.8145653,38.534218 L24.9394209,38.534218 C24.6804635,38.534218 24.4706348,38.3243894 24.4706348,38.0654319 L24.4706348,32.4399986 C24.4706348,32.1810412 24.6804635,31.9712125 24.9394209,31.9712125 L26.8145653,31.9712125 C27.0735228,31.9712125 27.2833514,32.1810412 27.2833514,32.4399986 L27.2833514,38.0654319 C27.2833514,38.3243894 27.0735228,38.534218 26.8145653,38.534218 L26.8145653,38.534218 Z M25.408207,37.5966458 L26.3457792,37.5966458 L26.3457792,32.9087847 L25.408207,32.9087847 L25.408207,37.5966458 Z" id="Fill-1" fill="#94C4A0" sketch:type="MSShapeGroup"></path>
            <path d="M23.0642765,32.9087847 C22.805319,32.9087847 22.5954904,32.6989561 22.5954904,32.4399986 L22.5954904,24.9394209 C22.5954904,24.6804635 22.805319,24.4706348 23.0642765,24.4706348 C23.3232339,24.4706348 23.5330626,24.6804635 23.5330626,24.9394209 L23.5330626,32.4399986 C23.5330626,32.6989561 23.3232339,32.9087847 23.0642765,32.9087847" id="Fill-2" fill="#71AF7B" sketch:type="MSShapeGroup"></path>
            <path d="M24.9394209,38.534218 L19.3139876,38.534218 C19.0550302,38.534218 18.8452015,38.3243894 18.8452015,38.0654319 L18.8452015,32.4399986 C18.8452015,32.1810412 19.0550302,31.9712125 19.3139876,31.9712125 L24.9394209,31.9712125 C25.1983784,31.9712125 25.408207,32.1810412 25.408207,32.4399986 L25.408207,38.0654319 C25.408207,38.3243894 25.1983784,38.534218 24.9394209,38.534218 L24.9394209,38.534218 Z M19.7827737,37.5966458 L24.4706348,37.5966458 L24.4706348,32.9087847 L19.7827737,32.9087847 L19.7827737,37.5966458 Z" id="Fill-3" fill="#94C4A0" sketch:type="MSShapeGroup"></path>
            <path d="M41.8157208,16.0324849 C37.4213198,16.0324849 33.8463569,12.457522 33.8463569,8.06312105 C33.8463569,3.66872008 37.4213198,0.0937572215 41.8157208,0.0937572215 C46.2101217,0.0937572215 49.7850846,3.66872008 49.7850846,8.06312105 C49.7850846,12.457522 46.2101217,16.0324849 41.8157208,16.0324849 L41.8157208,16.0324849 Z M41.8157208,1.03132944 C37.9382971,1.03132944 34.7839292,4.1856974 34.7839292,8.06312105 C34.7839292,11.9405447 37.9382971,15.0949127 41.8157208,15.0949127 C45.6931444,15.0949127 48.8475124,11.9405447 48.8475124,8.06312105 C48.8475124,4.1856974 45.6931444,1.03132944 41.8157208,1.03132944 L41.8157208,1.03132944 Z" id="Fill-4" fill="#94C4A0" sketch:type="MSShapeGroup"></path>
            <path d="M47.4411541,59.1728077 C47.1821966,59.1728077 46.972368,58.962979 46.972368,58.7040216 L46.972368,56.8168762 C46.972368,56.5579188 47.1821966,56.3480901 47.4411541,56.3480901 C47.7001115,56.3480901 47.9099402,56.5579188 47.9099402,56.8168762 L47.9099402,58.7040216 C47.9099402,58.962979 47.7001115,59.1728077 47.4411541,59.1728077" id="Fill-5" fill="#94C4A0" sketch:type="MSShapeGroup"></path>
            <path d="M56.8168762,59.1608067 C56.5579188,59.1608067 56.3480901,58.9509781 56.3480901,58.6920206 L56.3480901,56.8168762 C56.3480901,56.5579188 56.5579188,56.3480901 56.8168762,56.3480901 C57.0758337,56.3480901 57.2856623,56.5579188 57.2856623,56.8168762 L57.2856623,58.6920206 C57.2856623,58.9509781 57.0758337,59.1608067 56.8168762,59.1608067" id="Fill-6" fill="#94C4A0" sketch:type="MSShapeGroup"></path>
            <path d="M58.6920206,57.2856623 L49.3162985,57.2856623 C49.057341,57.2856623 48.8475124,57.0758337 48.8475124,56.8168762 C48.8475124,56.5579188 49.057341,56.3480901 49.3162985,56.3480901 L58.6920206,56.3480901 C59.4675804,56.3480901 60.098379,55.7172915 60.098379,54.9417318 L60.098379,39.9405763 C60.098379,39.1650166 59.4675804,38.534218 58.6920206,38.534218 L49.3162985,38.534218 C49.057341,38.534218 48.8475124,38.3243894 48.8475124,38.0654319 C48.8475124,37.8064745 49.057341,37.5966458 49.3162985,37.5966458 L58.6920206,37.5966458 C59.9845577,37.5966458 61.0359512,38.6480393 61.0359512,39.9405763 L61.0359512,54.9417318 C61.0359512,56.2342688 59.9845577,57.2856623 58.6920206,57.2856623" id="Fill-7" fill="#71AF7B" sketch:type="MSShapeGroup"></path>
            <path d="M15.5636988,38.534218 L9.93826548,38.534218 C9.67930803,38.534218 9.46947937,38.3243894 9.46947937,38.0654319 C9.46947937,37.8064745 9.67930803,37.5966458 9.93826548,37.5966458 L15.5636988,37.5966458 C15.8226562,37.5966458 16.0324849,37.8064745 16.0324849,38.0654319 C16.0324849,38.3243894 15.8226562,38.534218 15.5636988,38.534218" id="Fill-8" fill="#71AF7B" sketch:type="MSShapeGroup"></path>
            <path d="M15.5636988,40.4093625 L9.93826548,40.4093625 C9.67930803,40.4093625 9.46947937,40.1995338 9.46947937,39.9405763 C9.46947937,39.6816189 9.67930803,39.4717902 9.93826548,39.4717902 L15.5636988,39.4717902 C15.8226562,39.4717902 16.0324849,39.6816189 16.0324849,39.9405763 C16.0324849,40.1995338 15.8226562,40.4093625 15.5636988,40.4093625" id="Fill-9" fill="#71AF7B" sketch:type="MSShapeGroup"></path>
            <path d="M9.93826548,40.4093625 C9.16270574,40.4093625 8.53190715,39.7785639 8.53190715,39.0030041 C8.53190715,38.2274444 9.16270574,37.5966458 9.93826548,37.5966458 C10.7138252,37.5966458 11.3446238,38.2274444 11.3446238,39.0030041 C11.3446238,39.7785639 10.7138252,40.4093625 9.93826548,40.4093625 L9.93826548,40.4093625 Z M9.93826548,38.534218 C9.67987057,38.534218 9.46947937,38.7444217 9.46947937,39.0030041 C9.46947937,39.2615865 9.67987057,39.4717902 9.93826548,39.4717902 C10.1966604,39.4717902 10.4070516,39.2615865 10.4070516,39.0030041 C10.4070516,38.7444217 10.1966604,38.534218 9.93826548,38.534218 L9.93826548,38.534218 Z" id="Fill-10" fill="#94C4A0" sketch:type="MSShapeGroup"></path>
            <path d="M49.3162985,57.2856623 L32.4399986,57.2856623 C32.1810412,57.2856623 31.9712125,57.0758337 31.9712125,56.8168762 C31.9712125,56.5579188 32.1810412,56.3480901 32.4399986,56.3480901 L49.3162985,56.3480901 C50.0918582,56.3480901 50.7226568,55.7172915 50.7226568,54.9417318 L50.7226568,39.9405763 C50.7226568,39.1650166 50.0918582,38.534218 49.3162985,38.534218 L16.0324849,38.534218 L16.0324849,54.9417318 C16.0324849,55.7172915 16.6632835,56.3480901 17.4388432,56.3480901 L21.1891321,56.3480901 C21.4480895,56.3480901 21.6579182,56.5579188 21.6579182,56.8168762 C21.6579182,57.0758337 21.4480895,57.2856623 21.1891321,57.2856623 L17.4388432,57.2856623 C16.1463061,57.2856623 15.0949127,56.2342688 15.0949127,54.9417318 L15.0949127,38.0654319 C15.0949127,37.8064745 15.3047413,37.5966458 15.5636988,37.5966458 L49.3162985,37.5966458 C50.6088355,37.5966458 51.660229,38.6480393 51.660229,39.9405763 L51.660229,54.9417318 C51.660229,56.2342688 50.6088355,57.2856623 49.3162985,57.2856623" id="Fill-11" fill="#94C4A0" sketch:type="MSShapeGroup"></path>
            <path d="M26.8145653,62.9110956 C23.4543065,62.9110956 20.7203459,60.1773225 20.7203459,56.8168762 C20.7203459,53.4564299 23.4543065,50.7226568 26.8145653,50.7226568 C30.1748242,50.7226568 32.9087847,53.4564299 32.9087847,56.8168762 C32.9087847,60.1773225 30.1748242,62.9110956 26.8145653,62.9110956 L26.8145653,62.9110956 Z M26.8145653,51.660229 C23.9710963,51.660229 21.6579182,53.9735947 21.6579182,56.8168762 C21.6579182,59.6601577 23.9710963,61.9735234 26.8145653,61.9735234 C29.6580344,61.9735234 31.9712125,59.6601577 31.9712125,56.8168762 C31.9712125,53.9735947 29.6580344,51.660229 26.8145653,51.660229 L26.8145653,51.660229 Z" id="Fill-12" fill="#71AF7B" sketch:type="MSShapeGroup"></path>
            <path d="M47.4411541,62.9110956 C46.148617,62.9110956 45.0972235,61.8597021 45.0972235,60.5671651 C45.0972235,59.274628 46.148617,58.2232345 47.4411541,58.2232345 C48.7336911,58.2232345 49.7850846,59.274628 49.7850846,60.5671651 C49.7850846,61.8597021 48.7336911,62.9110956 47.4411541,62.9110956 L47.4411541,62.9110956 Z M47.4411541,59.1608067 C46.6655943,59.1608067 46.0347957,59.7916053 46.0347957,60.5671651 C46.0347957,61.3427248 46.6655943,61.9735234 47.4411541,61.9735234 C48.2167138,61.9735234 48.8475124,61.3427248 48.8475124,60.5671651 C48.8475124,59.7916053 48.2167138,59.1608067 47.4411541,59.1608067 L47.4411541,59.1608067 Z" id="Fill-13" fill="#71AF7B" sketch:type="MSShapeGroup"></path>
            <path d="M56.8168762,62.9110956 C55.5243392,62.9110956 54.4729457,61.8597021 54.4729457,60.5671651 C54.4729457,59.274628 55.5243392,58.2232345 56.8168762,58.2232345 C58.1094133,58.2232345 59.1608067,59.274628 59.1608067,60.5671651 C59.1608067,61.8597021 58.1094133,62.9110956 56.8168762,62.9110956 L56.8168762,62.9110956 Z M56.8168762,59.1608067 C56.0413165,59.1608067 55.4105179,59.7916053 55.4105179,60.5671651 C55.4105179,61.3427248 56.0413165,61.9735234 56.8168762,61.9735234 C57.5924359,61.9735234 58.2232345,61.3427248 58.2232345,60.5671651 C58.2232345,59.7916053 57.5924359,59.1608067 56.8168762,59.1608067 L56.8168762,59.1608067 Z" id="Fill-14" fill="#71AF7B" sketch:type="MSShapeGroup"></path>
            <path d="M26.8145653,59.1608067 C25.5220283,59.1608067 24.4706348,58.1092257 24.4706348,56.8168762 C24.4706348,55.5243392 25.5220283,54.4729457 26.8145653,54.4729457 C28.1071024,54.4729457 29.1584959,55.5243392 29.1584959,56.8168762 C29.1584959,58.1092257 28.1071024,59.1608067 26.8145653,59.1608067 L26.8145653,59.1608067 Z M26.8145653,55.4105179 C26.0390056,55.4105179 25.408207,56.0413165 25.408207,56.8168762 C25.408207,57.5924359 26.0390056,58.2232345 26.8145653,58.2232345 C27.5901251,58.2232345 28.2209237,57.5924359 28.2209237,56.8168762 C28.2209237,56.0413165 27.5901251,55.4105179 26.8145653,55.4105179 L26.8145653,55.4105179 Z" id="Fill-15" fill="#71AF7B" sketch:type="MSShapeGroup"></path>
            <path d="M13.6885543,62.9110956 L4.31283219,62.9110956 C4.07956422,62.9110956 3.88173648,62.7395199 3.84873394,62.5085021 L1.97358951,49.3824911 C1.95446304,49.2480432 1.99459113,49.1117202 2.08347298,49.0091498 C2.17254234,48.9063919 2.30173979,48.8475124 2.43768776,48.8475124 L11.8134099,48.8475124 C12.0466779,48.8475124 12.2445056,49.0190881 12.2775082,49.2499184 L14.1526526,62.3759294 C14.1717791,62.5105648 14.131651,62.6468878 14.0427691,62.7494582 C13.9536998,62.8522161 13.8245023,62.9110956 13.6885543,62.9110956 L13.6885543,62.9110956 Z M4.71955101,61.9735234 L13.1481377,61.9735234 L11.4068786,49.7850846 L2.97810438,49.7850846 L4.71955101,61.9735234 L4.71955101,61.9735234 Z" id="Fill-16" fill="#71AF7B" sketch:type="MSShapeGroup"></path>
            <path d="M9.93826548,62.9110956 L0.562543329,62.9110956 C0.426595358,62.9110956 0.297397906,62.8522161 0.208328546,62.7494582 C0.1194467,62.6468878 0.0793186094,62.5105648 0.0984450825,62.3759294 L1.97358951,49.2499184 C2.00659205,49.0190881 2.20441979,48.8475124 2.43768776,48.8475124 L11.8134099,48.8475124 C11.9493579,48.8475124 12.0785553,48.9063919 12.1676247,49.0091498 C12.2565065,49.1117202 12.2966346,49.2480432 12.2775082,49.3824911 L10.4023637,62.5085021 C10.3693612,62.7395199 10.1715334,62.9110956 9.93826548,62.9110956 L9.93826548,62.9110956 Z M1.10295995,61.9735234 L9.53173416,61.9735234 L11.2729933,49.7850846 L2.84440658,49.7850846 L1.10295995,61.9735234 L1.10295995,61.9735234 Z" id="Fill-17" fill="#94C4A0" sketch:type="MSShapeGroup"></path>
            <path d="M64.3174539,12.282196 L39.9405763,12.282196 C39.6816189,12.282196 39.4717902,12.0723674 39.4717902,11.8134099 C39.4717902,9.48710573 41.3643735,7.59433494 43.6908652,7.59433494 C44.4431731,7.59433494 45.1617285,7.78822487 45.7998401,8.1598785 C47.2855171,4.4324664 50.8848568,1.96890165 54.9417318,1.96890165 C60.3700874,1.96890165 64.78624,6.38524181 64.78624,11.8134099 C64.78624,12.0723674 64.5764114,12.282196 64.3174539,12.282196 L64.3174539,12.282196 Z M40.44274,11.3446238 L63.8364794,11.3446238 C63.5915855,6.65057475 59.6955979,2.90647387 54.9417318,2.90647387 C51.0832471,2.90647387 47.6824851,5.36910104 46.47958,9.03407083 C46.4315763,9.18014458 46.3149423,9.29359082 46.167556,9.33728169 C46.0197946,9.38059752 45.8607823,9.34984515 45.7407731,9.25365024 C45.1519777,8.78148888 44.4431731,8.53190715 43.6908652,8.53190715 C42.0405506,8.53190715 40.6709451,9.75637647 40.44274,11.3446238 L40.44274,11.3446238 Z" id="Fill-18" fill="#ACD9BA" sketch:type="MSShapeGroup"></path>
            <path d="M44.6284374,53.5353735 L37.1278597,53.5353735 C36.3523,53.5353735 35.7215014,52.9045749 35.7215014,52.1290151 L35.7215014,42.753293 C35.7215014,41.9777333 36.3523,41.3469347 37.1278597,41.3469347 L44.6284374,41.3469347 C45.4039972,41.3469347 46.0347957,41.9777333 46.0347957,42.753293 L46.0347957,52.1290151 C46.0347957,52.9045749 45.4039972,53.5353735 44.6284374,53.5353735 L44.6284374,53.5353735 Z M37.1278597,42.2845069 C36.8694648,42.2845069 36.6590736,42.4947106 36.6590736,42.753293 L36.6590736,52.1290151 C36.6590736,52.3875976 36.8694648,52.5978012 37.1278597,52.5978012 L44.6284374,52.5978012 C44.8868323,52.5978012 45.0972235,52.3875976 45.0972235,52.1290151 L45.0972235,42.753293 C45.0972235,42.4947106 44.8868323,42.2845069 44.6284374,42.2845069 L37.1278597,42.2845069 L37.1278597,42.2845069 Z" id="Fill-19" fill="#71AF7B" sketch:type="MSShapeGroup"></path>
            <path d="M43.6908652,47.9099402 L38.0654319,47.9099402 C37.8064745,47.9099402 37.5966458,47.7001115 37.5966458,47.4411541 L37.5966458,43.6908652 C37.5966458,43.4319078 37.8064745,43.2220791 38.0654319,43.2220791 L43.6908652,43.2220791 C43.9498226,43.2220791 44.1596513,43.4319078 44.1596513,43.6908652 L44.1596513,47.4411541 C44.1596513,47.7001115 43.9498226,47.9099402 43.6908652,47.9099402 L43.6908652,47.9099402 Z M38.534218,46.972368 L43.2220791,46.972368 L43.2220791,44.1596513 L38.534218,44.1596513 L38.534218,46.972368 Z" id="Fill-20" fill="#ACD9BA" sketch:type="MSShapeGroup"></path>
            <path d="M32.4399986,49.7850846 L22.1267043,49.7850846 C21.3511445,49.7850846 20.7203459,49.154286 20.7203459,48.3787263 L20.7203459,45.5660096 C20.7203459,45.3070522 20.9301746,45.0972235 21.1891321,45.0972235 L33.3775708,45.0972235 C33.6365283,45.0972235 33.8463569,45.3070522 33.8463569,45.5660096 L33.8463569,48.3787263 C33.8463569,49.154286 33.2155584,49.7850846 32.4399986,49.7850846 L32.4399986,49.7850846 Z M21.6579182,46.0347957 L21.6579182,48.3787263 C21.6579182,48.6373087 21.8683094,48.8475124 22.1267043,48.8475124 L32.4399986,48.8475124 C32.6983935,48.8475124 32.9087847,48.6373087 32.9087847,48.3787263 L32.9087847,46.0347957 L21.6579182,46.0347957 L21.6579182,46.0347957 Z" id="Fill-21" fill="#71AF7B" sketch:type="MSShapeGroup"></path>
            <path d="M33.3775708,46.0347957 L21.1891321,46.0347957 C20.9301746,46.0347957 20.7203459,45.8249671 20.7203459,45.5660096 L20.7203459,42.753293 C20.7203459,41.9777333 21.3511445,41.3469347 22.1267043,41.3469347 L32.4399986,41.3469347 C33.2155584,41.3469347 33.8463569,41.9777333 33.8463569,42.753293 L33.8463569,45.5660096 C33.8463569,45.8249671 33.6365283,46.0347957 33.3775708,46.0347957 L33.3775708,46.0347957 Z M21.6579182,45.0972235 L32.9087847,45.0972235 L32.9087847,42.753293 C32.9087847,42.4947106 32.6983935,42.2845069 32.4399986,42.2845069 L22.1267043,42.2845069 C21.8683094,42.2845069 21.6579182,42.4947106 21.6579182,42.753293 L21.6579182,45.0972235 L21.6579182,45.0972235 Z" id="Fill-22" fill="#ACD9BA" sketch:type="MSShapeGroup"></path>
            <path d="M18.3764154,42.2845069 C17.6008557,42.2845069 16.9700571,41.6537083 16.9700571,40.8781486 C16.9700571,40.1025888 17.6008557,39.4717902 18.3764154,39.4717902 C19.1519751,39.4717902 19.7827737,40.1025888 19.7827737,40.8781486 C19.7827737,41.6537083 19.1519751,42.2845069 18.3764154,42.2845069 L18.3764154,42.2845069 Z M18.3764154,40.4093625 C18.1180205,40.4093625 17.9076293,40.6195661 17.9076293,40.8781486 C17.9076293,41.136731 18.1180205,41.3469347 18.3764154,41.3469347 C18.6348103,41.3469347 18.8452015,41.136731 18.8452015,40.8781486 C18.8452015,40.6195661 18.6348103,40.4093625 18.3764154,40.4093625 L18.3764154,40.4093625 Z" id="Fill-23" fill="#ACD9BA" sketch:type="MSShapeGroup"></path>
            <path d="M48.3787263,42.2845069 C47.6031665,42.2845069 46.972368,41.6537083 46.972368,40.8781486 C46.972368,40.1025888 47.6031665,39.4717902 48.3787263,39.4717902 C49.154286,39.4717902 49.7850846,40.1025888 49.7850846,40.8781486 C49.7850846,41.6537083 49.154286,42.2845069 48.3787263,42.2845069 L48.3787263,42.2845069 Z M48.3787263,40.4093625 C48.1203314,40.4093625 47.9099402,40.6195661 47.9099402,40.8781486 C47.9099402,41.136731 48.1203314,41.3469347 48.3787263,41.3469347 C48.6371212,41.3469347 48.8475124,41.136731 48.8475124,40.8781486 C48.8475124,40.6195661 48.6371212,40.4093625 48.3787263,40.4093625 L48.3787263,40.4093625 Z" id="Fill-24" fill="#ACD9BA" sketch:type="MSShapeGroup"></path>
            <path d="M18.3764154,55.4105179 C17.6008557,55.4105179 16.9700571,54.7797193 16.9700571,54.0041596 C16.9700571,53.2285998 17.6008557,52.5978012 18.3764154,52.5978012 C19.1519751,52.5978012 19.7827737,53.2285998 19.7827737,54.0041596 C19.7827737,54.7797193 19.1519751,55.4105179 18.3764154,55.4105179 L18.3764154,55.4105179 Z M18.3764154,53.5353735 C18.1180205,53.5353735 17.9076293,53.7455771 17.9076293,54.0041596 C17.9076293,54.262742 18.1180205,54.4729457 18.3764154,54.4729457 C18.6348103,54.4729457 18.8452015,54.262742 18.8452015,54.0041596 C18.8452015,53.7455771 18.6348103,53.5353735 18.3764154,53.5353735 L18.3764154,53.5353735 Z" id="Fill-25" fill="#ACD9BA" sketch:type="MSShapeGroup"></path>
            <path d="M48.3787263,55.4105179 C47.6031665,55.4105179 46.972368,54.7797193 46.972368,54.0041596 C46.972368,53.2285998 47.6031665,52.5978012 48.3787263,52.5978012 C49.154286,52.5978012 49.7850846,53.2285998 49.7850846,54.0041596 C49.7850846,54.7797193 49.154286,55.4105179 48.3787263,55.4105179 L48.3787263,55.4105179 Z M48.3787263,53.5353735 C48.1203314,53.5353735 47.9099402,53.7455771 47.9099402,54.0041596 C47.9099402,54.262742 48.1203314,54.4729457 48.3787263,54.4729457 C48.6371212,54.4729457 48.8475124,54.262742 48.8475124,54.0041596 C48.8475124,53.7455771 48.6371212,53.5353735 48.3787263,53.5353735 L48.3787263,53.5353735 Z" id="Fill-26" fill="#ACD9BA" sketch:type="MSShapeGroup"></path>
            <path d="M45.5656346,23.5330626 C45.4761902,23.5330626 45.3859958,23.5075606 45.3059271,23.4543065 L22.8041939,8.45315109 C22.5887399,8.30951502 22.5306104,8.01849261 22.6742464,7.80303851 C22.817695,7.58777193 23.1089049,7.52926743 23.324359,7.673091 L45.8260922,22.6742464 C46.0415463,22.817695 46.0996757,23.1089049 45.9560397,23.324359 C45.8658452,23.4597444 45.7171463,23.5330626 45.5656346,23.5330626" id="Fill-27" fill="#71AF7B" sketch:type="MSShapeGroup"></path>
            <path d="M34.3155181,23.5330626 C34.1730071,23.5330626 34.0321838,23.4683701 33.9401142,23.3455481 L22.6892476,8.34439271 C22.5337981,8.13718925 22.5759889,7.84335412 22.7830048,7.68809216 C22.9902083,7.53301772 23.2840434,7.57464592 23.4393054,7.78184938 L34.6901719,22.7830048 C34.8456214,22.9900208 34.8036182,23.2840434 34.5964147,23.4393054 C34.5120332,23.5024977 34.4134006,23.5330626 34.3155181,23.5330626" id="Fill-28" fill="#ACD9BA" sketch:type="MSShapeGroup"></path>
            <path d="M0.562918358,23.5330626 C0.411406688,23.5330626 0.262895249,23.4597444 0.172513287,23.324359 C0.0288772242,23.1089049 0.0870067015,22.817695 0.302460796,22.6742464 L22.8041939,7.673091 C23.019648,7.52926743 23.3106705,7.58777193 23.4543065,7.80303851 C23.5979426,8.01849261 23.5398131,8.30951502 23.324359,8.45315109 L0.822625861,23.4543065 C0.742557194,23.5075606 0.652362747,23.5330626 0.562918358,23.5330626" id="Fill-29" fill="#71AF7B" sketch:type="MSShapeGroup"></path>
            <path d="M11.8130349,23.5330626 C11.7151523,23.5330626 11.6165197,23.5024977 11.5321382,23.4393054 C11.3251223,23.2840434 11.2829315,22.9900208 11.438381,22.7830048 L22.6892476,7.78184938 C22.8445096,7.57464592 23.1385322,7.53320523 23.3455481,7.68809216 C23.5525641,7.84335412 23.5947548,8.13718925 23.4393054,8.34439271 L12.1884388,23.3455481 C12.0963692,23.4683701 11.9555459,23.5330626 11.8130349,23.5330626" id="Fill-30" fill="#ACD9BA" sketch:type="MSShapeGroup"></path>
            <path d="M23.0642765,23.5330626 C22.805319,23.5330626 22.5954904,23.3232339 22.5954904,23.0642765 L22.5954904,8.06312105 C22.5954904,7.8041636 22.805319,7.59433494 23.0642765,7.59433494 C23.3232339,7.59433494 23.5330626,7.8041636 23.5330626,8.06312105 L23.5330626,23.0642765 C23.5330626,23.3232339 23.3232339,23.5330626 23.0642765,23.5330626" id="Fill-31" fill="#71AF7B" sketch:type="MSShapeGroup"></path>
            <path d="M43.6908652,27.2833514 L34.3151431,27.2833514 C34.0561856,27.2833514 33.8463569,27.0735228 33.8463569,26.8145653 L33.8463569,23.0642765 C33.8463569,22.805319 34.0561856,22.5954904 34.3151431,22.5954904 L45.5660096,22.5954904 C45.8249671,22.5954904 46.0347957,22.805319 46.0347957,23.0642765 L46.0347957,24.9394209 C46.0347957,26.231958 44.9834023,27.2833514 43.6908652,27.2833514 L43.6908652,27.2833514 Z M34.7839292,26.3457792 L43.6908652,26.3457792 C44.4664249,26.3457792 45.0972235,25.7149806 45.0972235,24.9394209 L45.0972235,23.5330626 L34.7839292,23.5330626 L34.7839292,26.3457792 L34.7839292,26.3457792 Z" id="Fill-32" fill="#94C4A0" sketch:type="MSShapeGroup"></path>
            <path d="M34.3151431,27.2833514 L23.0642765,27.2833514 C22.805319,27.2833514 22.5954904,27.0735228 22.5954904,26.8145653 L22.5954904,23.0642765 C22.5954904,22.805319 22.805319,22.5954904 23.0642765,22.5954904 L34.3151431,22.5954904 C34.5741005,22.5954904 34.7839292,22.805319 34.7839292,23.0642765 L34.7839292,26.8145653 C34.7839292,27.0735228 34.5741005,27.2833514 34.3151431,27.2833514 L34.3151431,27.2833514 Z M23.5330626,26.3457792 L33.8463569,26.3457792 L33.8463569,23.5330626 L23.5330626,23.5330626 L23.5330626,26.3457792 Z" id="Fill-33" fill="#94C4A0" sketch:type="MSShapeGroup"></path>
            <path d="M23.0642765,27.2833514 L11.8134099,27.2833514 C11.5544525,27.2833514 11.3446238,27.0735228 11.3446238,26.8145653 L11.3446238,23.0642765 C11.3446238,22.805319 11.5544525,22.5954904 11.8134099,22.5954904 L23.0642765,22.5954904 C23.3232339,22.5954904 23.5330626,22.805319 23.5330626,23.0642765 L23.5330626,26.8145653 C23.5330626,27.0735228 23.3232339,27.2833514 23.0642765,27.2833514 L23.0642765,27.2833514 Z M12.282196,26.3457792 L22.5954904,26.3457792 L22.5954904,23.5330626 L12.282196,23.5330626 L12.282196,26.3457792 Z" id="Fill-34" fill="#94C4A0" sketch:type="MSShapeGroup"></path>
            <path d="M11.8134099,27.2833514 L2.43768776,27.2833514 C1.1451507,27.2833514 0.0937572215,26.231958 0.0937572215,24.9394209 L0.0937572215,23.0642765 C0.0937572215,22.805319 0.303585883,22.5954904 0.562543329,22.5954904 L11.8134099,22.5954904 C12.0723674,22.5954904 12.282196,22.805319 12.282196,23.0642765 L12.282196,26.8145653 C12.282196,27.0735228 12.0723674,27.2833514 11.8134099,27.2833514 L11.8134099,27.2833514 Z M1.03132944,23.5330626 L1.03132944,24.9394209 C1.03132944,25.7149806 1.66212802,26.3457792 2.43768776,26.3457792 L11.3446238,26.3457792 L11.3446238,23.5330626 L1.03132944,23.5330626 L1.03132944,23.5330626 Z" id="Fill-35" fill="#94C4A0" sketch:type="MSShapeGroup"></path>
        </g>
    </g>
</svg>