<?xml version="1.0" encoding="UTF-8" standalone="no"?>
<svg width="77px" height="77px" viewBox="0 0 77 77" version="1.1" xmlns="http://www.w3.org/2000/svg" xmlns:xlink="http://www.w3.org/1999/xlink" xmlns:sketch="http://www.bohemiancoding.com/sketch/ns">
    <!-- Generator: Sketch 3.3.2 (12043) - http://www.bohemiancoding.com/sketch -->
    <title>Imported Layers</title>
    <desc>Created with Sketch.</desc>
    <defs></defs>
    <g id="Page-1" stroke="none" stroke-width="1" fill="none" fill-rule="evenodd" sketch:type="MSPage">
        <g id="Imported-Layers" sketch:type="MSLayerGroup">
            <path d="M71.8077858,42.2784744 L62.4334013,42.2784744 C62.1744808,42.2784744 61.964682,42.0686757 61.964682,41.8097552 L61.964682,38.0600014 C61.964682,37.8010809 62.1744808,37.5912821 62.4334013,37.5912821 L71.8077858,37.5912821 C72.0667063,37.5912821 72.2765051,37.8010809 72.2765051,38.0600014 L72.2765051,41.8097552 C72.2765051,42.0686757 72.0667063,42.2784744 71.8077858,42.2784744 L71.8077858,42.2784744 Z M62.9021205,41.341036 L71.3390666,41.341036 L71.3390666,38.5287206 L62.9021205,38.5287206 L62.9021205,41.341036 Z" id="Fill-1" fill="#A87027" sketch:type="MSShapeGroup"></path>
            <path d="M71.8077858,49.7779821 L62.4334013,49.7779821 C62.1744808,49.7779821 61.964682,49.5681834 61.964682,49.3092629 L61.964682,45.559509 C61.964682,45.3005885 62.1744808,45.0907898 62.4334013,45.0907898 L71.8077858,45.0907898 C72.0667063,45.0907898 72.2765051,45.3005885 72.2765051,45.559509 L72.2765051,49.3092629 C72.2765051,49.5681834 72.0667063,49.7779821 71.8077858,49.7779821 L71.8077858,49.7779821 Z M62.9021205,48.8405436 L71.3390666,48.8405436 L71.3390666,46.0282283 L62.9021205,46.0282283 L62.9021205,48.8405436 Z" id="Fill-2" fill="#A87027" sketch:type="MSShapeGroup"></path>
            <path d="M71.8077858,57.2774898 L62.4334013,57.2774898 C62.1744808,57.2774898 61.964682,57.067691 61.964682,56.8087705 L61.964682,53.0590167 C61.964682,52.8000962 62.1744808,52.5902975 62.4334013,52.5902975 L71.8077858,52.5902975 C72.0667063,52.5902975 72.2765051,52.8000962 72.2765051,53.0590167 L72.2765051,56.8087705 C72.2765051,57.067691 72.0667063,57.2774898 71.8077858,57.2774898 L71.8077858,57.2774898 Z M62.9021205,56.3400513 L71.3390666,56.3400513 L71.3390666,53.5277359 L62.9021205,53.5277359 L62.9021205,56.3400513 Z" id="Fill-3" fill="#A87027" sketch:type="MSShapeGroup"></path>
            <path d="M75.5575397,72.2765051 C75.2986192,72.2765051 75.0888204,72.0667063 75.0888204,71.8077858 L75.0888204,34.7789668 L68.058032,34.7789668 C67.7991115,34.7789668 67.5893128,34.569168 67.5893128,34.3102475 C67.5893128,31.6252363 65.5263857,29.4128816 62.9021205,29.1753346 L62.9021205,71.8077858 C62.9021205,72.0667063 62.6923218,72.2765051 62.4334013,72.2765051 C62.1744808,72.2765051 61.964682,72.0667063 61.964682,71.8077858 L61.964682,28.6856168 C61.964682,28.4266963 62.1744808,28.2168976 62.4334013,28.2168976 C65.6355036,28.2168976 68.2687682,30.6997971 68.5089399,33.8415283 L75.5575397,33.8415283 C75.8164602,33.8415283 76.0262589,34.051327 76.0262589,34.3102475 L76.0262589,71.8077858 C76.0262589,72.0667063 75.8164602,72.2765051 75.5575397,72.2765051" id="Fill-4" fill="#A87027" sketch:type="MSShapeGroup"></path>
            <path d="M71.8077858,64.7769974 L62.4334013,64.7769974 C62.1744808,64.7769974 61.964682,64.5671987 61.964682,64.3082782 L61.964682,60.5585244 C61.964682,60.2996039 62.1744808,60.0898051 62.4334013,60.0898051 L71.8077858,60.0898051 C72.0667063,60.0898051 72.2765051,60.2996039 72.2765051,60.5585244 L72.2765051,64.3082782 C72.2765051,64.5671987 72.0667063,64.7769974 71.8077858,64.7769974 L71.8077858,64.7769974 Z M62.9021205,63.839559 L71.3390666,63.839559 L71.3390666,61.0272436 L62.9021205,61.0272436 L62.9021205,63.839559 Z" id="Fill-5" fill="#A87027" sketch:type="MSShapeGroup"></path>
            <path d="M17.8242673,23.5298928 C17.6199058,23.5298928 17.4320431,23.3949016 17.3735469,23.1886652 C17.1041271,22.2364152 16.9676361,21.2472301 16.9676361,20.2486707 C16.9676361,14.3041859 21.8036936,9.46812842 27.7481783,9.46812842 C30.2479517,9.46812842 32.6845418,10.343321 34.6089154,11.9326541 C34.8084023,12.0972683 34.836713,12.3929364 34.6719113,12.5924233 C34.5069221,12.7919102 34.211254,12.8198459 34.0119546,12.6554192 C32.255195,11.2046394 30.0306535,10.4055669 27.7481783,10.4055669 C22.3207846,10.4055669 17.9050745,14.821277 17.9050745,20.2486707 C17.9050745,21.1609858 18.0297539,22.0643015 18.2755502,22.9333069 C18.3460456,23.1824781 18.2011176,23.4415861 17.9521339,23.511894 C17.9093868,23.5240807 17.8664521,23.5298928 17.8242673,23.5298928" id="Fill-6" fill="#C48730" sketch:type="MSShapeGroup"></path>
            <path d="M71.8077858,12.2804438 L58.6836474,12.2804438 C58.4247269,12.2804438 58.2149282,12.0706451 58.2149282,11.8117246 C58.2149282,11.5528041 58.4247269,11.3430053 58.6836474,11.3430053 L71.3056938,11.3430053 C71.0775213,9.75498459 69.7081112,8.53068996 68.058032,8.53068996 C67.2786457,8.53068996 66.5217579,8.81117155 65.9270469,9.32038812 C65.8128669,9.41788172 65.6589395,9.45537926 65.5123241,9.41994408 C65.3662712,9.3846964 65.2457166,9.28157817 65.1885329,9.1424623 C64.0999794,6.49288624 61.5465845,4.78093613 58.6836474,4.78093613 C56.1818117,4.78093613 53.8483399,6.12784771 52.5938597,8.2955804 C52.4639308,8.52000316 52.1774496,8.59593568 51.9534018,8.46656917 C51.7291665,8.33701518 51.6526715,8.0503465 51.7822255,7.82611122 C53.2037572,5.36964748 55.8482711,3.84349768 58.6836474,3.84349768 C61.7288225,3.84349768 64.4650179,5.55244798 65.8098671,8.24495872 C66.4801356,7.82161151 67.2597094,7.59325151 68.058032,7.59325151 C70.3840043,7.59325151 72.2765051,9.48575226 72.2765051,11.8117246 C72.2765051,12.0706451 72.0667063,12.2804438 71.8077858,12.2804438" id="Fill-7" fill="#DBA658" sketch:type="MSShapeGroup"></path>
            <path d="M62.4334013,72.2765051 C62.1744808,72.2765051 61.964682,72.0667063 61.964682,71.8077858 L61.964682,16.0301976 L58.6836474,16.0301976 C58.4247269,16.0301976 58.2149282,15.8203989 58.2149282,15.5614784 L58.2149282,8.53068996 L53.5277359,8.53068996 L53.5277359,71.8077858 C53.5277359,72.0667063 53.3179372,72.2765051 53.0590167,72.2765051 C52.8000962,72.2765051 52.5902975,72.0667063 52.5902975,71.8077858 L52.5902975,8.06197073 C52.5902975,7.80305023 52.8000962,7.59325151 53.0590167,7.59325151 L58.6836474,7.59325151 C58.9425679,7.59325151 59.1523667,7.80305023 59.1523667,8.06197073 L59.1523667,15.0927592 L62.4334013,15.0927592 C62.6923218,15.0927592 62.9021205,15.3025579 62.9021205,15.5614784 L62.9021205,71.8077858 C62.9021205,72.0667063 62.6923218,72.2765051 62.4334013,72.2765051" id="Fill-8" fill="#C48730" sketch:type="MSShapeGroup"></path>
            <path d="M47.4343859,8.53068996 C47.1754654,8.53068996 46.9656667,8.32089124 46.9656667,8.06197073 L46.9656667,1.49990153 C46.9656667,1.24135601 46.755493,1.0311823 46.4969475,1.0311823 C46.238402,1.0311823 46.0282283,1.24135601 46.0282283,1.49990153 L46.0282283,8.06197073 C46.0282283,8.32089124 45.8184295,8.53068996 45.559509,8.53068996 C45.3005885,8.53068996 45.0907898,8.32089124 45.0907898,8.06197073 L45.0907898,1.49990153 C45.0907898,0.72445244 45.7214984,0.0937438457 46.4969475,0.0937438457 C47.2723966,0.0937438457 47.9031052,0.72445244 47.9031052,1.49990153 L47.9031052,8.06197073 C47.9031052,8.32089124 47.6933064,8.53068996 47.4343859,8.53068996" id="Fill-9" fill="#A87027" sketch:type="MSShapeGroup"></path>
            <path d="M53.0590167,72.2765051 C52.8000962,72.2765051 52.5902975,72.0667063 52.5902975,71.8077858 L52.5902975,8.53068996 L34.7789668,8.53068996 L34.7789668,15.5614784 C34.7789668,15.8203989 34.569168,16.0301976 34.3102475,16.0301976 L27.2794591,16.0301976 L27.2794591,23.0609861 C27.2794591,23.3199066 27.0696604,23.5297053 26.8107399,23.5297053 C26.5518194,23.5297053 26.3420207,23.3199066 26.3420207,23.0609861 L26.3420207,15.5614784 C26.3420207,15.3025579 26.5518194,15.0927592 26.8107399,15.0927592 L33.8415283,15.0927592 L33.8415283,8.06197073 C33.8415283,7.80305023 34.051327,7.59325151 34.3102475,7.59325151 L53.0590167,7.59325151 C53.3179372,7.59325151 53.5277359,7.80305023 53.5277359,8.06197073 L53.5277359,71.8077858 C53.5277359,72.0667063 53.3179372,72.2765051 53.0590167,72.2765051" id="Fill-10" fill="#C48730" sketch:type="MSShapeGroup"></path>
            <path d="M51.1841398,23.5297053 L28.6856168,23.5297053 C28.4266963,23.5297053 28.2168976,23.3199066 28.2168976,23.0609861 L28.2168976,19.3112322 C28.2168976,19.0523117 28.4266963,18.842513 28.6856168,18.842513 L51.1841398,18.842513 C51.4430603,18.842513 51.652859,19.0523117 51.652859,19.3112322 L51.652859,23.0609861 C51.652859,23.3199066 51.4430603,23.5297053 51.1841398,23.5297053 L51.1841398,23.5297053 Z M29.154336,22.5922668 L50.7154205,22.5922668 L50.7154205,19.7799515 L29.154336,19.7799515 L29.154336,22.5922668 Z" id="Fill-11" fill="#C48730" sketch:type="MSShapeGroup"></path>
            <path d="M51.1841398,31.0292129 L34.310435,31.0292129 C34.0515145,31.0292129 33.8417158,30.8194142 33.8417158,30.5604937 L33.8417158,26.8107399 C33.8417158,26.5518194 34.0515145,26.3420207 34.310435,26.3420207 L51.1841398,26.3420207 C51.4430603,26.3420207 51.652859,26.5518194 51.652859,26.8107399 L51.652859,30.5604937 C51.652859,30.8194142 51.4430603,31.0292129 51.1841398,31.0292129 L51.1841398,31.0292129 Z M34.7791543,30.0917745 L50.7154205,30.0917745 L50.7154205,27.2794591 L34.7791543,27.2794591 L34.7791543,30.0917745 Z" id="Fill-12" fill="#C48730" sketch:type="MSShapeGroup"></path>
            <path d="M51.1841398,38.5287206 L34.310435,38.5287206 C34.0515145,38.5287206 33.8417158,38.3189219 33.8417158,38.0600014 L33.8417158,34.3102475 C33.8417158,34.051327 34.0515145,33.8415283 34.310435,33.8415283 L51.1841398,33.8415283 C51.4430603,33.8415283 51.652859,34.051327 51.652859,34.3102475 L51.652859,38.0600014 C51.652859,38.3189219 51.4430603,38.5287206 51.1841398,38.5287206 L51.1841398,38.5287206 Z M34.7791543,37.5912821 L50.7154205,37.5912821 L50.7154205,34.7789668 L34.7791543,34.7789668 L34.7791543,37.5912821 Z" id="Fill-13" fill="#C48730" sketch:type="MSShapeGroup"></path>
            <path d="M51.1841398,46.0282283 L34.310435,46.0282283 C34.0515145,46.0282283 33.8417158,45.8184295 33.8417158,45.559509 L33.8417158,41.8097552 C33.8417158,41.5508347 34.0515145,41.341036 34.310435,41.341036 L51.1841398,41.341036 C51.4430603,41.341036 51.652859,41.5508347 51.652859,41.8097552 L51.652859,45.559509 C51.652859,45.8184295 51.4430603,46.0282283 51.1841398,46.0282283 L51.1841398,46.0282283 Z M34.7791543,45.0907898 L50.7154205,45.0907898 L50.7154205,42.2784744 L34.7791543,42.2784744 L34.7791543,45.0907898 Z" id="Fill-14" fill="#C48730" sketch:type="MSShapeGroup"></path>
            <path d="M51.1841398,53.5277359 L34.310435,53.5277359 C34.0515145,53.5277359 33.8417158,53.3179372 33.8417158,53.0590167 L33.8417158,49.3092629 C33.8417158,49.0503424 34.0515145,48.8405436 34.310435,48.8405436 L51.1841398,48.8405436 C51.4430603,48.8405436 51.652859,49.0503424 51.652859,49.3092629 L51.652859,53.0590167 C51.652859,53.3179372 51.4430603,53.5277359 51.1841398,53.5277359 L51.1841398,53.5277359 Z M34.7791543,52.5902975 L50.7154205,52.5902975 L50.7154205,49.7779821 L34.7791543,49.7779821 L34.7791543,52.5902975 Z" id="Fill-15" fill="#C48730" sketch:type="MSShapeGroup"></path>
            <path d="M51.1841398,61.0272436 L34.310435,61.0272436 C34.0515145,61.0272436 33.8417158,60.8174449 33.8417158,60.5585244 L33.8417158,56.8087705 C33.8417158,56.54985 34.0515145,56.3400513 34.310435,56.3400513 L51.1841398,56.3400513 C51.4430603,56.3400513 51.652859,56.54985 51.652859,56.8087705 L51.652859,60.5585244 C51.652859,60.8174449 51.4430603,61.0272436 51.1841398,61.0272436 L51.1841398,61.0272436 Z M34.7791543,60.0898051 L50.7154205,60.0898051 L50.7154205,57.2774898 L34.7791543,57.2774898 L34.7791543,60.0898051 Z" id="Fill-16" fill="#C48730" sketch:type="MSShapeGroup"></path>
            <path d="M60.5585244,23.5297053 L54.9338936,23.5297053 C54.6749731,23.5297053 54.4651744,23.3199066 54.4651744,23.0609861 L54.4651744,19.3112322 C54.4651744,19.0523117 54.6749731,18.842513 54.9338936,18.842513 L60.5585244,18.842513 C60.8174449,18.842513 61.0272436,19.0523117 61.0272436,19.3112322 L61.0272436,23.0609861 C61.0272436,23.3199066 60.8174449,23.5297053 60.5585244,23.5297053 L60.5585244,23.5297053 Z M55.4026128,22.5922668 L60.0898051,22.5922668 L60.0898051,19.7799515 L55.4026128,19.7799515 L55.4026128,22.5922668 Z" id="Fill-17" fill="#DBA658" sketch:type="MSShapeGroup"></path>
            <path d="M60.5585244,31.0292129 L54.9338936,31.0292129 C54.6749731,31.0292129 54.4651744,30.8194142 54.4651744,30.5604937 L54.4651744,26.8107399 C54.4651744,26.5518194 54.6749731,26.3420207 54.9338936,26.3420207 L60.5585244,26.3420207 C60.8174449,26.3420207 61.0272436,26.5518194 61.0272436,26.8107399 L61.0272436,30.5604937 C61.0272436,30.8194142 60.8174449,31.0292129 60.5585244,31.0292129 L60.5585244,31.0292129 Z M55.4026128,30.0917745 L60.0898051,30.0917745 L60.0898051,27.2794591 L55.4026128,27.2794591 L55.4026128,30.0917745 Z" id="Fill-18" fill="#DBA658" sketch:type="MSShapeGroup"></path>
            <path d="M60.5585244,38.5287206 L54.9338936,38.5287206 C54.6749731,38.5287206 54.4651744,38.3189219 54.4651744,38.0600014 L54.4651744,34.3102475 C54.4651744,34.051327 54.6749731,33.8415283 54.9338936,33.8415283 L60.5585244,33.8415283 C60.8174449,33.8415283 61.0272436,34.051327 61.0272436,34.3102475 L61.0272436,38.0600014 C61.0272436,38.3189219 60.8174449,38.5287206 60.5585244,38.5287206 L60.5585244,38.5287206 Z M55.4026128,37.5912821 L60.0898051,37.5912821 L60.0898051,34.7789668 L55.4026128,34.7789668 L55.4026128,37.5912821 Z" id="Fill-19" fill="#DBA658" sketch:type="MSShapeGroup"></path>
            <path d="M60.5585244,46.0282283 L54.9338936,46.0282283 C54.6749731,46.0282283 54.4651744,45.8184295 54.4651744,45.559509 L54.4651744,41.8097552 C54.4651744,41.5508347 54.6749731,41.341036 54.9338936,41.341036 L60.5585244,41.341036 C60.8174449,41.341036 61.0272436,41.5508347 61.0272436,41.8097552 L61.0272436,45.559509 C61.0272436,45.8184295 60.8174449,46.0282283 60.5585244,46.0282283 L60.5585244,46.0282283 Z M55.4026128,45.0907898 L60.0898051,45.0907898 L60.0898051,42.2784744 L55.4026128,42.2784744 L55.4026128,45.0907898 Z" id="Fill-20" fill="#DBA658" sketch:type="MSShapeGroup"></path>
            <path d="M60.5585244,53.5277359 L54.9338936,53.5277359 C54.6749731,53.5277359 54.4651744,53.3179372 54.4651744,53.0590167 L54.4651744,49.3092629 C54.4651744,49.0503424 54.6749731,48.8405436 54.9338936,48.8405436 L60.5585244,48.8405436 C60.8174449,48.8405436 61.0272436,49.0503424 61.0272436,49.3092629 L61.0272436,53.0590167 C61.0272436,53.3179372 60.8174449,53.5277359 60.5585244,53.5277359 L60.5585244,53.5277359 Z M55.4026128,52.5902975 L60.0898051,52.5902975 L60.0898051,49.7779821 L55.4026128,49.7779821 L55.4026128,52.5902975 Z" id="Fill-21" fill="#DBA658" sketch:type="MSShapeGroup"></path>
            <path d="M60.5585244,61.0272436 L54.9338936,61.0272436 C54.6749731,61.0272436 54.4651744,60.8174449 54.4651744,60.5585244 L54.4651744,56.8087705 C54.4651744,56.54985 54.6749731,56.3400513 54.9338936,56.3400513 L60.5585244,56.3400513 C60.8174449,56.3400513 61.0272436,56.54985 61.0272436,56.8087705 L61.0272436,60.5585244 C61.0272436,60.8174449 60.8174449,61.0272436 60.5585244,61.0272436 L60.5585244,61.0272436 Z M55.4026128,60.0898051 L60.0898051,60.0898051 L60.0898051,57.2774898 L55.4026128,57.2774898 L55.4026128,60.0898051 Z" id="Fill-22" fill="#DBA658" sketch:type="MSShapeGroup"></path>
            <path d="M60.5585244,68.5267512 L54.9338936,68.5267512 C54.6749731,68.5267512 54.4651744,68.3169525 54.4651744,68.058032 L54.4651744,64.3082782 C54.4651744,64.0493577 54.6749731,63.839559 54.9338936,63.839559 L60.5585244,63.839559 C60.8174449,63.839559 61.0272436,64.0493577 61.0272436,64.3082782 L61.0272436,68.058032 C61.0272436,68.3169525 60.8174449,68.5267512 60.5585244,68.5267512 L60.5585244,68.5267512 Z M55.4026128,67.5893128 L60.0898051,67.5893128 L60.0898051,64.7769974 L55.4026128,64.7769974 L55.4026128,67.5893128 Z" id="Fill-23" fill="#DBA658" sketch:type="MSShapeGroup"></path>
            <path d="M51.1841398,66.6518743 L34.3102475,66.6518743 C34.051327,66.6518743 33.8415283,66.4420756 33.8415283,66.1831551 L33.8415283,64.3082782 C33.8415283,64.0493577 34.051327,63.839559 34.3102475,63.839559 L51.1841398,63.839559 C51.4430603,63.839559 51.652859,64.0493577 51.652859,64.3082782 L51.652859,66.1831551 C51.652859,66.4420756 51.4430603,66.6518743 51.1841398,66.6518743 L51.1841398,66.6518743 Z M34.7789668,65.7144359 L50.7154205,65.7144359 L50.7154205,64.7769974 L34.7789668,64.7769974 L34.7789668,65.7144359 Z" id="Fill-24" fill="#A87027" sketch:type="MSShapeGroup"></path>
            <path d="M51.1841398,72.2765051 C50.9252193,72.2765051 50.7154205,72.0667063 50.7154205,71.8077858 L50.7154205,64.7769974 L34.7789668,64.7769974 L34.7789668,71.8077858 C34.7789668,72.0667063 34.569168,72.2765051 34.3102475,72.2765051 C34.051327,72.2765051 33.8415283,72.0667063 33.8415283,71.8077858 L33.8415283,64.3082782 C33.8415283,64.0493577 34.051327,63.839559 34.3102475,63.839559 L51.1841398,63.839559 C51.4430603,63.839559 51.652859,64.0493577 51.652859,64.3082782 L51.652859,71.8077858 C51.652859,72.0667063 51.4430603,72.2765051 51.1841398,72.2765051" id="Fill-25" fill="#C48730" sketch:type="MSShapeGroup"></path>
            <path d="M45.559509,23.5297053 L41.8097552,23.5297053 C41.5508347,23.5297053 41.341036,23.3199066 41.341036,23.0609861 L41.341036,19.3112322 C41.341036,19.0523117 41.5508347,18.842513 41.8097552,18.842513 L45.559509,18.842513 C45.8184295,18.842513 46.0282283,19.0523117 46.0282283,19.3112322 L46.0282283,23.0609861 C46.0282283,23.3199066 45.8184295,23.5297053 45.559509,23.5297053 L45.559509,23.5297053 Z M42.2784744,22.5922668 L45.0907898,22.5922668 L45.0907898,19.7799515 L42.2784744,19.7799515 L42.2784744,22.5922668 Z" id="Fill-26" fill="#DBA658" sketch:type="MSShapeGroup"></path>
            <path d="M51.1841398,31.0292129 L45.559509,31.0292129 C45.3005885,31.0292129 45.0907898,30.8194142 45.0907898,30.5604937 L45.0907898,26.8107399 C45.0907898,26.5518194 45.3005885,26.3420207 45.559509,26.3420207 L51.1841398,26.3420207 C51.4430603,26.3420207 51.652859,26.5518194 51.652859,26.8107399 L51.652859,30.5604937 C51.652859,30.8194142 51.4430603,31.0292129 51.1841398,31.0292129 L51.1841398,31.0292129 Z M46.0282283,30.0917745 L50.7154205,30.0917745 L50.7154205,27.2794591 L46.0282283,27.2794591 L46.0282283,30.0917745 Z" id="Fill-27" fill="#DBA658" sketch:type="MSShapeGroup"></path>
            <path d="M45.559509,38.5287206 L41.8097552,38.5287206 C41.5508347,38.5287206 41.341036,38.3189219 41.341036,38.0600014 L41.341036,34.3102475 C41.341036,34.051327 41.5508347,33.8415283 41.8097552,33.8415283 L45.559509,33.8415283 C45.8184295,33.8415283 46.0282283,34.051327 46.0282283,34.3102475 L46.0282283,38.0600014 C46.0282283,38.3189219 45.8184295,38.5287206 45.559509,38.5287206 L45.559509,38.5287206 Z M42.2784744,37.5912821 L45.0907898,37.5912821 L45.0907898,34.7789668 L42.2784744,34.7789668 L42.2784744,37.5912821 Z" id="Fill-28" fill="#DBA658" sketch:type="MSShapeGroup"></path>
            <path d="M51.1841398,61.0272436 L47.4343859,61.0272436 C47.1754654,61.0272436 46.9656667,60.8174449 46.9656667,60.5585244 L46.9656667,56.8087705 C46.9656667,56.54985 47.1754654,56.3400513 47.4343859,56.3400513 L51.1841398,56.3400513 C51.4430603,56.3400513 51.652859,56.54985 51.652859,56.8087705 L51.652859,60.5585244 C51.652859,60.8174449 51.4430603,61.0272436 51.1841398,61.0272436 L51.1841398,61.0272436 Z M47.9031052,60.0898051 L50.7154205,60.0898051 L50.7154205,57.2774898 L47.9031052,57.2774898 L47.9031052,60.0898051 Z" id="Fill-29" fill="#DBA658" sketch:type="MSShapeGroup"></path>
            <path d="M34.3102475,61.0272436 L30.5604937,61.0272436 C30.3015732,61.0272436 30.0917745,60.8174449 30.0917745,60.5585244 L30.0917745,26.8107399 C30.0917745,26.5518194 30.3015732,26.3420207 30.5604937,26.3420207 L34.3102475,26.3420207 C34.569168,26.3420207 34.7789668,26.5518194 34.7789668,26.8107399 L34.7789668,60.5585244 C34.7789668,60.8174449 34.569168,61.0272436 34.3102475,61.0272436 L34.3102475,61.0272436 Z M31.0292129,60.0898051 L33.8415283,60.0898051 L33.8415283,27.2794591 L31.0292129,27.2794591 L31.0292129,60.0898051 Z" id="Fill-30" fill="#DBA658" sketch:type="MSShapeGroup"></path>
            <path d="M34.3102475,38.5287206 L30.5604937,38.5287206 C30.3015732,38.5287206 30.0917745,38.3189219 30.0917745,38.0600014 L30.0917745,34.3102475 C30.0917745,34.051327 30.3015732,33.8415283 30.5604937,33.8415283 L34.3102475,33.8415283 C34.569168,33.8415283 34.7789668,34.051327 34.7789668,34.3102475 L34.7789668,38.0600014 C34.7789668,38.3189219 34.569168,38.5287206 34.3102475,38.5287206 L34.3102475,38.5287206 Z M31.0292129,37.5912821 L33.8415283,37.5912821 L33.8415283,34.7789668 L31.0292129,34.7789668 L31.0292129,37.5912821 Z" id="Fill-31" fill="#DBA658" sketch:type="MSShapeGroup"></path>
            <path d="M34.3102475,49.7779821 L30.5604937,49.7779821 C30.3015732,49.7779821 30.0917745,49.5681834 30.0917745,49.3092629 L30.0917745,45.559509 C30.0917745,45.3005885 30.3015732,45.0907898 30.5604937,45.0907898 L34.3102475,45.0907898 C34.569168,45.0907898 34.7789668,45.3005885 34.7789668,45.559509 L34.7789668,49.3092629 C34.7789668,49.5681834 34.569168,49.7779821 34.3102475,49.7779821 L34.3102475,49.7779821 Z M31.0292129,48.8405436 L33.8415283,48.8405436 L33.8415283,46.0282283 L31.0292129,46.0282283 L31.0292129,48.8405436 Z" id="Fill-32" fill="#DBA658" sketch:type="MSShapeGroup"></path>
            <path d="M34.3102475,72.2765051 C34.051327,72.2765051 33.8415283,72.0667063 33.8415283,71.8077858 L33.8415283,24.935863 C33.8415283,24.1604139 33.2108197,23.5297053 32.4353706,23.5297053 L24.935863,23.5297053 C24.6769425,23.5297053 24.4671437,23.3199066 24.4671437,23.0609861 C24.4671437,22.8020656 24.6769425,22.5922668 24.935863,22.5922668 L32.4353706,22.5922668 C33.7277233,22.5922668 34.7789668,23.6435103 34.7789668,24.935863 L34.7789668,71.8077858 C34.7789668,72.0667063 34.569168,72.2765051 34.3102475,72.2765051" id="Fill-33" fill="#C48730" sketch:type="MSShapeGroup"></path>
            <path d="M51.1841398,16.0301976 L36.1851245,16.0301976 C35.926204,16.0301976 35.7164052,15.8203989 35.7164052,15.5614784 L35.7164052,11.8117246 C35.7164052,11.5528041 35.926204,11.3430053 36.1851245,11.3430053 L51.1841398,11.3430053 C51.4430603,11.3430053 51.652859,11.5528041 51.652859,11.8117246 L51.652859,15.5614784 C51.652859,15.8203989 51.4430603,16.0301976 51.1841398,16.0301976 L51.1841398,16.0301976 Z M36.6538437,15.0927592 L50.7154205,15.0927592 L50.7154205,12.2804438 L36.6538437,12.2804438 L36.6538437,15.0927592 Z" id="Fill-34" fill="#C48730" sketch:type="MSShapeGroup"></path>
            <path d="M26.8107399,72.2765051 C26.5518194,72.2765051 26.3420207,72.0667063 26.3420207,71.8077858 L26.3420207,23.5297053 L9.93684765,23.5297053 C9.16139856,23.5297053 8.53068996,24.1604139 8.53068996,24.935863 L8.53068996,30.5604937 C8.53068996,30.8194142 8.32089124,31.0292129 8.06197073,31.0292129 L2.43733999,31.0292129 C1.6618909,31.0292129 1.0311823,31.6599215 1.0311823,32.4353706 L1.0311823,71.8077858 C1.0311823,72.0667063 0.821383576,72.2765051 0.562463074,72.2765051 C0.303542573,72.2765051 0.0937438457,72.0667063 0.0937438457,71.8077858 L0.0937438457,32.4353706 C0.0937438457,31.143018 1.14498733,30.0917745 2.43733999,30.0917745 L7.59325151,30.0917745 L7.59325151,24.935863 C7.59325151,23.6435103 8.64449499,22.5922668 9.93684765,22.5922668 L26.8107399,22.5922668 C27.0696604,22.5922668 27.2794591,22.8020656 27.2794591,23.0609861 L27.2794591,71.8077858 C27.2794591,72.0667063 27.0696604,72.2765051 26.8107399,72.2765051" id="Fill-35" fill="#DBA658" sketch:type="MSShapeGroup"></path>
            <path d="M8.06197073,61.0272436 L4.3122169,61.0272436 C4.0532964,61.0272436 3.84349768,60.8174449 3.84349768,60.5585244 L3.84349768,34.3102475 C3.84349768,34.051327 4.0532964,33.8415283 4.3122169,33.8415283 L8.06197073,33.8415283 C8.32089124,33.8415283 8.53068996,34.051327 8.53068996,34.3102475 L8.53068996,60.5585244 C8.53068996,60.8174449 8.32089124,61.0272436 8.06197073,61.0272436 L8.06197073,61.0272436 Z M4.78093613,60.0898051 L7.59325151,60.0898051 L7.59325151,34.7789668 L4.78093613,34.7789668 L4.78093613,60.0898051 Z" id="Fill-36" fill="#C48730" sketch:type="MSShapeGroup"></path>
            <path d="M15.5614784,61.0272436 L11.8117246,61.0272436 C11.5528041,61.0272436 11.3430053,60.8174449 11.3430053,60.5585244 L11.3430053,26.8107399 C11.3430053,26.5518194 11.5528041,26.3420207 11.8117246,26.3420207 L15.5614784,26.3420207 C15.8203989,26.3420207 16.0301976,26.5518194 16.0301976,26.8107399 L16.0301976,60.5585244 C16.0301976,60.8174449 15.8203989,61.0272436 15.5614784,61.0272436 L15.5614784,61.0272436 Z M12.2804438,60.0898051 L15.0927592,60.0898051 L15.0927592,27.2794591 L12.2804438,27.2794591 L12.2804438,60.0898051 Z" id="Fill-37" fill="#C48730" sketch:type="MSShapeGroup"></path>
            <path d="M23.0609861,61.0272436 L19.3112322,61.0272436 C19.0523117,61.0272436 18.842513,60.8174449 18.842513,60.5585244 L18.842513,26.8107399 C18.842513,26.5518194 19.0523117,26.3420207 19.3112322,26.3420207 L23.0609861,26.3420207 C23.3199066,26.3420207 23.5297053,26.5518194 23.5297053,26.8107399 L23.5297053,60.5585244 C23.5297053,60.8174449 23.3199066,61.0272436 23.0609861,61.0272436 L23.0609861,61.0272436 Z M19.7799515,60.0898051 L22.5922668,60.0898051 L22.5922668,27.2794591 L19.7799515,27.2794591 L19.7799515,60.0898051 Z" id="Fill-38" fill="#C48730" sketch:type="MSShapeGroup"></path>
            <path d="M23.0609861,66.6518743 L4.3122169,66.6518743 C4.0532964,66.6518743 3.84349768,66.4420756 3.84349768,66.1831551 L3.84349768,64.3082782 C3.84349768,64.0493577 4.0532964,63.839559 4.3122169,63.839559 L23.0609861,63.839559 C23.3199066,63.839559 23.5297053,64.0493577 23.5297053,64.3082782 L23.5297053,66.1831551 C23.5297053,66.4420756 23.3199066,66.6518743 23.0609861,66.6518743 L23.0609861,66.6518743 Z M4.78093613,65.7144359 L22.5922668,65.7144359 L22.5922668,64.7769974 L4.78093613,64.7769974 L4.78093613,65.7144359 Z" id="Fill-39" fill="#C48730" sketch:type="MSShapeGroup"></path>
            <path d="M23.0609861,72.2765051 C22.8020656,72.2765051 22.5922668,72.0667063 22.5922668,71.8077858 L22.5922668,64.7769974 L4.78093613,64.7769974 L4.78093613,71.8077858 C4.78093613,72.0667063 4.57113741,72.2765051 4.3122169,72.2765051 C4.0532964,72.2765051 3.84349768,72.0667063 3.84349768,71.8077858 L3.84349768,64.3082782 C3.84349768,64.0493577 4.0532964,63.839559 4.3122169,63.839559 L23.0609861,63.839559 C23.3199066,63.839559 23.5297053,64.0493577 23.5297053,64.3082782 L23.5297053,71.8077858 C23.5297053,72.0667063 23.3199066,72.2765051 23.0609861,72.2765051" id="Fill-40" fill="#DBA658" sketch:type="MSShapeGroup"></path>
            <path d="M8.06197073,38.5287206 L4.3122169,38.5287206 C4.0532964,38.5287206 3.84349768,38.3189219 3.84349768,38.0600014 L3.84349768,34.3102475 C3.84349768,34.051327 4.0532964,33.8415283 4.3122169,33.8415283 L8.06197073,33.8415283 C8.32089124,33.8415283 8.53068996,34.051327 8.53068996,34.3102475 L8.53068996,38.0600014 C8.53068996,38.3189219 8.32089124,38.5287206 8.06197073,38.5287206 L8.06197073,38.5287206 Z M4.78093613,37.5912821 L7.59325151,37.5912821 L7.59325151,34.7789668 L4.78093613,34.7789668 L4.78093613,37.5912821 Z" id="Fill-41" fill="#DBA658" sketch:type="MSShapeGroup"></path>
            <path d="M8.06197073,46.0282283 L4.3122169,46.0282283 C4.0532964,46.0282283 3.84349768,45.8184295 3.84349768,45.559509 L3.84349768,41.8097552 C3.84349768,41.5508347 4.0532964,41.341036 4.3122169,41.341036 L8.06197073,41.341036 C8.32089124,41.341036 8.53068996,41.5508347 8.53068996,41.8097552 L8.53068996,45.559509 C8.53068996,45.8184295 8.32089124,46.0282283 8.06197073,46.0282283 L8.06197073,46.0282283 Z M4.78093613,45.0907898 L7.59325151,45.0907898 L7.59325151,42.2784744 L4.78093613,42.2784744 L4.78093613,45.0907898 Z" id="Fill-42" fill="#DBA658" sketch:type="MSShapeGroup"></path>
            <path d="M8.06197073,53.5277359 L4.3122169,53.5277359 C4.0532964,53.5277359 3.84349768,53.3179372 3.84349768,53.0590167 L3.84349768,49.3092629 C3.84349768,49.0503424 4.0532964,48.8405436 4.3122169,48.8405436 L8.06197073,48.8405436 C8.32089124,48.8405436 8.53068996,49.0503424 8.53068996,49.3092629 L8.53068996,53.0590167 C8.53068996,53.3179372 8.32089124,53.5277359 8.06197073,53.5277359 L8.06197073,53.5277359 Z M4.78093613,52.5902975 L7.59325151,52.5902975 L7.59325151,49.7779821 L4.78093613,49.7779821 L4.78093613,52.5902975 Z" id="Fill-43" fill="#DBA658" sketch:type="MSShapeGroup"></path>
            <path d="M15.5614784,42.2784744 L11.8117246,42.2784744 C11.5528041,42.2784744 11.3430053,42.0686757 11.3430053,41.8097552 L11.3430053,38.0600014 C11.3430053,37.8010809 11.5528041,37.5912821 11.8117246,37.5912821 L15.5614784,37.5912821 C15.8203989,37.5912821 16.0301976,37.8010809 16.0301976,38.0600014 L16.0301976,41.8097552 C16.0301976,42.0686757 15.8203989,42.2784744 15.5614784,42.2784744 L15.5614784,42.2784744 Z M12.2804438,41.341036 L15.0927592,41.341036 L15.0927592,38.5287206 L12.2804438,38.5287206 L12.2804438,41.341036 Z" id="Fill-44" fill="#DBA658" sketch:type="MSShapeGroup"></path>
            <path d="M15.5614784,61.0272436 L11.8117246,61.0272436 C11.5528041,61.0272436 11.3430053,60.8174449 11.3430053,60.5585244 L11.3430053,56.8087705 C11.3430053,56.54985 11.5528041,56.3400513 11.8117246,56.3400513 L15.5614784,56.3400513 C15.8203989,56.3400513 16.0301976,56.54985 16.0301976,56.8087705 L16.0301976,60.5585244 C16.0301976,60.8174449 15.8203989,61.0272436 15.5614784,61.0272436 L15.5614784,61.0272436 Z M12.2804438,60.0898051 L15.0927592,60.0898051 L15.0927592,57.2774898 L12.2804438,57.2774898 L12.2804438,60.0898051 Z" id="Fill-45" fill="#DBA658" sketch:type="MSShapeGroup"></path>
            <path d="M15.5614784,49.7779821 L11.8117246,49.7779821 C11.5528041,49.7779821 11.3430053,49.5681834 11.3430053,49.3092629 L11.3430053,45.559509 C11.3430053,45.3005885 11.5528041,45.0907898 11.8117246,45.0907898 L15.5614784,45.0907898 C15.8203989,45.0907898 16.0301976,45.3005885 16.0301976,45.559509 L16.0301976,49.3092629 C16.0301976,49.5681834 15.8203989,49.7779821 15.5614784,49.7779821 L15.5614784,49.7779821 Z M12.2804438,48.8405436 L15.0927592,48.8405436 L15.0927592,46.0282283 L12.2804438,46.0282283 L12.2804438,48.8405436 Z" id="Fill-46" fill="#DBA658" sketch:type="MSShapeGroup"></path>
            <path d="M15.5614784,34.7789668 L11.8117246,34.7789668 C11.5528041,34.7789668 11.3430053,34.569168 11.3430053,34.3102475 L11.3430053,30.5604937 C11.3430053,30.3015732 11.5528041,30.0917745 11.8117246,30.0917745 L15.5614784,30.0917745 C15.8203989,30.0917745 16.0301976,30.3015732 16.0301976,30.5604937 L16.0301976,34.3102475 C16.0301976,34.569168 15.8203989,34.7789668 15.5614784,34.7789668 L15.5614784,34.7789668 Z M12.2804438,33.8415283 L15.0927592,33.8415283 L15.0927592,31.0292129 L12.2804438,31.0292129 L12.2804438,33.8415283 Z" id="Fill-47" fill="#DBA658" sketch:type="MSShapeGroup"></path>
            <path d="M23.0609861,34.7789668 L19.3112322,34.7789668 C19.0523117,34.7789668 18.842513,34.569168 18.842513,34.3102475 L18.842513,30.5604937 C18.842513,30.3015732 19.0523117,30.0917745 19.3112322,30.0917745 L23.0609861,30.0917745 C23.3199066,30.0917745 23.5297053,30.3015732 23.5297053,30.5604937 L23.5297053,34.3102475 C23.5297053,34.569168 23.3199066,34.7789668 23.0609861,34.7789668 L23.0609861,34.7789668 Z M19.7799515,33.8415283 L22.5922668,33.8415283 L22.5922668,31.0292129 L19.7799515,31.0292129 L19.7799515,33.8415283 Z" id="Fill-48" fill="#DBA658" sketch:type="MSShapeGroup"></path>
            <path d="M23.0609861,46.0282283 L19.3112322,46.0282283 C19.0523117,46.0282283 18.842513,45.8184295 18.842513,45.559509 L18.842513,41.8097552 C18.842513,41.5508347 19.0523117,41.341036 19.3112322,41.341036 L23.0609861,41.341036 C23.3199066,41.341036 23.5297053,41.5508347 23.5297053,41.8097552 L23.5297053,45.559509 C23.5297053,45.8184295 23.3199066,46.0282283 23.0609861,46.0282283 L23.0609861,46.0282283 Z M19.7799515,45.0907898 L22.5922668,45.0907898 L22.5922668,42.2784744 L19.7799515,42.2784744 L19.7799515,45.0907898 Z" id="Fill-49" fill="#DBA658" sketch:type="MSShapeGroup"></path>
            <path d="M23.0609861,53.5277359 L19.3112322,53.5277359 C19.0523117,53.5277359 18.842513,53.3179372 18.842513,53.0590167 L18.842513,49.3092629 C18.842513,49.0503424 19.0523117,48.8405436 19.3112322,48.8405436 L23.0609861,48.8405436 C23.3199066,48.8405436 23.5297053,49.0503424 23.5297053,49.3092629 L23.5297053,53.0590167 C23.5297053,53.3179372 23.3199066,53.5277359 23.0609861,53.5277359 L23.0609861,53.5277359 Z M19.7799515,52.5902975 L22.5922668,52.5902975 L22.5922668,49.7779821 L19.7799515,49.7779821 L19.7799515,52.5902975 Z" id="Fill-50" fill="#DBA658" sketch:type="MSShapeGroup"></path>
            <path d="M75.5575397,76.0262589 L0.562463074,76.0262589 C0.303542573,76.0262589 0.0937438457,75.8164602 0.0937438457,75.5575397 L0.0937438457,71.8077858 C0.0937438457,71.5488653 0.303542573,71.3390666 0.562463074,71.3390666 L75.5575397,71.3390666 C75.8164602,71.3390666 76.0262589,71.5488653 76.0262589,71.8077858 L76.0262589,75.5575397 C76.0262589,75.8164602 75.8164602,76.0262589 75.5575397,76.0262589 L75.5575397,76.0262589 Z M1.0311823,75.0888204 L75.0888204,75.0888204 L75.0888204,72.2765051 L1.0311823,72.2765051 L1.0311823,75.0888204 Z" id="Fill-51" fill="#A87027" sketch:type="MSShapeGroup"></path>
        </g>
    </g>
</svg>