<?xml version="1.0" encoding="utf-8"?>
<!-- Generator: Adobe Illustrator 18.0.0, SVG Export Plug-In . SVG Version: 6.00 Build 0)  -->
<!DOCTYPE svg PUBLIC "-//W3C//DTD SVG 1.1//EN" "http://www.w3.org/Graphics/SVG/1.1/DTD/svg11.dtd">
<svg version="1.1" id="Layer_1" xmlns="http://www.w3.org/2000/svg" xmlns:xlink="http://www.w3.org/1999/xlink" x="0px" y="0px"
	 viewBox="0 315.4 600.1 84.6" enable-background="new 0 315.4 600.1 84.6" xml:space="preserve">
<path fill="#CCCCCC" d="M225.6,348.5v37.4h-13.7v-37.4h-13.7v-12h41.2v12H225.6L225.6,348.5z M271.4,371.1h-21.9
	c0.4,4.2,2.8,6,6.3,6c3.2,0,6-0.7,9.5-2.5l4.9,8.1c-4.6,2.8-9.2,4.2-15.2,4.2c-11.3,0-17.3-7.8-17.3-19.4c0-12.7,7.1-19.4,16.9-19.4
	c10.2,0,16.6,6.7,16.6,20.4C271.4,369.7,271.4,370.4,271.4,371.1L271.4,371.1z M254.5,357.3c-2.8,0-4.6,2.1-4.9,5.6h10.6
	C259.5,359.5,258.4,357.3,254.5,357.3L254.5,357.3z M295.1,386.6c-10.9,0-17.3-7.1-17.3-19.4c0-11.3,5.6-19,17.6-19
	c7.1,0,10.9,3.2,14.1,8.5l-8.8,6.7c-1.8-3.2-2.8-4.9-5.6-4.9c-3.2,0-4.9,3.2-4.9,9.2s1.8,8.8,5.3,8.8c2.5,0,4.2-1.4,6.3-4.9l8.1,6.3
	C305.6,384.1,301.4,386.6,295.1,386.6L295.1,386.6z M338.1,385.9v-21.2c0-4.9-1.8-6-4.2-6c-2.8,0-4.2,1.4-4.2,6v21.2H317v-46.2
	l12.7-4.9v16.9c2.5-1.8,4.9-3.2,9.2-3.2c8.1,0,12,5.3,12,15.2v22.2H338.1z"/>
<path fill="#B3B3B3" d="M381.4,386.6c-14.8,0-22.6-10.9-22.6-25.4c0-15.9,9.2-25.4,22.6-25.4c12,0,16.9,5.3,20.4,14.5l-12.3,4.9
	c-1.8-4.6-3.5-7.4-8.1-7.4c-5.6,0-8.1,5.6-8.1,13.4c0,7.4,2.5,13.4,8.5,13.4c4.2,0,6-2.5,8.8-7.1l11.6,6
	C398.7,380.3,393.1,386.6,381.4,386.6z M433.3,363c-1.8-1.8-3.5-3.2-6-3.2c-3.2,0-4.9,1.4-4.9,6v20.1h-12.7v-37h12.7v2.8
	c2.1-2.1,4.6-3.5,7.8-3.5c2.8,0,4.6,0.7,6,1.4L433.3,363z M463.2,385.9v-2.5c-2.1,1.8-4.9,3.2-9.2,3.2c-8.1,0-12-5.3-12-15.2v-22.6
	h12.7V370c0,4.9,1.8,6,4.2,6s4.2-1.4,4.2-6v-21.2h12.7v37h-12.6L463.2,385.9z M506.6,385.9v-21.2c0-4.9-1.8-6-4.2-6
	c-2.8,0-4.2,1.4-4.2,6v21.2h-12.7v-37h12.7v2.5c2.5-1.8,4.9-3.2,9.2-3.2c8.1,0,12,5.3,12,15.2V386h-12.8L506.6,385.9z M543.9,386.6
	c-10.9,0-17.3-7.1-17.3-19.4c0-11.3,5.6-19,17.6-19c7.1,0,10.9,3.2,14.1,8.5l-8.8,6.7c-1.8-3.2-2.8-4.9-5.6-4.9
	c-3.2,0-4.9,3.2-4.9,9.2s1.8,8.8,5.3,8.8c2.5,0,4.2-1.4,6.3-4.9l8.1,6.3C554.5,384.1,550.6,386.6,543.9,386.6L543.9,386.6z
	 M587.3,385.9v-21.2c0-4.9-1.8-6-4.2-6c-2.8,0-4.2,1.4-4.2,6v21.2h-12.7v-46.2l12.7-4.9v16.9c2.5-1.8,4.9-3.2,9.2-3.2
	c8.1,0,12,5.3,12,15.2v22.2H587.3z"/>
<g>
	<path fill="#CCCCCC" d="M0,315.4v28.2h28.2V400h28.2v-56.4h28.2v-28.2H0z M112.8,371.8v-28.2H84.6V400h84.6v-28.2L112.8,371.8z
		 M112.8,315.4h56.4v28.2h-56.4L112.8,315.4z"/>
</g>
</svg>
