<?xml version="1.0" encoding="utf-8"?>
<!-- Generator: Adobe Illustrator 18.0.0, SVG Export Plug-In . SVG Version: 6.00 Build 0)  -->
<!DOCTYPE svg PUBLIC "-//W3C//DTD SVG 1.1//EN" "http://www.w3.org/Graphics/SVG/1.1/DTD/svg11.dtd">
<svg version="1.1" xmlns="http://www.w3.org/2000/svg" xmlns:xlink="http://www.w3.org/1999/xlink" x="0px" y="0px"
	 viewBox="0 0 2000 400" enable-background="new 0 0 2000 400" xml:space="preserve">
<g id="Layer_2">
</g>
<g id="Layer_1">
	<circle fill="#D38D29" cx="562.7" cy="287.8" r="12.5"/>
	<circle fill="#EF6D44" cx="962.7" cy="387.8" r="12.5"/>
	<circle fill="#419089" cx="737.7" cy="62.8" r="12.5"/>
	<path fill="#D38D29" d="M1200,300.4V325h25C1225,312,1214,300.4,1200,300.4z"/>
	<rect x="875" y="75" fill="#D38D29" width="25" height="25"/>
	<path fill="#EF6D44" d="M424.9,0h-24.8v25C413.6,25,424.9,13.8,424.9,0z"/>
	<path fill="#419089" d="M324.7,350h-49.7v50C302.1,400,324.7,377.6,324.7,350z"/>
	<circle fill="#EF6D44" cx="1725" cy="350" r="25"/>
	<rect x="1550" y="250" fill="#419089" width="25" height="25"/>
	<path fill="#D38D29" d="M1874.8,125.1c0-28.1-22.7-50.2-49.8-50.2v50.2H1874.8z"/>
	<path fill="#BBEAC7" d="M1899.9,375h-24.8v25C1888.6,400,1899.9,388.8,1899.9,375z"/>
	<circle fill="#D38D29" cx="1462.5" cy="37.5" r="12.5"/>
	<path fill="#BBEAC7" d="M1500,49.8c-14,0-24.8,11.2-24.8,25.2h24.8V49.8z"/>
	<path fill="#419089" d="M525,50c-28,0-49.7,23-49.7,50H525V50z"/>
	<g>
		<path fill="none" stroke="#EF6D44" stroke-miterlimit="10" d="M149.8,122.5c-1.2,0-2.2,1-2.2,2.2"/>
		<path fill="none" stroke="#EF6D44" stroke-miterlimit="10" d="M149.8,120c-2.6,0-4.8,2.1-4.8,4.8"/>
		<path fill="none" stroke="#EF6D44" stroke-miterlimit="10" d="M149.8,117.5c-4,0-7.2,3.2-7.2,7.2"/>
		<path fill="none" stroke="#EF6D44" stroke-miterlimit="10" d="M149.8,115c-5.4,0-9.8,4.4-9.8,9.8"/>
		<path fill="none" stroke="#EF6D44" stroke-miterlimit="10" d="M149.8,112.5c-6.8,0-12.2,5.5-12.2,12.2"/>
		<path fill="none" stroke="#EF6D44" stroke-miterlimit="10" d="M149.8,110c-8.1,0-14.8,6.6-14.8,14.8"/>
		<path fill="none" stroke="#EF6D44" stroke-miterlimit="10" d="M149.8,107.5c-9.5,0-17.2,7.7-17.2,17.2"/>
		<path fill="none" stroke="#EF6D44" stroke-miterlimit="10" d="M149.8,105c-10.9,0-19.8,8.8-19.8,19.8"/>
		<path fill="none" stroke="#EF6D44" stroke-miterlimit="10" d="M149.8,102.5c-12.3,0-22.3,10-22.3,22.2"/>
		<path fill="none" stroke="#EF6D44" stroke-miterlimit="10" d="M149.8,100c-13.7,0-24.8,11.1-24.8,24.8"/>
	</g>
</g>
</svg>
