<?xml version="1.0" encoding="utf-8"?>
<!-- Generator: Adobe Illustrator 18.0.0, SVG Export Plug-In . SVG Version: 6.00 Build 0)  -->
<!DOCTYPE svg PUBLIC "-//W3C//DTD SVG 1.1//EN" "http://www.w3.org/Graphics/SVG/1.1/DTD/svg11.dtd">
<svg version="1.1" xmlns="http://www.w3.org/2000/svg" xmlns:xlink="http://www.w3.org/1999/xlink" x="0px" y="0px"
	 viewBox="0 0 2000 400" enable-background="new 0 0 2000 400" xml:space="preserve">
<g id="Layer_2">
</g>
<g id="Layer_1">
	<circle fill="#BBEAC7" cx="1100.2" cy="25.2" r="25"/>
	<path fill="#BBEAC7" d="M175,275.4V300h25C200,287,189,275.4,175,275.4z"/>
	<path fill="#EF6D44" d="M1625,100c0,13.8,11,25,25,25v-25H1625z"/>
	<path fill="#D38D29" d="M74.9,25H50.1v25C63.6,50,74.9,38.8,74.9,25z"/>
	<path fill="#D38D29" d="M1900.1,375h24.8v-25C1911.4,350,1900.1,361.2,1900.1,375z"/>
	<path fill="#EF6D44" d="M775.3,300.7l-24.8-0.7l-0.7,25C763.2,325.4,774.9,314.5,775.3,300.7z"/>
	<path fill="#EF6D44" d="M1175,101.2c-27.4,0-49,22.2-49,48.7h49V101.2z"/>
	<g>
		<path fill="none" stroke="#419089" stroke-miterlimit="10" d="M530,50c0-2.5-2-4.5-4.5-4.5"/>
		<path fill="none" stroke="#419089" stroke-miterlimit="10" d="M535,50c0-5.2-4.3-9.5-9.5-9.5"/>
		<path fill="none" stroke="#419089" stroke-miterlimit="10" d="M540,50c0-8-6.5-14.5-14.5-14.5"/>
		<path fill="none" stroke="#419089" stroke-miterlimit="10" d="M545,50c0-10.8-8.7-19.5-19.5-19.5"/>
		<path fill="none" stroke="#419089" stroke-miterlimit="10" d="M550,50c0-13.5-11-24.5-24.5-24.5"/>
		<path fill="none" stroke="#419089" stroke-miterlimit="10" d="M555,50c0-16.3-13.2-29.5-29.5-29.5"/>
		<path fill="none" stroke="#419089" stroke-miterlimit="10" d="M560,50c0-19.1-15.4-34.5-34.5-34.5"/>
		<path fill="none" stroke="#419089" stroke-miterlimit="10" d="M565,50c0-21.8-17.7-39.5-39.5-39.5"/>
		<path fill="none" stroke="#419089" stroke-miterlimit="10" d="M570,50c0-24.6-19.9-44.5-44.5-44.5"/>
		<path fill="none" stroke="#419089" stroke-miterlimit="10" d="M575,50c0-27.3-22.2-49.5-49.5-49.5"/>
	</g>
	<g>
		<line fill="none" stroke="#419089" stroke-miterlimit="10" x1="1350.2" y1="125" x2="1350.2" y2="150"/>
		<line fill="none" stroke="#419089" stroke-miterlimit="10" x1="1352.8" y1="125" x2="1352.8" y2="150"/>
		<line fill="none" stroke="#419089" stroke-miterlimit="10" x1="1355.8" y1="125" x2="1355.8" y2="150"/>
		<line fill="none" stroke="#419089" stroke-miterlimit="10" x1="1358.2" y1="125" x2="1358.2" y2="150"/>
		<line fill="none" stroke="#419089" stroke-miterlimit="10" x1="1361.2" y1="125" x2="1361.2" y2="150"/>
		<line fill="none" stroke="#419089" stroke-miterlimit="10" x1="1363.8" y1="125" x2="1363.8" y2="150"/>
		<line fill="none" stroke="#419089" stroke-miterlimit="10" x1="1366.2" y1="125" x2="1366.2" y2="150"/>
		<line fill="none" stroke="#419089" stroke-miterlimit="10" x1="1369.2" y1="125" x2="1369.2" y2="150"/>
		<line fill="none" stroke="#419089" stroke-miterlimit="10" x1="1371.8" y1="125" x2="1371.8" y2="150"/>
		<line fill="none" stroke="#419089" stroke-miterlimit="10" x1="1374.8" y1="125" x2="1374.8" y2="150"/>
	</g>
	<g>
		<circle fill="none" stroke="#D38D29" stroke-miterlimit="10" cx="1375" cy="325" r="4.5"/>
		<circle fill="none" stroke="#D38D29" stroke-miterlimit="10" cx="1375" cy="325" r="9.6"/>
		<circle fill="none" stroke="#D38D29" stroke-miterlimit="10" cx="1375" cy="325" r="14.6"/>
		<circle fill="none" stroke="#D38D29" stroke-miterlimit="10" cx="1375" cy="325" r="19.7"/>
		<circle fill="none" stroke="#D38D29" stroke-miterlimit="10" cx="1375" cy="325" r="24.8"/>
	</g>
	<g>
		<line fill="none" stroke="#419089" stroke-miterlimit="10" x1="700.5" y1="175" x2="700.5" y2="225"/>
		<line fill="none" stroke="#419089" stroke-miterlimit="10" x1="705.5" y1="175" x2="705.5" y2="225"/>
		<line fill="none" stroke="#419089" stroke-miterlimit="10" x1="711.5" y1="175" x2="711.5" y2="225"/>
		<line fill="none" stroke="#419089" stroke-miterlimit="10" x1="716.5" y1="175" x2="716.5" y2="225"/>
		<line fill="none" stroke="#419089" stroke-miterlimit="10" x1="722.5" y1="175" x2="722.5" y2="225"/>
		<line fill="none" stroke="#419089" stroke-miterlimit="10" x1="727.5" y1="175" x2="727.5" y2="225"/>
		<line fill="none" stroke="#419089" stroke-miterlimit="10" x1="732.5" y1="175" x2="732.5" y2="225"/>
		<line fill="none" stroke="#419089" stroke-miterlimit="10" x1="738.5" y1="175" x2="738.5" y2="225"/>
		<line fill="none" stroke="#419089" stroke-miterlimit="10" x1="743.5" y1="175" x2="743.5" y2="225"/>
		<line fill="none" stroke="#419089" stroke-miterlimit="10" x1="749.5" y1="175" x2="749.5" y2="225"/>
	</g>
	<g>
		<path fill="none" stroke="#EF6D44" stroke-miterlimit="10" d="M695.2,350c0,2.5,2,4.5,4.5,4.5"/>
		<path fill="none" stroke="#EF6D44" stroke-miterlimit="10" d="M690.2,350c0,5.2,4.3,9.5,9.5,9.5"/>
		<path fill="none" stroke="#EF6D44" stroke-miterlimit="10" d="M685.2,350c0,8,6.5,14.5,14.5,14.5"/>
		<path fill="none" stroke="#EF6D44" stroke-miterlimit="10" d="M680.2,350c0,10.8,8.7,19.5,19.5,19.5"/>
		<path fill="none" stroke="#EF6D44" stroke-miterlimit="10" d="M675.2,350c0,13.5,11,24.5,24.5,24.5"/>
		<path fill="none" stroke="#EF6D44" stroke-miterlimit="10" d="M670.2,350c0,16.3,13.2,29.5,29.5,29.5"/>
		<path fill="none" stroke="#EF6D44" stroke-miterlimit="10" d="M665.2,350c0,19.1,15.4,34.5,34.5,34.5"/>
		<path fill="none" stroke="#EF6D44" stroke-miterlimit="10" d="M660.2,350c0,21.8,17.7,39.5,39.5,39.5"/>
		<path fill="none" stroke="#EF6D44" stroke-miterlimit="10" d="M655.2,350c0,24.6,19.9,44.5,44.5,44.5"/>
		<path fill="none" stroke="#EF6D44" stroke-miterlimit="10" d="M650.2,350c0,27.3,22.2,49.5,49.5,49.5"/>
	</g>
	<g>
		<circle fill="none" stroke="#419089" stroke-miterlimit="10" cx="1875.1" cy="250" r="4.5"/>
		<circle fill="none" stroke="#419089" stroke-miterlimit="10" cx="1875.1" cy="250" r="9.5"/>
		<circle fill="none" stroke="#419089" stroke-miterlimit="10" cx="1875.1" cy="250" r="14.5"/>
		<circle fill="none" stroke="#419089" stroke-miterlimit="10" cx="1875.1" cy="250" r="19.5"/>
		<circle fill="none" stroke="#419089" stroke-miterlimit="10" cx="1875.1" cy="250" r="24.5"/>
	</g>
	<g>
		<line fill="none" stroke="#419089" stroke-miterlimit="10" x1="25.2" y1="325" x2="25.2" y2="375"/>
		<line fill="none" stroke="#419089" stroke-miterlimit="10" x1="30.2" y1="325" x2="30.2" y2="375"/>
		<line fill="none" stroke="#419089" stroke-miterlimit="10" x1="36.2" y1="325" x2="36.2" y2="375"/>
		<line fill="none" stroke="#419089" stroke-miterlimit="10" x1="41.2" y1="325" x2="41.2" y2="375"/>
		<line fill="none" stroke="#419089" stroke-miterlimit="10" x1="47.2" y1="325" x2="47.2" y2="375"/>
		<line fill="none" stroke="#419089" stroke-miterlimit="10" x1="52.2" y1="325" x2="52.2" y2="375"/>
		<line fill="none" stroke="#419089" stroke-miterlimit="10" x1="57.2" y1="325" x2="57.2" y2="375"/>
		<line fill="none" stroke="#419089" stroke-miterlimit="10" x1="63.2" y1="325" x2="63.2" y2="375"/>
		<line fill="none" stroke="#419089" stroke-miterlimit="10" x1="68.2" y1="325" x2="68.2" y2="375"/>
		<line fill="none" stroke="#419089" stroke-miterlimit="10" x1="74.2" y1="325" x2="74.2" y2="375"/>
	</g>
	<g>
		<line fill="none" stroke="#419089" stroke-miterlimit="10" x1="375" y1="199.8" x2="400" y2="199.8"/>
		<line fill="none" stroke="#419089" stroke-miterlimit="10" x1="375" y1="196.8" x2="400" y2="196.8"/>
		<line fill="none" stroke="#419089" stroke-miterlimit="10" x1="375" y1="194.2" x2="400" y2="194.2"/>
		<line fill="none" stroke="#419089" stroke-miterlimit="10" x1="375" y1="191.2" x2="400" y2="191.2"/>
		<line fill="none" stroke="#419089" stroke-miterlimit="10" x1="375" y1="188.8" x2="400" y2="188.8"/>
		<line fill="none" stroke="#419089" stroke-miterlimit="10" x1="375" y1="186.2" x2="400" y2="186.2"/>
		<line fill="none" stroke="#419089" stroke-miterlimit="10" x1="375" y1="183.2" x2="400" y2="183.2"/>
		<line fill="none" stroke="#419089" stroke-miterlimit="10" x1="375" y1="180.8" x2="400" y2="180.8"/>
		<line fill="none" stroke="#419089" stroke-miterlimit="10" x1="375" y1="177.8" x2="400" y2="177.8"/>
		<line fill="none" stroke="#419089" stroke-miterlimit="10" x1="375" y1="175.2" x2="400" y2="175.2"/>
	</g>
	<g>
		<path fill="none" stroke="#EF6D44" stroke-miterlimit="10" d="M1527,299.8c0-1.2-1-2.2-2.2-2.2"/>
		<path fill="none" stroke="#EF6D44" stroke-miterlimit="10" d="M1529.5,299.8c0-2.6-2.1-4.8-4.8-4.8"/>
		<path fill="none" stroke="#EF6D44" stroke-miterlimit="10" d="M1532,299.8c0-4-3.2-7.2-7.2-7.2"/>
		<path fill="none" stroke="#EF6D44" stroke-miterlimit="10" d="M1534.5,299.8c0-5.4-4.4-9.8-9.8-9.8"/>
		<path fill="none" stroke="#EF6D44" stroke-miterlimit="10" d="M1537,299.8c0-6.8-5.5-12.2-12.2-12.2"/>
		<path fill="none" stroke="#EF6D44" stroke-miterlimit="10" d="M1539.5,299.8c0-8.1-6.6-14.8-14.8-14.8"/>
		<path fill="none" stroke="#EF6D44" stroke-miterlimit="10" d="M1542,299.8c0-9.5-7.7-17.2-17.2-17.2"/>
		<path fill="none" stroke="#EF6D44" stroke-miterlimit="10" d="M1544.5,299.8c0-10.9-8.8-19.8-19.8-19.8"/>
		<path fill="none" stroke="#EF6D44" stroke-miterlimit="10" d="M1547,299.8c0-12.3-10-22.2-22.2-22.2"/>
		<path fill="none" stroke="#EF6D44" stroke-miterlimit="10" d="M1549.5,299.8c0-13.7-11.1-24.8-24.8-24.8"/>
	</g>
</g>
</svg>
