<?xml version="1.0" encoding="utf-8"?>
<!-- Generator: Adobe Illustrator 18.0.0, SVG Export Plug-In . SVG Version: 6.00 Build 0)  -->
<!DOCTYPE svg PUBLIC "-//W3C//DTD SVG 1.1//EN" "http://www.w3.org/Graphics/SVG/1.1/DTD/svg11.dtd">
<svg version="1.1" id="Layer_3" xmlns="http://www.w3.org/2000/svg" xmlns:xlink="http://www.w3.org/1999/xlink" x="0px" y="0px"
	 viewBox="0 0 1200 600" enable-background="new 0 0 1200 600" xml:space="preserve">
<circle fill="#D38D29" cx="1099.3" cy="400.7" r="25"/>
<rect x="73" y="276" fill="#BBEAC7" width="50" height="50"/>
<path fill="#EF6D44" d="M224,101c-28,0-49.7,23-49.7,50H224V101z"/>
<path fill="#419089" d="M1075,301h-50v49.7C1052,350.7,1075,328,1075,301z"/>
<g>
	<line fill="none" stroke="#419089" stroke-miterlimit="10" x1="124" y1="225.5" x2="174" y2="225.5"/>
	<line fill="none" stroke="#419089" stroke-miterlimit="10" x1="124" y1="219.5" x2="174" y2="219.5"/>
	<line fill="none" stroke="#419089" stroke-miterlimit="10" x1="124" y1="214.5" x2="174" y2="214.5"/>
	<line fill="none" stroke="#419089" stroke-miterlimit="10" x1="124" y1="208.5" x2="174" y2="208.5"/>
	<line fill="none" stroke="#419089" stroke-miterlimit="10" x1="124" y1="203.5" x2="174" y2="203.5"/>
	<line fill="none" stroke="#419089" stroke-miterlimit="10" x1="124" y1="198.5" x2="174" y2="198.5"/>
	<line fill="none" stroke="#419089" stroke-miterlimit="10" x1="124" y1="192.5" x2="174" y2="192.5"/>
	<line fill="none" stroke="#419089" stroke-miterlimit="10" x1="124" y1="187.5" x2="174" y2="187.5"/>
	<line fill="none" stroke="#419089" stroke-miterlimit="10" x1="124" y1="181.5" x2="174" y2="181.5"/>
	<line fill="none" stroke="#419089" stroke-miterlimit="10" x1="124" y1="176.5" x2="174" y2="176.5"/>
</g>
<g>
	<path fill="none" stroke="#D38D29" stroke-miterlimit="10" d="M120,426c0,2.5,2,4.5,4.5,4.5"/>
	<path fill="none" stroke="#D38D29" stroke-miterlimit="10" d="M115,426c0,5.2,4.3,9.5,9.5,9.5"/>
	<path fill="none" stroke="#D38D29" stroke-miterlimit="10" d="M110,426c0,8,6.5,14.5,14.5,14.5"/>
	<path fill="none" stroke="#D38D29" stroke-miterlimit="10" d="M105,426c0,10.8,8.7,19.5,19.5,19.5"/>
	<path fill="none" stroke="#D38D29" stroke-miterlimit="10" d="M100,426c0,13.5,11,24.5,24.5,24.5"/>
	<path fill="none" stroke="#D38D29" stroke-miterlimit="10" d="M95,426c0,16.3,13.2,29.5,29.5,29.5"/>
	<path fill="none" stroke="#D38D29" stroke-miterlimit="10" d="M90,426c0,19.1,15.4,34.5,34.5,34.5"/>
	<path fill="none" stroke="#D38D29" stroke-miterlimit="10" d="M85,426c0,21.8,17.7,39.5,39.5,39.5"/>
	<path fill="none" stroke="#D38D29" stroke-miterlimit="10" d="M80,426c0,24.6,19.9,44.5,44.5,44.5"/>
	<path fill="none" stroke="#D38D29" stroke-miterlimit="10" d="M75,426c0,27.3,22.2,49.5,49.5,49.5"/>
</g>
<circle fill="#BBEAC7" cx="1086.7" cy="138.1" r="12.5"/>
<circle fill="#419089" cx="111.7" cy="388.1" r="12.5"/>
<rect x="175" y="325" fill="#D38D29" width="25" height="25"/>
<path fill="#EF6D44" d="M1000,175.8V201h25C1025,187,1013.5,175.8,1000,175.8z"/>
<g>
	<circle fill="none" stroke="#419089" stroke-miterlimit="10" cx="1012" cy="438" r="2.2"/>
	<circle fill="none" stroke="#419089" stroke-miterlimit="10" cx="1012" cy="438" r="4.8"/>
	<circle fill="none" stroke="#419089" stroke-miterlimit="10" cx="1012" cy="438" r="7.2"/>
	<circle fill="none" stroke="#419089" stroke-miterlimit="10" cx="1012" cy="438" r="9.8"/>
	<circle fill="none" stroke="#419089" stroke-miterlimit="10" cx="1012" cy="438" r="12.2"/>
</g>
</svg>
