<?xml version="1.0" encoding="utf-8"?>
<!-- Generator: Adobe Illustrator 18.1.0, SVG Export Plug-In . SVG Version: 6.00 Build 0)  -->
<svg version="1.1" id="Layer_1" xmlns="http://www.w3.org/2000/svg" xmlns:xlink="http://www.w3.org/1999/xlink" x="0px" y="0px"
	 viewBox="0 0 2063.4 586.6" enable-background="new 0 0 2063.4 586.6" xml:space="preserve">
<g>
	<rect x="122.2" y="0" fill="#42918A" width="42.3" height="42.4"/>
</g>
<g>
	<g>
		<path fill="#BEE1C4" d="M84.7,157.1c0,23.3-19,42.3-42.3,42.3C19,199.4,0,180.4,0,157.1c0-23.3,19-42.3,42.3-42.3
			C65.7,114.7,84.7,133.7,84.7,157.1z M5.8,157.1c0,20.1,16.4,36.5,36.5,36.5c20.1,0,36.5-16.4,36.5-36.5
			c0-20.1-16.4-36.5-36.5-36.5C22.2,120.6,5.8,137,5.8,157.1z"/>
	</g>
	<g>
		<path fill="#BEE1C4" d="M68.9,157.1c0,14.6-11.9,26.5-26.6,26.5c-14.6,0-26.6-11.9-26.6-26.5c0-14.7,11.9-26.6,26.6-26.6
			C57,130.5,68.9,142.4,68.9,157.1z M21.6,157.1c0,11.4,9.3,20.7,20.7,20.7c11.4,0,20.7-9.3,20.7-20.7c0-11.4-9.3-20.8-20.7-20.8
			C30.9,136.3,21.6,145.7,21.6,157.1z"/>
	</g>
	<g>
		<path fill="#BEE1C4" d="M53.1,157.1c0,5.9-4.8,10.8-10.8,10.8c-6,0-10.8-4.8-10.8-10.8c0-6,4.8-10.8,10.8-10.8
			C48.3,146.3,53.1,151.1,53.1,157.1z M37.4,157.1c0,2.7,2.2,5,5,5c2.7,0,5-2.2,5-5c0-2.7-2.3-5-5-5
			C39.6,152.1,37.4,154.3,37.4,157.1z"/>
	</g>
</g>
<g>
	<path fill="#BEE1C4" d="M1958.4,43.4c-12,0-21.7-9.7-21.7-21.7c0-12,9.7-21.7,21.7-21.7c12,0,21.7,9.7,21.7,21.7
		C1980.1,33.7,1970.4,43.4,1958.4,43.4z"/>
</g>
<g>
	<rect x="2021.3" y="114.4" fill="#EE6D45" width="42.1" height="42.1"/>
</g>
<g>
	<path fill="#B48338" d="M122.4,586.6h42.3v-42.3C141.3,544.2,122.4,563.2,122.4,586.6z"/>
</g>
<g>
	<path fill="#42918A" d="M1980.2,544.1h-42.3v42.3C1961.3,586.4,1980.2,567.5,1980.2,544.1z"/>
</g>
</svg>
