<?xml version="1.0" encoding="utf-8"?>
<!-- Generator: Adobe Illustrator 18.0.0, SVG Export Plug-In . SVG Version: 6.00 Build 0)  -->
<!DOCTYPE svg PUBLIC "-//W3C//DTD SVG 1.1//EN" "http://www.w3.org/Graphics/SVG/1.1/DTD/svg11.dtd">
<svg version="1.1" id="Layer_1" xmlns="http://www.w3.org/2000/svg" xmlns:xlink="http://www.w3.org/1999/xlink" x="0px" y="0px"
	 viewBox="0 121.5 600 157" enable-background="new 0 121.5 600 157" xml:space="preserve">
<g>
	<path fill="#CCCCCC" d="M597.2,227.6c-3.6-7.2-10.3-12.2-24.3-18.1c-11.4-4.8-17.2-8.1-20.7-11.9c-2.8-3.1-3.7-5.6-3.4-10.3
		c0.3-4.3,1.3-6.9,4-9.7c3.5-3.7,8.2-5,13.9-3.8c9.3,2,15.3,8.4,20.4,22.1c1.9,4.9,2.1,5,5.3,3.8l2.1-0.8l-0.1-5.6
		c0-3.1-0.2-9.6-0.3-14.4l-0.3-8.8l-1.6-0.6c-8.5-3.6-24.8-5.9-35.4-4.9c-12,1.1-20.9,4.9-27.7,12c-6.8,7-9.8,15.2-9.3,25
		c0.4,8.1,2.8,13.8,7.8,18.9c4.6,4.7,8.5,6.9,19.6,11.3c17.9,7,22.6,11.1,22.6,19.8c0,7.3-3.9,12.6-10.9,15.1
		c-2.5,0.9-8.9,0.9-12.3,0c-8.9-2.3-15.7-10.1-21.5-24.4l-1.5-3.7l-1.8,0.1c-0.9,0-2.3,0.3-2.9,0.6l-1.2,0.6l0.1,6.3
		c0,3.5,0.2,10.7,0.4,16.1l0.3,9.8l2,0.9c4.1,1.8,16.3,4.4,24,5.3c0.9,0.1,6.2,0.1,11.6,0.1c9.4-0.1,10.1-0.2,14.9-1.4
		c14.1-3.7,23.2-11.5,27.2-23.4c1.3-3.7,1.4-4.8,1.6-10.2C600.2,236.1,599.5,232.3,597.2,227.6L597.2,227.6z M488.5,168.6
		c-11.9-6-30.2-5.5-43.5,1c-12.7,6.2-21.4,16.5-26.3,31.1c-2.5,7.6-3.3,13.7-3.1,23.5c0.2,6.2,0.4,9.4,1.1,12.3
		c5,22.3,20.3,37.5,41.7,41.4c4.7,0.9,15.4,0.9,20.2,0c6.8-1.2,14.6-4.2,19.6-7.5c6-4.1,12.2-10.2,12.2-12.1c0-1.2-2.1-3.8-3-3.8
		c-0.4,0-2.1,0.9-3.7,1.9c-5.9,3.8-11.6,5.4-19.4,5.4c-10.8,0-17.7-2.7-24.6-9.7c-3.1-3.1-4.3-4.7-5.9-7.8
		c-3.5-6.7-5.3-14.5-5.7-23.2l-0.1-3.8l31.9-0.1l31.9-0.1l0.1-2.2c0.1-1.2-0.1-4.3-0.3-6.9C509.6,188.6,501.8,175.3,488.5,168.6
		L488.5,168.6z M456.3,207.9l-8.1,0.1v-1.7c0-0.9,0.3-3.5,0.6-5.6c2.7-17.4,9.2-27.8,17.3-27.8c7.5,0,12.1,10.3,13,29.1l0.3,5.3
		l-7.5,0.3C467.7,207.7,460.7,207.8,456.3,207.9L456.3,207.9z M372.8,166.5c-2.5-0.5-4.8-0.6-9.8-0.5c-7.4,0.3-12.6,1.4-18.1,3.9
		c-1.9,0.9-3.5,1.6-3.6,1.6s-0.1-11.3,0-25c0.2-19.4,0.1-25-0.3-25c-1.4,0-45.5,8.4-45.9,8.8c-0.3,0.3-0.5,1.2-0.4,2.6
		c0.1,2.5-0.1,2.2,5.2,3.5c1.6,0.3,3.5,1.1,4.2,1.6c1.8,1.3,3.3,4.1,4.3,8c0.8,3.1,0.9,5.3,1.3,26.5c0.4,21.6,0.3,43.7-0.3,84.4
		l-0.3,16.9l3.1,0.7c4.6,1,17.6,3.2,21.9,3.7c6.3,0.6,20.9,0.6,25.6-0.2c20.2-3.1,35.5-14.8,42.6-32.8c1.9-4.7,3.7-12.1,4.3-17.6
		c0.7-6.4,0.3-19.2-0.8-24.3C401.7,183.6,389.4,170,372.8,166.5L372.8,166.5z M342.1,268.3c-0.6-1.5-1.2-52-0.9-72.2l0.2-15.7
		l2.8-0.9c1.9-0.6,4.1-0.8,6.8-0.8c3.7,0,4.1,0.1,7.2,1.6c7.4,3.7,12.5,12.8,14.9,26.6c0.9,5.1,1,19.1,0.2,25.2
		c-1.9,15.1-6.9,27.2-13.4,33.1c-2.6,2.4-5,3.6-8.2,4.2c-2.3,0.4-2.9,0.4-7.1,0.1C342.8,269.5,342.4,269.3,342.1,268.3L342.1,268.3z
		 M290.5,164.2c-5,0-7.7,0.6-11.8,2.4c-7.4,3.4-12.9,8.9-17.9,17.9l-1.6,2.8l0.2-5c0.1-2.7,0.3-7.8,0.4-11.3l0.2-6.4H259
		c-1.4,0-44.1,8.5-45.4,9.1c-0.9,0.3-0.9,0.7-0.9,2.8c0,2.1,0.1,2.4,0.9,2.6c0.5,0.1,2.5,0.5,4.4,0.9c3.8,0.7,4.9,1.3,6.5,3.4
		c2.9,3.8,3.5,10.5,3.5,39c0,23.2-0.5,34.8-1.6,38.4c-1.3,4.4-3.8,6.7-7.9,7.5c-1.3,0.3-3.1,0.6-4,0.8l-1.5,0.3l-0.1,3
		c0,1.2,0,2,0,2.5c0.1,0.4,0.2,0.7,0.4,0.8c0.3,0.2,14.9,0.3,32.5,0.3l31.9-0.1l0-1l0.1-2.3c0.1-1.9,0-3.4-0.2-3.4
		c-2.5,0-10.1-1-11.3-1.6c-3.6-1.5-5.3-4.7-6.1-11.3c-0.9-7.7-1.4-26.8-1.2-42.5c0.3-15.8,0.3-15.9,1.3-17c2.3-2.5,8.2-4.4,13.4-4.4
		c4.2,0,8.5,1.1,13.2,3.3c2.2,1.1,4.3,1.9,4.5,1.7c0.6-0.2,11-27.9,11-29.2C302.4,166.2,296.5,164.2,290.5,164.2L290.5,164.2z
		 M212.7,212.3c-2.2-19.2-10.4-33.2-23.8-41c-14.9-8.8-37.5-9.3-53.6-1.2c-11.6,5.8-21.1,17-25.3,29.9c-4.4,13.3-4.4,30.8,0,44.3
		c2.8,8.7,6.6,15.1,12.4,20.8c7,6.9,16.1,11.3,26.6,12.9c3.8,0.6,15.6,0.6,19.4,0c1.8-0.3,5-0.9,7-1.6c19-5.5,31.9-20.1,36.4-40.9
		C213,230.5,213.4,218.2,212.7,212.3L212.7,212.3z M164.7,269.7c-11.8,3.5-20.2-7.7-23.5-31.3c-1.1-7.6-1-28.3,0-37
		c2.3-18.9,8.2-28.5,17.3-28.6c4.1,0,6.5,1,9.7,4.3c7.7,7.8,11.4,22.6,11.3,46c0,18.6-1.9,30.4-6,38.3
		C171.5,265.2,167.8,268.8,164.7,269.7L164.7,269.7z M57,136.2h13.6c15.6,0,18.2,0.3,23.7,3c8,3.9,13.8,11.7,19,25.2
		c2.1,5.5,2.1,5.5,6.7,4.1l3.1-0.9l-0.3-19.9c-0.2-11-0.4-20.7-0.6-21.6l-0.3-1.7l-59.5-0.1c-32.7,0-60.2,0-60.9,0.1L0,124.6
		l0.1,3.5l0.1,3.5l4.5,0.6c5.9,0.7,9.4,2.4,11.5,5.4c4.7,6.9,5.6,16.2,5.5,60.5c0,47.2-1,58.7-5.5,64.6c-2.3,3.1-4.2,4.1-9.5,5
		c-4.7,0.9-6.1,1.1-6.5,2.2C0,270.5,0,271.3,0,272.4c0,2,0.2,3.1,0.5,3.2c0.8,0.3,76.9,0.3,77.7,0c0.2-0.1,0.4-0.4,0.5-0.9
		c0.5-1.7,0.3-5.3-0.6-5.7c-0.4-0.2-3-0.7-5.7-1.1c-2.7-0.4-5.7-1.1-6.7-1.5c-5-2.2-7.8-8.2-8.8-19c-0.7-7.8-1.3-22.1-1.3-32.7v-9.7
		l4.7,0.1c9.9,0.3,15,0.8,17,1.7c4.5,2,8.1,7.5,10,15.2l1,4.1l3.5,0.1l3.5,0.1v-51.8l-3.5,0.1l-3.5,0.1l-1,4.1
		c-2,7.9-5.3,12.8-10,15c-1.9,0.9-3.3,1.2-8,1.4c-3.1,0.2-7.4,0.3-9.6,0.3l-4,0v-12.9c0-12.9,0.7-40.2,1.1-44.4L57,136.2L57,136.2z"
		/>
</g>
</svg>
