<?xml version="1.0" encoding="utf-8"?>
<!-- Generator: Adobe Illustrator 18.1.1, SVG Export Plug-In . SVG Version: 6.00 Build 0)  -->
<svg version="1.1" id="Layer_1" xmlns="http://www.w3.org/2000/svg" xmlns:xlink="http://www.w3.org/1999/xlink" x="0px" y="0px"
	 viewBox="70.8 0 693.8 792" enable-background="new 70.8 0 693.8 792" xml:space="preserve">
<g id="Layer_1_1_" display="none">
	<g display="inline">
		<path d="M415.1,778.6c-11.9-10.5-18.9-21-23.9-32.2c-13.4-30.1-20.4-61.7-22.4-94.6c-2.1-29.4-2.8-59.6,0-89
			c2.8-28.7,7-57.5,14-86.2c3.5-14,5.7-28.7,9.2-42.8c14-57.5,32.2-112.8,51.1-168.9c16.9-49.1,37.9-96.1,58.2-143.7
			c11.2-27.4,24.6-54,37.1-81.3c2.8-6.3,6.3-12.7,5.7-21c-8.4-0.7-14,3.5-18.9,7.7c-12.7,10.5-25.2,20.4-36.4,32.2
			c-18.2,19.6-35.8,39.9-51.8,61.7c-37.1,47-70,97.4-104.4,146.5c-18.2,25.9-33.6,54-50.5,81.3c-2.8,4.9-6.3,9.2-10.5,13.4
			c-2.1,2.1-5.7,3.5-9.2,4.2c-9.2,1.4-16.9-5.7-15.4-14.7c0.7-8.4,2.8-16.9,4.9-24.6c9.8-28.7,19.6-57.5,29.4-85.5
			c9.8-27.4,19.6-54.6,28.7-82.7c2.1-4.9,4.9-10.5,2.8-16.1c-3.5-2.1-5.7-0.7-7.7,1.4c-12.7,12.7-24.6,26.6-33.6,42.1
			c-18.9,31.6-37.1,63.8-55.3,96.1c-23.3,40.7-40.8,83.4-59.7,126.2c-4.2,9.2-7,18.9-10.5,28.1c-2.8,6.3-6.3,8.4-13.4,7.7
			c-4.9-0.7-8.4-4.2-7-9.2c2.8-10.5,4.9-21,8.4-30.9c9.2-25.2,18.9-50.5,28.1-75.7c11.2-30.1,23.1-59.6,34.4-89.7
			c7.7-19.6,14-39.9,21-60.3c1.4-4.2,2.1-8.4,4.2-14c-8.4,2.1-12.7,7.7-18.2,11.2c-5.7,4.2-10.5,8.4-16.1,11.9
			c-2.8,1.4-6.3,2.1-9.8,1.4c-2.1-0.7-4.2-3.5-4.9-5.7c-0.7-1.4,1.4-4.9,2.8-5.7c25.2-11.9,41.3-34.4,61-52.6
			c7.7-7,7.7-7.7,18.2,0.7c-0.7,11.2-5.7,22.4-9.8,32.9c-9.8,25.2-18.9,50.5-28.1,75.7c-0.7,2.1-0.7,4.2-2.1,8.4
			c6.3-4.2,9.2-7.7,11.9-12.7c9.2-14.7,18.2-29.4,27.4-44.1c11.9-20.4,26.6-38.6,43.4-55.3c4.9-4.9,11.2-9.2,17.5-13.4
			c4.2-2.8,9.8-2.8,14.7,0c4.2,2.1,6.3,4.9,6.3,9.2c0,4.2,0,7.7-1.4,11.9c-3.5,12.7-7,24.6-11.2,37.1
			c-12.7,36.4-25.9,72.9-39.3,109.3c-3.5,10.5-6.3,21.7-7,32.9c2.1-2.1,3.5-4.9,5.7-7c19.6-30.1,39.3-59.6,59.6-89.7
			c11.2-16.9,23.9-32.2,35.8-48.3c14-18.9,26.6-38.6,42.1-56.8c16.9-20.4,32.2-41.3,50.5-60.3c17.5-17.5,35.1-34.4,56.8-46.3
			c5.7-2.8,11.2-4.9,16.9-6.3c2.8-0.7,7-0.7,9.8,0.7c7.7,2.1,11.2,7.7,9.2,15.4c-2.8,10.5-6.3,20.4-10.5,30.1
			c-13.7,30.9-26.9,61-40.3,91.2c-11.2,25.2-22.4,50.5-32.2,75.7c-14,36.4-26.6,73.5-39.3,110.8c-16.9,51.8-31.6,103.8-42.1,157
			c-7,37.1-11.9,74.3-14,112.1c-2.1,41.3,2.1,82.7,11.9,123.3c2.8,10.5,7,20.4,10.5,30.1C411.6,756.9,414.4,766.1,415.1,778.6z"/>
		<path d="M958.3,361.6c-6.3,3.5-11.9,6.3-17.5,8.4c-21,9.2-39.3-2.8-37.9-25.9c0-4.9,1.4-9.8,2.1-14.7c0.7-3.5,1.4-6.3,1.4-9.2
			c-3.5-3.5-6.3-2.1-8.4-0.7c-3.5,2.1-7,4.2-9.8,7c-10.5,10.5-21.7,21-32.2,32.2c-2.8,2.8-4.9,7.7-7,11.2
			c-4.9,11.2-11.2,11.9-20.4,3.5c-2.1-2.1-4.2-3.5-6.3-6.3c-4.9,3.5-9.2,5.7-12.7,9.2c-6.3,5.7-13.4,8.4-21,9.8
			c-15.4,2.1-29.4-7.7-31.6-23.1c-0.7-12.7,4.2-23.9,11.9-33.6c9.2-11.9,19.6-21,33.6-27.4c16.9-7.7,33.6-4.2,45.6,10.5
			c2.1,2.1,2.8,6.3,3.5,9.2c0.7,3.5,1.4,7,2.1,12.7c4.2-3.5,7.7-5.7,10.5-7.7c8.4-6.3,15.4-12.7,24.6-18.2
			c6.3-3.5,13.4-5.7,20.4-7.7c4.9-1.4,9.8-0.7,14.7,2.1c5.7,3.5,8.4,7.7,6.3,14c-1.4,4.2-3.5,8.4-4.2,12.7c-1.4,7-3.5,14-4.2,21
			c-0.7,7,4.2,9.8,11.2,7c2.8-1.4,6.3-2.8,9.2-4.2c7-3.5,10.5-8.4,11.2-16.9c1.4-35.8,18.9-63.8,46.3-86.2
			c6.3-4.9,13.4-8.4,20.4-11.2c3.5-1.4,9.2,0,13.4,0.7c4.2,0.7,7.7,4.2,7,8.4c-2.8,14.7-11.9,27.4-18.9,39.9
			c-11.2,20.4-24.6,38.6-40.6,54.6c-6.3,6.3-3.5,16.1,4.9,18.2c3.5,0.7,7.7,0.7,11.2,0c5.7-2.1,11.2-4.9,16.9-7.7
			c7-3.5,12.7-8.4,21-11.2c-2.8,13.4-16.9,27.4-30.9,32.2C985.5,378.5,971.6,373.6,958.3,361.6z M826.5,329.5c0,0,0.7-0.7,0.7-2.1
			c1.4-3.5,2.8-7.7-0.7-10.5c-2.8-2.8-6.3-2.1-9.2-0.7c-16.1,5.7-27.4,16.9-34.4,32.2c-2.1,4.2-2.1,9.8-2.1,14.7
			c0,4.2,5.7,7.7,9.8,6.3c2.8-1.4,6.3-2.8,9.2-4.9C811.1,355.4,820.2,344.2,826.5,329.5z M975.8,323.8c2.1-0.7,3.5-0.7,4.9-2.1
			c19.6-14.7,32.2-35.8,44.8-56.1c2.1-2.8,4.2-9.2-0.7-11.2c-7-3.5-15.4,5.7-25.9,14c-7.7,6.3-14.7,15.4-22.4,33.6
			C974.3,309.1,973,316.1,975.8,323.8z"/>
		<path d="M702.5,372.1c-4.2,2.1-7,3.5-9.8,4.9c-6.3,2.8-12.7,4.2-19.6,4.9c-11.9,0.7-24.6-9.2-23.9-24.6c0-1.4,0-3.5,0.7-4.9
			c4.9-19.6,16.1-34.4,34.4-43.4c9.2-4.2,18.2-6.3,27.4-1.4c1.4,0.7,3.5,0.7,5.7,1.4c2.1-2.1,4.2-4.2,7-6.3c6.3-4.9,7-4.9,14.7,3.5
			c-9.2,30.1-14.7,61-18.9,91.9c-2.1,15.4-2.8,31.6-4.2,47c-0.7,7.7-2.1,15.4-4.9,23.1c-4.9,15.4-16.1,24.6-31.6,26.6
			c-27.4,4.9-49.8-11.9-51.8-40.6c-0.7-6.3,2.1-13.4,4.2-19.6c2.1-5.7,7-9.8,14-12.7c0.7,2.8,2.1,4.9,2.1,7.7
			c0,4.2-1.4,7.7-2.1,11.9c-1.4,10.5,1.4,20.4,7.7,28.7c9.2,11.9,23.1,12.7,32.2,0.7c3.5-4.2,5.7-9.8,7-14.7
			c2.1-8.4,3.5-17.5,4.2-26.6c2.1-15.4,3.5-30.9,4.9-47C703.1,379.1,702.5,376.4,702.5,372.1z M712.3,326c-2.1-1.4-2.1-2.1-2.8-2.1
			c-19.6-2.8-40.6,16.1-39.3,35.1c0,3.5,3.5,5.7,7.7,4.9c11.2-2.1,18.9-9.2,26.6-16.9C710.1,341.4,713,334.3,712.3,326z"/>
		<path d="M614.8,328c-13.4,0.7-21,8.4-28.1,15.4c-8.4,8.4-15.4,17.5-22.4,26.6c-0.7,0.7-1.4,2.1-2.1,2.8
			c-8.4,14-21.7,11.9-29.4,0.7c-1.4-2.1-3.5-4.2-5.7-7c-4.9,4.9-9.2,9.8-14,13.4c-4.9,4.2-10.5,8.4-16.9,11.2
			c-23.9,9.2-43.4-14-41.3-31.6c2.8-25.2,25.2-49.1,49.8-51.8c3.5,0,7-0.7,9.8,0c10.5,2.8,20.4,8.4,31.6,9.8
			c4.2,0.7,5.7,4.9,5.7,9.2c-0.7,4.2-1.4,9.2-2.1,13.4c0,3.5,0.7,7,0.7,11.2c7,0,9.2-5.7,12.7-9.2c8.4-7,16.9-15.4,25.2-22.4
			c3.5-2.8,8.4-5.7,13.4-7c18.9-6.3,34.4,5.7,33.6,25.2c-0.7,16.1-6.3,31.6-11.2,47c-0.7,2.1-2.1,4.2-3.5,5.7
			c-2.1,1.4-4.9,2.8-7,2.1c-2.1-0.7-4.2-3.5-4.9-5.7c-0.7-3.5,0-7.7,0.7-11.9c2.1-11.2,4.2-21.7,5.7-32.9
			C615.6,337.8,614.8,333.7,614.8,328z M526.5,328.7c-15.4-7-20.4-7-30.9,0.7c-3.5,2.1-6.3,4.9-8.4,7.7c-5.7,6.3-9.2,14-9.8,22.4
			c0,5.7,0.7,11.9,6.3,14.7c4.9,2.8,10.5,0,14-3.5C509.7,360.2,520.2,346.2,526.5,328.7z"/>
		<path d="M1056.4,290.9c12.7-2.8,16.1-11.9,19.6-21.7c7-19.6,15.4-38.6,23.1-57.5c2.1-5.7,7.7-6.3,11.9-1.4
			c4.2,5.7,4.9,11.2,2.1,17.5c-4.9,12.7-9.8,25.2-14.7,37.1c-2.1,4.9-5.7,9.8-4.2,16.9c2.8,0.7,6.3,1.4,9.2,1.4
			c11.9,0,23.9-0.7,35.1-0.7c9.8,0,20.4,0.7,30.1,2.1c5.7,0.7,10.5,2.1,14.7,8.4c-3.5,1.4-5.7,2.8-7.7,2.8
			c-11.9,1.4-23.1,2.8-35.1,3.5c-14.7,1.4-28.7,2.1-43.4,4.2c-11.9,1.4-14,3.5-16.1,15.4c-0.7,4.2-1.4,9.2-0.7,13.4
			c0.7,9.8,4.2,12.7,14.7,9.8c5.7-1.4,11.2-4.9,16.9-7c2.1-0.7,4.9-1.4,6.3,0c1.4,2.1,2.8,5.7,2.1,7c-4.9,11.9-15.4,17.5-27.4,19.6
			c-11.9,2.1-22.4-1.4-29.4-11.9c-3.5-5.7-5.7-11.2-4.9-17.5c0.7-4.2,1.4-9.2,2.1-13.4c2.1-7,2.1-14-2.8-21
			C1056.4,297.9,1057,295.1,1056.4,290.9z"/>
	</g>
	<rect id="_x3C_Slice_x3E__5_" x="111.6" display="inline" fill="none" width="1072.4" height="792"/>
</g>
<g id="Layer_2" display="none">
	<g id="ehjWwn_1_" display="inline">
		<g>
			<path fill="#FFFFFF" d="M1474.1,520.8c0,33.6,0,67.3,0,101.6c-178.8,0-356.7,0-535.5,0l0.7-0.7c11.9-1.4,22.4-5.7,32.9-11.2
				c14.7-7.7,25.9-19.6,35.1-32.2c7-9.2,11.9-20.4,18.9-29.4c6.3-8.4,9.8-17.5,15.4-25.9c4.9-7,8.4-15.4,11.9-23.1
				c5.7-13.4,11.9-27.4,16.9-41.3c6.3-16.1,11.2-32.9,17.5-49.1c2.8-7,3.5-14.7,11.2-18.9c18.2-9.2,35.1-20.4,51.1-32.2
				c1.4-0.7,2.8-1.4,4.2-1.4c0.7,1.4,1.4,2.8,1.4,4.2c0,5.7,0,11.9,0,17.5c0.7,7,2.1,14.7,7,20.4c7,9.2,18.2,13.4,30.1,5.7
				c7-4.2,11.2-11.2,14-18.2c4.9-12.7,9.2-24.6,14-37.1c7-18.9,16.1-36.4,27.4-52.6c9.2-12.7,18.2-25.2,28.1-37.1
				c7-8.4,14.7-16.1,22.4-23.9c0.7-0.7,2.1-0.7,3.5-1.4c0,1.4,0.7,2.8,0.7,4.2c-2.1,16.1-4.2,31.6-6.3,47.6
				c-2.8,22.4-8.4,44.1-15.4,65.2c-2.8,7.7-5.7,15.4-4.2,23.9c0.7,2.1,2.1,4.9,3.5,4.9c2.8,0,7,0,7-4.9c0-1.4,0-3.5,0.7-4.9
				c4.9-22.4,12.7-43.4,24.6-63.8c7.7-13.4,14.7-26.6,23.1-39.3c6.3-10.5,14-20.4,21.7-30.1c7.7-9.8,16.9-18.9,28.1-25.2
				c3.5-2.1,5.7-1.4,5.7,2.8c0,3.5,0,7-0.7,11.2c-3.5,18.9-7,38.6-9.8,57.5c-4.2,25.2-5.7,50.5-4.9,76.4c0.7,14,2.1,27.4,3.5,41.3
				c0.7,5.7,2.1,11.9,3.5,17.5c2.8,10.5,4.9,20.4,7.7,30.1c5.7,16.9,14.7,32.2,25.9,46.3c7,9.2,17.5,15.4,27.4,20.4
				C1454.5,517.3,1463.6,522.8,1474.1,520.8z"/>
			<path fill="#FFFFFF" d="M860.9,539c0-166.1,0-332.2,0-498.3c115.6,0,231.9,0,347.7,0c-3.5,4.2-6.3,8.4-9.8,12.7
				c-7.7,8.4-15.4,16.9-23.9,25.2c-9.2,9.2-18.2,17.5-28.1,25.9c-7,6.3-14,11.9-21,17.5c-9.8,7.7-19.6,16.1-30.1,23.9
				c-14.7,10.5-28.7,21-43.4,30.9c-12.7,9.2-25.9,17.5-38.6,25.9c-9.2,5.7-18.2,10.5-28.1,16.1c-11.9,6.3-23.9,12.7-35.1,18.9
				c-9.2,4.9-18.2,9.2-28.1,14c-10.5,4.9-21.7,9.2-32.2,14c-1.4,0.7-1.4,2.1-2.1,3.5c1.4,0.7,2.8,2.8,4.2,2.1
				c5.7-1.4,10.5-2.8,15.4-4.9c21.7-11.2,43.4-22.4,65.2-33.6c13.4-7,26.6-13.4,39.3-21.7c18.9-11.9,37.9-23.9,56.8-36.4
				c11.2-7,21.7-14.7,32.2-23.1c16.1-12.7,31.6-25.2,47.6-37.9c4.2-3.5,7.7-7.7,11.9-11.2c4.9-4.9,10.5-8.4,16.1-13.4
				c5.7-4.9,10.5-10.5,16.1-16.1c0.7,0,1.4,0.7,1.4,0.7c-0.7,2.1-0.7,4.2-1.4,5.7c-3.5,9.8-6.3,19.6-9.8,29.4
				c-4.9,14.7-9.8,29.4-14,44.1c-2.8,9.8-7,18.9-9.8,28.7c-4.2,14.7-7.7,29.4-11.9,44.1c-5.7,16.9-11.2,33.6-17.5,50.5
				c-6.3,16.9-14,32.9-19.6,49.1c-7.7,19.6-14,39.9-21,59.6c-1.4,3.5-4.2,7-7.7,9.2c-9.8,5.7-19.6,9.8-29.4,14.7
				c-14,6.3-28.1,12.7-42.1,18.2c-21.7,8.4-43.4,16.9-65.2,25.2c-16.9,6.3-33.6,14-47.6,25.9c-13.4,10.5-23.9,22.4-28.7,37.9
				C862.9,522.8,862.2,531.3,860.9,539z"/>
			<path fill="#FFFFFF" d="M1209.2,41.3c88.4,0,176.6,0,265,0c0,159.1,0,318.2,0,477.3c-2.1-1.4-4.2-2.8-7-3.5
				c-14-2.1-25.9-7.7-35.8-17.5c-18.2-16.9-28.1-38.6-35.1-61.7c-3.5-12.7-5.7-25.2-7.7-37.9c-2.1-12.7-4.2-24.6-4.2-37.1
				c-0.7-14.7,0-29.4,0.7-43.4c0.7-12.7,1.4-25.9,3.5-38.6c2.1-11.9,4.9-23.9,7.7-35.8c2.1-11.2,5.7-22.4,4.2-34.4
				c0-2.1-2.1-4.2-4.2-5.7c-4.2-3.5-8.4-2.1-12.7,0c-14,7.7-23.9,18.9-33.6,30.9c-16.1,19.6-28.7,41.3-41.3,63.1
				c-1.4,2.1-2.8,4.2-4.9,7c0-2.8-0.7-3.5-0.7-4.2c1.4-10.5,3.5-21,4.9-31.6c1.4-9.2,2.8-18.9,4.2-28.1c0.7-2.8,0.7-6.3,0.7-9.2
				c0-3.5-2.1-6.3-4.9-7.7c-2.8-1.4-5.7-1.4-8.4,0.7c-4.2,3.5-8.4,7-12.7,11.2c-15.4,16.9-29.4,33.6-42.8,51.8
				c-14,19.6-24.6,42.1-33.6,64.5c-5.7,13.4-10.5,26.6-16.9,39.9c-1.4,3.5-4.2,6.3-7,8.4c-3.5,3.5-9.8,3.5-12.7,0.7
				c-2.8-2.8-5.7-6.3-7.7-9.8c-6.3-12.7-3.5-25.9-2.1-39.3c0.7-5.7,3.5-9.8,7.7-13.4c4.9-4.2,9.8-9.2,14.7-14
				c9.8-10.5,19.6-21.7,28.7-32.9c11.2-14,22.4-28.1,25.2-45.6c1.4-8.4,0-16.9-7.7-23.1c-6.3-4.9-19.6-6.3-24.6,1.4
				c-4.2,6.3-9.8,11.9-13.4,18.9c-6.3,11.9-11.9,24.6-17.5,36.4c-7,16.1-14,32.2-17.5,49.8c-1.4,5.7-2.8,11.2-5.7,15.4
				c-2.8,4.2-7.7,7-12.7,10.5c-8.4,6.3-16.9,12.7-25.9,18.2c-5.7,3.5-12.7,6.3-19.6,10.5c0.7-3.5,0.7-4.9,0.7-6.3
				c2.1-5.7,3.5-11.2,5.7-16.9c6.3-17.5,13.4-35.1,19.6-51.8c9.8-25.2,19.6-50.5,27.4-76.4c5.7-18.2,10.5-37.1,16.1-55.3
				c8.4-25.2,17.5-50.5,25.2-75.7c5.7-17.5,12.7-33.6,22.4-49.1c2.1-3.5,0.7-6.3-2.8-7.7C1211.9,42.8,1210.6,42.1,1209.2,41.3z"/>
			<path d="M1209.2,41.3c1.4,0.7,2.1,1.4,3.5,2.1c3.5,1.4,4.9,4.9,2.8,7.7c-9.8,15.4-16.9,31.6-22.4,49.1
				c-7.7,25.2-16.9,50.5-25.2,75.7c-5.7,18.2-11.2,36.4-16.1,55.3c-7.7,25.9-17.5,51.8-27.4,76.4c-7,17.5-13.4,34.4-19.6,51.8
				c-2.1,5.7-4.2,11.2-5.7,16.9c-0.7,1.4-0.7,3.5-0.7,6.3c7.7-3.5,14-6.3,19.6-10.5c9.2-5.7,17.5-11.9,25.9-18.2
				c4.2-3.5,9.2-6.3,12.7-10.5c2.8-4.2,4.9-9.8,5.7-15.4c3.5-17.5,10.5-33.6,17.5-49.8c5.7-12.7,11.2-24.6,17.5-36.4
				c3.5-7,9.2-12.7,13.4-18.9c4.9-7.7,18.2-6.3,24.6-1.4c7.7,6.3,9.2,14.7,7.7,23.1c-2.8,18.2-14,32.2-25.2,45.6
				c-9.2,11.2-18.9,22.4-28.7,32.9c-4.2,4.9-9.8,9.8-14.7,14c-4.2,3.5-7,7.7-7.7,13.4c-1.4,13.4-4.2,26.6,2.1,39.3
				c2.1,3.5,4.9,7,7.7,9.8c2.8,2.8,9.2,2.1,12.7-0.7c2.8-2.8,5.7-5.7,7-8.4c5.7-13.4,11.2-26.6,16.9-39.9
				c9.2-22.4,18.9-44.1,33.6-64.5c13.4-18.2,27.4-35.8,42.8-51.8c3.5-4.2,8.4-7.7,12.7-11.2c2.8-2.1,4.9-2.8,8.4-0.7
				c3.5,1.4,5.7,4.2,4.9,7.7c0,2.8-0.7,6.3-0.7,9.2c-1.4,9.2-2.8,18.9-4.2,28.1c-1.4,10.5-3.5,21-4.9,31.6c0,0.7,0,1.4,0.7,4.2
				c2.1-2.8,3.5-4.9,4.9-7c12.7-21.7,25.2-43.4,41.3-63.1c9.8-11.9,19.6-23.1,33.6-30.9c4.2-2.1,8.4-3.5,12.7,0
				c1.4,1.4,3.5,3.5,4.2,5.7c1.4,11.9-1.4,23.1-4.2,34.4c-2.8,11.9-5.7,23.9-7.7,35.8c-2.1,12.7-2.8,25.2-3.5,38.6
				c-0.7,14.7-1.4,29.4-0.7,43.4c0.7,12.7,2.1,25.2,4.2,37.1c2.1,12.7,4.2,25.2,7.7,37.9c6.3,23.1,16.9,44.8,35.1,61.7
				c9.8,9.2,21.7,15.4,35.8,17.5c2.1,0,4.9,2.1,7,3.5c0,0.7,0,2.1,0,2.8c-10.5,1.4-19.6-3.5-28.7-7.7c-10.5-4.9-20.4-11.2-27.4-20.4
				c-11.2-14-20.4-28.7-25.9-46.3c-3.5-9.8-5.7-20.4-7.7-30.1c-1.4-5.7-2.8-11.9-3.5-17.5c-1.4-14-3.5-27.4-3.5-41.3
				c-1.4-25.2,0-51.1,4.9-76.4c3.5-18.9,7-38.6,9.8-57.5c0.7-3.5,0.7-7,0.7-11.2s-1.4-4.9-5.7-2.8c-11.2,6.3-20.4,14.7-28.1,25.2
				c-7.7,9.8-14.7,19.6-21.7,30.1c-8.4,12.7-15.4,25.9-23.1,39.3c-11.9,19.6-19.6,41.3-24.6,63.8c-0.7,1.4-0.7,3.5-0.7,4.9
				c-0.7,4.2-4.2,4.9-7,4.9c-1.4,0-3.5-2.8-3.5-4.9c-2.1-8.4,1.4-16.1,4.2-23.9c7-21,12.7-42.8,15.4-65.2
				c2.1-16.1,4.2-31.6,6.3-47.6c0-1.4-0.7-2.8-0.7-4.2c-1.4,0.7-2.8,0.7-3.5,1.4c-7.7,7.7-15.4,15.4-22.4,23.9
				c-9.8,11.9-18.9,24.6-28.1,37.1c-11.9,16.1-21,33.6-27.4,52.6c-4.2,12.7-9.2,25.2-14,37.1c-2.8,7.7-7,14-14,18.2
				c-11.9,7.7-23.1,3.5-30.1-5.7c-4.9-5.7-6.3-13.4-7-20.4c-0.7-5.7,0-11.9,0-17.5c0-1.4-0.7-2.8-1.4-4.2c-1.4,0.7-2.8,0.7-4.2,1.4
				c-16.1,12.7-32.9,23.1-51.1,32.2c-7.7,4.2-9.2,11.9-11.2,18.9c-5.7,16.1-11.2,32.9-17.5,49.1c-5.7,14-11.2,27.4-16.9,41.3
				c-3.5,7.7-7,16.1-11.9,23.1c-5.7,8.4-9.2,18.2-15.4,25.9c-7,9.2-11.9,19.6-18.9,29.4c-9.2,13.4-20.4,24.6-35.1,32.2
				c-10.5,5.7-21,9.8-32.9,11.2c-0.7,0-0.7,0.7-0.7,0.7c-6.3,0-11.9,0-18.2,0c-2.8-0.7-4.9-1.4-7.7-2.1c-9.2-2.8-16.1-8.4-23.9-14
				c-14-10.5-18.9-25.2-24.6-40.6c-0.7-1.4-0.7-2.8-0.7-4.9c-0.7-5.7-2.1-10.5-2.8-16.1c0-2.1,0-4.2,0-7c1.4-8.4,2.8-16.9,4.9-24.6
				c5.7-16.1,16.1-28.1,28.7-37.9c14.7-11.2,30.9-19.6,47.6-25.9c21.7-8.4,43.4-16.9,65.2-25.2c14-5.7,28.1-11.9,42.1-18.2
				c9.8-4.2,20.4-9.2,29.4-14.7c3.5-2.1,6.3-5.7,7.7-9.2c7-19.6,14-39.9,21-59.6c6.3-16.9,14-32.9,19.6-49.1
				c6.3-16.9,11.9-33.6,17.5-50.5c4.2-14.7,7.7-29.4,11.9-44.1c2.8-9.8,6.3-18.9,9.8-28.7c4.9-14.7,9.8-29.4,14-44.1
				c3.5-9.8,6.3-19.6,9.8-29.4c0.7-2.1,0.7-4.2,1.4-5.7c-0.7,0-1.4-0.7-1.4-0.7c-5.7,5.7-10.5,11.2-16.1,16.1
				c-4.9,4.9-10.5,9.2-16.1,13.4c-4.2,3.5-7.7,7.7-11.9,11.2c-15.4,12.7-31.6,25.9-47.6,37.9c-10.5,8.4-21,15.4-32.2,23.1
				c-18.9,12.7-37.1,25.2-56.8,36.4c-12.7,7.7-25.9,14.7-39.3,21.7c-21.7,11.2-43.4,22.4-65.2,33.6c-4.9,2.8-10.5,3.5-15.4,4.9
				c-1.4,0-2.8-1.4-4.2-2.1c0.7-1.4,1.4-2.8,2.1-3.5c10.5-4.9,21.7-9.2,32.2-14c9.8-4.2,18.9-9.2,28.1-14
				c11.9-6.3,23.9-12.7,35.1-18.9c9.2-4.9,18.9-10.5,28.1-16.1c13.4-8.4,25.9-16.9,38.6-25.9c14.7-9.8,29.4-20.4,43.4-30.9
				c10.5-7.7,20.4-15.4,30.1-23.9c7-5.7,14-11.2,21-17.5c9.8-8.4,18.9-17.5,28.1-25.9c8.4-8.4,16.1-16.1,23.9-25.2
				c3.5-4.2,6.3-8.4,9.8-12.7C1208.4,41.3,1209.2,41.3,1209.2,41.3z M1080.9,403c-0.7,0-0.7-0.7-1.4-0.7c-5.7,2.1-10.5,4.2-16.1,6.3
				c-16.1,7-32.9,14.7-49.1,21c-8.4,3.5-16.9,5.7-25.2,9.2c-9.2,3.5-18.2,8.4-27.4,11.2c-16.1,4.9-30.9,12.7-45.6,20.4
				c-11.2,6.3-21,14-28.7,24.6c-10.5,13.4-16.1,27.4-16.9,44.1c-0.7,18.2,4.2,35.8,14,51.1c7.7,13.4,18.9,21.7,33.6,25.2
				c9.2,2.1,18.2,0.7,27.4-1.4c12.7-2.8,23.9-8.4,33.6-16.9c13.4-11.2,23.9-25.9,32.9-40.6c9.2-14.7,17.5-30.1,25.2-45.6
				c9.2-17.5,16.9-35.8,24.6-54c6.3-14.7,11.2-30.1,16.1-45.6C1079.6,409.4,1079.6,405.8,1080.9,403z M1171.3,328.7
				c2.8-1.4,4.2-2.8,5.7-3.5c7.7-7.7,15.4-15.4,22.4-24.6c9.2-11.2,18.9-21.7,25.2-34.4c4.9-10.5,11.2-20.4,8.4-32.9
				c-0.7-4.2-2.8-7-7-9.2c-3.5-1.4-6.3,1.4-7.7,3.5c-3.5,4.2-7,9.2-9.8,14c-7.7,13.4-15.4,26.6-21.7,40.6
				c-6.3,13.4-10.5,27.4-15.4,41.3C1170.6,325.2,1171.3,326.6,1171.3,328.7z"/>
			<path fill="#FFFFFF" d="M860.9,546c0.7,5.7,2.1,10.5,2.8,16.1c0,1.4,0.7,3.5,0.7,4.9c5.7,14.7,11.2,30.1,24.6,40.6
				c7.7,5.7,14.7,11.2,23.9,14c2.8,0.7,4.9,1.4,7.7,2.1c-20.4,0-39.9,0-60.3,0C860.9,597.2,860.9,571.3,860.9,546z"/>
			<path fill="#FFFFFF" d="M1080.9,403c-0.7,3.5-1.4,6.3-2.8,9.8c-5.7,15.4-9.8,30.9-16.1,45.6c-7.7,18.2-16.1,36.4-24.6,54
				c-7.7,15.4-16.1,30.9-25.2,45.6c-9.2,14.7-19.6,28.7-32.9,40.6c-9.8,8.4-21,14-33.6,16.9c-9.2,2.1-18.2,4.2-27.4,1.4
				c-14.7-3.5-25.9-12.7-33.6-25.2c-9.8-16.1-14.7-32.9-14-51.1c0.7-16.9,6.3-31.6,16.9-44.1c8.4-10.5,18.2-18.2,28.7-24.6
				c14.7-7.7,29.4-15.4,45.6-20.4c9.2-2.8,18.2-7.7,27.4-11.2c8.4-3.5,16.9-5.7,25.2-9.2c16.1-7,32.9-14,49.1-21
				c5.7-2.1,10.5-4.2,16.1-6.3C1079.6,402.3,1080.2,402.3,1080.9,403z"/>
			<path fill="#FFFFFF" d="M1171.3,328.7c-0.7-2.8-1.4-4.2-0.7-5.7c4.9-14,9.2-28.1,15.4-41.3c6.3-14,14-27.4,21.7-40.6
				c2.8-4.9,6.3-9.2,9.8-14c2.1-2.1,4.2-4.9,7.7-3.5c4.2,1.4,5.7,4.9,7,9.2c2.8,12.7-2.8,22.4-8.4,32.9
				c-6.3,13.4-16.1,23.9-25.2,34.4c-7,8.4-14.7,16.1-22.4,24.6C1175.5,326.6,1174.1,327.3,1171.3,328.7z"/>
		</g>
	</g>
</g>
<g id="Layer_3" display="none">
	<g id="TER4wQ_1_" display="inline">
		<g>
			<path fill="#FFFFFF" d="M134,691.1c0-188.5,0-377.1,0-565.6c221.5,0,443,0,665.2,0c0,188.5,0,377.1,0,565.6
				C577.7,691.1,356.2,691.1,134,691.1z M439.6,396c-0.7-1.4-0.7-2.8-1.4-3.5c-10.5,2.8-21,6.3-31.6,9.2
				c-17.5,5.7-34.4,11.2-51.8,16.1c-4.2,1.4-5.7-0.7-5.7-4.2c0-4.9,0.7-10.5,2.1-15.4c2.1-11.9,4.2-23.9,6.3-35.1
				c2.1-10.5,4.2-21,5.7-31.6c1.4-17.5,3.5-34.4,3.5-51.8c0-21-2.1-41.3-4.2-62.3c-1.4-11.2-5.7-21.7-9.2-32.9
				c-4.9-14-9.2-28.7-19.6-40.6c-7.7-8.4-16.1-14.7-28.1-15.4c-23.9-2.8-42.1,6.3-56.8,24.6c-19.6,23.9-29.4,51.8-32.9,82.7
				c-3.5,29.4-0.7,58.2,9.2,86.2c1.4,3.5,3.5,5.7,4.9,9.2c3.5,8.4,6.3,17.5,11.2,24.6c14.7,22.4,35.8,36.4,61.7,41.3
				c9.8,2.1,20.4,0.7,29.4-4.9c4.2-2.8,6.3-1.4,5.7,2.8c-0.7,6.3-2.1,13.4-2.8,19.6c-1.4,9.8-7.7,15.4-17.5,16.1
				c-4.2,0.7-8.4,2.1-11.9,3.5c-17.5,9.2-34.4,18.2-51.1,28.1c-12.7,8.4-24.6,18.2-35.8,28.1c-9.2,7.7-16.9,16.1-25.2,24.6
				c-15.4,14.7-28.1,31.6-37.1,49.8c-14,27.4-21,56.8-18.2,87.6c0.7,7.7,3.5,15.4,7.7,21.7c9.2,11.9,23.1,16.9,37.9,12.7
				c9.2-2.1,18.2-6.3,25.9-11.2c7-3.5,12.7-9.2,18.9-14c8.4-7,16.9-14,23.1-23.1c7-9.8,17.5-16.1,19.6-29.4c0-0.7,0.7-1.4,1.4-1.4
				c7.7-11.2,15.4-21.7,22.4-32.9c6.3-11.2,11.2-23.1,16.1-35.1c2.8-5.7,4.9-11.9,7-18.2c2.8-7,4.2-14.7,7-21.7
				c4.9-16.1,10.5-31.6,14.7-47.6c2.8-11.9,7-21,21-22.4c5.7-0.7,10.5-2.8,16.1-4.2c4.9-1.4,9.2-4.2,13.4-5.7
				c10.5-3.5,21-4.2,30.1-11.2C425.6,403.7,432.6,400.2,439.6,396z M784.5,286.7c0-1.4-0.7-2.1-0.7-3.5c-10.5,1.4-21.7,2.1-32.2,4.9
				c-29.4,8.4-58.2,16.1-89,16.1c-15.4,0-30.9-1.4-45.6-3.5c-14.7-2.1-29.4-6.3-43.4-9.8c-12.7-3.5-24.6-3.5-36.4,3.5
				c-15.4,9.8-31.6,18.2-47.6,28.1c-8.4,4.9-16.9,4.9-25.2,2.1c-3.5-1.4-4.9-7-7-11.2c-4.9-9.2-15.4-10.5-23.1-4.2
				c-1.4,0.7-4.2,0.7-5.7,0c-4.2-2.8-7-1.4-9.8,2.8c-7,8.4-8.4,18.2-10.5,28.1c-2.1,10.5,6.3,17.5,18.2,17.5s18.9-7,25.9-15.4
				c1.4-2.1,5.7-4.2,7.7-3.5c23.9,6.3,44.1-4.9,63.8-14.7c10.5-5.7,20.4-11.9,30.9-17.5c3.5-2.1,8.4-2.8,12.7-2.1
				c17.5,2.8,34.4,6.3,51.8,9.2c9.8,1.4,20.4,4.2,30.1,3.5c18.9-0.7,38.6-2.8,57.5-5.7c16.1-2.8,31.6-7,47-11.9
				C764.8,296.4,774.6,290.9,784.5,286.7z"/>
			<path d="M439.6,396c-6.3,4.2-13.4,7.7-19.6,11.9c-9.2,7-19.6,7.7-30.1,11.2c-4.9,1.4-9.2,4.2-13.4,5.7
				c-4.9,2.1-10.5,4.2-16.1,4.2c-14,1.4-18.2,11.2-21,22.4c-4.2,16.1-9.8,31.6-14.7,47.6c-2.1,7-4.2,14.7-7,21.7
				c-2.1,6.3-4.9,11.9-7,18.2c-5.7,11.9-9.8,23.9-16.1,35.1c-6.3,11.2-14.7,22.4-22.4,32.9c-0.7,0.7-1.4,0.7-1.4,1.4
				c-2.1,12.7-13.4,19.6-19.6,29.4c-6.3,8.4-14.7,15.4-23.1,23.1c-5.7,4.9-11.9,10.5-18.9,14c-8.4,4.9-16.9,9.2-25.9,11.2
				c-15.4,4.9-29.4,0-38.6-11.9c-4.2-5.7-7-14-7.7-21.7c-2.8-30.9,4.2-60.3,18.2-87.6c9.2-18.9,22.4-35.8,37.1-49.8
				c8.4-7.7,16.1-16.9,25.2-24.6c11.9-9.8,23.1-19.6,35.8-28.1c16.1-10.5,33.6-18.9,51.1-28.1c3.5-2.1,7.7-3.5,11.9-3.5
				c9.8-1.4,16.1-6.3,17.5-16.1c1.4-6.3,2.1-13.4,2.8-19.6c0.7-4.2-1.4-5.7-5.7-2.8c-9.2,5.7-19.6,7-29.4,4.9
				c-26.6-4.9-47.6-18.9-61.7-41.3c-4.9-7.7-7.7-16.9-11.2-24.6c-1.4-2.8-3.5-5.7-4.9-9.2c-9.8-28.1-12.7-56.8-9.2-86.2
				c3.5-30.1,13.4-58.8,32.9-82.7c14.7-17.5,32.9-27.4,56.8-24.6c11.9,1.4,20.4,7.7,28.1,15.4c10.5,11.2,14.7,25.9,19.6,40.6
				c3.5,10.5,7.7,21.7,9.2,32.9c2.8,20.4,4.2,41.3,4.2,62.3c0,17.5-1.4,35.1-3.5,51.8c-0.7,10.5-3.5,21-5.7,31.6
				c-2.1,11.9-4.2,23.9-6.3,35.1c-0.7,4.9-1.4,9.8-2.1,15.4c0,3.5,1.4,5.7,5.7,4.2c17.5-5.7,34.4-11.2,51.8-16.1
				c10.5-3.5,21-6.3,31.6-9.2C438.2,393.9,438.9,395.3,439.6,396z M351.9,258c-2.1-18.2-2.8-32.2-6.3-45.6
				c-3.5-15.4-9.2-30.1-15.4-44.8c-4.2-9.8-9.2-19.6-20.4-23.9c-16.1-7-31.6,1.4-42.8,12.7c-16.1,16.1-26.6,35.1-32.9,57.5
				c-7,25.2-8.4,50.5-4.9,75.7c2.8,18.9,8.4,37.9,18.2,55.3c11.9,20.4,28.7,34.4,51.8,39.9c10.5,2.8,20.4,0.7,27.4-9.2
				c1.4-1.4,4.9-2.8,7-2.1c4.9,2.1,6.3,0,7-4.2c1.4-6.3,2.8-13.4,3.5-19.6c1.4-11.9,4.2-23.9,4.9-35.8
				C350.6,294.4,351.3,274,351.9,258z M150.9,649c0,2.1,0,3.5,0,5.7c0.7,11.2,6.3,16.9,16.9,18.2c13.4,2.1,23.1-4.9,32.9-11.2
				c21-14,38.6-32.2,52.6-52.6c16.9-23.9,30.1-49.1,42.1-75.7c5.7-12.7,11.2-25.9,15.4-39.3c4.2-16.1,9.2-31.6,13.4-47
				c1.4-5.7-2.1-6.3-5.7-4.9c-6.3,2.1-12.7,4.9-18.2,7.7c-9.8,4.9-18.9,9.8-28.7,15.4c-9.2,5.7-18.9,11.9-27.4,18.9
				c-6.3,5.7-14.7,7.7-18.9,16.1c-2.8,4.9-9.2,7-12.7,11.9c-7,9.8-17.5,16.9-23.1,27.4c-2.1,3.5-6.3,5.7-8.4,9.2
				c-7.7,14-15.4,27.4-21.7,42.1C152.9,609.7,150.1,629.4,150.9,649z"/>
			<path d="M784.5,286.7c-9.8,4.9-19.6,10.5-30.1,13.4c-15.4,4.9-31.6,9.2-47,11.9c-18.9,2.8-38.6,4.9-57.5,5.7
				c-9.8,0.7-20.4-2.1-30.1-3.5c-17.5-2.8-34.4-6.3-51.8-9.2c-4.2-0.7-9.2,0-12.7,2.1c-10.5,5.7-20.4,11.9-30.9,17.5
				c-20.4,10.5-39.9,21-63.8,14.7c-2.1-0.7-5.7,1.4-7.7,3.5c-7,8.4-14,14.7-25.9,15.4c-11.2,0-20.4-7-18.2-18.2
				c2.1-9.8,3.5-19.6,10.5-28.1c3.5-3.5,5.7-4.9,9.8-2.8c1.4,0.7,4.9,1.4,5.7,0c8.4-6.3,18.2-4.9,23.1,4.2c2.1,4.2,3.5,9.8,7,11.2
				c8.4,2.8,16.9,2.8,25.2-2.1c16.1-9.2,32.2-18.2,47.6-28.1c11.9-7,23.9-7,35.8-4.2c14.7,3.5,28.7,7.7,43.4,9.8
				c14.7,2.1,30.1,3.5,45.6,3.5c30.9,0,59.6-7.7,89-16.1c10.5-2.8,21.7-3.5,32.2-4.9C783.7,283.9,784.5,285.2,784.5,286.7z
				 M425.6,339.2c7.7-1.4,13.4-7,12.7-12.7c0-1.4-1.4-3.5-2.1-4.2c-0.7-0.7-3.5,0.7-3.5,1.4C429.8,328.7,427.6,333.7,425.6,339.2z"
				/>
			<path fill="#FFFFFF" d="M351.9,258c-0.7,16.1-1.4,36.4-2.8,56.8c-0.7,11.9-2.8,23.9-4.9,35.8c-0.7,6.3-2.1,13.4-3.5,19.6
				c-0.7,3.5-2.1,5.7-7,4.2c-2.1-0.7-5.7,0.7-7,2.1c-7,9.2-16.9,11.2-27.4,9.2c-23.1-5.7-39.9-19.6-51.8-39.9
				c-9.8-17.5-16.1-35.8-18.2-55.3c-3.5-25.2-1.4-50.5,4.9-75.7c6.3-22.4,16.9-41.3,32.9-57.5c11.2-11.2,26.6-19.6,42.8-12.7
				c10.5,4.9,16.1,14,20.4,23.9c6.3,14.7,11.9,29.4,15.4,44.8C349.2,225.7,349.9,239.7,351.9,258z"/>
			<path fill="#FFFFFF" d="M150.9,649c-0.7-19.6,2.1-39.3,9.8-58.2c6.3-14.7,14-28.1,21.7-42.1c2.1-3.5,6.3-5.7,8.4-9.2
				c5.7-11.2,16.1-17.5,23.1-27.4c2.8-4.9,9.8-7,12.7-11.9c4.2-7.7,12.7-10.5,18.9-16.1c8.4-7,18.2-12.7,27.4-18.9
				c9.2-5.7,18.9-10.5,28.7-15.4c5.7-2.8,11.9-5.7,18.2-7.7c3.5-1.4,7-0.7,5.7,4.9c-4.2,15.4-9.2,31.6-13.4,47
				c-3.5,14-9.2,26.6-15.4,39.3c-11.9,26.6-25.2,51.8-42.1,75.7c-14.7,20.4-31.6,38.6-52.6,52.6c-10.5,7-21,13.4-34.4,11.2
				c-10.5-1.4-16.9-7.7-17.5-18.2C150.9,652.5,150.9,651.1,150.9,649z"/>
			<path fill="#FFFFFF" d="M425.6,339.2c2.8-5.7,4.2-10.5,7-15.4c0.7-0.7,3.5-2.1,3.5-1.4c1.4,0.7,2.1,2.8,2.1,4.2
				C438.2,332.2,433.3,337.8,425.6,339.2z"/>
		</g>
	</g>
</g>
<g id="Layer_4">
	<g id="cdIh1f_1_">
		<g>
			<path fill="#FFFFFF" d="M1075.1,165c0-52.6,0-105.1,0-157.7c204.7,0,408.7,0,613.2,0c-2.1,7-6.3,14.7-5.7,21
				c4.2,25.9,9.8,51.8,15.4,77.8c6.3,31.6-4.2,64.5-27.4,78.5c-13.4,8.4-30.9,2.1-32.2-12.7c-1.4-11.9-0.7-24.6,2.1-35.8
				c4.9-19.6,11.2-21.7,30.9-17.5c2.8,0.7,7.7-0.7,9.8-2.1c1.4-1.4,1.4-7-0.7-8.4c-7.7-6.3-15.4-14.7-23.9-15.4
				c-7-0.7-18.9,6.3-22.4,13.4c-11.2,22.4-17.5,46.3-9.8,72.2c5.7,17.5,14,33.6,34.4,36.4c20.4,2.1,30.1-14,38.6-29.4
				c4.9-8.4,8.4-18.2,14.7-30.1c4.2,8.4,7,14,8.4,19.6c3.5,12.7,9.2,10.5,16.9,3.5c0,19.6,0,39.9,0,60.3c-50.5,0-100.2,0-150.7,0
				c0.7-0.7,1.4-1.4,2.8-2.1c34.4-9.8,38.6-18.9,23.9-51.8c-9.2-20.4-23.1-39.3-23.1-63.8c0-4.9-6.3-10.5-9.8-15.4
				c-1.4,6.3-3.5,12.7-4.9,18.9c0,1.4,1.4,2.8,1.4,4.9c2.1,14-9.8,34.4-21,35.8c-11.2,1.4-26.6-12.7-29.4-27.4
				c-1.4-6.3-1.4-11.9-3.5-17.5c-1.4-2.8-4.9-4.9-9.2-8.4c-8.4,30.1,4.9,61,29.4,72.9c11.2,5.7,21,6.3,29.4-4.9
				c3.5-4.2,8.4-7.7,14.7-12.7c4.2,7,7.7,12.7,10.5,18.2c10.5,20.4,9.2,24.6-13.4,26.6c-17.5,1.4-35.8,0-58.8,0
				c5.7,9.8,9.8,17.5,14,24.6c-155.6,0-310.5,0-466,0c0-18.9,0-37.9,0-56.8c11.9,10.5,21.7,28.1,35.8,31.6c39.9,9.8,82,8.4,122-3.5
				c7-2.1,14.7-11.9,16.9-19.6c6.3-23.1-7-42.8-14.7-63.1c-9.2-23.9-18.2-47-28.1-72.9c10.5-2.1,18.2-3.5,25.9-4.2
				c35.1-4.9,70.8-8.4,105.8-14c4.2-0.7,7.7-8.4,11.2-12.7c-4.9-2.8-9.8-7.7-14-7.7c-47.6,4.9-94.6,10.5-142.3,15.4
				c-35.1,3.5-70.8,6.3-106.6,9.2c-0.7,11.9,5.7,18.9,17.5,19.6c14.7,0.7,30.1,1.4,44.8-0.7c44.1-7,43.4-7.7,58.2,33.6
				c8.4,23.1,17.5,46.3,26.6,69.4c5.7,15.4-0.7,24.6-15.4,26.6c-32.2,3.5-64.5,6.3-97.4,7c-9.2,0-21.7-4.9-28.1-11.9
				c-5.7-6.3-4.2-18.9-5.7-27.4C1084.9,157.9,1080,161.5,1075.1,165z M1363.2,182.5c4.9,5.7,7.7,11.2,12.7,13.4
				c4.2,2.1,9.8,2.1,14.7,2.8c0-4.9,1.4-11.2-1.4-13.4c-18.2-15.4-19.6-37.1-21.7-57.5c-1.4-16.1-10.5-22.4-23.9-25.2
				c-14.7-3.5-44.1,9.8-52.6,23.1c-16.1,25.9-5.7,66.5,23.1,84.9c13.4,8.4,27.4,5.7,36.4-7C1354,197.2,1357.5,190.9,1363.2,182.5z
				 M1504.1,113c-1.4-6.3-0.7-12.7-3.5-14c-10.5-5.7-21.7-11.2-32.9-13.4c-27.4-4.9-37.1,25.2-58.8,32.2c-0.7,0-0.7,5.7,0,7.7
				c8.4,25.9,16.9,52.6,25.9,77.8c1.4,2.8,6.3,4.2,9.8,7c1.4-4.2,5.7-9.2,4.2-12.7c-2.1-8.4-7-16.1-9.8-24.6
				c-10.5-39.3-6.3-58.8,32.9-64.5C1480.9,107.5,1490.7,111,1504.1,113z"/>
			<path d="M1075.1,165c4.9-3.5,9.8-6.3,12.7-8.4c1.4,9.2,0,21,5.7,27.4c5.7,7,18.2,11.9,28.1,11.9c32.2-0.7,65.2-3.5,97.4-7
				c14.7-1.4,21-11.2,15.4-26.6c-9.2-23.1-18.2-46.3-26.6-69.4c-14.7-41.3-14-40.6-58.2-33.6c-14.7,2.1-30.1,1.4-44.8,0.7
				c-12.7-0.7-18.9-7.7-17.5-19.6c36.4-2.8,71.5-5.7,106.6-9.2c47.6-4.9,94.6-10.5,142.3-15.4c4.2-0.7,9.2,4.9,14,7.7
				c-3.5,4.2-7,11.9-11.2,12.7c-35.1,5.7-70,9.2-105.8,14c-7.7,0.7-15.4,2.1-25.9,4.2c9.8,25.2,18.9,49.1,28.1,72.9
				c7.7,20.4,21,39.9,14.7,63.1c-2.1,7.7-9.8,17.5-16.9,19.6c-39.9,11.2-81.3,12.7-122,3.5c-13.4-3.5-23.9-20.4-35.8-31.6
				C1075.1,176.2,1075.1,170.5,1075.1,165z"/>
			<path d="M1738.8,178.2c-7.7,7-13.4,9.2-16.9-3.5c-1.4-5.7-4.9-11.2-8.4-19.6c-5.7,11.9-9.2,21.7-14.7,30.1
				c-9.2,14.7-18.2,31.6-38.6,29.4s-28.7-18.2-34.4-36.4c-7.7-25.2-2.1-49.8,9.8-72.2c3.5-7,14.7-14,22.4-13.4
				c8.4,0.7,16.1,9.2,23.9,15.4c1.4,1.4,2.1,7,0.7,8.4c-2.1,2.1-7,2.8-9.8,2.1c-19.6-4.9-25.9-2.1-30.9,17.5
				c-2.8,11.2-3.5,24.6-2.1,35.8c2.1,14.7,19.6,20.4,32.2,12.7c22.4-14,33.6-47,27.4-78.5c-5.7-25.9-11.2-51.8-15.4-77.8
				c-0.7-6.3,3.5-14,5.7-21c1.4,0,2.1,0,3.5,0c5.7,20.4,13.4,39.9,15.4,60.3c3.5,37.1,17.5,70,31.6,103.8
				C1738.8,174,1738.8,176.2,1738.8,178.2z"/>
			<path d="M1541.2,238.5c-4.2-7.7-8.4-14.7-14-24.6c23.1,0,41.3,1.4,58.8,0c21.7-2.1,23.1-6.3,13.4-26.6
				c-2.8-5.7-6.3-11.2-10.5-18.2c-5.7,4.9-11.2,7.7-14.7,12.7c-9.2,9.8-18.9,9.2-30.1,3.5c-24.6-11.9-37.9-42.8-29.4-72.9
				c3.5,3.5,7.7,4.9,9.2,8.4c2.1,5.7,2.8,11.9,3.5,17.5c2.8,14.7,17.5,28.7,29.4,27.4c11.2-1.4,23.9-22.4,21-35.8
				c0-1.4-2.1-3.5-1.4-4.9c1.4-6.3,3.5-12.7,4.9-18.9c3.5,4.9,9.8,10.5,9.8,15.4c0.7,23.9,14,42.8,23.1,63.8
				c14.7,33.6,10.5,42.1-23.9,51.8c-0.7,0-2.1,1.4-2.8,2.1C1572.1,238.5,1556.6,238.5,1541.2,238.5z"/>
			<path fill="#FFFFFF" d="M1738.8,171.2c-14-33.6-27.4-66.5-31.6-103.8c-2.1-20.4-10.5-39.9-15.4-60.3c15.4,0,31.6,0,47,0
				C1738.8,61.9,1738.8,116.5,1738.8,171.2z"/>
			<path d="M1363.2,182.5c-5.7,8.4-9.2,14.7-13.4,20.4c-9.2,12.7-23.9,15.4-36.4,7c-28.7-18.2-39.3-58.8-23.1-84.9
				c8.4-13.4,37.9-26.6,52.6-23.1c13.4,2.8,22.4,9.8,23.9,25.2c2.1,21,3.5,42.1,21.7,57.5c2.8,2.1,0.7,9.2,1.4,13.4
				c-4.9-0.7-10.5-0.7-14.7-2.8C1370.9,192.9,1368.1,188,1363.2,182.5z M1352.7,130.6c-23.9-7.7-44.8,1.4-52.6,20.4
				c-5.7,14,2.8,33.6,16.9,39.3c15.4,6.3,22.4-6.3,26.6-16.1C1349.2,160,1349.9,144.6,1352.7,130.6z"/>
			<path d="M1504.1,113c-13.4-2.1-22.4-5.7-31.6-4.9c-39.3,5.7-43.4,25.2-32.9,64.5c2.1,8.4,7.7,16.1,9.8,24.6
				c0.7,3.5-2.8,8.4-4.2,12.7c-3.5-2.1-8.4-3.5-9.8-7c-9.2-25.9-17.5-51.8-25.9-77.8c-0.7-2.1-0.7-7.7,0-7.7
				c21.7-7,31.6-37.1,58.8-32.2c11.2,2.1,22.4,7.7,32.9,13.4C1503.4,100.5,1502.6,107.5,1504.1,113z"/>
			<path fill="#FFFFFF" d="M1352.7,130.6c-2.8,14-3.5,30.1-9.2,44.1c-3.5,9.8-11.2,22.4-26.6,16.1c-14-5.7-22.4-25.2-16.9-39.3
				C1307.8,132,1328.8,122.9,1352.7,130.6z"/>
		</g>
	</g>
</g>
<g id="UGqraJ_1_">
	<g>
		<path fill="#FFFFFF" d="M-771.2,475.8c0-131.9,0-263.8,0-395.8c253.9,0,507.7,0,761.6,0c0,131.9,0,263.8,0,395.8
			C-263.6,475.8-517.5,475.8-771.2,475.8z M-308,256.9c0.6-1.7,0.7-2.5,1-3.3c5.8-10.4,13.6-19.3,21.5-28.1c4.5-5,9.3-9.8,14.4-14.3
			c4.2-3.6,8.8-6.9,13.7-9.5c3.3-1.8,5.4-3.2,5-6c-0.5-2.5-4.3-5.1-7.2-4.5c-6.3,1.2-12.6,2.4-18.8,4c-12.4,3.2-24.9,6.6-37.2,9.7
			c-5,1.2-5.5,0.6-6-4.6c-0.8-9.5-1.8-18.9-2.5-28.4c-0.3-3.6-2.5-5.2-5.7-6c-3.7-0.9-5.1,0.2-4.8,3.8c0.5,5.5,1.1,11.2,1.8,16.7
			c0.7,6.2,1.5,12.4,2.3,18.7c0.2,1.9,0.1,3.5-2.3,4.1c-5.1,1.2-10.1,2.6-15,4c-2.8,0.8-3.7-0.2-3.8-3.1
			c-0.5-10.3-1.4-20.5-1.7-30.8c-0.1-3.3-1.4-5.3-4.3-6.1c-1.6-0.5-3.6-0.9-4.8-0.3c-0.9,0.6-1.4,2.8-1.2,4.3
			c0.7,12.2,1.5,24.4,2.4,36.7c0.2,2.6-1,3.5-3.4,4.4c-7.8,2.9-15.6,6.1-23.3,9.4c-4.1,1.7-8,3.7-12.1,5.4c-0.8,0.3-2.6-0.3-3.2-1.1
			c-3.4-4.9-7.1-6.2-13-4.9c-13,2.9-24.7,8.8-35.5,16.5c-1.8,1.4-3.4,1.4-5.8,0.3c-6.2-2.6-12.4-5.8-18.9-6.7c-16-2.3-32-4-48.2-4.9
			c-12.9-0.7-25.9,0-38.7,2.4c-9.5,1.7-19,3.2-28.5,4.6c-1.2,0.2-2.9,0.2-3.7-0.5c-2.4-2-1.2-8.6,1.6-10.1c2.7-1.5,5.5-2.8,8.3-4.2
			c10.5-5.1,21.2-10,31.7-15.2c14.6-7.2,29-14.7,43.6-21.9c5.7-2.8,11.5-5,17.2-7.8c11.5-5.7,22.9-11.4,34.4-17.2
			c2.9-1.5,4.5-4.1,3.8-6.6c-0.7-2.4-3.7-4-6.8-3.3c-4.5,1-9.1,1.9-13.6,3.3c-14.3,4.2-28.3,8.7-42.7,12.7
			c-14.1,4-28.4,7.5-42.5,11.1c-12.7,3.2-25.3,6-37.9,9.6c-18,5.2-36.1,10.5-53.9,16.5c-12,4.1-24,8.5-35.2,14.6
			c-7.6,4.1-15.6,7.4-23.4,11c-6.6,3.1-13,6.1-19.7,8.9c-5.4,2.3-11,4-16.5,6c-3.5,1.2-3.8,2.1-2.3,5.3c2.6,5.1,8.4,6,12.4,2
			c0.6-0.6,1.4-1.1,2.1-1.5c9.1-4.2,18.1-8.3,27-12.6c8.6-4.2,17-9.2,25.8-12.9c14.8-6.3,29.9-12.3,45-17.8
			c13.7-4.9,27.5-9.1,41.5-13c13.7-3.8,27.5-6.8,41.2-10.3c14.3-3.6,28.5-7.4,42.8-11c3.5-0.9,6.9-1.7,10.4-2.5
			c-2.4,2-4.9,3.7-7.5,5c-10.4,5.3-21,10.5-31.5,15.7c-10.7,5.4-21.2,11.7-32.4,16.5c-8.4,3.6-16.5,7.9-24.8,11.9
			c-1.1,0.6-2.7,0.3-4.1,0.7c-1.4,0.3-2.7,1-3.8,1.7c-0.8,0.5-1.1,1.8-1.9,2.1c-6.9,3.7-13.8,7.4-20.7,11.1
			c-5.4,2.9-10.9,5.9-16.3,8.7c-4.9,2.5-3.5,8.5,1.2,9.7c3.7,1,7.9,2.1,11.7,1.6c7.4-1,14.5-2.9,21.6-4.8c7.2-1.8,7.5-1.9,8.7,5.4
			c1.2,7.6,2.4,15.3,2.9,22.9c0.6,7.2,0.3,14.6,0.8,21.8c0.1,2.7,2.4,4.6,4.8,4.5c2.7-0.1,3.6-2.4,3.7-5.2c0.6-16.7-1-33.3-4.9-49.6
			c-0.7-3.1,0.5-4.3,3.3-4.8c6.7-1.1,13.2-2.3,19.9-3.5c20.9-3.8,42-5.3,63.1-3.2c9.2,0.9,18.3,2,27.4,3.2c1.2,0.1,3.2,1,3.5,1.9
			c1.8,5.3,3.4,10.6,4.8,16.1c1.4,5.5,1.1,5.5-3.7,8.8c-1,0.7-1.9,1.5-3.1,2c-10.4,5.8-20.7,11.7-31.2,17.2
			c-5.2,2.7-10.6,4.9-16.1,7c-13.4,5.3-26.7,10.5-40.1,15.6c-14.5,5.5-29.1,10.1-44.5,12.8c-14.4,2.6-28.7,3.5-43.2,1.9
			c-3.6-0.3-7.2-0.8-10.9-1.1c-0.1,0.5-0.2,0.9-0.3,1.2c7.6,2.1,15,5.4,22.7,6.4c17,2.3,33.6-0.7,49.9-5.2
			c12.7-3.5,25.2-7.5,37.6-12.2c15.5-5.9,30.8-12.4,45.8-19.3c12.1-5.7,24.7-10.4,35.3-18.7c3.7-2.9,4.8-2.1,6,2.7
			c0.9,3.7,1.8,7.5,3.4,11c1.1,2.5,3.6,3.8,6.4,2.6c2.7-1.1,2.4-3.6,1.8-6c-0.9-3.6-1.8-7.2-2.5-11c-0.9-4.5-0.8-8.7,2.8-12.6
			c2.5-2.7,4-6.2,6-9.4c1-1.7,1.7-3.8,3.3-4.9c5.4-3.6,11-6.9,16.7-10c2.7-1.5,5.9-2.1,8.1-2.9c1.7,7.5,3.3,14.4,4.9,21.3
			c0.8,3.5,2,6.9,2.6,10.5c0.6,4.1,0.3,8.3,0.9,12.3c0.3,2.4,1.7,4.4,4.5,4.5c3.5,0.2,5-1.7,4.1-6.4c-1.9-10.9-4.3-21.6-6-32.5
			c-0.3-2,0.6-4.8,1.7-6.7c1.4-2.3,3.3-2.8,5.4-0.1c3.2,3.8,6.2,4,10.9,1.5c8.3-4.3,16.5-8.5,24.9-12.3c6.4-2.9,7-2.3,6.8,4.9
			c-0.2,12.7-0.5,25.2-0.6,37.9c0,1.8,0.3,3.8,1.2,5.4c1.4,2.1,3.2,4.6,6.2,3.7c2.6-0.7,3.3-3.1,3.2-5.5
			c-0.2-16.4-0.3-32.8-0.6-49.1c0-2.3,0.9-3.5,3.1-4c4.6-1.1,9.3-2.4,13.8-3.5c4.8-1.1,5.4-0.9,5.4,3.8c-0.1,11.3-0.6,22.5-1.1,33.8
			c-0.1,2.8,1.5,4.4,3.3,5.7c1.1,0.8,3.2,0.8,4.6,0.5c1.2-0.3,2.1-1.7,3.8-3.3c0.5,0.7,0.9,1.7,1.6,2.5c3.4,4.6,7.6,6,12.8,3.3
			c3.8-1.9,7.4-4.8,11-7.2c10.7-7.7,19.3-17.3,26-28.7c1.6-2.7,3.6-5.2,5.4-7.9c0.5,0.1,0.8,0.3,1.2,0.5c-0.3,4.4-0.6,8.9-1,13.4
			c-0.5,5.1-1,10.2,2.4,14.6c2.7,3.5,7.5,3.5,8.8-0.2c0.9-2.5,1.6-5.8,0.7-8c-1.7-4.3-0.9-8.3-0.3-12.3c0.8-6.2,0.9-12.4-1.4-18.3
			c-0.9-2.3-3.4-4.3-5.7-5.3c-2.6-1.1-5.1,0.3-6.8,2.7c-0.6,0.8-1.2,1.6-1.8,2.4c-5.9,8.4-11.5,17-17.8,25.2
			c-5.8,7.7-12.9,13.8-21.3,18.7C-305.3,256.2-306.3,256.4-308,256.9z M-364.9,300.4c-2.5,0.2-4.4,0.2-6.1,0.7c-3.5,0.8-7.4,1-9.3,5
			c-0.2,0.6-1.8,0.6-2.8,0.6c-1.6,0.1-3.3-0.6-4.6,0c-3.6,1.6-7,3.7-10.5,5.4c-2,1-4.2,1.5-6.2,2.4c-9.8,3.8-18.6,9.6-27.5,15.2
			c-4.2,2.6-7.6,5.9-11.4,8.8c-8,6.2-14.6,13-19.1,22.2c-3.8,7.7-3.4,14.9-0.5,22.2c4.1,10,11.5,17.7,20.7,22.9
			c12.1,6.9,24.7,13.4,37.5,19c16.1,7.1,32.8,12.1,50.1,14.9c16.6,2.7,33.4,3.5,50.3,3.4c20.7-0.1,41-3.2,61.2-7.4
			c7-1.5,13.9-3.6,20.8-5.8c9.8-3.1,19.7-6,29.2-9.8c12.7-5.1,25.1-10.9,37.6-16.7c8.8-4.1,17.4-8.6,25.9-13.4
			c7.7-4.3,14.8-9.5,22.4-13.9c13.6-8,26.2-17.4,37.7-28.4c14.9-14.5,23-32.5,28.4-52c1.5-5.2,2.3-10.7,2.9-16.2
			c1-7.9,2.4-15.8,2.1-23.8c-0.6-17-1.7-34.1-3.2-50.9c-0.6-6.4-2.7-12.9-6.7-18.4c-3.7-5.3-10.6-7.2-16-4.5
			c-8.5,4.2-14.8,10.7-19.2,18.9c-3.3,6.1-5.4,12.9-8.3,19.3c-1.6,3.7-3.2,7.5-5.3,11c-3.6,5.8-10.9,4.1-13.7,0
			c-3.4-5-5.4-10.5-4.4-16.3c1.4-7.6,3.5-15.2,6.3-22.4c3.6-9.4,9.8-17.3,16.2-25.1c0.8-0.9,1.4-2.8,0.8-3.8c-0.8-1.6-2.5-4-3.8-4
			c-1.9,0-4.5,1.4-5.8,2.8c-3.8,4.6-7.6,9.4-10.6,14.6c-6.8,11.4-12.2,23.3-13,37c-0.7,11.2,3.4,20.3,12,27.2
			c8.5,6.8,20.1,4.8,25.5-4.6c2.9-5.2,5-11.1,6.6-16.9c3.3-11.8,8.7-21.8,19.6-28.3c3.6-2.1,6.2-1.8,7.6,2.4
			c1.8,5.7,3.3,11.7,4,17.5c1,8.9,0.9,17.9,1.7,26.8c1.9,22.3-0.7,44-7,65.4c-4.4,14.9-12.4,27.8-23.4,38.8
			c-9.7,9.7-20.6,17.9-32.4,25c-13.8,8.4-27.6,16.9-41.6,24.7c-8.7,4.9-17.9,8.6-26.9,12.8c-5.9,2.7-11.8,5.5-17.8,8
			c-5,2-10.2,3.5-15.3,5.3c-3.2,1.1-6.3,2.7-9.6,3.5c-12.8,3.2-25.2,7.2-38.4,9.2c-6.4,0.9-12.8,2.6-19.1,3.4
			c-5.9,0.7-11.9,0.8-17.8,1c-8.1,0.2-16.4,0.6-24.6,0.3c-13.6-0.5-27.3-1-40.5-4.6c-11.2-3.1-22.6-5.5-33.5-9.5
			c-10.1-3.6-19.6-8.6-29.1-13.5c-9.1-4.6-18.3-9.1-25.1-17c-3.7-4.4-6.9-9.2-7.7-15c-1.1-9.3,2.1-17.1,8.7-23.3
			c6.2-5.9,12.9-11.4,20-16.2c8.5-5.7,17.4-10.9,26.8-15c13.9-6.2,28.3-11.4,42.4-17.1c1.5-0.6,2.9-1.4,4.3-2.3
			c0.9-0.6,1.5-2,2.4-2.3c3.1-0.8,6.2-1,9.2-1.8c2.9-0.8,6.9,0.7,8.7-3.3c0.1-0.3,0.7-0.5,1.1-0.6c2.5-0.5,5-0.8,7.5-1.5
			c4.5-1.1,9.2-2.4,13.6-4c1.6-0.6,2.8-2,4.8-3.6c-5.8-2-10.3,2-15.3,0.8c-2.3-0.6-4.8,1.9-7.9,2.1c-5,0.3-9.8,3.3-14.8,4.8
			c-2.8,0.9-5.2,2.5-8.4,2.8c-2.9,0.3-7.1,0-8.7,4.1c0,0.1-0.5,0.1-0.8,0.2c-0.6-0.5-1.1-1-1.8-1.6
			C-364.3,299.3-364.8,300.2-364.9,300.4z M-217.6,219.6c-0.3-0.1-0.7-0.1-1-0.2c-0.7-3.6-1.4-7.2-2.1-10.9c-0.9-4.1-2-8.3-6.3-9.7
			c-1.5-0.6-3.7,0.2-5.3,1c-1.9,1-1.2,2.6-0.1,4.2c0.8,1.1,1.2,2.6,1.5,4c1.2,8.4,2.1,16.9,3.4,25.2c0.7,4.2,1.5,8.4,2.7,12.4
			c0.8,2.6,2.8,4.8,5.9,4.4c3.2-0.3,3.5-3.2,4.1-5.7c1.2-5,2.1-10.2,4-14.9c4.4-11.4,10-22.5,17.8-32c4-4.6,9.7-7.8,14.8-11.5
			c1.7-1.2,3.3-0.5,3.7,1.6c0.6,2.5,1.2,5,1.4,7.5c0.6,14.7,5.3,27.9,14.3,39.7c9.2,11.9,23.5,10.4,30.9-0.5
			c0.6-0.9,0.6-2.1,0.8-3.3c-1.1,0-2.3,0-3.3,0.2c-4.3,0.9-8.6,2-12.9,2.6c-1.8,0.2-4.3-0.5-5.4-1.7c-2.9-3.3-5.8-6.9-7.9-10.9
			c-5.2-9.2-4.8-19.6-6.6-29.5c-0.9-5.3-3.1-9.8-7-13.5c-2.7-2.5-5.9-3.4-9.5-2.3c-6.6,2-11.4,6.6-16.2,11.1
			c-6.8,6.6-11.5,14.8-16.2,23C-214.2,213.2-215.9,216.3-217.6,219.6z M-395.5,215c0.6-0.7,2-1.8,2.6-3.2c0.5-1,0.2-3.2-0.6-3.7
			c-2.5-1.8-5.2-3.4-7.9-4.6c-2-0.9-4.8,1.5-4.4,3.5C-405.4,210.1-399.9,214.9-395.5,215z M-270.1,275.1c-0.3-0.5-0.6-1-0.9-1.5
			c-1.5,0.8-2.8,2.1-4.3,2.4c-5.5,1-11.2,1.7-16.9,2.6c-0.7,0.1-1.6,0.5-1.8,1c-0.7,1.8-1.8,1.8-3.4,1.4c-1-0.2-2.3,0.2-3.4,0.5
			c-0.1,0.5-0.1,0.8-0.2,1.2c0.9,0.2,1.7,0.7,2.6,0.7c0.7,0,1.4-0.7,2.1-0.8c7.7-1.9,15.3-3.7,23-5.7
			C-272.3,276.5-271.3,275.6-270.1,275.1z"/>
		<path d="M-308,256.9c1.7-0.6,2.8-0.8,3.7-1.4c8.3-4.9,15.5-11.1,21.3-18.7c6.1-8.1,11.9-16.7,17.8-25.2c0.6-0.8,1.2-1.6,1.8-2.4
			c1.7-2.4,4.2-4,6.8-2.7c2.3,1,4.9,3.1,5.7,5.3c2.3,5.9,2,12.1,1.4,18.3c-0.5,4.1-1.2,8.1,0.3,12.3c0.9,2.3,0.2,5.5-0.7,8
			c-1.4,3.7-6.1,3.7-8.8,0.2c-3.5-4.4-2.8-9.5-2.4-14.6c0.3-4.4,0.7-8.9,1-13.4c-0.5-0.1-0.8-0.3-1.2-0.5c-1.8,2.6-3.8,5.1-5.4,7.9
			c-6.7,11.3-15.3,21-26,28.7c-3.5,2.6-7,5.3-11,7.2c-5.2,2.6-9.4,1.4-12.8-3.3c-0.7-0.9-1.1-1.8-1.6-2.5c-1.7,1.6-2.6,3.1-3.8,3.3
			c-1.5,0.3-3.5,0.3-4.6-0.5c-1.8-1.2-3.4-2.8-3.3-5.7c0.6-11.2,1-22.5,1.1-33.8c0.1-4.8-0.7-5.1-5.4-3.8c-4.6,1.1-9.2,2.4-13.8,3.5
			c-2.1,0.6-3.1,1.8-3.1,4c0.2,16.4,0.5,32.8,0.6,49.1c0,2.5-0.7,4.9-3.2,5.5c-3.1,0.8-4.9-1.6-6.2-3.7c-0.9-1.5-1.2-3.6-1.2-5.4
			c0.1-12.7,0.2-25.2,0.6-37.9c0.1-7.1-0.3-7.8-6.8-4.9c-8.5,3.8-16.7,8-24.9,12.3c-4.6,2.4-7.6,2.4-10.9-1.5
			c-2.1-2.6-4.2-2.1-5.4,0.1c-1.1,1.9-2,4.5-1.7,6.7c1.8,10.9,4.1,21.6,6,32.5c0.8,4.8-0.6,6.7-4.1,6.4c-2.8-0.1-4.2-2.1-4.5-4.5
			c-0.6-4.1-0.3-8.3-0.9-12.3c-0.6-3.5-1.7-7-2.6-10.5c-1.6-6.9-3.2-13.8-4.9-21.3c-2.3,0.8-5.4,1.5-8.1,2.9
			c-5.7,3.1-11.3,6.4-16.7,10c-1.5,1-2.3,3.2-3.3,4.9c-1.9,3.2-3.5,6.8-6,9.4c-3.6,3.8-3.6,8-2.8,12.6c0.7,3.7,1.6,7.4,2.5,11
			c0.6,2.4,1,4.9-1.8,6c-2.8,1.1-5.3-0.1-6.4-2.6c-1.5-3.5-2.4-7.2-3.4-11c-1.2-4.9-2.3-5.5-6-2.7c-10.7,8.3-23.3,13-35.3,18.7
			c-15,7-30.3,13.5-45.8,19.3c-12.2,4.8-24.9,8.6-37.6,12.2c-16.3,4.5-32.9,7.5-49.9,5.2c-7.7-1-15.2-4.2-22.7-6.4
			c0.1-0.5,0.2-0.9,0.3-1.2c3.6,0.3,7.2,0.7,10.9,1.1c14.5,1.6,28.9,0.7,43.2-1.9c15.3-2.7,30-7.2,44.5-12.8
			c13.4-5.1,26.7-10.3,40.1-15.6c5.4-2.1,10.9-4.3,16.1-7c10.5-5.5,20.8-11.4,31.2-17.2c1-0.6,2-1.4,3.1-2c4.9-3.3,5.1-3.3,3.7-8.8
			c-1.4-5.4-2.9-10.9-4.8-16.1c-0.3-0.9-2.3-1.8-3.5-1.9c-9.2-1.1-18.2-2.3-27.4-3.2c-21.2-2.1-42.2-0.7-63.1,3.2
			c-6.7,1.2-13.2,2.5-19.9,3.5c-2.9,0.5-4.1,1.7-3.3,4.8c3.8,16.3,5.4,32.8,4.9,49.6c-0.1,2.9-1,5.2-3.7,5.2c-2.4,0-4.6-1.8-4.8-4.5
			c-0.3-7.2-0.1-14.6-0.8-21.8c-0.7-7.7-1.7-15.3-2.9-22.9c-1.2-7.4-1.4-7.2-8.7-5.4c-7.1,1.8-14.4,3.7-21.6,4.8
			c-3.7,0.6-7.9-0.6-11.7-1.6c-4.6-1.2-6.1-7.2-1.2-9.7c5.5-2.8,10.9-5.8,16.3-8.7c6.9-3.7,13.8-7.4,20.7-11.1
			c0.8-0.5,1.1-1.7,1.9-2.1c1.1-0.8,2.5-1.4,3.8-1.7s2.8-0.1,4.1-0.7c8.3-3.8,16.3-8.3,24.8-11.9c11.2-4.9,21.6-11.1,32.4-16.5
			c10.4-5.3,21-10.4,31.5-15.7c2.6-1.4,5.1-3.1,7.5-5c-3.5,0.8-6.9,1.7-10.4,2.5c-14.3,3.6-28.5,7.4-42.8,11
			c-13.7,3.5-27.6,6.4-41.2,10.3c-13.9,3.8-27.8,8.1-41.5,13c-15.2,5.4-30.2,11.4-45,17.8c-8.8,3.7-17.1,8.7-25.8,12.9
			c-8.9,4.3-18,8.4-27,12.6c-0.8,0.3-1.6,0.8-2.1,1.5c-4,4-9.8,3.1-12.4-2c-1.6-3.2-1.2-4.1,2.3-5.3c5.5-1.9,11.1-3.7,16.5-6
			c6.7-2.7,13.1-5.9,19.7-8.9c7.8-3.6,15.8-6.9,23.4-11c11.2-6.1,23.2-10.5,35.2-14.6c17.8-6,35.8-11.3,53.9-16.5
			c12.6-3.6,25.2-6.3,37.9-9.6c14.3-3.6,28.4-7.1,42.5-11.1c14.3-4,28.4-8.5,42.7-12.7c4.4-1.2,9.1-2.3,13.6-3.3
			c3.1-0.7,6.1,0.9,6.8,3.3c0.8,2.5-0.8,5.1-3.8,6.6c-11.4,5.7-22.9,11.5-34.4,17.2c-5.7,2.7-11.5,5-17.2,7.8
			c-14.6,7.2-29,14.7-43.6,21.9c-10.5,5.2-21.2,10.1-31.7,15.2c-2.8,1.4-5.5,2.7-8.3,4.2c-2.8,1.5-4,8-1.6,10.1
			c0.8,0.7,2.5,0.7,3.7,0.5c9.5-1.5,19-2.9,28.5-4.6c12.8-2.3,25.8-3.1,38.7-2.4c16.1,0.9,32.1,2.6,48.2,4.9
			c6.6,0.9,12.8,4.1,18.9,6.7c2.3,1,3.8,0.9,5.8-0.3c10.9-7.7,22.4-13.6,35.5-16.5c5.9-1.4,9.6,0,13,4.9c0.6,0.8,2.4,1.4,3.2,1.1
			c4.1-1.6,8-3.7,12.1-5.4c7.7-3.3,15.5-6.4,23.3-9.4c2.4-0.9,3.5-1.8,3.4-4.4c-0.8-12.2-1.7-24.4-2.4-36.7
			c-0.1-1.5,0.3-3.7,1.2-4.3c1.1-0.7,3.3-0.1,4.8,0.3c2.9,0.9,4.2,2.8,4.3,6.1c0.5,10.3,1.2,20.5,1.7,30.8c0.1,2.8,1,3.8,3.8,3.1
			c5-1.4,10.1-2.7,15-4c2.3-0.6,2.5-2.3,2.3-4.1c-0.8-6.2-1.6-12.4-2.3-18.7c-0.7-5.5-1.2-11.2-1.8-16.7c-0.3-3.7,1.1-4.8,4.8-3.8
			c3.2,0.7,5.3,2.4,5.7,6c0.8,9.5,1.8,18.9,2.5,28.4c0.5,5.2,1,6,6,4.6c12.4-3.2,24.8-6.6,37.2-9.7c6.2-1.6,12.4-2.7,18.8-4
			c2.9-0.6,6.8,1.9,7.2,4.5c0.5,2.8-1.7,4.2-5,6c-4.9,2.6-9.5,5.9-13.7,9.5c-5.1,4.4-9.8,9.2-14.4,14.3
			c-7.9,8.8-15.7,17.7-21.5,28.1C-307.5,254.3-307.6,255.3-308,256.9z M-319.6,253.4c0.5,0.2,0.9,0.3,1.4,0.6
			c0.6-0.9,1.2-1.7,1.7-2.6c0.9-1.8,1.2-4.1,2.5-5.7c5.4-7.1,11-14.3,16.9-21.2c4.8-5.5,10.2-10.7,15.2-16.1c1-1,1.7-2.3,2.9-4.2
			c-1.6,0.3-2,0.3-2.6,0.5c-11.9,3.5-23.6,7.1-35.6,10.4c-2.9,0.8-3.3,2-3.2,4.5c0.3,8.8,0.6,17.7,0.8,26.5
			C-319.5,248.6-319.6,251.1-319.6,253.4z M-628.6,246.9c0.1,0.2,0.3,0.5,0.5,0.7c7.6-1.2,15.3-2.4,22.9-4.1
			c0.7-0.1,0.8-4.1,0.8-6.2c0-0.5-2.3-1.5-3.1-1.1c-4.5,1.8-8.9,3.8-13.4,6c-1.8,0.9-3.6,1.9-5.4,2.9
			C-627.1,245.5-627.8,246.2-628.6,246.9z M-465,255.3c0.5,0.2,0.9,0.3,1.5,0.6c0.9-1.7,2.8-3.7,2.5-5.2c-0.5-2.1-2.9-3.2-5.9-2.8
			C-466.2,250.5-465.5,252.9-465,255.3z"/>
		<path d="M-364.9,300.4c0.1-0.2,0.6-1.1,1.1-2.3c0.7,0.6,1.4,1.1,1.8,1.6c0.3-0.1,0.8-0.1,0.8-0.2c1.6-4.2,5.7-3.8,8.7-4.1
			c3.2-0.3,5.5-2,8.4-2.8c5-1.6,9.7-4.4,14.8-4.8c3.2-0.2,5.7-2.7,7.9-2.1c5.1,1.2,9.5-2.8,15.3-0.8c-1.9,1.6-3.2,3.1-4.8,3.6
			c-4.4,1.6-9.1,2.7-13.6,4c-2.5,0.7-5,0.9-7.5,1.5c-0.5,0.1-1,0.2-1.1,0.6c-1.8,4-5.8,2.5-8.7,3.3c-3.1,0.8-6.2,1-9.2,1.8
			c-0.9,0.2-1.5,1.7-2.4,2.3c-1.4,0.9-2.8,1.7-4.3,2.3c-14.1,5.7-28.5,10.9-42.4,17.1c-9.3,4.2-18.2,9.4-26.8,15
			c-7.1,4.8-13.8,10.3-20,16.2c-6.6,6.1-9.8,14-8.7,23.3c0.7,6,3.8,10.7,7.7,15c6.8,7.9,16.1,12.3,25.1,17
			c9.5,4.9,19.1,9.8,29.1,13.5c10.9,4,22.3,6.4,33.5,9.5c13.2,3.6,26.9,4.2,40.5,4.6c8.1,0.2,16.4-0.1,24.6-0.3
			c5.9-0.2,11.9-0.2,17.8-1c6.4-0.8,12.8-2.5,19.1-3.4c13-1.9,25.6-5.9,38.4-9.2c3.3-0.8,6.3-2.4,9.6-3.5c5.1-1.8,10.3-3.3,15.3-5.3
			c6-2.4,11.9-5.2,17.8-8c9.1-4.2,18.2-8,26.9-12.8c14.1-7.8,27.8-16.3,41.6-24.7c11.8-7.1,22.6-15.3,32.4-25
			c11-11,19-23.9,23.4-38.8c6.3-21.4,9.1-43.1,7-65.4c-0.8-8.9-0.7-18-1.7-26.8c-0.7-5.9-2.1-11.9-4-17.5c-1.4-4.2-3.8-4.5-7.6-2.4
			c-10.9,6.4-16.2,16.5-19.6,28.3c-1.7,5.8-3.6,11.7-6.6,16.9c-5.4,9.4-17,11.4-25.5,4.6c-8.6-6.8-12.6-16-12-27.2
			c0.8-13.6,6.2-25.6,13-37c3.1-5.2,6.8-10,10.6-14.6c1.4-1.6,3.8-2.8,5.8-2.8c1.4,0,3.1,2.3,3.8,4c0.5,0.9-0.1,2.8-0.8,3.8
			c-6.4,7.7-12.6,15.7-16.2,25.1c-2.8,7.2-4.9,14.8-6.3,22.4c-1,5.8,1,11.3,4.4,16.3c2.8,4.1,10.1,5.8,13.7,0
			c2.1-3.4,3.7-7.2,5.3-11c2.8-6.4,4.9-13.2,8.3-19.3c4.4-8.1,10.7-14.7,19.2-18.9c5.3-2.7,12.2-0.7,16,4.5c4,5.5,6.1,12,6.7,18.4
			c1.6,17,2.7,33.9,3.2,50.9c0.2,7.9-1.2,15.8-2.1,23.8c-0.7,5.4-1.5,10.9-2.9,16.2c-5.4,19.6-13.5,37.6-28.4,52
			c-11.4,11-24,20.4-37.7,28.4c-7.6,4.5-14.8,9.6-22.4,13.9c-8.5,4.8-17.1,9.2-25.9,13.4c-12.3,5.8-24.8,11.5-37.6,16.7
			c-9.5,3.8-19.5,6.8-29.2,9.8c-6.9,2.1-13.8,4.3-20.8,5.8c-20.1,4.2-40.4,7.2-61.2,7.4c-16.9,0.1-33.7-0.7-50.3-3.4
			c-17.3-2.8-34.2-7.8-50.1-14.9c-12.8-5.7-25.3-12.1-37.5-19c-9.2-5.2-16.5-12.9-20.7-22.9c-2.9-7.2-3.4-14.6,0.5-22.2
			c4.5-9.2,11.1-16,19.1-22.2c3.7-2.9,7.2-6.2,11.4-8.8c8.9-5.5,17.7-11.3,27.5-15.2c2-0.8,4.3-1.4,6.2-2.4
			c3.5-1.7,6.9-3.8,10.5-5.4c1.2-0.6,3.1,0.1,4.6,0c1,0,2.6-0.1,2.8-0.6c1.9-3.8,5.8-4.2,9.3-5
			C-369.2,300.6-367.4,300.6-364.9,300.4z"/>
		<path d="M-217.6,219.6c1.7-3.2,3.4-6.4,5.2-9.6c4.6-8.1,9.4-16.4,16.2-23c4.8-4.6,9.6-9.1,16.2-11.1c3.6-1.1,6.8-0.2,9.5,2.3
			c4.1,3.6,6.1,8.3,7,13.5c1.8,10,1.4,20.5,6.6,29.5c2.3,3.8,5,7.5,7.9,10.9c1.1,1.2,3.6,1.9,5.4,1.7c4.3-0.6,8.6-1.7,12.9-2.6
			c1.1-0.2,2.3-0.1,3.3-0.2c-0.2,1.1-0.2,2.4-0.8,3.3c-7.2,10.9-21.7,12.3-30.9,0.5c-9.1-11.8-13.7-24.9-14.3-39.7
			c-0.1-2.5-0.8-5-1.4-7.5c-0.5-2-2-2.8-3.7-1.6c-5.1,3.6-10.9,6.8-14.8,11.5c-7.9,9.4-13.4,20.5-17.8,32c-1.8,4.8-2.8,10-4,14.9
			c-0.6,2.5-0.9,5.3-4.1,5.7c-3.1,0.3-5.1-1.7-5.9-4.4c-1.2-4.1-2.1-8.3-2.7-12.4c-1.2-8.4-2.3-16.7-3.4-25.2
			c-0.2-1.4-0.7-2.8-1.5-4c-1.1-1.6-1.8-3.2,0.1-4.2c1.6-0.8,3.8-1.6,5.3-1c4.4,1.6,5.5,5.7,6.3,9.7c0.8,3.6,1.4,7.2,2.1,10.9
			C-218.3,219.4-218,219.5-217.6,219.6z"/>
		<path d="M-395.5,215c-4.3,0-10-4.9-10.4-8c-0.2-2,2.4-4.4,4.4-3.5c2.8,1.2,5.5,2.8,7.9,4.6c0.8,0.6,1,2.7,0.6,3.7
			C-393.4,213.2-394.9,214.2-395.5,215z"/>
		<path d="M-270.1,275.1c-1.1,0.6-2.1,1.5-3.3,1.8c-7.6,1.9-15.3,3.7-23,5.7c-0.8,0.2-1.5,0.8-2.1,0.8c-0.9,0-1.7-0.5-2.6-0.7
			c0.1-0.5,0.1-0.8,0.2-1.2c1.1-0.2,2.4-0.7,3.4-0.5c1.7,0.5,2.7,0.3,3.4-1.4c0.2-0.5,1.1-0.9,1.8-1c5.7-0.9,11.2-1.6,16.9-2.6
			c1.6-0.3,2.9-1.6,4.3-2.4C-270.7,274.1-270.5,274.6-270.1,275.1z"/>
		<path fill="#FFFFFF" d="M-319.6,253.4c0-2.4,0-4.8,0-7.2c-0.2-8.8-0.3-17.7-0.8-26.5c-0.1-2.5,0.2-3.7,3.2-4.5
			c12-3.2,23.8-6.9,35.6-10.4c0.5-0.1,1-0.2,2.6-0.5c-1.4,1.9-2,3.2-2.9,4.2c-5.1,5.4-10.4,10.5-15.2,16.1
			c-5.9,6.8-11.4,14-16.9,21.2c-1.2,1.6-1.6,3.7-2.5,5.7c-0.5,0.9-1.1,1.7-1.7,2.6C-318.7,253.8-319.1,253.6-319.6,253.4z"/>
		<path fill="#FFFFFF" d="M-628.6,246.9c0.8-0.6,1.5-1.2,2.4-1.8c1.8-1,3.5-2.1,5.4-2.9c4.4-2,8.8-4.2,13.4-6
			c0.8-0.3,3.1,0.7,3.1,1.1c0.1,2.1,0,6-0.8,6.2c-7.6,1.7-15.2,2.8-22.9,4.1C-628.2,247.3-628.3,247.1-628.6,246.9z"/>
		<path fill="#FFFFFF" d="M-465,255.3c-0.7-2.4-1.2-4.8-1.9-7.4c2.9-0.3,5.3,0.7,5.9,2.8c0.3,1.5-1.6,3.4-2.5,5.2
			C-463.9,255.7-464.4,255.5-465,255.3z"/>
	</g>
</g>
<g id="HdI0MX_1_">
	<g>
		<path fill="#FFFFFF" d="M98.5,538.1c0-159.3,0-318.6,0-477.9c222,0,444,0,666.1,0c0,159.3,0,318.6,0,477.9
			C542.6,538.1,320.6,538.1,98.5,538.1z M311,375c0,4.5,0,6.9,0,9.4c0.3,12.9,1.3,25.6,13.7,33.6c5,3.1,4.3,5.8,1.7,10.1
			c-10.4,17.4-20.7,34.9-26.6,54.6c-3.8,12.6-4.6,25.1,1,37.7c5.8,12.7,18.7,18.4,31.4,12.7c15.2-6.6,27-17.4,33.4-32.6
			c5.8-13.4,10.9-27.3,15.2-41.2c9.3-29.6,14.2-60.2,18.7-91c0.5-3.8,2.5-8.3,5.1-10.9c15.2-14.1,30.9-27.8,46.6-41.4
			c4.8-4.1,10.1-7.4,16-11.9c0.8,3.6,1.7,6.1,2.2,8.8c4.1,20.8,12.1,39.7,27.1,55.2c8.3,8.6,18.2,14.1,30.4,12.9c5-0.5,8.1,1,10.9,5
			c8.3,11.4,19.8,17.7,33.6,20.3c18.9,3.6,37.7,2.6,56.2-0.7c18.4-3.3,36.6-7.3,54.8-11.9c17.7-4.5,35.2-9.9,52.8-14.9
			c5.6-1.7,9.1-5.1,9.3-11.7c-2.2,1.5-4.1,3-6.5,4.6c-0.3-1.2-0.7-2.5-1.2-4.1c-0.8,1-1.5,1.3-1.3,1.8c0.2,5.1-1.3,5-5.3,2.5
			c-2.5-1.5-6.3-2.2-9.1-1.7c-13.9,2.5-27.8,5.3-41.5,8.1c-28.1,5.8-56.1,11.2-85,11.1c-13.4-0.2-26.8-1.7-38.9-8.4
			c-1.7-0.8-3.6-2.8-3.6-4.1s2.2-3,3.8-4c10.8-6.3,21.7-12.2,32.4-18.7c28.6-17,52.9-38.7,68.6-68.6c5-9.4,9.3-19.5,9.1-30.4
			c0-9.9-3.8-21.2-13.7-22.7c-6.5-0.8-13.6-0.3-19.7,1.8c-8.1,2.8-15.7,7.4-23.2,11.7c-20,11.6-37.4,26.1-49.1,46.6
			c-5.1,9.1-10.6,18.2-16.2,27c-7.6,11.7-12.6,24.5-13.6,38.5c-0.3,3.8-2,5.1-5.5,5.1c-7.1,0.2-13.2-2-18.5-6.6
			c-17.7-15.7-24.3-36.1-23.2-59.1c0.2-2.6,2-6.1,4.1-7.8c9.8-8.1,20.2-15.4,29.9-23.3c13.4-10.9,26.6-21.8,39.5-33.2
			c22.5-20,40.5-43.8,56.7-69c9.4-14.7,17.5-30.4,26-45.8c5.8-10.4,7.1-21,0.3-31.8c-2.8-4.5-6.5-6.5-11.2-5.3
			c-3.1,0.7-6.6,1.5-9.1,3.3c-11.4,7.9-23,15.7-33.6,24.8c-15.9,13.6-31.6,27.3-46,42.2c-16.4,17-28,37.7-40,57.9
			c-12.6,20.7-23.2,42.2-28.8,66c-1.2,5.3-4,9.1-8.4,11.9c-22.8,14.6-42.7,33.1-63,50.6c-2.5,2.2-4.5,2.8-7.8,2.2
			c-2.2-0.3-5.5,1-6.9,2.6c-8.1,9.3-15.7,18.9-23.7,28.3c-5.1,6.1-9.9,12.4-15.7,17.9c-5.3,5.1-11.4,9.1-17.9,14.1
			c-4.1-7.6-3.8-14.6-2.2-21.2c2.5-9.6,5.6-19,8.9-28.5c2-6,0.2-10.8-3.6-15.1c-3-3.5-8.3-3.1-11.1-0.2c-6.3,6.9-12.1,14.4-19,20.7
			c-7.8,7.3-16,14.2-24.8,20.2c-3.1,2.2-8.9,2.5-12.6,1.2c-4.6-1.7-3.8-7.1-2.5-11.1c2-6.5,4.1-12.7,6.9-18.9
			c5.5-11.7,11.4-23.3,5-36.7c-1.7-3.3,1.2-4.5,3.5-5.6c15.7-8.3,31.8-15.9,47-24.8c12.1-6.9,23.5-15.1,34.9-23
			c6.5-4.6,6.6-11.6,1-17.2c-3.8-3.8-6.5-3.5-9.9,0.5c-2.6,3-5.3,6-8.4,8.3c-5.6,4.3-11.4,8.4-17.5,11.7
			c-19.8,10.9-39.7,21.5-59.7,32.1c-2.3,1.2-5,1.7-7.4,2.5c-0.3-0.5-0.5-1.2-0.8-1.7c4.8-5,9.3-10.4,14.2-15.1
			c16.5-15.2,32.6-31.1,45.5-49.5c8.9-12.7,16.5-26.3,23.8-40c7.4-13.9,8.8-28.6,1.7-43.3c-5.1-10.4-12.9-17.5-24.5-19.2
			c-16.4-2.5-31.3,3.5-45.5,10.3c-15.1,7.1-29.3,15.9-43.2,25c-13.6,8.9-26.6,18.9-39.5,28.6c-7.9,6-15.5,12.4-22.8,19.2
			c-4.6,4.5-7.6,10.4-6.5,17.2c0.3,2.5,2.8,4.8,4.8,6.6c0.5,0.3,3.6-1.2,4.6-2.5c16.5-23.2,39.9-38.9,62.5-55.1
			c12.7-9.1,26.8-16.5,40.7-23.8c13.1-6.8,26.8-12.4,41.8-12.1c15.1,0.2,23.8,11.2,19.2,25.6c-3.8,11.4-9.6,22-14.9,32.9
			c-8.8,17.9-22.3,32.4-35.7,47c-11.2,12.2-23,24.2-35.2,35.4c-10.1,9.4-20.8,17.9-31.4,26.8c-3,2.5-6.3,4.8-8.8,7.8
			c-2.5,2.8-3.6,6.6-6.1,9.3c-15.2,16-30.3,32.3-46.3,47.5c-15.1,14.4-24,34.9-44,44.5c-3,1.5-4.6,5.5-6.8,8.3
			c-4,5.1-3,11.9,2.2,16.5c3.3,3,6.9,2,12.1-3.1c0.3-0.3,0.5-0.5,0.7-0.8c14.6-17.2,28.5-34.7,43.7-51.3
			c15.7-17.5,32.3-33.7,48.6-50.1c3.1-3.1,6.6-6.5,10.8-8.1c11.2-4.8,23-8.9,34.6-13.2c1.7-0.7,4.8-1,5.3-0.2c1,1.7,1.3,4.3,0.7,6.1
			c-2.2,6.1-4.5,12.2-7.3,18.2c-5.6,11.7-9.3,23.7-6.6,36.7c2.3,11.4,14.2,23,24.6,21c7.4-1.3,14.6-6.1,21-10.3
			C299.5,385.6,304.4,380.4,311,375z"/>
		<path d="M311,375c-6.6,5.5-11.6,10.6-17.5,14.2c-6.6,4.1-13.7,8.9-21,10.3c-10.3,2-22.3-9.6-24.6-21c-2.6-13.2,1-25,6.6-36.7
			c2.8-6,5.1-12.1,7.3-18.2c0.7-1.8,0.3-4.5-0.7-6.1c-0.5-0.8-3.6-0.3-5.3,0.2c-11.6,4.3-23.2,8.4-34.6,13.2c-4,1.7-7.6,5-10.8,8.1
			c-16.4,16.5-32.9,32.8-48.6,49.8c-15.1,16.5-29.1,34.1-43.7,51.3c-0.2,0.3-0.5,0.5-0.7,0.8c-5.3,5.1-8.9,6.1-12.1,3.1
			c-5.1-4.6-6-11.4-2.2-16.5c2.2-2.8,4-6.9,6.8-8.3c20-9.6,28.9-30.1,44-44.5c16-15.2,31.1-31.4,46.3-47.5c2.5-2.6,3.8-6.5,6.1-9.3
			c2.5-3,5.8-5.1,8.8-7.8c10.4-8.9,21.3-17.4,31.4-26.8c12.1-11.4,24-23.2,35.2-35.4c13.2-14.6,26.8-28.9,35.7-47
			c5.3-10.8,11.1-21.5,14.9-32.9c4.6-14.4-4.1-25.5-19.2-25.6c-15.2-0.2-28.9,5.3-41.8,12.1c-13.9,7.3-28,14.7-40.7,23.8
			c-22.5,16.2-45.8,31.9-62.5,55.1c-1,1.3-4.1,3-4.6,2.5c-2-1.8-4.3-4.1-4.8-6.6c-1-6.8,1.8-12.7,6.5-17.2
			c7.1-6.8,14.9-13.2,22.8-19.2c12.9-9.8,26-19.8,39.5-28.6c13.9-9.1,28.3-17.9,43.2-25c14.1-6.8,29.1-12.7,45.5-10.3
			c11.7,1.7,19.5,8.8,24.5,19.2c7.1,14.7,5.8,29.4-1.7,43.3c-7.3,13.7-14.9,27.3-23.8,40c-12.9,18.5-28.9,34.2-45.5,49.5
			c-5.1,4.6-9.6,10.1-14.2,15.1c0.3,0.5,0.5,1.2,0.8,1.7c2.5-0.8,5.3-1.2,7.4-2.5c20-10.6,40-21.2,59.7-32.1
			c6.1-3.5,11.9-7.6,17.5-11.7c3.1-2.3,5.8-5.3,8.4-8.3c3.5-4,6.3-4.3,9.9-0.5c5.6,5.6,5.6,12.6-1,17.2c-11.4,7.9-22.8,16-34.9,23
			c-15.4,8.8-31.4,16.5-47,24.8c-2.3,1.2-5.1,2.3-3.5,5.6c6.5,13.4,0.5,25-5,36.7c-2.8,6-5,12.4-6.9,18.9c-1.3,4-2.2,9.4,2.5,11.1
			c3.6,1.3,9.6,1,12.6-1.2c8.8-6,17-12.9,24.8-20.2c6.8-6.5,12.7-13.7,19-20.7c2.8-3.1,8.1-3.3,11.1,0.2c3.6,4.3,5.6,9.1,3.6,15.1
			c-3.1,9.4-6.3,18.9-8.9,28.5c-1.8,6.6-2,13.6,2.2,21.2c6.5-5,12.6-9.1,17.9-14.1c5.6-5.5,10.6-11.7,15.7-17.9
			c7.9-9.4,15.5-19,23.7-28.3c1.5-1.7,4.8-3.1,6.9-2.6c3.3,0.5,5.3-0.2,7.8-2.2c20.5-17.5,40.2-36.1,63-50.6c4.6-3,7.3-6.8,8.4-11.9
			c5.6-23.7,16.2-45.2,28.8-66c12.2-20.2,23.7-40.9,40-57.9c14.4-14.9,30.1-28.8,46-42.2c10.6-8.9,22.2-16.7,33.6-24.8
			c2.5-1.8,6-2.6,9.1-3.3c5-1,8.4,0.8,11.2,5.3c6.8,10.8,5.6,21.3-0.3,31.8c-8.6,15.4-16.5,31.1-26,45.8c-16.2,25.1-34.2,49-56.7,69
			c-12.9,11.4-26.1,22.3-39.5,33.2c-9.8,7.9-20.2,15.4-29.9,23.3c-2.2,1.8-4,5.1-4.1,7.8c-1,23,5.5,43.3,23.2,59.1
			c5.3,4.6,11.4,6.8,18.5,6.6c3.5-0.2,5.1-1.5,5.5-5.1c1-14.1,6-26.6,13.6-38.5c5.6-8.8,11.1-17.9,16.2-27
			c11.7-20.5,29.1-34.9,49.1-46.6c7.4-4.3,15.1-8.9,23.2-11.7c6.1-2.2,13.2-2.6,19.7-1.8c9.9,1.5,13.7,12.7,13.7,22.7
			c0,10.9-4.1,21-9.1,30.4c-15.9,29.9-40,51.4-68.6,68.6c-10.8,6.5-21.7,12.4-32.4,18.7c-1.7,1-3.8,2.6-3.8,4c0,1.5,2,3.3,3.6,4.1
			c12.1,6.8,25.5,8.3,38.9,8.4c28.8,0.2,56.9-5.3,85-11.1c13.9-2.8,27.6-5.8,41.5-8.1c3-0.5,6.6,0.2,9.1,1.7c4,2.5,5.5,2.6,5.3-2.5
			c0-0.3,0.7-0.8,1.3-1.8c0.5,1.8,0.8,3,1.2,4.1c2.3-1.7,4.5-3.1,6.5-4.6c-0.2,6.8-3.8,10.3-9.3,11.7c-17.5,5-35.1,10.4-52.8,14.9
			c-18,4.5-36.4,8.6-54.8,11.9c-18.7,3.3-37.4,4.3-56.2,0.7c-13.7-2.6-25.3-8.9-33.6-20.3c-2.8-3.8-6-5.3-10.9-5
			c-12.2,1.2-22.2-4.5-30.4-12.9c-15.1-15.4-23-34.4-27.1-55.2c-0.5-2.5-1.2-5.1-2.2-8.8c-6,4.5-11.4,7.9-16,11.9
			c-15.7,13.6-31.4,27.3-46.6,41.4c-2.8,2.5-4.6,6.9-5.1,10.9c-4.5,30.8-9.4,61.4-18.7,91c-4.5,13.9-9.4,27.8-15.2,41.2
			c-6.6,15.2-18.2,26-33.4,32.6c-12.7,5.5-25.6,0-31.4-12.7c-5.8-12.6-5-25.1-1-37.7c6-19.5,16.2-37.2,26.6-54.6
			c2.6-4.3,3.3-6.9-1.7-10.1c-12.4-7.8-13.6-20.5-13.7-33.6C311,381.9,311,379.4,311,375z M491.8,263.5c0.5,0.3,1.2,0.7,1.7,1
			c1.7-1.2,3.5-2.3,5.1-3.6c9.9-8.1,20-16.2,29.8-24.5c8.3-7.1,16.4-14.2,24.3-21.8c16.9-16,31.9-33.7,44.7-53.1
			c10.6-15.7,19.5-32.6,28.9-49.1c2.2-3.6,2.6-8.1,4-12.2c-0.5-0.3-1.2-0.7-1.7-1c-2.8,1.2-5.8,2-8.1,3.8
			c-21.5,16-43,31.9-61.7,51.4c-15.2,15.9-28.8,32.9-39,52.6c-8.6,16.5-17.5,32.9-26.1,49.5C492.7,258.7,492.5,261.2,491.8,263.5z
			 M547.6,356.4c4.1-1.7,6.9-2.3,9.4-3.6c13.2-7.6,27-14.7,39.7-23.5c18.5-12.7,34.6-28.1,45.8-47.8c5.1-8.8,10.1-17.7,9.6-28.5
			c-0.2-3.1-1.2-5-4.5-4.6c-4,0.5-8.4,0.2-11.6,2.2c-12.7,7.3-26.1,13.9-37.1,23.3c-23.7,20-37.4,47.1-50,74.8
			C547.9,350.5,548.1,352.6,547.6,356.4z M382.7,384.2c-0.5-0.2-1-0.3-1.7-0.5c-1.2,1.2-2.3,2.2-3.3,3.5
			c-10.3,13.4-20.5,26.6-30.6,40.2c-14.4,19.2-25.5,40-32.6,62.9c-2,6.5-2.8,13.6-2.3,20.3c0.5,7.9,7.4,10.6,14.2,6.6
			c13.7-7.8,23.5-19,29.3-33.7c11.6-28.6,20.2-58.1,25.6-88.5C382,391.3,382.2,387.7,382.7,384.2z"/>
		<path fill="#FFFFFF" d="M491.8,263.5c0.7-2.3,0.8-4.8,2-6.9c8.6-16.5,17.5-32.9,26.1-49.5c10.3-19.7,23.8-36.7,39-52.6
			c18.5-19.5,40.2-35.4,61.7-51.4c2.3-1.8,5.5-2.5,8.1-3.8c0.5,0.3,1.2,0.7,1.7,1c-1.3,4.1-2,8.6-4,12.2
			c-9.4,16.5-18.4,33.2-28.9,49.1c-12.9,19.4-28,37.1-44.7,53.1c-7.8,7.4-16,14.7-24.3,21.8c-9.8,8.3-19.8,16.4-29.8,24.5
			c-1.7,1.3-3.5,2.3-5.1,3.6C493,264.1,492.5,263.8,491.8,263.5z"/>
		<path fill="#FFFFFF" d="M547.6,356.4c0.7-3.8,0.5-6,1.3-7.8c12.7-27.6,26.5-54.8,50-74.8c11.1-9.4,24.5-16,37.1-23.3
			c3.1-1.8,7.8-1.7,11.6-2.2c3.1-0.3,4.3,1.5,4.5,4.6c0.5,10.8-4.5,19.8-9.6,28.5c-11.4,19.5-27.5,35.1-45.8,47.8
			c-12.6,8.6-26.3,15.7-39.7,23.5C554.5,354.1,551.7,354.8,547.6,356.4z"/>
		<path fill="#FFFFFF" d="M382.7,384.2c-0.5,3.5-0.7,6.9-1.3,10.4c-5.5,30.4-14.2,59.9-25.6,88.5c-6,14.7-15.5,26-29.3,33.7
			c-6.9,4-13.9,1.3-14.2-6.6c-0.3-6.8,0.3-13.9,2.3-20.3c7.3-22.8,18.4-43.7,32.6-62.9c10.1-13.4,20.3-26.8,30.6-40.2
			c1-1.3,2.2-2.3,3.3-3.5C381.5,383.9,382.2,384.1,382.7,384.2z"/>
	</g>
</g>
</svg>
