<?xml version="1.0" encoding="UTF-8" standalone="no"?>
<svg width="71px" height="62px" viewBox="0 0 71 62" version="1.1" xmlns="http://www.w3.org/2000/svg" xmlns:xlink="http://www.w3.org/1999/xlink" xmlns:sketch="http://www.bohemiancoding.com/sketch/ns">
    <!-- Generator: Sketch 3.3.2 (12043) - http://www.bohemiancoding.com/sketch -->
    <title>Imported Layers</title>
    <desc>Created with Sketch.</desc>
    <defs></defs>
    <g id="Page-1" stroke="none" stroke-width="1" fill="none" fill-rule="evenodd" sketch:type="MSPage">
        <g id="Imported-Layers" sketch:type="MSLayerGroup">
            <path d="M13.6875,8.53125 L11.8125,8.53125 C11.5535625,8.53125 11.34375,8.3214375 11.34375,8.0625 L11.34375,3.375 C11.34375,2.5995 11.9745,1.96875 12.75,1.96875 L13.6875,1.96875 C13.9464375,1.96875 14.15625,2.1785625 14.15625,2.4375 L14.15625,8.0625 C14.15625,8.3214375 13.9464375,8.53125 13.6875,8.53125 L13.6875,8.53125 Z M12.28125,7.59375 L13.21875,7.59375 L13.21875,2.90625 L12.75,2.90625 C12.491625,2.90625 12.28125,3.1164375 12.28125,3.375 L12.28125,7.59375 L12.28125,7.59375 Z" id="Fill-1" fill="#F16548" sketch:type="MSShapeGroup"></path>
            <path d="M15.5625,8.53125 L13.6875,8.53125 C13.4285625,8.53125 13.21875,8.3214375 13.21875,8.0625 L13.21875,2.4375 C13.21875,2.1785625 13.4285625,1.96875 13.6875,1.96875 L14.625,1.96875 C15.4005,1.96875 16.03125,2.5995 16.03125,3.375 L16.03125,8.0625 C16.03125,8.3214375 15.8214375,8.53125 15.5625,8.53125 L15.5625,8.53125 Z M14.15625,7.59375 L15.09375,7.59375 L15.09375,3.375 C15.09375,3.1164375 14.883375,2.90625 14.625,2.90625 L14.15625,2.90625 L14.15625,7.59375 L14.15625,7.59375 Z" id="Fill-2" fill="#DD4D36" sketch:type="MSShapeGroup"></path>
            <path d="M23.0625,8.53125 L21.1875,8.53125 C20.9285625,8.53125 20.71875,8.3214375 20.71875,8.0625 L20.71875,0.5625 C20.71875,0.3035625 20.9285625,0.09375 21.1875,0.09375 L23.0625,0.09375 C23.3214375,0.09375 23.53125,0.3035625 23.53125,0.5625 L23.53125,8.0625 C23.53125,8.3214375 23.3214375,8.53125 23.0625,8.53125 L23.0625,8.53125 Z M21.65625,7.59375 L22.59375,7.59375 L22.59375,1.03125 L21.65625,1.03125 L21.65625,7.59375 Z" id="Fill-3" fill="#DD4D36" sketch:type="MSShapeGroup"></path>
            <path d="M21.1875,8.53125 L17.4375,8.53125 C17.1785625,8.53125 16.96875,8.3214375 16.96875,8.0625 L16.96875,0.5625 C16.96875,0.3035625 17.1785625,0.09375 17.4375,0.09375 L21.1875,0.09375 C21.4464375,0.09375 21.65625,0.3035625 21.65625,0.5625 L21.65625,8.0625 C21.65625,8.3214375 21.4464375,8.53125 21.1875,8.53125 L21.1875,8.53125 Z M17.90625,7.59375 L20.71875,7.59375 L20.71875,1.03125 L17.90625,1.03125 L17.90625,7.59375 Z" id="Fill-4" fill="#F16548" sketch:type="MSShapeGroup"></path>
            <path d="M8.0625,55.40625 C7.8035625,55.40625 7.59375,55.1964375 7.59375,54.9375 L7.59375,38.0625 C7.59375,37.8035625 7.8035625,37.59375 8.0625,37.59375 C8.3214375,37.59375 8.53125,37.8035625 8.53125,38.0625 L8.53125,54.9375 C8.53125,55.1964375 8.3214375,55.40625 8.0625,55.40625" id="Fill-5" fill="#F16548" sketch:type="MSShapeGroup"></path>
            <path d="M47.4375,61.03125 L23.0625,61.03125 C22.8035625,61.03125 22.59375,60.8214375 22.59375,60.5625 C22.59375,60.3035625 22.8035625,60.09375 23.0625,60.09375 L46.96875,60.09375 L46.96875,12.28125 L8.53125,12.28125 L8.53125,30.5625 C8.53125,30.8214375 8.3214375,31.03125 8.0625,31.03125 C7.8035625,31.03125 7.59375,30.8214375 7.59375,30.5625 L7.59375,11.8125 C7.59375,11.5535625 7.8035625,11.34375 8.0625,11.34375 L47.4375,11.34375 C47.6964375,11.34375 47.90625,11.5535625 47.90625,11.8125 L47.90625,60.5625 C47.90625,60.8214375 47.6964375,61.03125 47.4375,61.03125" id="Fill-6" fill="#F16548" sketch:type="MSShapeGroup"></path>
            <path d="M43.6875,51.65625 L26.8125,51.65625 C26.5535625,51.65625 26.34375,51.4464375 26.34375,51.1875 C26.34375,50.9285625 26.5535625,50.71875 26.8125,50.71875 L43.21875,50.71875 L43.21875,42.28125 L27.28125,42.28125 L27.28125,49.3125 C27.28125,49.5714375 27.0714375,49.78125 26.8125,49.78125 C26.5535625,49.78125 26.34375,49.5714375 26.34375,49.3125 L26.34375,41.8125 C26.34375,41.5535625 26.5535625,41.34375 26.8125,41.34375 L43.6875,41.34375 C43.9464375,41.34375 44.15625,41.5535625 44.15625,41.8125 L44.15625,51.1875 C44.15625,51.4464375 43.9464375,51.65625 43.6875,51.65625" id="Fill-7" fill="#EF9178" sketch:type="MSShapeGroup"></path>
            <path d="M43.6875,53.53125 L24.9375,53.53125 C24.6785625,53.53125 24.46875,53.3214375 24.46875,53.0625 L24.46875,51.1875 C24.46875,50.9285625 24.6785625,50.71875 24.9375,50.71875 L43.6875,50.71875 C43.9464375,50.71875 44.15625,50.9285625 44.15625,51.1875 L44.15625,53.0625 C44.15625,53.3214375 43.9464375,53.53125 43.6875,53.53125 L43.6875,53.53125 Z M25.40625,52.59375 L43.21875,52.59375 L43.21875,51.65625 L25.40625,51.65625 L25.40625,52.59375 Z" id="Fill-8" fill="#F16548" sketch:type="MSShapeGroup"></path>
            <path d="M28.6875,51.65625 L24.9375,51.65625 C24.6785625,51.65625 24.46875,51.4464375 24.46875,51.1875 C24.46875,49.8950625 25.5200625,48.84375 26.8125,48.84375 C28.1049375,48.84375 29.15625,49.8950625 29.15625,51.1875 C29.15625,51.4464375 28.9464375,51.65625 28.6875,51.65625 L28.6875,51.65625 Z M25.4865,50.71875 L28.1385,50.71875 C27.945,50.173125 27.4235625,49.78125 26.8125,49.78125 C26.2014375,49.78125 25.68,50.173125 25.4865,50.71875 L25.4865,50.71875 Z" id="Fill-9" fill="#F16548" sketch:type="MSShapeGroup"></path>
            <path d="M36.1875,51.65625 L28.6875,51.65625 C28.4285625,51.65625 28.21875,51.4464375 28.21875,51.1875 C28.21875,48.861375 30.1111875,46.96875 32.4375,46.96875 C34.7638125,46.96875 36.65625,48.861375 36.65625,51.1875 C36.65625,51.4464375 36.4464375,51.65625 36.1875,51.65625 L36.1875,51.65625 Z M29.189625,50.71875 L35.685375,50.71875 C35.4571875,49.130625 34.0876875,47.90625 32.4375,47.90625 C30.7873125,47.90625 29.4178125,49.130625 29.189625,50.71875 L29.189625,50.71875 Z" id="Fill-10" fill="#F16548" sketch:type="MSShapeGroup"></path>
            <path d="M68.0625,61.03125 L47.4375,61.03125 C47.1785625,61.03125 46.96875,60.8214375 46.96875,60.5625 L46.96875,11.8125 C46.96875,11.5535625 47.1785625,11.34375 47.4375,11.34375 L68.0625,11.34375 C68.3214375,11.34375 68.53125,11.5535625 68.53125,11.8125 L68.53125,60.5625 C68.53125,60.8214375 68.3214375,61.03125 68.0625,61.03125 L68.0625,61.03125 Z M47.90625,60.09375 L67.59375,60.09375 L67.59375,12.28125 L47.90625,12.28125 L47.90625,60.09375 Z" id="Fill-11" fill="#DD4D36" sketch:type="MSShapeGroup"></path>
            <path d="M21.1875,55.40625 L11.8125,55.40625 C11.5535625,55.40625 11.34375,55.1964375 11.34375,54.9375 L11.34375,41.8125 C11.34375,41.5535625 11.5535625,41.34375 11.8125,41.34375 L21.1875,41.34375 C21.4464375,41.34375 21.65625,41.5535625 21.65625,41.8125 L21.65625,54.9375 C21.65625,55.1964375 21.4464375,55.40625 21.1875,55.40625 L21.1875,55.40625 Z M12.28125,54.46875 L20.71875,54.46875 L20.71875,42.28125 L12.28125,42.28125 L12.28125,54.46875 Z" id="Fill-12" fill="#F16548" sketch:type="MSShapeGroup"></path>
            <path d="M64.3125,25.40625 L51.1875,25.40625 C50.9285625,25.40625 50.71875,25.1964375 50.71875,24.9375 L50.71875,15.5625 C50.71875,15.3035625 50.9285625,15.09375 51.1875,15.09375 L64.3125,15.09375 C64.5714375,15.09375 64.78125,15.3035625 64.78125,15.5625 L64.78125,24.9375 C64.78125,25.1964375 64.5714375,25.40625 64.3125,25.40625 L64.3125,25.40625 Z M51.65625,24.46875 L63.84375,24.46875 L63.84375,16.03125 L51.65625,16.03125 L51.65625,24.46875 Z" id="Fill-13" fill="#F16548" sketch:type="MSShapeGroup"></path>
            <path d="M47.4375,12.28125 L7.125,12.28125 C6.3495,12.28125 5.71875,11.6505 5.71875,10.875 L5.71875,9 C5.71875,8.2245 6.3495,7.59375 7.125,7.59375 L47.4375,7.59375 C47.6964375,7.59375 47.90625,7.8035625 47.90625,8.0625 L47.90625,11.8125 C47.90625,12.0714375 47.6964375,12.28125 47.4375,12.28125 L47.4375,12.28125 Z M7.125,8.53125 C6.866625,8.53125 6.65625,8.7414375 6.65625,9 L6.65625,10.875 C6.65625,11.1335625 6.866625,11.34375 7.125,11.34375 L46.96875,11.34375 L46.96875,8.53125 L7.125,8.53125 L7.125,8.53125 Z" id="Fill-14" fill="#F16548" sketch:type="MSShapeGroup"></path>
            <path d="M69,12.28125 L47.4375,12.28125 C47.1785625,12.28125 46.96875,12.0714375 46.96875,11.8125 L46.96875,8.0625 C46.96875,7.8035625 47.1785625,7.59375 47.4375,7.59375 L69,7.59375 C69.7755,7.59375 70.40625,8.2245 70.40625,9 L70.40625,10.875 C70.40625,11.6505 69.7755,12.28125 69,12.28125 L69,12.28125 Z M47.90625,11.34375 L69,11.34375 C69.258375,11.34375 69.46875,11.1335625 69.46875,10.875 L69.46875,9 C69.46875,8.7414375 69.258375,8.53125 69,8.53125 L47.90625,8.53125 L47.90625,11.34375 L47.90625,11.34375 Z" id="Fill-15" fill="#DD4D36" sketch:type="MSShapeGroup"></path>
            <path d="M64.3125,27.28125 L51.1875,27.28125 C50.9285625,27.28125 50.71875,27.0714375 50.71875,26.8125 L50.71875,24.9375 C50.71875,24.6785625 50.9285625,24.46875 51.1875,24.46875 L64.3125,24.46875 C64.5714375,24.46875 64.78125,24.6785625 64.78125,24.9375 L64.78125,26.8125 C64.78125,27.0714375 64.5714375,27.28125 64.3125,27.28125 L64.3125,27.28125 Z M51.65625,26.34375 L63.84375,26.34375 L63.84375,25.40625 L51.65625,25.40625 L51.65625,26.34375 Z" id="Fill-16" fill="#DD4D36" sketch:type="MSShapeGroup"></path>
            <path d="M64.3125,38.53125 L51.1875,38.53125 C50.9285625,38.53125 50.71875,38.3214375 50.71875,38.0625 L50.71875,28.6875 C50.71875,28.4285625 50.9285625,28.21875 51.1875,28.21875 L64.3125,28.21875 C64.5714375,28.21875 64.78125,28.4285625 64.78125,28.6875 L64.78125,38.0625 C64.78125,38.3214375 64.5714375,38.53125 64.3125,38.53125 L64.3125,38.53125 Z M51.65625,37.59375 L63.84375,37.59375 L63.84375,29.15625 L51.65625,29.15625 L51.65625,37.59375 Z" id="Fill-17" fill="#F16548" sketch:type="MSShapeGroup"></path>
            <path d="M64.3125,40.40625 L51.1875,40.40625 C50.9285625,40.40625 50.71875,40.1964375 50.71875,39.9375 L50.71875,38.0625 C50.71875,37.8035625 50.9285625,37.59375 51.1875,37.59375 L64.3125,37.59375 C64.5714375,37.59375 64.78125,37.8035625 64.78125,38.0625 L64.78125,39.9375 C64.78125,40.1964375 64.5714375,40.40625 64.3125,40.40625 L64.3125,40.40625 Z M51.65625,39.46875 L63.84375,39.46875 L63.84375,38.53125 L51.65625,38.53125 L51.65625,39.46875 Z" id="Fill-18" fill="#DD4D36" sketch:type="MSShapeGroup"></path>
            <path d="M64.3125,51.65625 L51.1875,51.65625 C50.9285625,51.65625 50.71875,51.4464375 50.71875,51.1875 L50.71875,41.8125 C50.71875,41.5535625 50.9285625,41.34375 51.1875,41.34375 L64.3125,41.34375 C64.5714375,41.34375 64.78125,41.5535625 64.78125,41.8125 L64.78125,51.1875 C64.78125,51.4464375 64.5714375,51.65625 64.3125,51.65625 L64.3125,51.65625 Z M51.65625,50.71875 L63.84375,50.71875 L63.84375,42.28125 L51.65625,42.28125 L51.65625,50.71875 Z" id="Fill-19" fill="#F16548" sketch:type="MSShapeGroup"></path>
            <path d="M64.3125,53.53125 L51.1875,53.53125 C50.9285625,53.53125 50.71875,53.3214375 50.71875,53.0625 L50.71875,51.1875 C50.71875,50.9285625 50.9285625,50.71875 51.1875,50.71875 L64.3125,50.71875 C64.5714375,50.71875 64.78125,50.9285625 64.78125,51.1875 L64.78125,53.0625 C64.78125,53.3214375 64.5714375,53.53125 64.3125,53.53125 L64.3125,53.53125 Z M51.65625,52.59375 L63.84375,52.59375 L63.84375,51.65625 L51.65625,51.65625 L51.65625,52.59375 Z" id="Fill-20" fill="#DD4D36" sketch:type="MSShapeGroup"></path>
            <path d="M19.3125,49.78125 L13.6875,49.78125 C13.4285625,49.78125 13.21875,49.5714375 13.21875,49.3125 L13.21875,43.6875 C13.21875,43.4285625 13.4285625,43.21875 13.6875,43.21875 L19.3125,43.21875 C19.5714375,43.21875 19.78125,43.4285625 19.78125,43.6875 L19.78125,49.3125 C19.78125,49.5714375 19.5714375,49.78125 19.3125,49.78125 L19.3125,49.78125 Z M14.15625,48.84375 L18.84375,48.84375 L18.84375,44.15625 L14.15625,44.15625 L14.15625,48.84375 Z" id="Fill-21" fill="#EF9178" sketch:type="MSShapeGroup"></path>
            <path d="M43.6875,25.40625 L30.5625,25.40625 C30.3035625,25.40625 30.09375,25.1964375 30.09375,24.9375 L30.09375,15.5625 C30.09375,15.3035625 30.3035625,15.09375 30.5625,15.09375 L43.6875,15.09375 C43.9464375,15.09375 44.15625,15.3035625 44.15625,15.5625 L44.15625,24.9375 C44.15625,25.1964375 43.9464375,25.40625 43.6875,25.40625 L43.6875,25.40625 Z M31.03125,24.46875 L43.21875,24.46875 L43.21875,16.03125 L31.03125,16.03125 L31.03125,24.46875 Z" id="Fill-22" fill="#EF9178" sketch:type="MSShapeGroup"></path>
            <path d="M24.9375,25.40625 L11.8125,25.40625 C11.5535625,25.40625 11.34375,25.1964375 11.34375,24.9375 L11.34375,15.5625 C11.34375,15.3035625 11.5535625,15.09375 11.8125,15.09375 L24.9375,15.09375 C25.1964375,15.09375 25.40625,15.3035625 25.40625,15.5625 L25.40625,24.9375 C25.40625,25.1964375 25.1964375,25.40625 24.9375,25.40625 L24.9375,25.40625 Z M12.28125,24.46875 L24.46875,24.46875 L24.46875,16.03125 L12.28125,16.03125 L12.28125,24.46875 Z" id="Fill-23" fill="#EF9178" sketch:type="MSShapeGroup"></path>
            <path d="M43.6875,27.28125 L28.6875,27.28125 C28.4285625,27.28125 28.21875,27.0714375 28.21875,26.8125 L28.21875,24.9375 C28.21875,24.6785625 28.4285625,24.46875 28.6875,24.46875 L43.6875,24.46875 C43.9464375,24.46875 44.15625,24.6785625 44.15625,24.9375 L44.15625,26.8125 C44.15625,27.0714375 43.9464375,27.28125 43.6875,27.28125 L43.6875,27.28125 Z M29.15625,26.34375 L43.21875,26.34375 L43.21875,25.40625 L29.15625,25.40625 L29.15625,26.34375 Z" id="Fill-24" fill="#F16548" sketch:type="MSShapeGroup"></path>
            <path d="M24.9375,27.28125 L9.9375,27.28125 C9.6785625,27.28125 9.46875,27.0714375 9.46875,26.8125 L9.46875,24.9375 C9.46875,24.6785625 9.6785625,24.46875 9.9375,24.46875 L24.9375,24.46875 C25.1964375,24.46875 25.40625,24.6785625 25.40625,24.9375 L25.40625,26.8125 C25.40625,27.0714375 25.1964375,27.28125 24.9375,27.28125 L24.9375,27.28125 Z M10.40625,26.34375 L24.46875,26.34375 L24.46875,25.40625 L10.40625,25.40625 L10.40625,26.34375 Z" id="Fill-25" fill="#F16548" sketch:type="MSShapeGroup"></path>
            <path d="M18.375,53.53125 C17.5995,53.53125 16.96875,52.9005 16.96875,52.125 C16.96875,51.3495 17.5995,50.71875 18.375,50.71875 C19.1505,50.71875 19.78125,51.3495 19.78125,52.125 C19.78125,52.9005 19.1505,53.53125 18.375,53.53125 L18.375,53.53125 Z M18.375,51.65625 C18.116625,51.65625 17.90625,51.8664375 17.90625,52.125 C17.90625,52.3835625 18.116625,52.59375 18.375,52.59375 C18.633375,52.59375 18.84375,52.3835625 18.84375,52.125 C18.84375,51.8664375 18.633375,51.65625 18.375,51.65625 L18.375,51.65625 Z" id="Fill-26" fill="#F16548" sketch:type="MSShapeGroup"></path>
            <path d="M38.0625,38.53125 L0.5625,38.53125 C0.3849375,38.53125 0.22275,38.4309375 0.14325,38.272125 C0.06375,38.1135 0.081,37.923375 0.1875,37.78125 L5.8125,30.28125 C5.901,30.163125 6.0399375,30.09375 6.1875,30.09375 L43.6875,30.09375 C43.8650625,30.09375 44.0274375,30.1940625 44.10675,30.352875 C44.18625,30.5116875 44.169,30.701625 44.0625,30.84375 L38.4375,38.34375 C38.349,38.461875 38.2100625,38.53125 38.0625,38.53125 L38.0625,38.53125 Z M1.5,37.59375 L37.828125,37.59375 L42.75,31.03125 L6.421875,31.03125 L1.5,37.59375 L1.5,37.59375 Z" id="Fill-27" fill="#EF9178" sketch:type="MSShapeGroup"></path>
            <path d="M30.5625,38.53125 L23.0625,38.53125 C22.8849375,38.53125 22.72275,38.4309375 22.64325,38.272125 C22.56375,38.1135 22.581,37.923375 22.6875,37.78125 L28.3125,30.28125 C28.401,30.163125 28.5399375,30.09375 28.6875,30.09375 L36.1875,30.09375 C36.3650625,30.09375 36.5274375,30.1940625 36.60675,30.352875 C36.68625,30.5116875 36.669,30.701625 36.5625,30.84375 L30.9375,38.34375 C30.849,38.461875 30.7100625,38.53125 30.5625,38.53125 L30.5625,38.53125 Z M24,37.59375 L30.328125,37.59375 L35.25,31.03125 L28.921875,31.03125 L24,37.59375 L24,37.59375 Z" id="Fill-28" fill="#DD4D36" sketch:type="MSShapeGroup"></path>
            <path d="M15.5625,38.53125 L8.0625,38.53125 C7.8849375,38.53125 7.72275,38.4309375 7.64325,38.272125 C7.56375,38.1135 7.581,37.923375 7.6875,37.78125 L13.3125,30.28125 C13.401,30.163125 13.5399375,30.09375 13.6875,30.09375 L21.1875,30.09375 C21.3650625,30.09375 21.5274375,30.1940625 21.60675,30.352875 C21.68625,30.5116875 21.669,30.701625 21.5625,30.84375 L15.9375,38.34375 C15.849,38.461875 15.7100625,38.53125 15.5625,38.53125 L15.5625,38.53125 Z M9,37.59375 L15.328125,37.59375 L20.25,31.03125 L13.921875,31.03125 L9,37.59375 L9,37.59375 Z" id="Fill-29" fill="#DD4D36" sketch:type="MSShapeGroup"></path>
            <path d="M23.0625,61.03125 L17.4375,61.03125 C17.1785625,61.03125 16.96875,60.8214375 16.96875,60.5625 L16.96875,58.6875 C16.96875,58.4285625 17.1785625,58.21875 17.4375,58.21875 L18.84375,58.21875 L18.84375,56.8125 C18.84375,56.5535625 19.0535625,56.34375 19.3125,56.34375 L20.71875,56.34375 L20.71875,54.9375 C20.71875,54.6785625 20.9285625,54.46875 21.1875,54.46875 L23.0625,54.46875 C23.3214375,54.46875 23.53125,54.6785625 23.53125,54.9375 L23.53125,60.5625 C23.53125,60.8214375 23.3214375,61.03125 23.0625,61.03125 L23.0625,61.03125 Z M17.90625,60.09375 L22.59375,60.09375 L22.59375,55.40625 L21.65625,55.40625 L21.65625,56.8125 C21.65625,57.0714375 21.4464375,57.28125 21.1875,57.28125 L19.78125,57.28125 L19.78125,58.6875 C19.78125,58.9464375 19.5714375,59.15625 19.3125,59.15625 L17.90625,59.15625 L17.90625,60.09375 L17.90625,60.09375 Z" id="Fill-30" fill="#DD4D36" sketch:type="MSShapeGroup"></path>
            <path d="M17.4375,61.03125 L4.3125,61.03125 C4.0535625,61.03125 3.84375,60.8214375 3.84375,60.5625 L3.84375,58.6875 C3.84375,58.4285625 4.0535625,58.21875 4.3125,58.21875 L5.71875,58.21875 L5.71875,56.8125 C5.71875,56.5535625 5.9285625,56.34375 6.1875,56.34375 L7.59375,56.34375 L7.59375,54.9375 C7.59375,54.6785625 7.8035625,54.46875 8.0625,54.46875 L21.1875,54.46875 C21.4464375,54.46875 21.65625,54.6785625 21.65625,54.9375 L21.65625,56.8125 C21.65625,57.0714375 21.4464375,57.28125 21.1875,57.28125 L19.78125,57.28125 L19.78125,58.6875 C19.78125,58.9464375 19.5714375,59.15625 19.3125,59.15625 L17.90625,59.15625 L17.90625,60.5625 C17.90625,60.8214375 17.6964375,61.03125 17.4375,61.03125 L17.4375,61.03125 Z M4.78125,60.09375 L16.96875,60.09375 L16.96875,58.6875 C16.96875,58.4285625 17.1785625,58.21875 17.4375,58.21875 L18.84375,58.21875 L18.84375,56.8125 C18.84375,56.5535625 19.0535625,56.34375 19.3125,56.34375 L20.71875,56.34375 L20.71875,55.40625 L8.53125,55.40625 L8.53125,56.8125 C8.53125,57.0714375 8.3214375,57.28125 8.0625,57.28125 L6.65625,57.28125 L6.65625,58.6875 C6.65625,58.9464375 6.4464375,59.15625 6.1875,59.15625 L4.78125,59.15625 L4.78125,60.09375 L4.78125,60.09375 Z" id="Fill-31" fill="#EF9178" sketch:type="MSShapeGroup"></path>
            <path d="M19.3125,57.28125 L8.0625,57.28125 C7.8035625,57.28125 7.59375,57.0714375 7.59375,56.8125 C7.59375,56.5535625 7.8035625,56.34375 8.0625,56.34375 L19.3125,56.34375 C19.5714375,56.34375 19.78125,56.5535625 19.78125,56.8125 C19.78125,57.0714375 19.5714375,57.28125 19.3125,57.28125" id="Fill-32" fill="#EF9178" sketch:type="MSShapeGroup"></path>
            <path d="M17.4375,59.15625 L6.1875,59.15625 C5.9285625,59.15625 5.71875,58.9464375 5.71875,58.6875 C5.71875,58.4285625 5.9285625,58.21875 6.1875,58.21875 L17.4375,58.21875 C17.6964375,58.21875 17.90625,58.4285625 17.90625,58.6875 C17.90625,58.9464375 17.6964375,59.15625 17.4375,59.15625" id="Fill-33" fill="#EF9178" sketch:type="MSShapeGroup"></path>
        </g>
    </g>
</svg>