<?xml version="1.0" encoding="utf-8"?>
<!-- Generator: Adobe Illustrator 18.0.0, SVG Export Plug-In . SVG Version: 6.00 Build 0)  -->
<!DOCTYPE svg PUBLIC "-//W3C//DTD SVG 1.1//EN" "http://www.w3.org/Graphics/SVG/1.1/DTD/svg11.dtd">
<svg version="1.1" id="Layer_1" xmlns="http://www.w3.org/2000/svg" xmlns:xlink="http://www.w3.org/1999/xlink" x="0px" y="0px"
	 viewBox="0 0 600 400" enable-background="new 0 0 600 400" xml:space="preserve">
<g id="Layer_1_1_">
</g>
<g id="Layer_3">
	<g>
		<line fill="none" stroke="#BBEAC7" stroke-miterlimit="10" x1="127.7" y1="66.1" x2="149.1" y2="66.1"/>
		<line fill="none" stroke="#BBEAC7" stroke-miterlimit="10" x1="127.7" y1="69.6" x2="149.1" y2="69.6"/>
		<line fill="none" stroke="#BBEAC7" stroke-miterlimit="10" x1="127.7" y1="73" x2="149.1" y2="73"/>
		<line fill="none" stroke="#BBEAC7" stroke-miterlimit="10" x1="127.7" y1="76.4" x2="149.1" y2="76.4"/>
		<line fill="none" stroke="#BBEAC7" stroke-miterlimit="10" x1="127.7" y1="79.9" x2="149.1" y2="79.9"/>
		<line fill="none" stroke="#BBEAC7" stroke-miterlimit="10" x1="127.7" y1="83.3" x2="149.1" y2="83.3"/>
		<line fill="none" stroke="#BBEAC7" stroke-miterlimit="10" x1="127.7" y1="86.7" x2="149.1" y2="86.7"/>
	</g>
</g>
<circle fill="#EF6D44" cx="412.7" cy="92.7" r="5.6"/>
<circle fill="#BBEAC7" cx="332.1" cy="151.9" r="10.7"/>
<rect x="524.6" y="130" fill="#D38D29" width="11.1" height="11.1"/>
<rect x="53.1" y="108.6" fill="#419089" width="11.1" height="11.1"/>
<path fill="#EF6D44" d="M257.1,215.6v-10.2h-10.3C246.9,210.6,251.1,215.6,257.1,215.6z"/>
<path fill="#D38D29" d="M235.7,130.7v10.5H246C246,135.1,241.7,130.7,235.7,130.7z"/>
<g id="Layer_4" display="none">
</g>
</svg>
