<?xml version="1.0" encoding="utf-8"?>
<!-- Generator: Adobe Illustrator 18.0.0, SVG Export Plug-In . SVG Version: 6.00 Build 0)  -->
<!DOCTYPE svg PUBLIC "-//W3C//DTD SVG 1.1//EN" "http://www.w3.org/Graphics/SVG/1.1/DTD/svg11.dtd">
<svg version="1.1" xmlns="http://www.w3.org/2000/svg" xmlns:xlink="http://www.w3.org/1999/xlink" x="0px" y="0px"
	 viewBox="0 0 700 300" enable-background="new 0 0 700 300" xml:space="preserve">
<g id="Layer_3">
	<g>
		<line fill="none" stroke="#EF6D44" stroke-miterlimit="10" x1="1075.5" y1="279" x2="1075.5" y2="254"/>
		<line fill="none" stroke="#EF6D44" stroke-miterlimit="10" x1="1079.5" y1="279" x2="1079.5" y2="254"/>
		<line fill="none" stroke="#EF6D44" stroke-miterlimit="10" x1="1083.5" y1="279" x2="1083.5" y2="254"/>
		<line fill="none" stroke="#EF6D44" stroke-miterlimit="10" x1="1087.5" y1="279" x2="1087.5" y2="254"/>
		<line fill="none" stroke="#EF6D44" stroke-miterlimit="10" x1="1091.5" y1="279" x2="1091.5" y2="254"/>
		<line fill="none" stroke="#EF6D44" stroke-miterlimit="10" x1="1095.5" y1="279" x2="1095.5" y2="254"/>
		<line fill="none" stroke="#EF6D44" stroke-miterlimit="10" x1="1099.5" y1="279" x2="1099.5" y2="254"/>
	</g>
	<g>
		<line fill="none" stroke="#BBEAC7" stroke-miterlimit="10" x1="461.5" y1="162" x2="461.5" y2="187"/>
		<line fill="none" stroke="#BBEAC7" stroke-miterlimit="10" x1="457.5" y1="162" x2="457.5" y2="187"/>
		<line fill="none" stroke="#BBEAC7" stroke-miterlimit="10" x1="453.5" y1="162" x2="453.5" y2="187"/>
		<line fill="none" stroke="#BBEAC7" stroke-miterlimit="10" x1="449.5" y1="162" x2="449.5" y2="187"/>
		<line fill="none" stroke="#BBEAC7" stroke-miterlimit="10" x1="445.5" y1="162" x2="445.5" y2="187"/>
		<line fill="none" stroke="#BBEAC7" stroke-miterlimit="10" x1="441.5" y1="162" x2="441.5" y2="187"/>
		<line fill="none" stroke="#BBEAC7" stroke-miterlimit="10" x1="437.5" y1="162" x2="437.5" y2="187"/>
	</g>
	<g>
		<circle fill="none" stroke="#EF6D44" stroke-miterlimit="10" cx="1049.5" cy="231.5" r="12"/>
		<circle fill="none" stroke="#EF6D44" stroke-miterlimit="10" cx="1049.5" cy="231.5" r="7.5"/>
		<circle fill="none" stroke="#EF6D44" stroke-miterlimit="10" cx="1049.5" cy="231.5" r="3"/>
	</g>
	<g>
		<path fill="none" stroke="#EF6D44" stroke-miterlimit="10" d="M1024.3,257.7c0,0-0.1,0-0.1,0c-13.5,0-24.5,11-24.5,24.5
			c0,0,0,0.1,0,0.1"/>
		<path fill="none" stroke="#EF6D44" stroke-miterlimit="10" d="M1024.3,262c0,0-0.1,0-0.1,0c-11.2,0-20.2,9-20.2,20.2
			c0,0,0,0.1,0,0.1"/>
		<path fill="none" stroke="#EF6D44" stroke-miterlimit="10" d="M1024.3,266.3c0,0-0.1,0-0.1,0c-8.8,0-15.9,7.1-15.9,15.9
			c0,0,0,0.1,0,0.1"/>
		<path fill="none" stroke="#EF6D44" stroke-miterlimit="10" d="M1024.3,270.6c0,0-0.1,0-0.1,0c-6.4,0-11.6,5.2-11.6,11.6
			c0,0,0,0.1,0,0.1"/>
		<path fill="none" stroke="#EF6D44" stroke-miterlimit="10" d="M1024.3,274.9c0,0-0.1,0-0.1,0c-4,0-7.3,3.3-7.3,7.3
			c0,0,0,0.1,0,0.1"/>
		<path fill="none" stroke="#EF6D44" stroke-miterlimit="10" d="M1024.3,279.2c0,0-0.1,0-0.1,0c-1.7,0-3,1.3-3,3c0,0,0,0.1,0,0.1"/>
	</g>
	<g>
		<path fill="none" stroke="#EF6D44" stroke-miterlimit="10" d="M998.7,293.7c0,0,0,0.1,0,0.1c0,13.5,11,24.5,24.5,24.5
			c0,0,0.1,0,0.1,0"/>
		<path fill="none" stroke="#EF6D44" stroke-miterlimit="10" d="M1003,293.7c0,0,0,0.1,0,0.1c0,11.2,9,20.2,20.2,20.2
			c0,0,0.1,0,0.1,0"/>
		<path fill="none" stroke="#EF6D44" stroke-miterlimit="10" d="M1007.3,293.7c0,0,0,0.1,0,0.1c0,8.8,7.1,15.9,15.9,15.9
			c0,0,0.1,0,0.1,0"/>
		<path fill="none" stroke="#EF6D44" stroke-miterlimit="10" d="M1011.6,293.7c0,0,0,0.1,0,0.1c0,6.4,5.2,11.6,11.6,11.6
			c0,0,0.1,0,0.1,0"/>
		<path fill="none" stroke="#EF6D44" stroke-miterlimit="10" d="M1015.9,293.7c0,0,0,0.1,0,0.1c0,4,3.3,7.3,7.3,7.3c0,0,0.1,0,0.1,0
			"/>
		<path fill="none" stroke="#EF6D44" stroke-miterlimit="10" d="M1020.2,293.7c0,0,0,0.1,0,0.1c0,1.7,1.3,3,3,3c0,0,0.1,0,0.1,0"/>
	</g>
	<g>
		<path fill="none" stroke="#EF6D44" stroke-miterlimit="10" d="M1036.7,318.3c0,0,0.1,0,0.1,0c13.5,0,24.5-11,24.5-24.5
			c0,0,0-0.1,0-0.1"/>
		<path fill="none" stroke="#EF6D44" stroke-miterlimit="10" d="M1036.7,314c0,0,0.1,0,0.1,0c11.2,0,20.2-9,20.2-20.2
			c0,0,0-0.1,0-0.1"/>
		<path fill="none" stroke="#EF6D44" stroke-miterlimit="10" d="M1036.7,309.7c0,0,0.1,0,0.1,0c8.8,0,15.9-7.1,15.9-15.9
			c0,0,0-0.1,0-0.1"/>
		<path fill="none" stroke="#EF6D44" stroke-miterlimit="10" d="M1036.7,305.4c0,0,0.1,0,0.1,0c6.4,0,11.6-5.2,11.6-11.6
			c0,0,0-0.1,0-0.1"/>
		<path fill="none" stroke="#EF6D44" stroke-miterlimit="10" d="M1036.7,301.1c0,0,0.1,0,0.1,0c4,0,7.3-3.3,7.3-7.3c0,0,0-0.1,0-0.1
			"/>
		<path fill="none" stroke="#EF6D44" stroke-miterlimit="10" d="M1036.7,296.8c0,0,0.1,0,0.1,0c1.7,0,3-1.3,3-3c0,0,0-0.1,0-0.1"/>
	</g>
	<g>
		<path fill="none" stroke="#EF6D44" stroke-miterlimit="10" d="M1062.3,282.3c0,0,0-0.1,0-0.1c0-13.5-11-24.5-24.5-24.5
			c0,0-0.1,0-0.1,0"/>
		<path fill="none" stroke="#EF6D44" stroke-miterlimit="10" d="M1058,282.3c0,0,0-0.1,0-0.1c0-11.2-9-20.2-20.2-20.2
			c0,0-0.1,0-0.1,0"/>
		<path fill="none" stroke="#EF6D44" stroke-miterlimit="10" d="M1053.7,282.3c0,0,0-0.1,0-0.1c0-8.8-7.1-15.9-15.9-15.9
			c0,0-0.1,0-0.1,0"/>
		<path fill="none" stroke="#EF6D44" stroke-miterlimit="10" d="M1049.4,282.3c0,0,0-0.1,0-0.1c0-6.4-5.2-11.6-11.6-11.6
			c0,0-0.1,0-0.1,0"/>
		<path fill="none" stroke="#EF6D44" stroke-miterlimit="10" d="M1045.1,282.3c0,0,0-0.1,0-0.1c0-4-3.3-7.3-7.3-7.3c0,0-0.1,0-0.1,0
			"/>
		<path fill="none" stroke="#EF6D44" stroke-miterlimit="10" d="M1040.8,282.3c0,0,0-0.1,0-0.1c0-1.7-1.3-3-3-3c0,0-0.1,0-0.1,0"/>
	</g>
</g>
<g id="Layer_2">
	<circle fill="#D38D29" cx="903" cy="23" r="25"/>
	<circle fill="#BBEAC7" cx="93.5" cy="206.5" r="6.5"/>
	<circle fill="#EF6D44" cx="330.5" cy="157.5" r="6.5"/>
	<rect x="1018" y="-2" fill="#D38D29" width="50" height="50"/>
	<rect x="562" y="226" fill="#419089" width="12" height="12"/>
	<rect x="612" y="151" fill="#BBEAC7" width="12" height="12"/>
	<rect x="437" y="63" fill="#419089" width="12" height="12"/>
	<path fill="#D38D29" d="M1088,68c0,27.6,22,50,50,50V68H1088z"/>
	<path fill="#D38D29" d="M998,68.3c-28,0-50,22.7-50,49.7h50V68.3z"/>
	<path fill="#D38D29" d="M927.7,138H878v50C905,188,927.7,165.6,927.7,138z"/>
	<path fill="#D38D29" d="M650,49.9V38h-12C638,44,643,49.9,650,49.9z"/>
	<path fill="#D38D29" d="M1018,68.3V118h49.7C1067.7,91,1045,68.3,1018,68.3z"/>
	<path fill="#419089" d="M200,101.4V113h12C212,106,207,101.4,200,101.4z"/>
	<g>
		<line fill="none" stroke="#D38D29" stroke-miterlimit="10" x1="1088.5" y1="-2" x2="1088.5" y2="48"/>
		<line fill="none" stroke="#D38D29" stroke-miterlimit="10" x1="1093.5" y1="-2" x2="1093.5" y2="48"/>
		<line fill="none" stroke="#D38D29" stroke-miterlimit="10" x1="1099.5" y1="-2" x2="1099.5" y2="48"/>
		<line fill="none" stroke="#D38D29" stroke-miterlimit="10" x1="1104.5" y1="-2" x2="1104.5" y2="48"/>
		<line fill="none" stroke="#D38D29" stroke-miterlimit="10" x1="1110.5" y1="-2" x2="1110.5" y2="48"/>
		<line fill="none" stroke="#D38D29" stroke-miterlimit="10" x1="1115.5" y1="-2" x2="1115.5" y2="48"/>
		<line fill="none" stroke="#D38D29" stroke-miterlimit="10" x1="1120.5" y1="-2" x2="1120.5" y2="48"/>
		<line fill="none" stroke="#D38D29" stroke-miterlimit="10" x1="1126.5" y1="-2" x2="1126.5" y2="48"/>
		<line fill="none" stroke="#D38D29" stroke-miterlimit="10" x1="1131.5" y1="-2" x2="1131.5" y2="48"/>
		<line fill="none" stroke="#D38D29" stroke-miterlimit="10" x1="1137.5" y1="-2" x2="1137.5" y2="48"/>
	</g>
	<g>
		<line fill="none" stroke="#D38D29" stroke-miterlimit="10" x1="878" y1="117.5" x2="928" y2="117.5"/>
		<line fill="none" stroke="#D38D29" stroke-miterlimit="10" x1="878" y1="111.5" x2="928" y2="111.5"/>
		<line fill="none" stroke="#D38D29" stroke-miterlimit="10" x1="878" y1="106.5" x2="928" y2="106.5"/>
		<line fill="none" stroke="#D38D29" stroke-miterlimit="10" x1="878" y1="100.5" x2="928" y2="100.5"/>
		<line fill="none" stroke="#D38D29" stroke-miterlimit="10" x1="878" y1="95.5" x2="928" y2="95.5"/>
		<line fill="none" stroke="#D38D29" stroke-miterlimit="10" x1="878" y1="90.5" x2="928" y2="90.5"/>
		<line fill="none" stroke="#D38D29" stroke-miterlimit="10" x1="878" y1="84.5" x2="928" y2="84.5"/>
		<line fill="none" stroke="#D38D29" stroke-miterlimit="10" x1="878" y1="79.5" x2="928" y2="79.5"/>
		<line fill="none" stroke="#D38D29" stroke-miterlimit="10" x1="878" y1="73.5" x2="928" y2="73.5"/>
		<line fill="none" stroke="#D38D29" stroke-miterlimit="10" x1="878" y1="68.5" x2="928" y2="68.5"/>
	</g>
	<g>
		<circle fill="none" stroke="#D38D29" stroke-miterlimit="10" cx="973" cy="23" r="4.5"/>
		<circle fill="none" stroke="#D38D29" stroke-miterlimit="10" cx="973" cy="23" r="9.5"/>
		<circle fill="none" stroke="#D38D29" stroke-miterlimit="10" cx="973" cy="23" r="14.5"/>
		<circle fill="none" stroke="#D38D29" stroke-miterlimit="10" cx="973" cy="23" r="19.5"/>
		<circle fill="none" stroke="#D38D29" stroke-miterlimit="10" cx="973" cy="23" r="24.5"/>
	</g>
	<g>
		<path fill="none" stroke="#D38D29" stroke-miterlimit="10" d="M997.8,183.2c-2.5,0-4.5,2-4.5,4.5"/>
		<path fill="none" stroke="#D38D29" stroke-miterlimit="10" d="M997.8,178.2c-5.2,0-9.5,4.3-9.5,9.5"/>
		<path fill="none" stroke="#D38D29" stroke-miterlimit="10" d="M997.8,173.2c-8,0-14.5,6.5-14.5,14.5"/>
		<path fill="none" stroke="#D38D29" stroke-miterlimit="10" d="M997.8,168.2c-10.8,0-19.5,8.7-19.5,19.5"/>
		<path fill="none" stroke="#D38D29" stroke-miterlimit="10" d="M997.8,163.2c-13.5,0-24.5,11-24.5,24.5"/>
		<path fill="none" stroke="#D38D29" stroke-miterlimit="10" d="M997.8,158.2c-16.3,0-29.5,13.2-29.5,29.5"/>
		<path fill="none" stroke="#D38D29" stroke-miterlimit="10" d="M997.8,153.2c-19.1,0-34.5,15.4-34.5,34.5"/>
		<path fill="none" stroke="#D38D29" stroke-miterlimit="10" d="M997.8,148.2c-21.8,0-39.5,17.7-39.5,39.5"/>
		<path fill="none" stroke="#D38D29" stroke-miterlimit="10" d="M997.8,143.2c-24.6,0-44.5,19.9-44.5,44.5"/>
		<path fill="none" stroke="#D38D29" stroke-miterlimit="10" d="M997.8,138.2c-27.3,0-49.5,22.2-49.5,49.5"/>
	</g>
	<g>
		<path fill="none" stroke="#D38D29" stroke-miterlimit="10" d="M1133.2,138.2c0,2.5,2,4.5,4.5,4.5"/>
		<path fill="none" stroke="#D38D29" stroke-miterlimit="10" d="M1128.2,138.2c0,5.2,4.3,9.5,9.5,9.5"/>
		<path fill="none" stroke="#D38D29" stroke-miterlimit="10" d="M1123.2,138.2c0,8,6.5,14.5,14.5,14.5"/>
		<path fill="none" stroke="#D38D29" stroke-miterlimit="10" d="M1118.2,138.2c0,10.8,8.7,19.5,19.5,19.5"/>
		<path fill="none" stroke="#D38D29" stroke-miterlimit="10" d="M1113.2,138.2c0,13.5,11,24.5,24.5,24.5"/>
		<path fill="none" stroke="#D38D29" stroke-miterlimit="10" d="M1108.2,138.2c0,16.3,13.2,29.5,29.5,29.5"/>
		<path fill="none" stroke="#D38D29" stroke-miterlimit="10" d="M1103.2,138.2c0,19.1,15.4,34.5,34.5,34.5"/>
		<path fill="none" stroke="#D38D29" stroke-miterlimit="10" d="M1098.2,138.2c0,21.8,17.7,39.5,39.5,39.5"/>
		<path fill="none" stroke="#D38D29" stroke-miterlimit="10" d="M1093.2,138.2c0,24.6,19.9,44.5,44.5,44.5"/>
		<path fill="none" stroke="#D38D29" stroke-miterlimit="10" d="M1088.2,138.2c0,27.3,22.2,49.5,49.5,49.5"/>
	</g>
	<g>
		<path fill="none" stroke="#D38D29" stroke-miterlimit="10" d="M878.2,212.8c2.5,0,4.5-2,4.5-4.5"/>
		<path fill="none" stroke="#D38D29" stroke-miterlimit="10" d="M878.2,217.8c5.2,0,9.5-4.3,9.5-9.5"/>
		<path fill="none" stroke="#D38D29" stroke-miterlimit="10" d="M878.2,222.8c8,0,14.5-6.5,14.5-14.5"/>
		<path fill="none" stroke="#D38D29" stroke-miterlimit="10" d="M878.2,227.8c10.8,0,19.5-8.7,19.5-19.5"/>
		<path fill="none" stroke="#D38D29" stroke-miterlimit="10" d="M878.2,232.8c13.5,0,24.5-11,24.5-24.5"/>
		<path fill="none" stroke="#D38D29" stroke-miterlimit="10" d="M878.2,237.8c16.3,0,29.5-13.2,29.5-29.5"/>
		<path fill="none" stroke="#D38D29" stroke-miterlimit="10" d="M878.2,242.8c19.1,0,34.5-15.4,34.5-34.5"/>
		<path fill="none" stroke="#D38D29" stroke-miterlimit="10" d="M878.2,247.8c21.8,0,39.5-17.7,39.5-39.5"/>
		<path fill="none" stroke="#D38D29" stroke-miterlimit="10" d="M878.2,252.8c24.6,0,44.5-19.9,44.5-44.5"/>
		<path fill="none" stroke="#D38D29" stroke-miterlimit="10" d="M878.2,257.8c27.3,0,49.5-22.2,49.5-49.5"/>
	</g>
	<g>
		<path fill="none" stroke="#D38D29" stroke-miterlimit="10" d="M1022.8,187.8c0-2.5-2-4.5-4.5-4.5"/>
		<path fill="none" stroke="#D38D29" stroke-miterlimit="10" d="M1027.8,187.8c0-5.2-4.3-9.5-9.5-9.5"/>
		<path fill="none" stroke="#D38D29" stroke-miterlimit="10" d="M1032.8,187.8c0-8-6.5-14.5-14.5-14.5"/>
		<path fill="none" stroke="#D38D29" stroke-miterlimit="10" d="M1037.8,187.8c0-10.8-8.7-19.5-19.5-19.5"/>
		<path fill="none" stroke="#D38D29" stroke-miterlimit="10" d="M1042.8,187.8c0-13.5-11-24.5-24.5-24.5"/>
		<path fill="none" stroke="#D38D29" stroke-miterlimit="10" d="M1047.8,187.8c0-16.3-13.2-29.5-29.5-29.5"/>
		<path fill="none" stroke="#D38D29" stroke-miterlimit="10" d="M1052.8,187.8c0-19.1-15.4-34.5-34.5-34.5"/>
		<path fill="none" stroke="#D38D29" stroke-miterlimit="10" d="M1057.8,187.8c0-21.8-17.7-39.5-39.5-39.5"/>
		<path fill="none" stroke="#D38D29" stroke-miterlimit="10" d="M1062.8,187.8c0-24.6-19.9-44.5-44.5-44.5"/>
		<path fill="none" stroke="#D38D29" stroke-miterlimit="10" d="M1067.8,187.8c0-27.3-22.2-49.5-49.5-49.5"/>
	</g>
</g>
<g id="Layer_4">
</g>
</svg>
