<?xml version="1.0" standalone="no"?>
<!DOCTYPE svg PUBLIC "-//W3C//DTD SVG 1.1//EN" "http://www.w3.org/Graphics/SVG/1.1/DTD/svg11.dtd" >
<svg xmlns="http://www.w3.org/2000/svg" xmlns:xlink="http://www.w3.org/1999/xlink" version="1.1">
<metadata></metadata>
<defs>
<font id="zopimregular" horiz-adv-x="2048" >
<font-face units-per-em="2048" ascent="1638" descent="-410" />
<missing-glyph horiz-adv-x="500" />
<glyph unicode="&#xd;" horiz-adv-x="682" />
<glyph unicode="!" d="M24 297q0 -101 72 -173t173 -72h1468q100 0 172 72t72 173v1467q0 101 -71.5 173t-172.5 72h-1468q-101 0 -173 -72.5t-72 -172.5v-1467zM810 525q0 80 56.5 136.5t136.5 56.5t136.5 -56.5t56.5 -136.5t-56.5 -136.5t-136.5 -56.5t-136.5 56.5t-56.5 136.5zM810 881v805 h386v-805h-386z" />
<glyph unicode="+" d="M0 796h800v-800h400v800h800v400h-800v800h-400v-800h-800v-400z" />
<glyph unicode="&#xbb;" d="M6 48l1954 966l-1954 988l322 -844l828 -144l-828 -101z" />
<glyph unicode="&#x2000;" horiz-adv-x="1024" />
<glyph unicode="&#x2001;" />
<glyph unicode="&#x2002;" horiz-adv-x="1024" />
<glyph unicode="&#x2003;" />
<glyph unicode="&#x2004;" horiz-adv-x="682" />
<glyph unicode="&#x2005;" horiz-adv-x="512" />
<glyph unicode="&#x2006;" horiz-adv-x="341" />
<glyph unicode="&#x2007;" horiz-adv-x="341" />
<glyph unicode="&#x2008;" horiz-adv-x="256" />
<glyph unicode="&#x2009;" horiz-adv-x="409" />
<glyph unicode="&#x200a;" horiz-adv-x="113" />
<glyph unicode="&#x202f;" horiz-adv-x="409" />
<glyph unicode="&#x205f;" horiz-adv-x="512" />
<glyph unicode="&#x2190;" d="M397 1000q0 -83 59 -142l803 -804q59 -59 142.5 -59t142.5 59q60 60 60 143q0 82 -60 142l-660 661l651 651q59 59 59 142.5t-59 142.5q-61 61 -147 59q-81 -2 -138 -59l-794 -794q-59 -59 -59 -142z" />
<glyph unicode="&#x2191;" d="M-1 652.5q0 83.5 59 142.5l793 794q59 59 142.5 59t142.5 -59l804 -803q59 -59 59 -142.5t-59 -142.5t-143 -59q-83 0 -142 59l-661 660l-651 -651q-59 -59 -142.5 -59t-142.5 59t-59 142.5z" />
<glyph unicode="&#x2192;" d="M392 198q0 83 59 142l660 661l-651 651q-59 59 -59 142.5t59 142.5t142.5 59t142.5 -59l794 -794q59 -59 59 -142.5t-59 -142.5l-803 -803q-59 -59 -142.5 -59t-142.5 59t-59 143z" />
<glyph unicode="&#x2193;" d="M1 1440.5q0 -83.5 59 -142.5l793 -794q59 -59 143 -59t143 59l803 803q59 59 59 142.5t-59 142.5q-60 60 -143 60q-82 0 -142 -60l-661 -660l-651 651q-59 59 -142.5 59t-142.5 -59t-59 -142.5z" />
<glyph unicode="&#x2197;" d="M239 439.5q8 83.5 75 150.5l767 723l-480 450h1159v-1187l-440 488l-742 -763q-66 -66 -142.5 -70.5t-142.5 58.5q-62 67 -54 150.5z" />
<glyph unicode="&#x2199;" d="M240 232v1187l441 -488l742 763q66 66 142.5 70.5t142.5 -58.5q62 -67 54 -150.5t-75 -150.5l-767 -723l480 -450h-1160z" />
<glyph unicode="&#x2212;" d="M0 796h2000v400h-2000v-400z" />
<glyph unicode="&#x25fc;" horiz-adv-x="500" d="M0 0z" />
<glyph unicode="&#x263a;" d="M88 1136q0 -148 48.5 -290t138.5 -261l-52 -522q-3 -40 30 -59q14 -8 30 -8q20 0 35 11l379 270q146 -52 303 -52q185 0 354 72t291 194t194.5 291t72.5 354t-72.5 354t-194.5 291t-291 194.5t-354 72.5t-354 -72.5t-291 -194.5t-194.5 -291t-72.5 -354zM210 1136 q0 214 106 396t288 288t396 106t396 -106t288 -288t106 -396t-106 -396t-288 -287.5t-396 -105.5q-151 0 -289 55q-32 12 -58 -7l-296 -211l41 414q3 25 -13 44q-175 218 -175 494zM652 1293q0 50 35.5 86t86.5 36q50 0 86 -36t36 -86q0 -51 -36 -87t-86 -36q-51 0 -86.5 36 t-35.5 87zM708 947q18 -104 99.5 -174t189.5 -70t189.5 69t100.5 173h-559q-6 0 -20 2zM1112 1293q0 -51 35.5 -87t86.5 -36t86.5 36t35.5 87q0 50 -36 86t-86 36q-51 0 -86.5 -36t-35.5 -86z" />
<glyph unicode="&#x26a0;" d="M20 89q54 -94 207 -94h1542q153 0 207.5 94t-21.5 227l-771 1336q-50 87 -117.5 118t-135.5 0t-118 -118l-771 -1336q-76 -133 -22 -227zM894 356q0 56 30 84q31 29 87 29q53 0 85 -30q30 -30 30 -83t-30 -83t-85 -30q-57 0 -86 29q-31 31 -31 84zM897 1231h229l-33 -618 h-162z" />
<glyph unicode="&#x270e;" d="M-1 -6l720 184l-534 530zM288 805l529 -525l971 1012l-480 476zM1391 1847l476 -472q6 5 15 15t33 42t41.5 65t31 81.5t12 94.5t-26 101t-74.5 104q-103 102 -226 100q-44 -1 -89 -14.5t-78.5 -32.5t-60 -38t-40.5 -33z" />
<glyph unicode="&#x2714;" d="M1.5 1099.5q-9.5 92.5 48.5 150.5q59 58 151 48.5t163 -80.5l410 -409l843 843q72 72 167.5 78t158.5 -57t56.5 -159t-77.5 -167l-952 -952q-3 -3 -10.5 -9t-10.5 -8q-1 -2 -3.5 -5t-4.5 -5.5t-4 -4.5q-65 -65 -173 -44q-73 8 -120 55q-1 2 -3.5 5t-4.5 5t-6.5 5.5 t-6.5 5.5l-541 541q-71 71 -80.5 163.5z" />
<glyph unicode="&#x2716;" d="M210 438q0 86 60 146l438 438l-438 438q-60 60 -60 146t60 146t146 60t146 -60l438 -438l438 438q60 60 146 60t146 -60t60 -146t-60 -146l-438 -438l438 -438q60 -60 60 -146t-60 -146t-145.5 -60t-146.5 60l-438 438l-438 -438q-60 -60 -146 -60t-146 60t-60 146z" />
<glyph unicode="&#xe000;" d="M0 981q0 430 295 716q296 286 709 286q412 0 708 -286l9 -9l-415 -441l-130 -138q3 -4 9 -11t27.5 -30t46.5 -42.5t67 -48.5t88.5 -49t110.5 -43t134 -30.5t158 -12t183 12.5q-39 -333 -288 -573q-296 -286 -708 -286q-413 0 -709 286q-295 286 -295 699z" />
<glyph unicode="&#xe001;" d="M78 1025q0 -190 75 -366t200.5 -304t297 -205t356.5 -77q151 0 292.5 47.5t256 135t200.5 203.5t133 260t47 298q0 38 -27 65t-65 27t-65 -27t-27 -65q0 -154 -59 -295t-159 -243t-238 -162.5t-289 -60.5q-148 0 -285.5 62t-238 166t-160.5 246t-60 295q0 38 -26.5 62 t-65.5 24t-66 -24t-27 -62zM183 1660q0 -76 53.5 -129.5t129.5 -53.5t129.5 53.5t53.5 129.5v184q0 76 -53.5 129.5t-129.5 53.5t-129.5 -53.5t-53.5 -129.5v-184zM1465 1660v184q0 76 53.5 129.5t129.5 53.5h1q76 0 129 -53.5t53 -129.5v-184q0 -76 -53 -129.5t-129 -53.5 h-1q-76 0 -129.5 53.5t-53.5 129.5z" />
<glyph unicode="&#xe002;" d="M182 1661q0 -76 53.5 -129.5t129.5 -53.5h1q76 0 129 53.5t53 129.5v184q0 76 -53 129.5t-129 53.5h-1q-76 0 -129.5 -53.5t-53.5 -129.5v-184zM188 904q0 -169 65 -322.5t174 -264.5t261 -177t318 -66t318 66t261.5 177.5t174.5 265t65 322.5l-2 24h-1633q-2 -17 -2 -25 zM1464 1661v184q0 76 53.5 129.5t129.5 53.5h1q76 0 129.5 -53.5t53.5 -129.5v-184q0 -76 -53.5 -129.5t-129.5 -53.5h-1q-76 0 -129.5 53.5t-53.5 129.5z" />
<glyph unicode="&#xe003;" d="M75 168q0 -38 27 -65t65 -27t65 27t27 65q0 154 59 295t159 243.5t238.5 163t289.5 60.5q149 0 286.5 -62t238 -165.5t160.5 -246t60 -295.5q0 -38 26.5 -62.5t65.5 -24.5t65.5 24.5t26.5 62.5q0 190 -75 366t-200 304t-297 205t-357 77q-189 0 -361 -75t-297 -201.5 t-198.5 -301.5t-73.5 -367zM180 1663q0 -76 53.5 -129.5t129.5 -53.5t129.5 53.5t53.5 129.5v184q0 76 -53.5 129.5t-129.5 53.5t-129.5 -53.5t-53.5 -129.5v-184zM1463 1663v184q0 76 53.5 129.5t129.5 53.5h1q76 0 129.5 -53.5t53.5 -129.5v-184q0 -76 -53.5 -129.5 t-129.5 -53.5h-1q-76 0 -129.5 53.5t-53.5 129.5z" />
<glyph unicode="&#xe004;" d="M181 1664q0 -76 53 -129.5t129 -53.5h1q76 0 129.5 53.5t53.5 129.5v184q0 76 -53.5 129.5t-129.5 53.5h-1q-76 0 -129 -53.5t-53 -129.5v-184zM186 101l2 -24h1633q3 17 3 25q0 169 -65 322.5t-174.5 264.5t-261.5 177t-318 66t-318 -66t-261.5 -177.5t-174.5 -265 t-65 -322.5zM1463 1664v184q0 76 53.5 129.5t129.5 53.5t129.5 -53.5t53.5 -129.5v-184q0 -76 -53.5 -129.5t-129.5 -53.5t-129.5 53.5t-53.5 129.5z" />
<glyph unicode="&#xe005;" horiz-adv-x="6362" d="M176 -6v198l561 718h-537v242h930v-195l-551 -717h562v-246h-965zM1277 571q0 257 164 429q163 170 419 170q259 0 422 -170q164 -172 164 -429q0 -266 -159 -433q-159 -165 -427 -165q-274 0 -429 164q-154 163 -154 434zM1564 569q0 -154 57 -241q73 -120 241 -120 q218 0 272 185q21 66 21 176q0 157 -54 244q-74 122 -241 122q-148 0 -228 -111q-68 -98 -68 -255zM2648 -494h274v578q184 -87 323 -87q238 0 379 190q125 175 125 424q0 240 -149 400q-148 159 -388 159q-179 0 -290 -170v170h-274v-1664zM2922 428v286q0 69 92 136 q94 68 166 68q149 0 233 -84t84 -235q0 -163 -93 -254q-91 -91 -252 -91q-63 0 -146 58q-84 58 -84 116zM3771 1687q0 -147 105 -249t253 -102q147 0 252 102q89 87 102 204q-63 -8 -111 -2t-82.5 21.5t-56.5 31.5t-33 28l-10 12l46 49l148 157l-3 3q-105 102 -252 102 q-148 0 -253 -102t-105 -255zM3991 -6l270 146v1006h-270v-1152zM4536 -6v1152h269v-138q172 158 366 158q182 0 311 -119q179 111 396 111q204 0 336 -95q149 -108 149 -307v-762h-273v656q0 111 -63 186q-62 74 -174 74q-82 0 -151 -44q-71 -46 -101 -118q-16 -39 -16 -65 v-689h-274v656q0 112 -61 186q-62 75 -174 75q-109 0 -190 -75t-81 -186v-656h-269z" />
<glyph unicode="&#xe006;" horiz-adv-x="4220" d="M176 568q0 302 108.5 433t357.5 131q50 0 130 -9t136 -17l55 -9l-9 -183q-176 20 -261 20q-92 0 -150 -18.5t-92.5 -64t-47.5 -112t-13 -171.5q0 -78 4.5 -133t17.5 -101.5t34.5 -75.5t56 -49.5t81 -29t111.5 -8.5q38 0 103 4.5t112 8.5l46 5l7 -183q-217 -35 -326 -35 q-258 0 -359.5 135t-101.5 462zM1229 -5v1588h209v-520q20 8 54 19.5t119.5 30.5t147.5 19q115 0 189.5 -31t116.5 -102t58.5 -170t16.5 -252v-582h-209v580q0 81 -4.5 135t-17.5 100.5t-36.5 72t-60.5 39.5t-91 14q-55 0 -125.5 -13t-113.5 -25l-44 -13v-890h-209z M2406 321q0 165 87 241.5t269 90.5l312 29v82q0 93 -43.5 137t-132.5 44q-68 0 -173 -6.5t-175 -13.5l-71 -7l-9 161q271 53 451 53q184 0 274.5 -90t90.5 -278v-528q4 -47 31 -70t81 -30l-9 -163q-100 0 -164 17.5t-119 64.5q-21 -9 -57.5 -23t-136 -37.5t-183.5 -23.5 q-159 0 -241 89.5t-82 260.5zM2620 325q0 -178 149 -178q57 0 133.5 14t123.5 28l48 14v327l-287 -29q-87 -8 -127 -50.5t-40 -125.5zM3523 918v190h149v334h210v-334h327v-190h-327v-486q0 -67 2.5 -105t9.5 -73t22.5 -51t40 -25t63.5 -9q28 0 75 2.5t81 5.5l33 3l11 -182 q-149 -27 -227 -27q-125 0 -192.5 36.5t-98 124.5t-30.5 251v535h-149z" />
<glyph unicode="&#xe007;" d="M0 -4q-1 29 0 73.5t14.5 130.5t39.5 111q3 3 34.5 37.5t54 51.5t69.5 45.5t115 48.5t156 33q63 9 112.5 26t77.5 35.5t47 39.5t26 39.5t10 33.5t3 23t2 7l-8 149q-5 3 -13.5 8.5t-32 24.5t-44 40.5t-43.5 57t-36 73.5q-29 12 -47 21.5t-27.5 23.5t-12 19.5t-5.5 26.5 t-4 27l-7 77q-4 132 44 129q2 0 4 0.5t8.5 2.5t9.5 7t6 14.5t-1 23.5q-7 193 3 285q2 24 11.5 54.5t26.5 66.5t48.5 63.5t71.5 35.5q40 7 59 10.5t21.5 3.5t8 0.5l16.5 1.5q12 2 34.5 14.5t62.5 12.5l144 23q30 0 60 -24.5t53.5 -50t38.5 -27.5q12 -2 46.5 4t76.5 -2 q27 -5 46.5 -21t29.5 -35t16 -46.5t7.5 -47t2 -45.5t1.5 -34q5 -50 5 -128.5t-7 -123.5q-5 -21 1 -32t14 -12h8q23 0 37 -21t17.5 -51t4 -60.5t-1.5 -51.5l-2 -21q-4 -16 -8.5 -27t-17 -22.5t-19.5 -16t-32.5 -20t-38.5 -23.5q-21 -60 -58 -115t-63 -79l-27 -25 q-11 -104 -11 -128l-2 -12q-1 -12 0 -27t6.5 -35t23 -40t44 -39t75 -35.5t111.5 -25.5q74 -11 136 -28.5t101 -34.5t74.5 -42t51.5 -40t39.5 -39.5t30.5 -31.5q26 -25 43.5 -103.5t22.5 -145.5l5 -66h-2000z" />
<glyph unicode="&#xe008;" d="M0 246q0 -104 73 -177t177 -73h1500q104 0 177 73t73 177v1500q0 104 -73 177t-177 73h-1500q-104 0 -177 -73t-73 -177v-1500zM875 871v250h250v228q0 70 18 129t57 108t109 76.5t166 27.5q48 0 94.5 -2.5t68.5 -5.5l23 -2l-7 -247q-80 1 -168 1q-67 0 -89 -28.5 t-22 -89.5v-3v-9v-183h287l-12 -250h-275v-750h-250v750h-250z" />
<glyph unicode="&#xe009;" d="M0 246q0 -104 73 -177t177 -73h1500q104 0 177 73t73 177v1500q0 104 -73 177t-177 73h-1500q-104 0 -177 -73t-73 -177v-1500zM438 642q27 -3 54 -3q161 0 287 99q-75 1 -134 46t-81 115q23 -5 43 -5q39 0 69 8q-79 16 -127.5 79t-48.5 148v3q0 -12 31.5 -20t64.5 -9 q-48 32 -77.5 83t-29.5 109q0 67 29 116q87 -107 209.5 -170.5t264.5 -70.5q-6 26 -6 52q0 96 67.5 163.5t162.5 67.5q101 0 169 -73q74 14 146 56q-26 -83 -101 -127q70 9 133 36q-47 -69 -116 -120q0 -5 0.5 -14.5t0.5 -14.5q0 -93 -27 -185.5t-82.5 -177.5t-132.5 -150.5 t-184.5 -104.5t-230.5 -39q-191 0 -353 103z" />
<glyph unicode="&#xe00a;" d="M0 246q0 -103 73.5 -176.5t176.5 -73.5h684q1 4 5.5 15.5t7.5 23t3 24.5q0 31 -8.5 59t-30 56t-41 49.5t-59.5 52t-68 50.5t-83.5 58t-89.5 62q-23 3 -67 3q-23 0 -63.5 -2.5t-113.5 -14.5t-128 -30q-135 -48 -198 -133v-23zM0 437q46 37 117.5 58t122 25.5t133 7 t98.5 3.5q-30 39 -43 57.5t-28.5 58.5t-15.5 82q0 12 1.5 24t2.5 19t5.5 20t5.5 16.5t7 18t7 16.5q-64 -6 -93 -6q-179 0 -320 116v-516zM0 1664q3 3 11.5 16t12.5 17q211 174 499 174h614l-163 -125h-178q20 -35 57 -84t60 -82t42 -91t19 -127q0 -63 -13.5 -118 t-33.5 -95.5t-53.5 -80.5t-63 -67t-72.5 -60q-25 -25 -39 -42t-28 -46t-14 -59t13.5 -56.5t26.5 -39.5t35 -31l105 -83q116 -98 151 -133q144 -146 144 -301q0 -98 -26 -154h644q103 0 176.5 73.5t73.5 176.5v1125h-375v-375h-125v375h-375v125h375v375h125v-375h375v250 q0 103 -73.5 176.5t-176.5 73.5h-1500q-103 0 -176.5 -73.5t-73.5 -176.5v-82zM114 1437q0 -78 20.5 -159t61 -155.5t111 -122t159.5 -47.5q130 0 195 73q37 43 56.5 96.5t19.5 90.5q0 82 -23.5 173t-67 173.5t-115 136t-157.5 53.5q-57 0 -113 -26.5t-90 -69.5 q-57 -71 -57 -216z" />
<glyph unicode="&#xe00b;" d="M-1 314q0 -96 76.5 -169.5t202.5 -112t278 -38.5q125 0 228.5 33.5t169 89t101.5 125t36 144.5q0 120 -41.5 199t-148.5 155q-48 34 -95.5 85.5t-47.5 84.5q0 45 19.5 75t84.5 81q70 55 112 130.5t42 159.5q0 72 -19 144t-61 124.5t-96 52.5h173l122 72h-545 q-120 0 -230 -54.5t-177 -147t-67 -196.5q0 -167 116 -280.5t299 -113.5q19 0 51 2q-28 -54 -28 -102q0 -78 74 -150q-15 0 -46 -0.5t-48 -0.5q-110 0 -210.5 -33.5t-171 -87.5t-112 -125.5t-41.5 -145.5zM195 372q0 116 119 201t277 83q71 -1 136 -22q14 -10 45.5 -31.5 t44 -30.5t35.5 -26.5t34 -29t25 -28t21.5 -33t12.5 -35.5q6 -27 6 -56q0 -129 -94 -206t-302 -77q-155 0 -257.5 85t-102.5 206zM312 1354q-18 138 43.5 231.5t166.5 90.5t192.5 -101.5t105.5 -235.5q18 -138 -43.5 -233.5t-166.5 -92.5t-192.5 103t-105.5 238zM1281 1317 h288v-286h144v286h286v146h-286v286h-144v-286h-288v-146z" />
<glyph unicode="&#xe00c;" d="M20 175q53 -5 96 -5q280 0 500 172q-131 2 -234 80.5t-142 199.5q35 -7 76 -7q63 0 116 14q-138 28 -226 138.5t-88 256.5v5q0 -21 57 -34.5t116 -15.5q-83 56 -133.5 144.5t-50.5 190.5q0 115 52 203q152 -186 367 -297t462 -124q-11 46 -11 92q0 167 118 284.5 t285 117.5q85 0 161.5 -33.5t132.5 -93.5q134 26 256 98q-46 -143 -178 -223q122 15 232 64q-82 -123 -201 -209q1 -17 1 -52q0 -134 -34 -270t-98 -264t-164 -239t-224 -194t-285.5 -131t-341.5 -48q-336 0 -617 180z" />
<glyph unicode="&#xe00d;" d="M492 960v296h296v270q0 89 25.5 164.5t77.5 137.5t144 97.5t214 35.5q61 0 122.5 -3.5t92.5 -6.5l31 -3l-4 -316q-90 1 -203 1q-44 0 -71 -9t-39 -31.5t-15 -45t-3 -63.5v-2v-3v-2v-9v-212h344l-16 -296h-328v-964h-372v964h-296z" />
<glyph unicode="&#xe00e;" d="M0 661q0 -138 93 -245.5t225 -107.5h133l371 -306q7 -6 20 -6q10 0 19 6l79 60q14 11 14 24v222h24q20 0 45 5q4 1 13 6t16 11l8 5q-3 -2 89.5 70.5t186.5 146.5l94 74h196q153 0 263.5 117t110.5 286v288q0 118 -56.5 210t-152.5 137q-116 76 -266 76h-625 q-98 0 -184.5 -42t-139.5 -116.5t-54 -163.5v-88h-112q-103 0 -196 -37t-153.5 -110t-60.5 -167v-355zM144 1198q53 41 123.5 64.5t142.5 23.5h112v-46h-204q-98 0 -174 -42zM203 592q0 13 9.5 23.5t21.5 10.5h720v-68h-720q-12 0 -21.5 10.5t-9.5 23.5zM203 774 q0 13 9.5 23.5t21.5 10.5h338q27 -40 59 -68h-397q-12 0 -21.5 10.5t-9.5 23.5zM203 955q0 13 9 23t22 10h204q13 0 22 -10t9 -23t-9 -23t-22 -10h-204q-13 0 -22 10t-9 23zM658 1029v288q0 131 101 231t242 100h625q132 0 219 -95.5t87 -235.5v-288q0 -133 -85.5 -234 t-220.5 -101h-204l-332 -254v207q0 13 -17.5 30t-30.5 17h-41q-138 0 -240.5 99.5t-102.5 235.5zM842 79v229h44v1v-208l-37 -35zM844 978q0 14 10 24t24 10h545q14 0 24.5 -10t10.5 -24t-10.5 -24t-24.5 -10h-545q-14 0 -24 10t-10 24zM844 1160q0 14 10 24t24 10h205 q14 0 24 -10t10 -24t-10 -24t-24 -10h-205q-14 0 -24 10t-10 24zM844 1342q0 14 10 25t24 11h545q14 0 24.5 -11t10.5 -25t-10.5 -25t-24.5 -11h-545q-14 0 -24 11t-10 25zM1185 1160q0 14 10 24t24 10h204q14 0 24.5 -10t10.5 -24t-10.5 -24t-24.5 -10h-204q-14 0 -24 10 t-10 24zM1551 1309q-5 14 1 27t19 17q67 25 120 14.5t83 -53.5q21 -30 22.5 -58.5t-15.5 -52t-29 -34.5t-31 -25q-36 -27 -51 -63q-8 -21 -32 -21q-6 0 -12 3q-13 5 -18.5 18t-0.5 26q22 55 74 92q38 28 45 44.5t-7 31.5q-33 47 -125 14q-14 -5 -26.5 1t-16.5 19zM1604 969 q0 16 11 27.5t27 11.5t27.5 -11.5t11.5 -27.5t-11.5 -27t-27.5 -11t-27 11t-11 27z" />
<glyph unicode="&#xe00f;" d="M119 1431q0 -46 31 -79t75 -33h3v-1199q0 -5 1.5 -13.5t9.5 -30.5t22 -38.5t43 -30t68 -13.5h629h628q39 0 68 13t42.5 31.5t22 37t10.5 31.5l1 13v1199h3q44 0 74.5 35.5t30.5 81.5q0 45 -30 74.5t-75 29.5h-223v271q-1 7 -2.5 18.5t-11.5 40.5t-25 51.5t-45.5 41 t-69.5 18.5h-398h-399q-39 0 -69.5 -17.5t-46 -42.5t-25 -50t-11.5 -43l-2 -17v-271l-224 -3q-45 0 -75 -30.5t-30 -75.5zM448 253v967q0 43 35 72t78 29q42 0 75 -29t33 -72v-967q0 -44 -38.5 -81t-80.5 -37q-40 0 -71 36.5t-31 81.5zM669 1540v140q0 38 25 58t50 21l25 1 h232h231h11t24 -3.5t30 -11t24 -24.5t11 -41v-140h-331h-332zM890 262v967q0 44 34.5 75.5t76.5 31.5q41 0 75.5 -31.5t34.5 -75.5v-967q0 -43 -34.5 -75t-75.5 -32q-42 0 -76.5 32t-34.5 75zM1332 253v967q0 43 34 72t76 29t76.5 -29t34.5 -72v-967q0 -43 -36 -73.5 t-78 -30.5t-74.5 30t-32.5 74z" />
<glyph unicode="&#xe010;" horiz-adv-x="9156" d="M176 1342q17 -102 70 -193t137 -157q62 83 146 137t176 71v18q0 108 57.5 179.5t144.5 94.5q-132 77 -280 77q-49 0 -98 -9q-109 -20 -200.5 -77.5t-152.5 -140.5zM352 604q0 -72 19 -151q125 -68 267 -68q69 0 136 16q-20 73 -20 152q0 181 104 328q-111 119 -142 246 q-199 -74 -299 -262q-65 -123 -65 -261zM586 1659q3 0 9 0.5t10 0.5q113 0 215 -42t178 -117q66 -5 123.5 -40t89.5 -98q35 69 98 99v19q0 118 -48 227t-140 190q-158 140 -370 140q-16 0 -19 2q-145 -159 -145 -376q0 -4 -1 -5zM846 576q0 -120 49 -227q45 -101 122.5 -175 t173.5 -115q95 41 170 115t119 172q-105 43 -182.5 121.5t-118.5 176.5q-148 74 -271 188q-62 -119 -62 -256zM883 344l6 3zM888 347h1l6 2zM925 1490zM1240 1905q137 -145 137 -380q0 -5 -0.5 -15.5t-0.5 -16.5q34 9 69 9h6q67 -2 127 -35t97 -92q80 132 80 287 q0 111 -40 210.5t-112 175.5h-8q-197 0 -355 -143zM1258 652q142 78 247 172q77 -31 175 -31q149 0 279 74q66 -124 66 -262q0 -74 -18 -143q-131 -71 -277 -71q-64 0 -134 17q-107 27 -194.5 90.5t-143.5 153.5zM1566 883q40 -5 72 -5q193 0 343 118q86 68 140 161.5 t70 195.5q-123 161 -327 213q-4 0 -9.5 2t-9.5 3l-1 -4q-26 -168 -133 -285q7 -35 7 -64q0 -169 -152 -335zM1844 1571q5 -1 20 -5q-2 1 -8.5 3t-10.5 3zM2227 83q0 -34 26 -60t58 -26h612q34 0 58.5 25t24.5 59t-24.5 58t-58.5 24h-421l487 575q21 22 21 56q0 38 -27.5 65 t-69.5 27h-602q-34 0 -59 -24t-25 -58t25 -59t59 -25h424l-485 -576q-23 -31 -23 -61zM3123 442q0 -128 63 -236.5t171.5 -171t236.5 -62.5q107 0 209 42t167 112q28 28 28 66q0 25 -16 47q-25 33 -65 33q-32 0 -50 -18q-117 -114 -267 -114q-110 0 -185.5 68.5t-83.5 172.5 h635q30 0 52 18.5t22 46.5q0 199 -129.5 333t-323.5 134q-195 0 -329.5 -137.5t-134.5 -333.5zM3335 522q16 101 83 161.5t169 60.5q100 0 169.5 -63t83.5 -159h-505zM4211 70q0 -42 29 -71t71 -29t72 29t30 71v415q0 109 58.5 178.5t164.5 71.5q106 -2 165 -71.5t59 -178.5 v-415q0 -42 30 -71t72 -29t71 29t29 71v421q0 181 -124.5 303.5t-301.5 122.5t-301 -122.5t-124 -303.5v-421zM5221 442q0 -203 125.5 -337t320.5 -134q96 0 173.5 41.5t120.5 115.5v-48q0 -41 30 -70.5t71 -29.5q42 0 71 29.5t29 70.5v1204q0 41 -29 70t-71 29 q-41 0 -71 -29t-30 -70v-529q-39 72 -118 115t-176 43q-198 0 -322 -133.5t-124 -337.5zM5423 442q0 123 74.5 207.5t194.5 84.5q122 0 195.5 -82.5t73.5 -209.5t-73.5 -209.5t-195.5 -82.5q-120 0 -194.5 84.5t-74.5 207.5zM6342 442q0 -128 63 -236.5t171.5 -171 t236.5 -62.5q107 0 209 42t167 112q29 31 29 66q0 23 -17 47q-25 33 -66 33q-31 0 -49 -18q-117 -114 -267 -114q-110 0 -186 68.5t-84 172.5h636q30 0 51.5 18t21.5 47q0 199 -129 333t-323 134q-195 0 -329.5 -137.5t-134.5 -333.5zM6554 522q15 100 83 161t170 61 q99 0 168 -63t84 -159h-505zM7381 140q0 -49 50 -78q71 -42 160.5 -66t167.5 -24q180 0 283.5 79t103.5 196q0 45 -16 82.5t-42 64.5t-69 52t-86.5 42.5t-105.5 38.5q-137 44 -166 61q-41 24 -41 68q0 90 177 90q118 0 234 -55q14 -7 28 -7q26 0 47.5 14.5t30.5 39.5 q7 18 7 29q0 50 -56 76q-73 35 -143 52.5t-165 17.5q-152 0 -251.5 -68.5t-99.5 -180.5q0 -93 64.5 -156.5t197.5 -108.5q168 -58 217 -85t49 -71q0 -55 -62 -82t-148 -27q-131 0 -253 72q-18 12 -41 12q-45 0 -64 -47q-8 -20 -8 -31zM8356 80q0 -41 29 -70.5t70 -29.5 q42 0 70.5 29t28.5 71v239l102 80l340 -386q29 -34 72 -31q37 2 62.5 27.5t25.5 62.5q0 36 -23 62l-329 378l290 228q37 31 37 72q0 29 -22 58q-32 34 -72 34q-29 0 -56 -20l-427 -331v730q0 42 -28.5 71t-70.5 29q-41 0 -70 -29.5t-29 -70.5v-1203z" />
<glyph unicode="&#x1f44d;" d="M0 336q0 -71 50.5 -121.5t120.5 -50.5h342q70 0 120.5 50.5t50.5 121.5v4q58 -7 100 -31.5t88 -64.5q37 -31 40 -34q59 -46 177 -46h27h460q107 0 178.5 77.5t97.5 180.5l146 581l2 14q0 117 -82 202.5t-195 85.5h-354v318q0 22 -0.5 36.5t-5 43t-12 49t-23.5 45.5 t-38 40.5t-57.5 26.5t-79.5 11q-94 0 -152 -49.5t-68 -139.5q-3 -58 -17 -129.5t-41 -155t-77 -148.5t-114 -84v193q0 70 -50 120.5t-121 50.5h-342q-71 0 -121 -50.5t-50 -120.5v-1026zM114 336v1026q0 23 17 40t40 17h342q23 0 40 -17t17 -40v-1026q0 -23 -17 -40.5 t-40 -17.5h-342q-23 0 -40 17.5t-17 40.5zM684 457v595q67 12 123 52.5t92 93t64.5 119.5t43.5 123.5t25 115t12 83t3 38.5q5 39 26.5 61.5t79.5 22.5q64 0 83 -30.5t19 -107.5v-387q-7 -17 -18.5 -35.5t-40.5 -44.5t-64 -36q-23 -7 -34 -27.5t-4 -42.5q5 -19 20 -30t34 -11 q12 0 17 2q44 13 80 37.5t59 53.5t35.5 50t20.5 41q2 0 5 -1t4 -1h354q64 0 112 -49.5t51 -117.5l-145 -574q-17 -69 -60 -120.5t-105 -51.5h-462q-101 -2 -133 23l-18 15t-15 13q-28 25 -47.5 39.5t-54.5 36.5t-75.5 35t-86.5 17z" />
<glyph unicode="&#x1f44e;" d="M0 1042q0 -73 35.5 -143t100.5 -116.5t141 -46.5h405l-51 -322q0 -118 63 -185t173 -67q117 0 183 73q24 26 37 59.5t10 57.5q3 64 15 142t35.5 170.5t67.5 167.5t101 105v-258q0 -71 50 -121t121 -50h342q71 0 121 50t50 121v1026q0 71 -50 121t-121 50h-342 q-70 0 -119.5 -48.5t-51.5 -117.5q-56 9 -97.5 34.5t-86.5 66.5q-29 27 -43 37q-19 15 -48.5 21.5t-53 7.5t-73.5 0l-490 -1q-98 0 -173 -67.5t-103 -180.5l-146 -572zM114 1035l145 565q16 67 58.5 114.5t106.5 47.5l492 1q89 2 103 -5q21 -17 36 -31q38 -34 65 -55 t82 -46.5t114 -31.5v-535q-62 -18 -114 -65.5t-85 -106.5t-59 -133.5t-39.5 -137.5t-22 -127.5t-11 -93.5t-2.5 -46q0 -19 -20 -40q-33 -33 -96 -33q-53 0 -87 26.5t-35 102.5l52 331h62q24 0 41 16.5t17 40.5t-17 40.5t-41 16.5h-582q-63 0 -111.5 58.5t-51.5 126.5z M1430 679v1026q0 23 17 40t40 17h342q23 0 40 -17t17 -40v-1026q0 -23 -17 -40t-40 -17h-342q-23 0 -40 17t-17 40z" />
<glyph unicode="&#x1f4ac;" d="M0 1008q5 -148 81 -272t203 -196t276 -72h66v-473l460 473h354h4q152 0 281 75t204 204t75 281q0 38 -4 67v313q0 152 -75 281t-204 204t-281 75h-880q-152 0 -281 -75t-204 -204t-75 -281v-400z" />
<glyph unicode="&#x1f4e7;" d="M0 647v750q0 90 46 175l874 -724q35 -29 80 -29t80 29l874 724q46 -85 46 -175v-750q0 -155 -110 -265t-265 -110h-1250q-155 0 -265 110t-110 265zM231 1743l769 -637l769 637q-71 29 -144 29h-1250q-73 0 -144 -29z" />
<glyph unicode="&#x1f507;" d="M0 858q0 -45 16 -77.5t38 -46t44.5 -21t38.5 -7.5h16h142q40 0 77 -10.5t61.5 -25t43.5 -29t28 -25.5l9 -10q141 -149 235 -266q26 -33 53 -45t47 -5.5t36 17t25 21.5l8 12v1366q-3 5 -8.5 12t-23.5 21t-37 18.5t-46.5 -7t-53.5 -44.5q-42 -52 -100.5 -119t-96.5 -107 l-38 -41q-3 -4 -9 -11t-27 -24t-44.5 -30t-61 -24t-77.5 -11h-142h-16.5t-37 -7t-46.5 -21t-36.5 -46t-16.5 -77v-330zM1112 685.5q0 -42.5 31 -73.5t73.5 -31t73.5 31l263 263l264 -263q31 -31 73.5 -31t73.5 31t31 73.5t-31 73.5l-263 264l263 263q31 31 31 73.5t-31 73.5 t-73.5 31t-73.5 -31l-264 -263l-263 263q-31 31 -73.5 31t-73.5 -31t-31 -73.5t31 -73.5l263 -263l-263 -264q-31 -31 -31 -73.5z" />
<glyph unicode="&#x1f50a;" d="M0 858q0 -45 16 -77.5t38 -46t44.5 -21t38.5 -7.5h16h142q40 0 77 -10.5t61.5 -25t43.5 -29t28 -25.5l9 -10q141 -149 235 -266q26 -33 53 -45t47 -5.5t36 17t25 21.5l8 12v1366q-3 5 -8.5 12t-23.5 21t-37 18.5t-46.5 -7t-53.5 -44.5q-42 -52 -100.5 -119t-96.5 -107 l-38 -41q-3 -4 -9 -11t-27 -24t-44.5 -30t-61 -24t-77.5 -11h-142h-16.5t-37 -7t-46.5 -21t-36.5 -46t-16.5 -77v-330zM1111.5 672q0.5 -16 7.5 -35.5t21.5 -33.5t44.5 -25t71 -12q12 6 32 18t71.5 54.5t90.5 91t71 126.5t32 162q0 61 -17 119.5t-44 103t-59.5 84.5 t-65.5 67.5t-60 47.5t-44 30l-17 9q-2 0 -6 -0.5t-16 -3.5t-23.5 -6.5t-25.5 -11t-25.5 -16.5t-21 -23.5t-14 -31.5t-3 -40.5t11.5 -50.5q8 -3 20 -9.5t44 -30t56.5 -52t44.5 -77.5t20 -105t-19 -105.5t-46 -80.5t-54.5 -54t-46.5 -33l-19 -10q-1 -3 -3.5 -9t-5.5 -23.5 t-2.5 -33.5zM1374.5 1651.5q0.5 -28.5 14.5 -64.5q8 -3 22 -10t53.5 -31.5t76 -53.5t81 -77.5t76 -102t53.5 -128t22 -154.5t-21 -155.5t-55 -131t-75 -104t-82 -81t-75 -56.5t-55 -34l-21 -11q-2 -3 -4 -8.5t-6 -22t-4 -32t6 -34.5t20 -33t42.5 -25.5t68.5 -14.5 q10 4 27.5 12t68.5 38.5t97 67t102 99.5t96.5 134t68.5 172t28 212t-27 212t-70 173t-95 133t-104 100t-95 67t-70 39l-27 12h-10.5t-25 -3t-34.5 -9t-33 -18.5t-26 -30t-8.5 -46z" />
</font>
</defs>
</svg>
